<?xml version="1.0" encoding="UTF-8" standalone="no"?>
<!-- Created with Inkscape (http://www.inkscape.org/) -->

<svg
   width="22"
   version="1.1"
   height="22"
   id="svg1"
   sodipodi:docname="start-here-kde-plasma-symbolic.svg"
   inkscape:version="1.3.2 (091e20ef0f, 2023-11-25)"
   xmlns:inkscape="http://www.inkscape.org/namespaces/inkscape"
   xmlns:sodipodi="http://sodipodi.sourceforge.net/DTD/sodipodi-0.dtd"
   xmlns="http://www.w3.org/2000/svg"
   xmlns:svg="http://www.w3.org/2000/svg">
  <sodipodi:namedview
     id="namedview1"
     pagecolor="#ffffff"
     bordercolor="#999999"
     borderopacity="1"
     inkscape:showpageshadow="2"
     inkscape:pageopacity="0"
     inkscape:pagecheckerboard="0"
     inkscape:deskcolor="#d1d1d1"
     inkscape:zoom="2.9765625"
     inkscape:cx="11.422572"
     inkscape:cy="10.750656"
     inkscape:window-width="1920"
     inkscape:window-height="994"
     inkscape:window-x="0"
     inkscape:window-y="0"
     inkscape:window-maximized="1"
     inkscape:current-layer="layer1" />
  <defs
     id="defs5455" />
  <metadata
     id="metadata5458" />
  <g
     inkscape:label="Capa 1"
     inkscape:groupmode="layer"
     id="layer1"
     transform="translate(-416.57143,-726.798)">
    <flowRoot
       line-height="125%"
       style="font-size:32.5px;font-family:sans-serif"
       id="flowRoot4170"><flowRegion
         id="flowRegion4172"><rect
           width="87.75001"
           x="452.32144"
           y="489.79807"
           height="48.750004"
           id="rect4174" /></flowRegion><flowPara
         id="flowPara4176">Plasm</flowPara></flowRoot>
    <g
       id="22-22-start-here-kde-7"
       transform="translate(416.57143,726.798)">
      <rect
         style="fill:none;fill-opacity:1;stroke:none"
         id="rect4150-5"
         width="22"
         height="22"
         x="0"
         y="0" />
      <path
         d="M 6.8857099,3.00062 C 5.9691149,4.108472 5.3672645,5.331493 4.9993539,6.642266 4.8866438,7.044456 4.8334727,7.448472 4.8866438,7.865288 c 0.053172,0.41864 0.2828429,0.755021 0.5890827,1.067631 0.5082774,0.519191 1.0931121,0.976219 1.6481664,1.453367 1.4291225,1.232164 2.8157067,2.497231 4.1959231,3.769612 0.748581,0.687384 1.550339,1.332717 2.337201,1.990839 0.123354,0.102375 0.112722,0.148088 0,0.250457 -0.93786,0.839112 -1.871467,1.685544 -2.800822,2.533792 -0.09782,0.08775 -0.150987,0.09327 -0.250939,0.0087 -0.9357395,-0.782446 -1.8736041,-1.561224 -2.8157142,-2.336355 -0.076539,-0.06211 -0.0702,-0.09327 0,-0.148085 0.5508042,-0.438751 1.0994847,-0.877501 1.6460413,-1.319913 0.070206,-0.05844 0.1190953,-0.05677 0.1871471,0 0.2445722,0.195607 0.4891338,0.391227 0.7422088,0.579521 0.08718,0.06398 0.06801,0.100543 0,0.162702 l -0.5337915,0.506395 c -0.0723,0.06589 -0.076516,0.104203 0.00859,0.166364 0.2530725,0.188293 0.4997675,0.382081 0.7422015,0.577685 0.07229,0.0585 0.119088,0.07127 0.195661,-0.0041 0.295589,-0.288847 0.595464,-0.57221 0.901708,-0.851913 0.08295,-0.07493 0.06801,-0.115173 -0.0061,-0.186469 -0.41278,-0.389395 -0.835981,-0.767817 -1.26344,-1.142588 C 9.5654879,14.206299 8.7233235,13.464076 7.8301263,12.771211 6.8752113,12.029053 5.8799249,11.330703 4.8867753,10.628701 4.4465768,10.319763 4.0148653,10.007154 3.6086707,9.663463 3.451297,9.530008 3.310936,9.383755 3.1854594,9.226539 3.0280932,9.030928 2.9642924,8.822522 3.0195855,8.581209 3.4619274,6.703715 4.5167592,5.104092 6.0203171,3.71106 6.164925,3.575774 6.3180503,3.44598 6.4732908,3.318002 6.6137782,3.206582 6.7498869,3.1042 6.8859958,3 Z m 8.2493431,0.0403 c 0.187157,0.08958 0.29136,0.197436 0.408324,0.294328 1.416364,1.186458 2.481826,2.566702 3.109186,4.186429 0.142491,0.363799 0.250956,0.734911 0.333894,1.113334 0.03403,0.159048 0.0028,0.299812 -0.08083,0.438755 -0.240314,0.405842 -0.627363,0.705658 -1.020803,0.992678 -0.969757,0.711141 -1.958656,1.40035 -2.922036,2.113324 -0.79325,0.58683 -1.554595,1.204741 -2.288303,1.846415 -0.0319,0.02748 -0.06809,0.05118 -0.09352,0.08229 -0.112725,0.131626 -0.199915,0.120653 -0.32113,-0.0087 -0.199906,-0.210237 -0.423202,-0.402189 -0.642251,-0.595974 -0.07231,-0.06398 -0.07446,-0.102375 -0.0029,-0.171844 1.163289,-1.074941 2.320192,-2.155371 3.545153,-3.180954 0.4827,-0.404017 0.954823,-0.817178 1.401425,-1.252271 0.533794,-0.51919 0.663514,-1.12979 0.538047,-1.77695 -0.276469,-1.457021 -0.922971,-2.791562 -1.914008,-3.999955 -0.0108,-0.01091 -0.01703,-0.02559 -0.05109,-0.08048 z m -1.856575,7.751288 c -0.0092,-0.557579 -0.06584,-1.076767 -0.667773,-1.404005 1.81617,-0.762332 2.715749,-2.120637 3.317603,-3.712945 0.431711,1.131618 0.546555,2.190108 -0.427464,3.149881 -0.684788,0.672751 -1.424861,1.299804 -2.152192,1.93782 -0.01275,0.0087 -0.03189,0.0109 -0.07025,0.02926 z M 9.3951782,9.386366 C 8.7912035,9.72457 8.7359105,10.245588 8.7146466,10.814136 8.6061829,10.717266 8.5274937,10.644125 8.4445522,10.574653 7.8490854,10.053638 7.2557519,9.528961 6.6709195,8.995143 5.7713356,8.177968 5.571425,7.240134 5.9031867,6.185301 c 0.04896,-0.14991 0.097824,-0.301641 0.1488675,-0.451547 0.00218,-0.008 0.019155,-0.0128 0.038311,-0.0275 C 6.6858335,7.26017 7.5705261,8.622127 9.395218,9.386289 Z M 13.157263,8.406485 c 0.142476,-0.389395 0.06583,-0.738566 -0.204169,-1.065801 -0.0553,-0.06951 -0.195651,-0.122485 -0.161625,-0.199268 0.02758,-0.0621 0.163755,-0.08772 0.250942,-0.131627 1.095232,-0.544783 1.850207,-1.318081 2.186229,-2.376577 0.0299,-0.09326 0.04459,-0.186466 0.068,-0.292498 0.114844,0.184642 0.155252,0.586831 0.10847,0.868364 -0.123353,0.749533 -0.521047,1.391212 -1.020803,1.99815 -0.353032,0.435099 -0.757097,0.835455 -1.227089,1.199257 z m -4.2895,0.0081 C 8.5530154,8.196905 8.2935599,7.942796 8.040489,7.679542 7.5258379,7.147553 7.087738,6.575353 6.8048941,5.924534 6.6007344,5.447392 6.5348094,4.95745 6.6411372,4.456545 c 0.00589,-0.02749 0.012803,-0.05308 0.023459,-0.07865 0.00589,-0.01471 0.014866,-0.02928 0.034007,-0.06398 0.057398,0.226689 0.1063263,0.438756 0.193521,0.639848 0.4083198,0.95063 1.1675414,1.630699 2.1819616,2.115152 0.1254773,0.05842 0.1680069,0.09871 0.053189,0.20292 C 8.7912612,7.586276 8.7189503,7.955561 8.8444229,8.357747 Z"
         id="path2986-3"
         style="fill:#e5e9ef;fill-opacity:1;stroke-width:0.0197169" />
    </g>
  </g>
</svg>
