<?xml version='1.0' encoding='utf-8'?>
<mlt LC_NUMERIC="C" producer="main_bin" root="/home/vir0id/Загрузки/GimpArtCraftFromLatvia/blender/projects/LUMAEU/Render" version="7.32.0">
 <profile colorspace="709" description="HD 1080p 24 fps" display_aspect_den="9" display_aspect_num="16" frame_rate_den="1" frame_rate_num="24" height="1080" progressive="1" sample_aspect_den="1" sample_aspect_num="1" width="1920"/>
 <chain id="chain3" out="00:00:12.500">
  <property name="length">301</property>
  <property name="eof">pause</property>
  <property name="resource">LUMA0000-0300.mp4</property>
  <property name="mlt_service">avformat-novalidate</property>
  <property name="meta.media.nb_streams">1</property>
  <property name="meta.media.0.stream.type">video</property>
  <property name="meta.media.0.stream.frame_rate">24</property>
  <property name="meta.media.0.stream.sample_aspect_ratio">1</property>
  <property name="meta.media.0.codec.width">1920</property>
  <property name="meta.media.0.codec.height">1080</property>
  <property name="meta.media.0.codec.rotate">0</property>
  <property name="meta.media.0.codec.pix_fmt">yuv420p</property>
  <property name="meta.media.0.codec.sample_aspect_ratio">1</property>
  <property name="meta.media.0.codec.colorspace">709</property>
  <property name="meta.media.0.codec.color_trc">1</property>
  <property name="meta.media.0.codec.name">h264</property>
  <property name="meta.media.0.codec.long_name">H.264 / AVC / MPEG-4 AVC / MPEG-4 part 10</property>
  <property name="meta.media.0.codec.bit_rate">5837464</property>
  <property name="meta.attr.0.stream.handler_name.markup">VideoHandler</property>
  <property name="meta.attr.0.stream.vendor_id.markup">[0][0][0][0]</property>
  <property name="meta.attr.major_brand.markup">isom</property>
  <property name="meta.attr.minor_version.markup">512</property>
  <property name="meta.attr.compatible_brands.markup">isomiso2avc1mp41</property>
  <property name="meta.attr.date.markup">2025/06/09 17:10:20</property>
  <property name="meta.attr.encoder.markup">Lavf61.7.100</property>
  <property name="seekable">1</property>
  <property name="meta.media.sample_aspect_num">1</property>
  <property name="meta.media.sample_aspect_den">1</property>
  <property name="format">3</property>
  <property name="audio_index">-1</property>
  <property name="video_index">0</property>
  <property name="vstream">0</property>
  <property name="meta.media.frame_rate_num">24</property>
  <property name="meta.media.frame_rate_den">1</property>
  <property name="meta.media.colorspace">709</property>
  <property name="meta.media.color_trc">1</property>
  <property name="meta.media.has_b_frames">0</property>
  <property name="meta.media.width">1920</property>
  <property name="meta.media.height">1080</property>
  <property name="meta.media.aspect_ratio">1</property>
  <property name="meta.media.color_range">mpeg</property>
  <property name="meta.media.top_field_first">0</property>
  <property name="meta.media.progressive">1</property>
  <property name="kdenlive:control_uuid">{070f5480-1258-4b6b-b79b-6a2eaeb3787b}</property>
  <property name="kdenlive:id">4</property>
  <property name="kdenlive:clip_type">2</property>
  <property name="kdenlive:file_size">9153782</property>
  <property name="kdenlive:file_hash">1fecb53eeee67e2863a2b8da6ad5aa34</property>
  <property name="kdenlive:folderid">-1</property>
  <property name="kdenlive:monitorPosition">46</property>
  <property name="mute_on_pause">0</property>
 </chain>
 <chain id="chain4" out="00:00:04.958">
  <property name="length">120</property>
  <property name="eof">pause</property>
  <property name="resource">/home/vir0id/Загрузки/GimpArtCraftFromLatvia/blender/projects/LUMAEU/Effects/Office_Chair.wav</property>
  <property name="mlt_service">avformat</property>
  <property name="meta.media.nb_streams">1</property>
  <property name="meta.media.0.stream.type">audio</property>
  <property name="meta.media.0.codec.sample_fmt">s32</property>
  <property name="meta.media.0.codec.sample_rate">48000</property>
  <property name="meta.media.0.codec.channels">2</property>
  <property name="meta.media.0.codec.layout">independent</property>
  <property name="meta.media.0.codec.name">pcm_s24le</property>
  <property name="meta.media.0.codec.long_name">PCM signed 24-bit little-endian</property>
  <property name="meta.media.0.codec.bit_rate">2304000</property>
  <property name="meta.attr.encoded_by.markup">REAPER</property>
  <property name="meta.attr.date.markup">2019-11-08</property>
  <property name="meta.attr.creation_time.markup">17-15-57</property>
  <property name="meta.attr.time_reference.markup">0</property>
  <property name="seekable">1</property>
  <property name="audio_index">0</property>
  <property name="video_index">-1</property>
  <property name="astream">0</property>
  <property name="kdenlive:folderid">-1</property>
  <property name="kdenlive:id">5</property>
  <property name="kdenlive:control_uuid">{b0cbf74f-d5af-4297-9296-97e5c6d449b8}</property>
  <property name="kdenlive:clip_type">1</property>
  <property name="kdenlive:file_size">1440736</property>
  <property name="kdenlive:file_hash">fef26f00ab426b75de3d230b2198deee</property>
  <property name="kdenlive:monitorPosition">0</property>
 </chain>
 <chain id="chain5" out="00:00:15.917">
  <property name="length">383</property>
  <property name="eof">pause</property>
  <property name="resource">/home/vir0id/Загрузки/GimpArtCraftFromLatvia/blender/projects/LUMAEU/Effects/173018__ninebilly__wood-door.wav</property>
  <property name="mlt_service">avformat</property>
  <property name="meta.media.nb_streams">1</property>
  <property name="meta.media.0.stream.type">audio</property>
  <property name="meta.media.0.codec.sample_fmt">s32</property>
  <property name="meta.media.0.codec.sample_rate">48000</property>
  <property name="meta.media.0.codec.channels">2</property>
  <property name="meta.media.0.codec.layout">independent</property>
  <property name="meta.media.0.codec.name">pcm_s24le</property>
  <property name="meta.media.0.codec.long_name">PCM signed 24-bit little-endian</property>
  <property name="meta.media.0.codec.bit_rate">2304000</property>
  <property name="meta.attr.encoded_by.markup">Pro Tools</property>
  <property name="meta.attr.originator_reference.markup">Xy1fxdGkFLgaaaGk</property>
  <property name="meta.attr.date.markup">2013-01-02</property>
  <property name="meta.attr.creation_time.markup">23:36:34</property>
  <property name="meta.attr.time_reference.markup">172800000</property>
  <property name="seekable">1</property>
  <property name="audio_index">0</property>
  <property name="video_index">-1</property>
  <property name="astream">0</property>
  <property name="kdenlive:folderid">-1</property>
  <property name="kdenlive:id">6</property>
  <property name="kdenlive:control_uuid">{8f0a45ba-bc1b-403c-9c6c-0ca9e0746345}</property>
  <property name="kdenlive:clip_type">1</property>
  <property name="kdenlive:file_size">4596880</property>
  <property name="kdenlive:file_hash">6d63c619ecfc9e6c5a7845f714762667</property>
  <property name="kdenlive:monitorPosition">0</property>
 </chain>
 <chain id="chain6" out="00:00:08.167">
  <property name="length">197</property>
  <property name="eof">pause</property>
  <property name="resource">/home/vir0id/Загрузки/GimpArtCraftFromLatvia/blender/projects/LUMAEU/Effects/389679__shamewap__falling-sticks.wav</property>
  <property name="mlt_service">avformat</property>
  <property name="meta.media.nb_streams">1</property>
  <property name="meta.media.0.stream.type">audio</property>
  <property name="meta.media.0.codec.sample_fmt">s32</property>
  <property name="meta.media.0.codec.sample_rate">48000</property>
  <property name="meta.media.0.codec.channels">1</property>
  <property name="meta.media.0.codec.layout">mono</property>
  <property name="meta.media.0.codec.name">pcm_s24le</property>
  <property name="meta.media.0.codec.long_name">PCM signed 24-bit little-endian</property>
  <property name="meta.media.0.codec.bit_rate">1152000</property>
  <property name="meta.attr.encoded_by.markup">Pro Tools</property>
  <property name="meta.attr.originator_reference.markup">8l9nivDjaoeaaaGk</property>
  <property name="meta.attr.date.markup">2017-04-25</property>
  <property name="meta.attr.creation_time.markup">18:37:55</property>
  <property name="meta.attr.time_reference.markup">1577984</property>
  <property name="seekable">1</property>
  <property name="audio_index">0</property>
  <property name="video_index">-1</property>
  <property name="astream">0</property>
  <property name="kdenlive:folderid">-1</property>
  <property name="kdenlive:id">7</property>
  <property name="kdenlive:control_uuid">{8ef498ae-bd79-4aac-8731-7f03688bd091}</property>
  <property name="kdenlive:clip_type">1</property>
  <property name="kdenlive:file_size">1190572</property>
  <property name="kdenlive:file_hash">434beeb5e01da6a85c2e9f816e3dda56</property>
  <property name="kdenlive:monitorPosition">0</property>
 </chain>
 <chain id="chain7" out="00:00:33.583">
  <property name="length">807</property>
  <property name="eof">pause</property>
  <property name="resource">/home/vir0id/Загрузки/GimpArtCraftFromLatvia/blender/projects/LUMAEU/Effects/246408379-shiny-magic-bells-pack-02.m4a</property>
  <property name="mlt_service">avformat</property>
  <property name="meta.media.nb_streams">1</property>
  <property name="meta.media.0.stream.type">audio</property>
  <property name="meta.media.0.codec.sample_fmt">fltp</property>
  <property name="meta.media.0.codec.sample_rate">44100</property>
  <property name="meta.media.0.codec.channels">2</property>
  <property name="meta.media.0.codec.layout">stereo</property>
  <property name="meta.media.0.codec.name">aac</property>
  <property name="meta.media.0.codec.long_name">AAC (Advanced Audio Coding)</property>
  <property name="meta.media.0.codec.bit_rate">129922</property>
  <property name="meta.attr.0.stream.handler_name.markup">SoundHandler</property>
  <property name="meta.attr.0.stream.vendor_id.markup">[0][0][0][0]</property>
  <property name="meta.attr.major_brand.markup">M4A </property>
  <property name="meta.attr.minor_version.markup">512</property>
  <property name="meta.attr.compatible_brands.markup">M4A isomiso2</property>
  <property name="meta.attr.encoder.markup">Lavf60.3.100</property>
  <property name="seekable">1</property>
  <property name="audio_index">0</property>
  <property name="video_index">-1</property>
  <property name="astream">0</property>
  <property name="kdenlive:folderid">-1</property>
  <property name="kdenlive:id">8</property>
  <property name="kdenlive:control_uuid">{29b935aa-5247-4a53-bcde-aa5f88a4823e}</property>
  <property name="kdenlive:clip_type">1</property>
  <property name="kdenlive:file_size">553290</property>
  <property name="kdenlive:file_hash">ef1f334d3efb082b2426146b15cc38bf</property>
  <property name="kdenlive:monitorPosition">0</property>
 </chain>
 <chain id="chain8" out="00:02:35.583">
  <property name="length">3735</property>
  <property name="eof">pause</property>
  <property name="resource">/home/vir0id/Загрузки/GimpArtCraftFromLatvia/blender/projects/LUMAEU/Effects/Modern Inspiring Music For Presentation ｜ Inspirational Corporate Ambient - by AShamaluevMusic.mp3</property>
  <property name="mlt_service">avformat</property>
  <property name="meta.media.nb_streams">1</property>
  <property name="meta.media.0.stream.type">audio</property>
  <property name="meta.media.0.codec.sample_fmt">fltp</property>
  <property name="meta.media.0.codec.sample_rate">48000</property>
  <property name="meta.media.0.codec.channels">2</property>
  <property name="meta.media.0.codec.layout">stereo</property>
  <property name="meta.media.0.codec.name">mp3float</property>
  <property name="meta.media.0.codec.long_name">MP3 (MPEG audio layer 3)</property>
  <property name="meta.media.0.codec.bit_rate">260863</property>
  <property name="meta.attr.0.stream.encoder.markup">Lavc61.19</property>
  <property name="meta.attr.encoder.markup">Lavf61.7.100</property>
  <property name="seekable">1</property>
  <property name="audio_index">0</property>
  <property name="video_index">-1</property>
  <property name="astream">0</property>
  <property name="kdenlive:folderid">-1</property>
  <property name="kdenlive:id">9</property>
  <property name="kdenlive:control_uuid">{cdf8fd12-9426-4db6-a7a2-2f9e4ba1d4e5}</property>
  <property name="kdenlive:clip_type">1</property>
  <property name="kdenlive:file_size">5075132</property>
  <property name="kdenlive:file_hash">78129629c836048a5278e74cb3da008a</property>
 </chain>
 <chain id="chain1" out="00:00:12.458">
  <property name="length">300</property>
  <property name="eof">pause</property>
  <property name="resource">LUMA0001-0300.mp4</property>
  <property name="mlt_service">avformat-novalidate</property>
  <property name="meta.media.nb_streams">1</property>
  <property name="meta.media.0.stream.type">video</property>
  <property name="meta.media.0.stream.frame_rate">24</property>
  <property name="meta.media.0.stream.sample_aspect_ratio">1</property>
  <property name="meta.media.0.codec.width">1920</property>
  <property name="meta.media.0.codec.height">1080</property>
  <property name="meta.media.0.codec.rotate">0</property>
  <property name="meta.media.0.codec.pix_fmt">yuv420p</property>
  <property name="meta.media.0.codec.sample_aspect_ratio">1</property>
  <property name="meta.media.0.codec.colorspace">709</property>
  <property name="meta.media.0.codec.color_trc">1</property>
  <property name="meta.media.0.codec.name">h264</property>
  <property name="meta.media.0.codec.long_name">H.264 / AVC / MPEG-4 AVC / MPEG-4 part 10</property>
  <property name="meta.media.0.codec.bit_rate">5621752</property>
  <property name="meta.attr.0.stream.handler_name.markup">VideoHandler</property>
  <property name="meta.attr.0.stream.vendor_id.markup">[0][0][0][0]</property>
  <property name="meta.attr.major_brand.markup">isom</property>
  <property name="meta.attr.minor_version.markup">512</property>
  <property name="meta.attr.compatible_brands.markup">isomiso2avc1mp41</property>
  <property name="meta.attr.date.markup">2025/06/11 19:34:02</property>
  <property name="meta.attr.encoder.markup">Lavf61.7.100</property>
  <property name="seekable">1</property>
  <property name="meta.media.sample_aspect_num">1</property>
  <property name="meta.media.sample_aspect_den">1</property>
  <property name="format">3</property>
  <property name="audio_index">-1</property>
  <property name="video_index">0</property>
  <property name="vstream">0</property>
  <property name="meta.media.frame_rate_num">24</property>
  <property name="meta.media.frame_rate_den">1</property>
  <property name="meta.media.colorspace">709</property>
  <property name="meta.media.color_trc">1</property>
  <property name="meta.media.has_b_frames">0</property>
  <property name="meta.media.width">1920</property>
  <property name="meta.media.height">1080</property>
  <property name="meta.media.aspect_ratio">1</property>
  <property name="meta.media.color_range">mpeg</property>
  <property name="meta.media.top_field_first">0</property>
  <property name="meta.media.progressive">1</property>
  <property name="kdenlive:folderid">-1</property>
  <property name="kdenlive:id">10</property>
  <property name="kdenlive:control_uuid">{2b5f9dd3-3da3-4694-af15-de782c9472ee}</property>
  <property name="mute_on_pause">0</property>
  <property name="kdenlive:clip_type">2</property>
  <property name="kdenlive:file_size">8786349</property>
  <property name="kdenlive:file_hash">3cf84da40f51248e6a18ee354b12035f</property>
  <property name="kdenlive:monitorPosition">0</property>
 </chain>
 <chain id="chain9" out="00:00:12.458">
  <property name="length">300</property>
  <property name="eof">pause</property>
  <property name="resource">LUMAEU_v30001-0300.mp4</property>
  <property name="mlt_service">avformat-novalidate</property>
  <property name="meta.media.nb_streams">1</property>
  <property name="meta.media.0.stream.type">video</property>
  <property name="meta.media.0.stream.frame_rate">24</property>
  <property name="meta.media.0.stream.sample_aspect_ratio">1</property>
  <property name="meta.media.0.codec.width">1920</property>
  <property name="meta.media.0.codec.height">1080</property>
  <property name="meta.media.0.codec.rotate">0</property>
  <property name="meta.media.0.codec.pix_fmt">yuv420p</property>
  <property name="meta.media.0.codec.sample_aspect_ratio">1</property>
  <property name="meta.media.0.codec.colorspace">709</property>
  <property name="meta.media.0.codec.color_trc">1</property>
  <property name="meta.media.0.codec.name">h264</property>
  <property name="meta.media.0.codec.long_name">H.264 / AVC / MPEG-4 AVC / MPEG-4 part 10</property>
  <property name="meta.media.0.codec.bit_rate">12228005</property>
  <property name="meta.attr.0.stream.handler_name.markup">VideoHandler</property>
  <property name="meta.attr.0.stream.vendor_id.markup">[0][0][0][0]</property>
  <property name="meta.attr.major_brand.markup">isom</property>
  <property name="meta.attr.minor_version.markup">512</property>
  <property name="meta.attr.compatible_brands.markup">isomiso2avc1mp41</property>
  <property name="meta.attr.date.markup">2025/06/12 19:22:35</property>
  <property name="meta.attr.encoder.markup">Lavf61.7.100</property>
  <property name="seekable">1</property>
  <property name="meta.media.sample_aspect_num">1</property>
  <property name="meta.media.sample_aspect_den">1</property>
  <property name="format">3</property>
  <property name="audio_index">-1</property>
  <property name="video_index">0</property>
  <property name="vstream">0</property>
  <property name="meta.media.frame_rate_num">24</property>
  <property name="meta.media.frame_rate_den">1</property>
  <property name="meta.media.colorspace">709</property>
  <property name="meta.media.color_trc">1</property>
  <property name="meta.media.has_b_frames">0</property>
  <property name="meta.media.width">1920</property>
  <property name="meta.media.height">1080</property>
  <property name="meta.media.aspect_ratio">1</property>
  <property name="meta.media.color_range">mpeg</property>
  <property name="meta.media.top_field_first">0</property>
  <property name="meta.media.progressive">1</property>
  <property name="kdenlive:folderid">-1</property>
  <property name="kdenlive:id">11</property>
  <property name="kdenlive:control_uuid">{22079b31-da7b-42a3-bedf-6d63e7f26bc6}</property>
  <property name="mute_on_pause">0</property>
  <property name="kdenlive:clip_type">2</property>
  <property name="kdenlive:file_size">19108742</property>
  <property name="kdenlive:file_hash">b120a62f7be5d37ce24a39fd714d5c35</property>
 </chain>
 <chain id="chain10" out="00:00:12.458">
  <property name="length">300</property>
  <property name="eof">pause</property>
  <property name="resource">/home/vir0id/Видео/Luma_dress0001-0300.mp4</property>
  <property name="mlt_service">avformat-novalidate</property>
  <property name="meta.media.nb_streams">1</property>
  <property name="meta.media.0.stream.type">video</property>
  <property name="meta.media.0.stream.frame_rate">24</property>
  <property name="meta.media.0.stream.sample_aspect_ratio">1</property>
  <property name="meta.media.0.codec.width">1920</property>
  <property name="meta.media.0.codec.height">1080</property>
  <property name="meta.media.0.codec.rotate">0</property>
  <property name="meta.media.0.codec.pix_fmt">yuv420p</property>
  <property name="meta.media.0.codec.sample_aspect_ratio">1</property>
  <property name="meta.media.0.codec.colorspace">709</property>
  <property name="meta.media.0.codec.color_trc">1</property>
  <property name="meta.media.0.codec.name">h264</property>
  <property name="meta.media.0.codec.long_name">H.264 / AVC / MPEG-4 AVC / MPEG-4 part 10</property>
  <property name="meta.media.0.codec.bit_rate">14723900</property>
  <property name="meta.attr.0.stream.handler_name.markup">VideoHandler</property>
  <property name="meta.attr.0.stream.vendor_id.markup">[0][0][0][0]</property>
  <property name="meta.attr.major_brand.markup">isom</property>
  <property name="meta.attr.minor_version.markup">512</property>
  <property name="meta.attr.compatible_brands.markup">isomiso2avc1mp41</property>
  <property name="meta.attr.date.markup">2025/06/16 07:42:51</property>
  <property name="meta.attr.encoder.markup">Lavf61.7.100</property>
  <property name="seekable">1</property>
  <property name="meta.media.sample_aspect_num">1</property>
  <property name="meta.media.sample_aspect_den">1</property>
  <property name="format">3</property>
  <property name="audio_index">-1</property>
  <property name="video_index">0</property>
  <property name="vstream">0</property>
  <property name="meta.media.frame_rate_num">24</property>
  <property name="meta.media.frame_rate_den">1</property>
  <property name="meta.media.colorspace">709</property>
  <property name="meta.media.color_trc">1</property>
  <property name="meta.media.has_b_frames">0</property>
  <property name="meta.media.width">1920</property>
  <property name="meta.media.height">1080</property>
  <property name="meta.media.aspect_ratio">1</property>
  <property name="meta.media.color_range">mpeg</property>
  <property name="meta.media.top_field_first">0</property>
  <property name="meta.media.progressive">1</property>
  <property name="kdenlive:folderid">-1</property>
  <property name="kdenlive:id">12</property>
  <property name="kdenlive:control_uuid">{c88b3905-dc0a-45c4-8a00-24347673f26a}</property>
  <property name="mute_on_pause">0</property>
  <property name="kdenlive:clip_type">2</property>
  <property name="kdenlive:file_size">23008627</property>
  <property name="kdenlive:file_hash">02fc363fd917d41f3850ee92d760ab9d</property>
 </chain>
 <chain id="chain11" out="00:00:12.458">
  <property name="length">300</property>
  <property name="eof">pause</property>
  <property name="resource">/home/vir0id/Видео/luma_v70001-0300.mp4</property>
  <property name="mlt_service">avformat-novalidate</property>
  <property name="meta.media.nb_streams">1</property>
  <property name="meta.media.0.stream.type">video</property>
  <property name="meta.media.0.stream.frame_rate">24</property>
  <property name="meta.media.0.stream.sample_aspect_ratio">1</property>
  <property name="meta.media.0.codec.width">1920</property>
  <property name="meta.media.0.codec.height">1080</property>
  <property name="meta.media.0.codec.rotate">0</property>
  <property name="meta.media.0.codec.pix_fmt">yuv420p</property>
  <property name="meta.media.0.codec.sample_aspect_ratio">1</property>
  <property name="meta.media.0.codec.colorspace">709</property>
  <property name="meta.media.0.codec.color_trc">1</property>
  <property name="meta.media.0.codec.name">h264</property>
  <property name="meta.media.0.codec.long_name">H.264 / AVC / MPEG-4 AVC / MPEG-4 part 10</property>
  <property name="meta.media.0.codec.bit_rate">15322397</property>
  <property name="meta.attr.0.stream.handler_name.markup">VideoHandler</property>
  <property name="meta.attr.0.stream.vendor_id.markup">[0][0][0][0]</property>
  <property name="meta.attr.major_brand.markup">isom</property>
  <property name="meta.attr.minor_version.markup">512</property>
  <property name="meta.attr.compatible_brands.markup">isomiso2avc1mp41</property>
  <property name="meta.attr.date.markup">2025/06/16 10:08:37</property>
  <property name="meta.attr.encoder.markup">Lavf61.7.100</property>
  <property name="seekable">1</property>
  <property name="meta.media.sample_aspect_num">1</property>
  <property name="meta.media.sample_aspect_den">1</property>
  <property name="format">3</property>
  <property name="audio_index">-1</property>
  <property name="video_index">0</property>
  <property name="vstream">0</property>
  <property name="meta.media.frame_rate_num">24</property>
  <property name="meta.media.frame_rate_den">1</property>
  <property name="meta.media.colorspace">709</property>
  <property name="meta.media.color_trc">1</property>
  <property name="meta.media.has_b_frames">0</property>
  <property name="meta.media.width">1920</property>
  <property name="meta.media.height">1080</property>
  <property name="meta.media.aspect_ratio">1</property>
  <property name="meta.media.color_range">mpeg</property>
  <property name="meta.media.top_field_first">0</property>
  <property name="meta.media.progressive">1</property>
  <property name="kdenlive:folderid">-1</property>
  <property name="kdenlive:id">13</property>
  <property name="kdenlive:control_uuid">{66f39394-bdab-4fc3-8112-e93233761e3a}</property>
  <property name="mute_on_pause">0</property>
  <property name="kdenlive:clip_type">2</property>
  <property name="kdenlive:file_size">23943778</property>
  <property name="kdenlive:file_hash">4968cd6dda05dc02b5eb4413ce4cc796</property>
 </chain>
 <producer id="producer4" in="00:00:00.000" out="00:00:04.958">
  <property name="length">00:00:05.000</property>
  <property name="eof">pause</property>
  <property name="resource">EEVEE/view0300.png</property>
  <property name="ttl">25</property>
  <property name="aspect_ratio">1</property>
  <property name="meta.media.progressive">1</property>
  <property name="seekable">1</property>
  <property name="format">1</property>
  <property name="meta.media.width">1920</property>
  <property name="meta.media.height">1080</property>
  <property name="mlt_service">qimage</property>
  <property name="kdenlive:duration">00:00:05:00</property>
  <property name="xml">was here</property>
  <property name="kdenlive:folderid">-1</property>
  <property name="kdenlive:id">14</property>
  <property name="kdenlive:control_uuid">{e02219a8-6c31-4925-a3a0-2d85b2188ade}</property>
  <property name="kdenlive:clip_type">2</property>
  <property name="kdenlive:file_size">4324642</property>
  <property name="kdenlive:file_hash">e809e14333bd0eae86f2b93fba8d2b9f</property>
 </producer>
 <producer id="producer0" in="00:00:00.000" out="00:05:21.500">
  <property name="length">2147483647</property>
  <property name="eof">continue</property>
  <property name="resource">black</property>
  <property name="aspect_ratio">1</property>
  <property name="mlt_service">color</property>
  <property name="kdenlive:playlistid">black_track</property>
  <property name="mlt_image_format">rgba</property>
  <property name="set.test_audio">0</property>
 </producer>
 <chain id="chain0" out="00:02:35.583">
  <property name="length">3735</property>
  <property name="eof">pause</property>
  <property name="resource">/home/vir0id/Загрузки/GimpArtCraftFromLatvia/blender/projects/LUMAEU/Effects/Modern Inspiring Music For Presentation ｜ Inspirational Corporate Ambient - by AShamaluevMusic.mp3</property>
  <property name="mlt_service">avformat-novalidate</property>
  <property name="seekable">1</property>
  <property name="audio_index">0</property>
  <property name="video_index">-1</property>
  <property name="astream">0</property>
  <property name="kdenlive:folderid">-1</property>
  <property name="kdenlive:id">9</property>
  <property name="kdenlive:control_uuid">{cdf8fd12-9426-4db6-a7a2-2f9e4ba1d4e5}</property>
  <property name="kdenlive:clip_type">1</property>
  <property name="kdenlive:file_size">5075132</property>
  <property name="kdenlive:file_hash">78129629c836048a5278e74cb3da008a</property>
  <property name="meta.media.nb_streams">1</property>
  <property name="meta.media.0.stream.type">audio</property>
  <property name="meta.media.0.codec.sample_fmt">fltp</property>
  <property name="meta.media.0.codec.sample_rate">48000</property>
  <property name="meta.media.0.codec.channels">2</property>
  <property name="meta.media.0.codec.layout">stereo</property>
  <property name="meta.media.0.codec.name">mp3float</property>
  <property name="meta.media.0.codec.long_name">MP3 (MPEG audio layer 3)</property>
  <property name="meta.media.0.codec.bit_rate">260863</property>
  <property name="meta.attr.0.stream.encoder.markup">Lavc61.19</property>
  <property name="meta.attr.encoder.markup">Lavf61.7.100</property>
  <property name="xml">was here</property>
  <property name="mute_on_pause">0</property>
  <property name="set.test_audio">0</property>
  <property name="set.test_image">1</property>
 </chain>
 <playlist id="playlist0">
  <property name="kdenlive:audio_track">1</property>
  <entry in="00:00:25.958" out="00:00:47.417" producer="chain0">
   <property name="kdenlive:id">9</property>
   <filter id="filter0" in="00:00:25.958" out="00:00:31.125">
    <property name="window">75</property>
    <property name="max_gain">20dB</property>
    <property name="mlt_service">volume</property>
    <property name="kdenlive_id">fadein</property>
    <property name="gain">0</property>
    <property name="end">1</property>
    <property name="kdenlive:collapsed">0</property>
   </filter>
   <filter id="filter1" in="00:00:40.000" out="00:00:47.417">
    <property name="window">75</property>
    <property name="max_gain">20dB</property>
    <property name="mlt_service">volume</property>
    <property name="kdenlive_id">fadeout</property>
    <property name="gain">1</property>
    <property name="end">0</property>
    <property name="kdenlive:collapsed">0</property>
   </filter>
  </entry>
 </playlist>
 <playlist id="playlist1">
  <property name="kdenlive:audio_track">1</property>
 </playlist>
 <tractor id="tractor0" in="00:00:00.000" out="00:00:21.458">
  <property name="kdenlive:audio_track">1</property>
  <property name="kdenlive:trackheight">67</property>
  <property name="kdenlive:timeline_active">1</property>
  <property name="kdenlive:collapsed">0</property>
  <property name="kdenlive:thumbs_format"/>
  <property name="kdenlive:audio_rec"/>
  <track hide="video" producer="playlist0"/>
  <track hide="video" producer="playlist1"/>
  <filter id="filter2">
   <property name="window">75</property>
   <property name="max_gain">20dB</property>
   <property name="level">-4.00177</property>
   <property name="mlt_service">volume</property>
   <property name="internal_added">237</property>
   <property name="disable">0</property>
  </filter>
  <filter id="filter3">
   <property name="channel">-1</property>
   <property name="mlt_service">panner</property>
   <property name="internal_added">237</property>
   <property name="start">0.5</property>
   <property name="disable">1</property>
  </filter>
  <filter id="filter4">
   <property name="iec_scale">0</property>
   <property name="mlt_service">audiolevel</property>
   <property name="dbpeak">1</property>
   <property name="disable">1</property>
  </filter>
 </tractor>
 <playlist id="playlist2">
  <property name="kdenlive:audio_track">1</property>
 </playlist>
 <playlist id="playlist3">
  <property name="kdenlive:audio_track">1</property>
 </playlist>
 <tractor id="tractor1" in="00:00:00.000">
  <property name="kdenlive:audio_track">1</property>
  <property name="kdenlive:trackheight">67</property>
  <property name="kdenlive:timeline_active">1</property>
  <property name="kdenlive:collapsed">0</property>
  <property name="kdenlive:thumbs_format"/>
  <property name="kdenlive:audio_rec"/>
  <track hide="video" producer="playlist2"/>
  <track hide="video" producer="playlist3"/>
  <filter id="filter5">
   <property name="window">75</property>
   <property name="max_gain">20dB</property>
   <property name="level">0.998481</property>
   <property name="mlt_service">volume</property>
   <property name="internal_added">237</property>
   <property name="disable">0</property>
  </filter>
  <filter id="filter6">
   <property name="channel">-1</property>
   <property name="mlt_service">panner</property>
   <property name="internal_added">237</property>
   <property name="start">0.5</property>
   <property name="disable">1</property>
  </filter>
  <filter id="filter7">
   <property name="iec_scale">0</property>
   <property name="mlt_service">audiolevel</property>
   <property name="dbpeak">1</property>
   <property name="disable">1</property>
  </filter>
 </tractor>
 <chain id="chain2" out="00:00:15.917">
  <property name="length">383</property>
  <property name="eof">pause</property>
  <property name="resource">/home/vir0id/Загрузки/GimpArtCraftFromLatvia/blender/projects/LUMAEU/Effects/173018__ninebilly__wood-door.wav</property>
  <property name="mlt_service">avformat-novalidate</property>
  <property name="seekable">1</property>
  <property name="audio_index">0</property>
  <property name="video_index">-1</property>
  <property name="astream">0</property>
  <property name="kdenlive:folderid">-1</property>
  <property name="kdenlive:id">6</property>
  <property name="kdenlive:control_uuid">{8f0a45ba-bc1b-403c-9c6c-0ca9e0746345}</property>
  <property name="kdenlive:clip_type">1</property>
  <property name="kdenlive:file_size">4596880</property>
  <property name="kdenlive:file_hash">6d63c619ecfc9e6c5a7845f714762667</property>
  <property name="meta.media.nb_streams">1</property>
  <property name="meta.media.0.stream.type">audio</property>
  <property name="meta.media.0.codec.sample_fmt">s32</property>
  <property name="meta.media.0.codec.sample_rate">48000</property>
  <property name="meta.media.0.codec.channels">2</property>
  <property name="meta.media.0.codec.layout">independent</property>
  <property name="meta.media.0.codec.name">pcm_s24le</property>
  <property name="meta.media.0.codec.long_name">PCM signed 24-bit little-endian</property>
  <property name="meta.media.0.codec.bit_rate">2304000</property>
  <property name="meta.attr.encoded_by.markup">Pro Tools</property>
  <property name="meta.attr.originator_reference.markup">Xy1fxdGkFLgaaaGk</property>
  <property name="meta.attr.date.markup">2013-01-02</property>
  <property name="meta.attr.creation_time.markup">23:36:34</property>
  <property name="meta.attr.time_reference.markup">172800000</property>
  <property name="xml">was here</property>
  <property name="mute_on_pause">0</property>
  <property name="set.test_audio">0</property>
  <property name="set.test_image">1</property>
 </chain>
 <playlist id="playlist4">
  <property name="kdenlive:audio_track">1</property>
  <blank length="00:00:05.583"/>
  <entry in="00:00:00.000" out="00:00:03.542" producer="chain2">
   <property name="kdenlive:id">6</property>
  </entry>
  <blank length="00:00:02.917"/>
  <entry in="00:00:00.000" out="00:00:03.542" producer="chain2">
   <property name="kdenlive:id">6</property>
  </entry>
 </playlist>
 <playlist id="playlist5">
  <property name="kdenlive:audio_track">1</property>
 </playlist>
 <tractor id="tractor2" in="00:00:00.000" out="00:00:15.625">
  <property name="kdenlive:audio_track">1</property>
  <property name="kdenlive:trackheight">67</property>
  <property name="kdenlive:timeline_active">1</property>
  <property name="kdenlive:collapsed">0</property>
  <property name="kdenlive:thumbs_format"/>
  <property name="kdenlive:audio_rec"/>
  <track hide="video" producer="playlist4"/>
  <track hide="video" producer="playlist5"/>
  <filter id="filter8">
   <property name="window">75</property>
   <property name="max_gain">20dB</property>
   <property name="level">9.99575</property>
   <property name="mlt_service">volume</property>
   <property name="internal_added">237</property>
   <property name="disable">0</property>
  </filter>
  <filter id="filter9">
   <property name="channel">-1</property>
   <property name="mlt_service">panner</property>
   <property name="internal_added">237</property>
   <property name="start">0.95</property>
   <property name="disable">0</property>
  </filter>
  <filter id="filter10">
   <property name="iec_scale">0</property>
   <property name="mlt_service">audiolevel</property>
   <property name="dbpeak">1</property>
   <property name="disable">1</property>
  </filter>
 </tractor>
 <producer id="producer1" in="00:00:00.000" out="00:00:11.083">
  <property name="length">267</property>
  <property name="eof">pause</property>
  <property name="resource">0.450000:/home/vir0id/Загрузки/GimpArtCraftFromLatvia/blender/projects/LUMAEU/Effects/Office_Chair.wav</property>
  <property name="aspect_ratio">1</property>
  <property name="meta.media.nb_streams">1</property>
  <property name="meta.media.0.stream.type">audio</property>
  <property name="meta.media.0.codec.sample_fmt">s32</property>
  <property name="meta.media.0.codec.sample_rate">48000</property>
  <property name="meta.media.0.codec.channels">2</property>
  <property name="meta.media.0.codec.layout">independent</property>
  <property name="meta.media.0.codec.name">pcm_s24le</property>
  <property name="meta.media.0.codec.long_name">PCM signed 24-bit little-endian</property>
  <property name="meta.media.0.codec.bit_rate">2304000</property>
  <property name="meta.attr.encoded_by.markup">REAPER</property>
  <property name="meta.attr.date.markup">2019-11-08</property>
  <property name="meta.attr.creation_time.markup">17-15-57</property>
  <property name="meta.attr.time_reference.markup">0</property>
  <property name="seekable">1</property>
  <property name="audio_index">0</property>
  <property name="video_index">-1</property>
  <property name="warp_speed">0.45</property>
  <property name="warp_resource">/home/vir0id/Загрузки/GimpArtCraftFromLatvia/blender/projects/LUMAEU/Effects/Office_Chair.wav</property>
  <property name="mlt_service">timewarp</property>
  <property name="kdenlive:control_uuid">{b0cbf74f-d5af-4297-9296-97e5c6d449b8}</property>
  <property name="astream">0</property>
  <property name="set.test_audio">0</property>
  <property name="set.test_image">1</property>
  <property name="kdenlive:id">5</property>
  <property name="warp_pitch">0</property>
 </producer>
 <producer id="producer2" in="00:00:00.000" out="00:00:11.083">
  <property name="length">267</property>
  <property name="eof">pause</property>
  <property name="resource">0.450000:/home/vir0id/Загрузки/GimpArtCraftFromLatvia/blender/projects/LUMAEU/Effects/Office_Chair.wav</property>
  <property name="aspect_ratio">1</property>
  <property name="meta.media.nb_streams">1</property>
  <property name="meta.media.0.stream.type">audio</property>
  <property name="meta.media.0.codec.sample_fmt">s32</property>
  <property name="meta.media.0.codec.sample_rate">48000</property>
  <property name="meta.media.0.codec.channels">2</property>
  <property name="meta.media.0.codec.layout">independent</property>
  <property name="meta.media.0.codec.name">pcm_s24le</property>
  <property name="meta.media.0.codec.long_name">PCM signed 24-bit little-endian</property>
  <property name="meta.media.0.codec.bit_rate">2304000</property>
  <property name="meta.attr.encoded_by.markup">REAPER</property>
  <property name="meta.attr.date.markup">2019-11-08</property>
  <property name="meta.attr.creation_time.markup">17-15-57</property>
  <property name="meta.attr.time_reference.markup">0</property>
  <property name="seekable">1</property>
  <property name="audio_index">0</property>
  <property name="video_index">-1</property>
  <property name="warp_speed">0.45</property>
  <property name="warp_resource">/home/vir0id/Загрузки/GimpArtCraftFromLatvia/blender/projects/LUMAEU/Effects/Office_Chair.wav</property>
  <property name="mlt_service">timewarp</property>
  <property name="kdenlive:control_uuid">{b0cbf74f-d5af-4297-9296-97e5c6d449b8}</property>
  <property name="astream">0</property>
  <property name="set.test_audio">0</property>
  <property name="set.test_image">1</property>
  <property name="kdenlive:id">5</property>
  <property name="warp_pitch">0</property>
 </producer>
 <playlist id="playlist6">
  <property name="kdenlive:audio_track">1</property>
  <entry in="00:00:01.417" out="00:00:11.083" producer="producer1">
   <property name="kdenlive:id">5</property>
   <filter id="filter11">
    <property name="channel">5</property>
    <property name="split">0.825806</property>
    <property name="mlt_service">panner</property>
    <property name="kdenlive_id">panner</property>
    <property name="start (*deprecated*)">0.630645</property>
    <property name="end (*deprecated*)">0.348387</property>
    <property name="gang">0</property>
    <property name="kdenlive:collapsed">0</property>
   </filter>
  </entry>
  <blank length="00:00:02.375"/>
  <entry in="00:00:03.125" out="00:00:11.083" producer="producer2">
   <property name="kdenlive:id">5</property>
   <filter id="filter12">
    <property name="channel">-4</property>
    <property name="split">0</property>
    <property name="mlt_service">panner</property>
    <property name="kdenlive_id">panner</property>
    <property name="start (*deprecated*)">0.320968</property>
    <property name="end (*deprecated*)">0.791935</property>
    <property name="gang">0</property>
    <property name="kdenlive:collapsed">0</property>
   </filter>
  </entry>
 </playlist>
 <playlist id="playlist7">
  <property name="kdenlive:audio_track">1</property>
 </playlist>
 <tractor id="tractor3" in="00:00:00.000" out="00:00:20.042">
  <property name="kdenlive:audio_track">1</property>
  <property name="kdenlive:trackheight">67</property>
  <property name="kdenlive:timeline_active">1</property>
  <property name="kdenlive:collapsed">0</property>
  <property name="kdenlive:thumbs_format"/>
  <property name="kdenlive:audio_rec"/>
  <track hide="video" producer="playlist6"/>
  <track hide="video" producer="playlist7"/>
  <filter id="filter13">
   <property name="window">75</property>
   <property name="max_gain">20dB</property>
   <property name="level">8.02268</property>
   <property name="mlt_service">volume</property>
   <property name="internal_added">237</property>
   <property name="disable">0</property>
  </filter>
  <filter id="filter14">
   <property name="channel">-1</property>
   <property name="mlt_service">panner</property>
   <property name="internal_added">237</property>
   <property name="start">0.5</property>
   <property name="disable">1</property>
  </filter>
  <filter id="filter15">
   <property name="iec_scale">0</property>
   <property name="mlt_service">audiolevel</property>
   <property name="dbpeak">1</property>
   <property name="disable">1</property>
  </filter>
 </tractor>
 <producer id="producer3" in="00:00:00.000" out="00:00:19.208">
  <property name="length">462</property>
  <property name="eof">pause</property>
  <property name="resource">0.650000:/home/vir0id/Видео/luma_v70001-0300.mp4</property>
  <property name="aspect_ratio">1</property>
  <property name="meta.media.nb_streams">1</property>
  <property name="meta.media.0.stream.type">video</property>
  <property name="meta.media.0.stream.frame_rate">24</property>
  <property name="meta.media.0.stream.sample_aspect_ratio">1</property>
  <property name="meta.media.0.codec.width">1920</property>
  <property name="meta.media.0.codec.height">1080</property>
  <property name="meta.media.0.codec.rotate">0</property>
  <property name="meta.media.0.codec.pix_fmt">yuv420p</property>
  <property name="meta.media.0.codec.sample_aspect_ratio">1</property>
  <property name="meta.media.0.codec.colorspace">709</property>
  <property name="meta.media.0.codec.color_trc">1</property>
  <property name="meta.media.0.codec.name">h264</property>
  <property name="meta.media.0.codec.long_name">H.264 / AVC / MPEG-4 AVC / MPEG-4 part 10</property>
  <property name="meta.media.0.codec.bit_rate">15322397</property>
  <property name="meta.attr.0.stream.handler_name.markup">VideoHandler</property>
  <property name="meta.attr.0.stream.vendor_id.markup">[0][0][0][0]</property>
  <property name="meta.attr.major_brand.markup">isom</property>
  <property name="meta.attr.minor_version.markup">512</property>
  <property name="meta.attr.compatible_brands.markup">isomiso2avc1mp41</property>
  <property name="meta.attr.date.markup">2025/06/16 10:08:37</property>
  <property name="meta.attr.encoder.markup">Lavf61.7.100</property>
  <property name="seekable">1</property>
  <property name="meta.media.sample_aspect_num">1</property>
  <property name="meta.media.sample_aspect_den">1</property>
  <property name="format">3</property>
  <property name="audio_index">-1</property>
  <property name="video_index">0</property>
  <property name="warp_speed">0.65</property>
  <property name="warp_resource">/home/vir0id/Видео/luma_v70001-0300.mp4</property>
  <property name="mlt_service">timewarp</property>
  <property name="kdenlive:control_uuid">{66f39394-bdab-4fc3-8112-e93233761e3a}</property>
  <property name="vstream">0</property>
  <property name="astream">-1</property>
  <property name="set.test_audio">1</property>
  <property name="set.test_image">0</property>
  <property name="kdenlive:id">13</property>
  <property name="warp_pitch">0</property>
  <property name="meta.media.frame_rate_num">24</property>
  <property name="meta.media.frame_rate_den">1</property>
  <property name="meta.media.colorspace">709</property>
  <property name="meta.media.color_trc">1</property>
  <property name="meta.media.has_b_frames">0</property>
  <property name="meta.media.width">1920</property>
  <property name="meta.media.height">1080</property>
  <property name="meta.media.aspect_ratio">1</property>
  <property name="meta.media.color_range">mpeg</property>
  <property name="meta.media.top_field_first">0</property>
  <property name="meta.media.progressive">1</property>
 </producer>
 <playlist id="playlist8">
  <blank length="00:00:00.083"/>
  <entry in="00:00:00.000" out="00:00:19.208" producer="producer3">
   <property name="kdenlive:id">13</property>
   <filter id="filter16">
    <property name="version">0.2</property>
    <property name="mlt_service">frei0r.vignette</property>
    <property name="kdenlive_id">frei0r.vignette</property>
    <property name="aspect">00:00:00.000=0.628</property>
    <property name="clearCenter">00:00:00.000=0.611</property>
    <property name="soft">00:00:00.000=0.387</property>
    <property name="kdenlive:collapsed">0</property>
   </filter>
   <filter id="filter17" out="00:00:01.000">
    <property name="start">1</property>
    <property name="level">1</property>
    <property name="mlt_service">brightness</property>
    <property name="kdenlive_id">fade_from_black</property>
    <property name="alpha">00:00:00.000=0;00:00:01.000=1</property>
    <property name="kdenlive:collapsed">0</property>
   </filter>
  </entry>
  <entry in="00:00:00.000" out="00:00:02.125" producer="producer4">
   <property name="kdenlive:id">14</property>
   <filter id="filter18">
    <property name="version">0.2</property>
    <property name="mlt_service">frei0r.vignette</property>
    <property name="kdenlive_id">frei0r.vignette</property>
    <property name="aspect">00:00:00.000=0.628</property>
    <property name="clearCenter">00:00:00.000=0.611</property>
    <property name="soft">00:00:00.000=0.387</property>
   </filter>
   <filter id="filter19" in="00:00:00.583" out="00:00:02.125">
    <property name="start">1</property>
    <property name="level">1</property>
    <property name="mlt_service">brightness</property>
    <property name="kdenlive_id">fade_to_black</property>
    <property name="alpha">00:00:00.000=1;00:00:01.542=0</property>
   </filter>
  </entry>
 </playlist>
 <playlist id="playlist9"/>
 <tractor id="tractor4" in="00:00:00.000" out="00:00:21.458">
  <property name="kdenlive:trackheight">67</property>
  <property name="kdenlive:timeline_active">1</property>
  <property name="kdenlive:collapsed">0</property>
  <property name="kdenlive:thumbs_format"/>
  <property name="kdenlive:audio_rec"/>
  <track hide="audio" producer="playlist8"/>
  <track hide="audio" producer="playlist9"/>
 </tractor>
 <playlist id="playlist10"/>
 <playlist id="playlist11"/>
 <tractor id="tractor5" in="00:00:00.000">
  <property name="kdenlive:trackheight">67</property>
  <property name="kdenlive:timeline_active">1</property>
  <property name="kdenlive:collapsed">0</property>
  <property name="kdenlive:thumbs_format"/>
  <property name="kdenlive:audio_rec"/>
  <track hide="both" producer="playlist10"/>
  <track hide="both" producer="playlist11"/>
 </tractor>
 <chain id="chain12" out="00:00:10.375">
  <property name="length">250</property>
  <property name="eof">pause</property>
  <property name="resource">logo_0001-0250.mkv</property>
  <property name="mlt_service">avformat-novalidate</property>
  <property name="seekable">1</property>
  <property name="format">3</property>
  <property name="audio_index">-1</property>
  <property name="video_index">0</property>
  <property name="vstream">0</property>
  <property name="kdenlive:folderid">-1</property>
  <property name="kdenlive:id">266</property>
  <property name="kdenlive:control_uuid">{c0870148-6f95-4de4-8e3d-17e42dcc49cd}</property>
  <property name="mute_on_pause">0</property>
  <property name="kdenlive:clip_type">2</property>
  <property name="kdenlive:file_size">2104546</property>
  <property name="kdenlive:file_hash">9d75efe6a1d0ac725103cf834c29b849</property>
  <property name="meta.media.nb_streams">1</property>
  <property name="meta.media.0.stream.type">video</property>
  <property name="meta.media.0.stream.frame_rate">24</property>
  <property name="meta.media.0.stream.sample_aspect_ratio">1</property>
  <property name="meta.media.0.codec.width">1920</property>
  <property name="meta.media.0.codec.height">1080</property>
  <property name="meta.media.0.codec.rotate">0</property>
  <property name="meta.media.0.codec.pix_fmt">yuv420p</property>
  <property name="meta.media.0.codec.sample_aspect_ratio">1</property>
  <property name="meta.media.0.codec.colorspace">709</property>
  <property name="meta.media.0.codec.color_trc">1</property>
  <property name="meta.media.0.codec.name">h264</property>
  <property name="meta.media.0.codec.long_name">H.264 / AVC / MPEG-4 AVC / MPEG-4 part 10</property>
  <property name="meta.media.0.codec.bit_rate">0</property>
  <property name="meta.attr.0.stream.DURATION.markup">00:00:10.417000000</property>
  <property name="meta.attr.SCENE.markup">Scene</property>
  <property name="meta.attr.FILE.markup">&lt;untitled></property>
  <property name="meta.attr.DATE.markup">2025/06/16 15:57:32</property>
  <property name="meta.attr.ENCODER.markup">Lavf61.7.100</property>
  <property name="meta.media.sample_aspect_num">1</property>
  <property name="meta.media.sample_aspect_den">1</property>
  <property name="meta.media.frame_rate_num">24</property>
  <property name="meta.media.frame_rate_den">1</property>
  <property name="meta.media.colorspace">709</property>
  <property name="meta.media.color_trc">1</property>
  <property name="meta.media.has_b_frames">0</property>
  <property name="meta.media.width">1920</property>
  <property name="meta.media.height">1080</property>
  <property name="meta.media.aspect_ratio">1</property>
  <property name="meta.media.color_range">mpeg</property>
  <property name="xml">was here</property>
  <property name="meta.media.top_field_first">0</property>
  <property name="meta.media.progressive">1</property>
  <property name="set.test_audio">1</property>
  <property name="set.test_image">0</property>
  <filter id="filter20">
   <property name="key">00:00:00.000=0x000000ff</property>
   <property name="variance">00:00:00.000=0</property>
   <property name="mlt_service">chroma</property>
   <property name="kdenlive_id">chroma</property>
  </filter>
 </chain>
 <playlist id="playlist12">
  <entry in="00:00:00.000" out="00:00:10.375" producer="chain12">
   <property name="kdenlive:id">266</property>
   <property name="kdenlive:activeeffect">1</property>
   <filter id="filter21">
    <property name="key">00:00:00.000=0x000000ff</property>
    <property name="variance">00:00:00.000=0</property>
    <property name="mlt_service">chroma</property>
    <property name="kdenlive_id">chroma</property>
    <property name="kdenlive:collapsed">0</property>
   </filter>
   <filter id="filter22">
    <property name="background">colour:0</property>
    <property name="mlt_service">affine</property>
    <property name="kdenlive_id">pan_zoom</property>
    <property name="transition.rect">00:00:00.000=32 40 255 211</property>
    <property name="transition.distort">0</property>
    <property name="use_normalised">0</property>
    <property name="producer.resource">0x00000000</property>
    <property name="transition.repeat_off">1</property>
    <property name="transition.mirror_off">1</property>
    <property name="kdenlive:collapsed">0</property>
   </filter>
   <filter id="filter23" out="00:00:01.333">
    <property name="start">1</property>
    <property name="level">1</property>
    <property name="mlt_service">brightness</property>
    <property name="kdenlive_id">fade_from_black</property>
    <property name="alpha">00:00:00.000=0;00:00:01.333=1</property>
    <property name="kdenlive:collapsed">0</property>
   </filter>
  </entry>
  <entry in="00:00:00.000" out="00:00:10.375" producer="chain12">
   <property name="kdenlive:id">266</property>
   <property name="kdenlive:activeeffect">-1</property>
   <filter id="filter24">
    <property name="background">colour:0</property>
    <property name="mlt_service">affine</property>
    <property name="kdenlive_id">pan_zoom</property>
    <property name="transition.rect">0=32 40 255 211</property>
    <property name="transition.distort">0</property>
    <property name="use_normalised">0</property>
    <property name="producer.resource">0x00000000</property>
    <property name="transition.repeat_off">1</property>
    <property name="transition.mirror_off">1</property>
   </filter>
  </entry>
  <entry in="00:00:00.000" out="00:00:00.625" producer="chain12">
   <property name="kdenlive:id">266</property>
   <property name="kdenlive:activeeffect">1</property>
   <filter id="filter25">
    <property name="background">colour:0</property>
    <property name="mlt_service">affine</property>
    <property name="kdenlive_id">pan_zoom</property>
    <property name="transition.rect">0=32 40 255 211</property>
    <property name="transition.distort">0</property>
    <property name="use_normalised">0</property>
    <property name="producer.resource">0x00000000</property>
    <property name="transition.repeat_off">1</property>
    <property name="transition.mirror_off">1</property>
   </filter>
   <filter id="filter26" in="00:00:-0.042" out="00:00:00.625">
    <property name="start">1</property>
    <property name="level">1</property>
    <property name="mlt_service">brightness</property>
    <property name="kdenlive_id">fade_to_black</property>
    <property name="alpha">00:00:00.000=1;00:00:00.667=0</property>
   </filter>
  </entry>
 </playlist>
 <playlist id="playlist13"/>
 <tractor id="tractor6" in="00:00:00.000" out="00:00:21.458">
  <property name="kdenlive:trackheight">67</property>
  <property name="kdenlive:timeline_active">1</property>
  <property name="kdenlive:collapsed">0</property>
  <property name="kdenlive:thumbs_format"/>
  <property name="kdenlive:audio_rec"/>
  <track hide="audio" producer="playlist12"/>
  <track hide="audio" producer="playlist13"/>
 </tractor>
 <tractor id="tractor7" in="00:00:00.000" out="00:00:21.458">
  <property name="kdenlive:duration">00:00:21.500</property>
  <property name="kdenlive:maxduration">516</property>
  <property name="kdenlive:clipname">Последовательность 1</property>
  <property name="kdenlive:description"/>
  <property name="kdenlive:uuid">{6f288ca6-c6d1-40d6-955b-253ef83fa707}</property>
  <property name="kdenlive:producer_type">17</property>
  <property name="kdenlive:control_uuid">{6f288ca6-c6d1-40d6-955b-253ef83fa707}</property>
  <property name="kdenlive:id">3</property>
  <property name="kdenlive:clip_type">0</property>
  <property name="kdenlive:file_hash">2d3bcac5fabf8a6fbb6248f82af0a031</property>
  <property name="kdenlive:folderid">2</property>
  <property name="kdenlive:sequenceproperties.activeTrack">6</property>
  <property name="kdenlive:sequenceproperties.audioTarget">1</property>
  <property name="kdenlive:sequenceproperties.disablepreview">0</property>
  <property name="kdenlive:sequenceproperties.documentuuid">{6f288ca6-c6d1-40d6-955b-253ef83fa707}</property>
  <property name="kdenlive:sequenceproperties.hasAudio">1</property>
  <property name="kdenlive:sequenceproperties.hasVideo">1</property>
  <property name="kdenlive:sequenceproperties.position">515</property>
  <property name="kdenlive:sequenceproperties.scrollPos">37095</property>
  <property name="kdenlive:sequenceproperties.tracks">4</property>
  <property name="kdenlive:sequenceproperties.tracksCount">7</property>
  <property name="kdenlive:sequenceproperties.verticalzoom">1</property>
  <property name="kdenlive:sequenceproperties.videoTarget">2</property>
  <property name="kdenlive:sequenceproperties.zonein">0</property>
  <property name="kdenlive:sequenceproperties.zoneout">669</property>
  <property name="kdenlive:sequenceproperties.zoom">0</property>
  <property name="kdenlive:sequenceproperties.groups">[
]
</property>
  <property name="kdenlive:sequenceproperties.guides">[
]
</property>
  <track producer="producer0"/>
  <track producer="tractor0"/>
  <track producer="tractor1"/>
  <track producer="tractor2"/>
  <track producer="tractor3"/>
  <track producer="tractor4"/>
  <track producer="tractor5"/>
  <track producer="tractor6"/>
  <transition id="transition0">
   <property name="a_track">0</property>
   <property name="b_track">1</property>
   <property name="mlt_service">mix</property>
   <property name="kdenlive_id">mix</property>
   <property name="internal_added">237</property>
   <property name="always_active">1</property>
   <property name="accepts_blanks">1</property>
   <property name="sum">1</property>
  </transition>
  <transition id="transition1">
   <property name="a_track">0</property>
   <property name="b_track">2</property>
   <property name="mlt_service">mix</property>
   <property name="kdenlive_id">mix</property>
   <property name="internal_added">237</property>
   <property name="always_active">1</property>
   <property name="accepts_blanks">1</property>
   <property name="sum">1</property>
  </transition>
  <transition id="transition2">
   <property name="a_track">0</property>
   <property name="b_track">3</property>
   <property name="mlt_service">mix</property>
   <property name="kdenlive_id">mix</property>
   <property name="internal_added">237</property>
   <property name="always_active">1</property>
   <property name="accepts_blanks">1</property>
   <property name="sum">1</property>
  </transition>
  <transition id="transition3">
   <property name="a_track">0</property>
   <property name="b_track">4</property>
   <property name="mlt_service">mix</property>
   <property name="kdenlive_id">mix</property>
   <property name="internal_added">237</property>
   <property name="always_active">1</property>
   <property name="accepts_blanks">1</property>
   <property name="sum">1</property>
  </transition>
  <transition id="transition4">
   <property name="a_track">0</property>
   <property name="b_track">5</property>
   <property name="compositing">0</property>
   <property name="distort">0</property>
   <property name="rotate_center">0</property>
   <property name="mlt_service">qtblend</property>
   <property name="kdenlive_id">qtblend</property>
   <property name="internal_added">237</property>
   <property name="always_active">1</property>
  </transition>
  <transition id="transition5">
   <property name="a_track">0</property>
   <property name="b_track">6</property>
   <property name="compositing">0</property>
   <property name="distort">0</property>
   <property name="rotate_center">0</property>
   <property name="mlt_service">qtblend</property>
   <property name="kdenlive_id">qtblend</property>
   <property name="internal_added">237</property>
   <property name="always_active">1</property>
  </transition>
  <transition id="transition6">
   <property name="a_track">0</property>
   <property name="b_track">7</property>
   <property name="compositing">0</property>
   <property name="distort">0</property>
   <property name="rotate_center">0</property>
   <property name="mlt_service">qtblend</property>
   <property name="kdenlive_id">qtblend</property>
   <property name="internal_added">237</property>
   <property name="always_active">1</property>
  </transition>
  <filter id="filter27">
   <property name="window">75</property>
   <property name="max_gain">20dB</property>
   <property name="level">1.50348</property>
   <property name="mlt_service">volume</property>
   <property name="internal_added">237</property>
   <property name="disable">0</property>
  </filter>
  <filter id="filter28">
   <property name="channel">-1</property>
   <property name="mlt_service">panner</property>
   <property name="internal_added">237</property>
   <property name="start">0.5</property>
   <property name="disable">1</property>
  </filter>
 </tractor>
 <producer id="producer5" in="00:00:00.000" out="00:00:04.958">
  <property name="length">00:00:05.000</property>
  <property name="eof">pause</property>
  <property name="resource">LOGO/logo_0001.png</property>
  <property name="ttl">25</property>
  <property name="aspect_ratio">1</property>
  <property name="meta.media.progressive">1</property>
  <property name="seekable">1</property>
  <property name="format">2</property>
  <property name="meta.media.width">1920</property>
  <property name="meta.media.height">1080</property>
  <property name="mlt_service">qimage</property>
  <property name="kdenlive:duration">00:00:05:00</property>
  <property name="xml">was here</property>
  <property name="kdenlive:folderid">15</property>
  <property name="kdenlive:id">16</property>
  <property name="kdenlive:control_uuid">{7d130193-56e2-460a-86fc-432fd168ac27}</property>
  <property name="kdenlive:clip_type">2</property>
  <property name="kdenlive:file_size">1859641</property>
  <property name="kdenlive:file_hash">ed26f0561f4117df2a0581c3c010a79b</property>
  <property name="kdenlive:monitorPosition">119</property>
 </producer>
 <producer id="producer6" in="00:00:00.000" out="00:00:04.958">
  <property name="length">00:00:05.000</property>
  <property name="eof">pause</property>
  <property name="resource">LOGO/logo_0002.png</property>
  <property name="ttl">25</property>
  <property name="aspect_ratio">1</property>
  <property name="meta.media.progressive">1</property>
  <property name="seekable">1</property>
  <property name="format">2</property>
  <property name="meta.media.width">1920</property>
  <property name="meta.media.height">1080</property>
  <property name="mlt_service">qimage</property>
  <property name="kdenlive:duration">00:00:05:00</property>
  <property name="xml">was here</property>
  <property name="kdenlive:folderid">15</property>
  <property name="kdenlive:id">17</property>
  <property name="kdenlive:control_uuid">{eb09074a-e310-4996-b03c-e711b0b5ca7c}</property>
  <property name="kdenlive:clip_type">2</property>
  <property name="kdenlive:file_size">1870655</property>
  <property name="kdenlive:file_hash">dfe219eea27f2ac4f2be9fc386e429b2</property>
  <property name="kdenlive:monitorPosition">0</property>
 </producer>
 <producer id="producer7" in="00:00:00.000" out="00:00:04.958">
  <property name="length">00:00:05.000</property>
  <property name="eof">pause</property>
  <property name="resource">LOGO/logo_0004.png</property>
  <property name="ttl">25</property>
  <property name="aspect_ratio">1</property>
  <property name="meta.media.progressive">1</property>
  <property name="seekable">1</property>
  <property name="format">2</property>
  <property name="meta.media.width">1920</property>
  <property name="meta.media.height">1080</property>
  <property name="mlt_service">qimage</property>
  <property name="kdenlive:duration">00:00:05:00</property>
  <property name="xml">was here</property>
  <property name="kdenlive:folderid">15</property>
  <property name="kdenlive:id">19</property>
  <property name="kdenlive:control_uuid">{f04acfb8-e35b-4c71-8dac-76c3d802c7aa}</property>
  <property name="kdenlive:clip_type">2</property>
  <property name="kdenlive:file_size">1875619</property>
  <property name="kdenlive:file_hash">078f818ca5c93ab99b48069a9a9fa04a</property>
 </producer>
 <producer id="producer8" in="00:00:00.000" out="00:00:04.958">
  <property name="length">00:00:05.000</property>
  <property name="eof">pause</property>
  <property name="resource">LOGO/logo_0005.png</property>
  <property name="ttl">25</property>
  <property name="aspect_ratio">1</property>
  <property name="meta.media.progressive">1</property>
  <property name="seekable">1</property>
  <property name="format">2</property>
  <property name="meta.media.width">1920</property>
  <property name="meta.media.height">1080</property>
  <property name="mlt_service">qimage</property>
  <property name="kdenlive:duration">00:00:05:00</property>
  <property name="xml">was here</property>
  <property name="kdenlive:folderid">15</property>
  <property name="kdenlive:id">20</property>
  <property name="kdenlive:control_uuid">{57910eb0-6dcc-401a-8799-cfa306743db7}</property>
  <property name="kdenlive:clip_type">2</property>
  <property name="kdenlive:file_size">1878898</property>
  <property name="kdenlive:file_hash">42085dbc7f3d2976198ca41e9346b57a</property>
 </producer>
 <producer id="producer9" in="00:00:00.000" out="00:00:04.958">
  <property name="length">00:00:05.000</property>
  <property name="eof">pause</property>
  <property name="resource">LOGO/logo_0003.png</property>
  <property name="ttl">25</property>
  <property name="aspect_ratio">1</property>
  <property name="meta.media.progressive">1</property>
  <property name="seekable">1</property>
  <property name="format">2</property>
  <property name="meta.media.width">1920</property>
  <property name="meta.media.height">1080</property>
  <property name="mlt_service">qimage</property>
  <property name="kdenlive:duration">00:00:05:00</property>
  <property name="xml">was here</property>
  <property name="kdenlive:folderid">15</property>
  <property name="kdenlive:id">18</property>
  <property name="kdenlive:control_uuid">{fad14e07-4cfc-49e4-9887-c973d49d6f76}</property>
  <property name="kdenlive:clip_type">2</property>
  <property name="kdenlive:file_size">1874266</property>
  <property name="kdenlive:file_hash">a3f2072d3bb2dbe10c9e44210a0fe1c3</property>
  <property name="kdenlive:monitorPosition">0</property>
 </producer>
 <producer id="producer10" in="00:00:00.000" out="00:00:04.958">
  <property name="length">00:00:05.000</property>
  <property name="eof">pause</property>
  <property name="resource">LOGO/logo_0006.png</property>
  <property name="ttl">25</property>
  <property name="aspect_ratio">1</property>
  <property name="meta.media.progressive">1</property>
  <property name="seekable">1</property>
  <property name="format">2</property>
  <property name="meta.media.width">1920</property>
  <property name="meta.media.height">1080</property>
  <property name="mlt_service">qimage</property>
  <property name="kdenlive:duration">00:00:05:00</property>
  <property name="xml">was here</property>
  <property name="kdenlive:folderid">15</property>
  <property name="kdenlive:id">21</property>
  <property name="kdenlive:control_uuid">{2a52a4e2-c258-43d9-b1c4-794141cbfc7e}</property>
  <property name="kdenlive:clip_type">2</property>
  <property name="kdenlive:file_size">1882216</property>
  <property name="kdenlive:file_hash">e5dce1df42d074f6dd6dd9f9b69c6262</property>
 </producer>
 <producer id="producer11" in="00:00:00.000" out="00:00:04.958">
  <property name="length">00:00:05.000</property>
  <property name="eof">pause</property>
  <property name="resource">LOGO/logo_0007.png</property>
  <property name="ttl">25</property>
  <property name="aspect_ratio">1</property>
  <property name="meta.media.progressive">1</property>
  <property name="seekable">1</property>
  <property name="format">2</property>
  <property name="meta.media.width">1920</property>
  <property name="meta.media.height">1080</property>
  <property name="mlt_service">qimage</property>
  <property name="kdenlive:duration">00:00:05:00</property>
  <property name="xml">was here</property>
  <property name="kdenlive:folderid">15</property>
  <property name="kdenlive:id">22</property>
  <property name="kdenlive:control_uuid">{4cabd3c3-433e-4f52-90f4-6da020b5f772}</property>
  <property name="kdenlive:clip_type">2</property>
  <property name="kdenlive:file_size">1882895</property>
  <property name="kdenlive:file_hash">575a62977048b404d0fb12c62e05095b</property>
 </producer>
 <producer id="producer12" in="00:00:00.000" out="00:00:04.958">
  <property name="length">00:00:05.000</property>
  <property name="eof">pause</property>
  <property name="resource">LOGO/logo_0008.png</property>
  <property name="ttl">25</property>
  <property name="aspect_ratio">1</property>
  <property name="meta.media.progressive">1</property>
  <property name="seekable">1</property>
  <property name="format">2</property>
  <property name="meta.media.width">1920</property>
  <property name="meta.media.height">1080</property>
  <property name="mlt_service">qimage</property>
  <property name="kdenlive:duration">00:00:05:00</property>
  <property name="xml">was here</property>
  <property name="kdenlive:folderid">15</property>
  <property name="kdenlive:id">23</property>
  <property name="kdenlive:control_uuid">{bf42640c-efe7-4dae-8a73-9c190a49be82}</property>
  <property name="kdenlive:clip_type">2</property>
  <property name="kdenlive:file_size">1885094</property>
  <property name="kdenlive:file_hash">98ba6c8f51f48871bbf8b440cbe6a1d8</property>
 </producer>
 <producer id="producer13" in="00:00:00.000" out="00:00:04.958">
  <property name="length">00:00:05.000</property>
  <property name="eof">pause</property>
  <property name="resource">LOGO/logo_0010.png</property>
  <property name="ttl">25</property>
  <property name="aspect_ratio">1</property>
  <property name="meta.media.progressive">1</property>
  <property name="seekable">1</property>
  <property name="format">2</property>
  <property name="meta.media.width">1920</property>
  <property name="meta.media.height">1080</property>
  <property name="mlt_service">qimage</property>
  <property name="kdenlive:duration">00:00:05:00</property>
  <property name="xml">was here</property>
  <property name="kdenlive:folderid">15</property>
  <property name="kdenlive:id">25</property>
  <property name="kdenlive:control_uuid">{f9fb3235-44c1-4037-a8ce-db842974f1a6}</property>
  <property name="kdenlive:clip_type">2</property>
  <property name="kdenlive:file_size">1884612</property>
  <property name="kdenlive:file_hash">358dd1f7aefdd5bf5f69424143113fc6</property>
 </producer>
 <producer id="producer14" in="00:00:00.000" out="00:00:04.958">
  <property name="length">00:00:05.000</property>
  <property name="eof">pause</property>
  <property name="resource">LOGO/logo_0011.png</property>
  <property name="ttl">25</property>
  <property name="aspect_ratio">1</property>
  <property name="meta.media.progressive">1</property>
  <property name="seekable">1</property>
  <property name="format">2</property>
  <property name="meta.media.width">1920</property>
  <property name="meta.media.height">1080</property>
  <property name="mlt_service">qimage</property>
  <property name="kdenlive:duration">00:00:05:00</property>
  <property name="xml">was here</property>
  <property name="kdenlive:folderid">15</property>
  <property name="kdenlive:id">26</property>
  <property name="kdenlive:control_uuid">{f5f429d3-f1a3-4f9e-a5e0-1c9753e3db26}</property>
  <property name="kdenlive:clip_type">2</property>
  <property name="kdenlive:file_size">1881167</property>
  <property name="kdenlive:file_hash">e207dcdf2d31f4806fd6dc81cb3779cf</property>
 </producer>
 <producer id="producer15" in="00:00:00.000" out="00:00:04.958">
  <property name="length">00:00:05.000</property>
  <property name="eof">pause</property>
  <property name="resource">LOGO/logo_0009.png</property>
  <property name="ttl">25</property>
  <property name="aspect_ratio">1</property>
  <property name="meta.media.progressive">1</property>
  <property name="seekable">1</property>
  <property name="format">2</property>
  <property name="meta.media.width">1920</property>
  <property name="meta.media.height">1080</property>
  <property name="mlt_service">qimage</property>
  <property name="kdenlive:duration">00:00:05:00</property>
  <property name="xml">was here</property>
  <property name="kdenlive:folderid">15</property>
  <property name="kdenlive:id">24</property>
  <property name="kdenlive:control_uuid">{90a04a34-4d81-4ca0-9831-a253c6ed26d4}</property>
  <property name="kdenlive:clip_type">2</property>
  <property name="kdenlive:file_size">1883663</property>
  <property name="kdenlive:file_hash">e6f6924515a7d7fad4c7c7580cf049c9</property>
 </producer>
 <producer id="producer16" in="00:00:00.000" out="00:00:04.958">
  <property name="length">00:00:05.000</property>
  <property name="eof">pause</property>
  <property name="resource">LOGO/logo_0012.png</property>
  <property name="ttl">25</property>
  <property name="aspect_ratio">1</property>
  <property name="meta.media.progressive">1</property>
  <property name="seekable">1</property>
  <property name="format">2</property>
  <property name="meta.media.width">1920</property>
  <property name="meta.media.height">1080</property>
  <property name="mlt_service">qimage</property>
  <property name="kdenlive:duration">00:00:05:00</property>
  <property name="xml">was here</property>
  <property name="kdenlive:folderid">15</property>
  <property name="kdenlive:id">27</property>
  <property name="kdenlive:control_uuid">{6e5c977f-f59f-4cc5-a08e-7fdf2df12b14}</property>
  <property name="kdenlive:clip_type">2</property>
  <property name="kdenlive:file_size">1880267</property>
  <property name="kdenlive:file_hash">79e5b103028d2603f23e463baac819c5</property>
 </producer>
 <producer id="producer17" in="00:00:00.000" out="00:00:04.958">
  <property name="length">00:00:05.000</property>
  <property name="eof">pause</property>
  <property name="resource">LOGO/logo_0013.png</property>
  <property name="ttl">25</property>
  <property name="aspect_ratio">1</property>
  <property name="meta.media.progressive">1</property>
  <property name="seekable">1</property>
  <property name="format">2</property>
  <property name="meta.media.width">1920</property>
  <property name="meta.media.height">1080</property>
  <property name="mlt_service">qimage</property>
  <property name="kdenlive:duration">00:00:05:00</property>
  <property name="xml">was here</property>
  <property name="kdenlive:folderid">15</property>
  <property name="kdenlive:id">28</property>
  <property name="kdenlive:control_uuid">{6897f034-a825-410d-b7de-1aa6fdc669c1}</property>
  <property name="kdenlive:clip_type">2</property>
  <property name="kdenlive:file_size">1874565</property>
  <property name="kdenlive:file_hash">239487a54ddbced668d60f913a5f26cb</property>
 </producer>
 <producer id="producer18" in="00:00:00.000" out="00:00:04.958">
  <property name="length">00:00:05.000</property>
  <property name="eof">pause</property>
  <property name="resource">LOGO/logo_0014.png</property>
  <property name="ttl">25</property>
  <property name="aspect_ratio">1</property>
  <property name="meta.media.progressive">1</property>
  <property name="seekable">1</property>
  <property name="format">2</property>
  <property name="meta.media.width">1920</property>
  <property name="meta.media.height">1080</property>
  <property name="mlt_service">qimage</property>
  <property name="kdenlive:duration">00:00:05:00</property>
  <property name="xml">was here</property>
  <property name="kdenlive:folderid">15</property>
  <property name="kdenlive:id">29</property>
  <property name="kdenlive:control_uuid">{75eca450-ddbd-4844-acd5-bff153580117}</property>
  <property name="kdenlive:clip_type">2</property>
  <property name="kdenlive:file_size">1870884</property>
  <property name="kdenlive:file_hash">2043e76dbc7a3e416526a855fecd7733</property>
 </producer>
 <producer id="producer19" in="00:00:00.000" out="00:00:04.958">
  <property name="length">00:00:05.000</property>
  <property name="eof">pause</property>
  <property name="resource">LOGO/logo_0016.png</property>
  <property name="ttl">25</property>
  <property name="aspect_ratio">1</property>
  <property name="meta.media.progressive">1</property>
  <property name="seekable">1</property>
  <property name="format">2</property>
  <property name="meta.media.width">1920</property>
  <property name="meta.media.height">1080</property>
  <property name="mlt_service">qimage</property>
  <property name="kdenlive:duration">00:00:05:00</property>
  <property name="xml">was here</property>
  <property name="kdenlive:folderid">15</property>
  <property name="kdenlive:id">31</property>
  <property name="kdenlive:control_uuid">{469b3bba-1fdb-4316-8a90-bfc87756de3a}</property>
  <property name="kdenlive:clip_type">2</property>
  <property name="kdenlive:file_size">1862622</property>
  <property name="kdenlive:file_hash">70fdfac3ab0f05a5982ee45bbfa005c1</property>
 </producer>
 <producer id="producer20" in="00:00:00.000" out="00:00:04.958">
  <property name="length">00:00:05.000</property>
  <property name="eof">pause</property>
  <property name="resource">LOGO/logo_0015.png</property>
  <property name="ttl">25</property>
  <property name="aspect_ratio">1</property>
  <property name="meta.media.progressive">1</property>
  <property name="seekable">1</property>
  <property name="format">2</property>
  <property name="meta.media.width">1920</property>
  <property name="meta.media.height">1080</property>
  <property name="mlt_service">qimage</property>
  <property name="kdenlive:duration">00:00:05:00</property>
  <property name="xml">was here</property>
  <property name="kdenlive:folderid">15</property>
  <property name="kdenlive:id">30</property>
  <property name="kdenlive:control_uuid">{3c8fb270-bc1a-48cd-9e96-83f1f482688a}</property>
  <property name="kdenlive:clip_type">2</property>
  <property name="kdenlive:file_size">1865231</property>
  <property name="kdenlive:file_hash">dc86df6134ffa6c185317f2e045bc61c</property>
 </producer>
 <producer id="producer21" in="00:00:00.000" out="00:00:04.958">
  <property name="length">00:00:05.000</property>
  <property name="eof">pause</property>
  <property name="resource">LOGO/logo_0017.png</property>
  <property name="ttl">25</property>
  <property name="aspect_ratio">1</property>
  <property name="meta.media.progressive">1</property>
  <property name="seekable">1</property>
  <property name="format">2</property>
  <property name="meta.media.width">1920</property>
  <property name="meta.media.height">1080</property>
  <property name="mlt_service">qimage</property>
  <property name="kdenlive:duration">00:00:05:00</property>
  <property name="xml">was here</property>
  <property name="kdenlive:folderid">15</property>
  <property name="kdenlive:id">32</property>
  <property name="kdenlive:control_uuid">{c5d268c8-1167-40aa-aaa8-b85ac4871015}</property>
  <property name="kdenlive:clip_type">2</property>
  <property name="kdenlive:file_size">1853155</property>
  <property name="kdenlive:file_hash">7a14dab2b51fcd8a23381314348e1b8b</property>
 </producer>
 <producer id="producer22" in="00:00:00.000" out="00:00:04.958">
  <property name="length">00:00:05.000</property>
  <property name="eof">pause</property>
  <property name="resource">LOGO/logo_0018.png</property>
  <property name="ttl">25</property>
  <property name="aspect_ratio">1</property>
  <property name="meta.media.progressive">1</property>
  <property name="seekable">1</property>
  <property name="format">2</property>
  <property name="meta.media.width">1920</property>
  <property name="meta.media.height">1080</property>
  <property name="mlt_service">qimage</property>
  <property name="kdenlive:duration">00:00:05:00</property>
  <property name="xml">was here</property>
  <property name="kdenlive:folderid">15</property>
  <property name="kdenlive:id">33</property>
  <property name="kdenlive:control_uuid">{d4a582aa-d971-4f48-b62f-4381200743c6}</property>
  <property name="kdenlive:clip_type">2</property>
  <property name="kdenlive:file_size">1846433</property>
  <property name="kdenlive:file_hash">034526b45566c670e360fe52f9521f63</property>
 </producer>
 <producer id="producer23" in="00:00:00.000" out="00:00:04.958">
  <property name="length">00:00:05.000</property>
  <property name="eof">pause</property>
  <property name="resource">LOGO/logo_0019.png</property>
  <property name="ttl">25</property>
  <property name="aspect_ratio">1</property>
  <property name="meta.media.progressive">1</property>
  <property name="seekable">1</property>
  <property name="format">2</property>
  <property name="meta.media.width">1920</property>
  <property name="meta.media.height">1080</property>
  <property name="mlt_service">qimage</property>
  <property name="kdenlive:duration">00:00:05:00</property>
  <property name="xml">was here</property>
  <property name="kdenlive:folderid">15</property>
  <property name="kdenlive:id">34</property>
  <property name="kdenlive:control_uuid">{97b4715c-3f24-4970-8483-bbbdaeaca856}</property>
  <property name="kdenlive:clip_type">2</property>
  <property name="kdenlive:file_size">1837325</property>
  <property name="kdenlive:file_hash">0d7c5d01ddeb7376b9e69bf4bf0adcc1</property>
 </producer>
 <producer id="producer24" in="00:00:00.000" out="00:00:04.958">
  <property name="length">00:00:05.000</property>
  <property name="eof">pause</property>
  <property name="resource">LOGO/logo_0021.png</property>
  <property name="ttl">25</property>
  <property name="aspect_ratio">1</property>
  <property name="meta.media.progressive">1</property>
  <property name="seekable">1</property>
  <property name="format">2</property>
  <property name="meta.media.width">1920</property>
  <property name="meta.media.height">1080</property>
  <property name="mlt_service">qimage</property>
  <property name="kdenlive:duration">00:00:05:00</property>
  <property name="xml">was here</property>
  <property name="kdenlive:folderid">15</property>
  <property name="kdenlive:id">36</property>
  <property name="kdenlive:control_uuid">{ae6fc442-d533-4ad3-a88e-b6a8f3d4abbf}</property>
  <property name="kdenlive:clip_type">2</property>
  <property name="kdenlive:file_size">1823372</property>
  <property name="kdenlive:file_hash">1babecd1237504c9a9fa9bd51f534de1</property>
 </producer>
 <producer id="producer25" in="00:00:00.000" out="00:00:04.958">
  <property name="length">00:00:05.000</property>
  <property name="eof">pause</property>
  <property name="resource">LOGO/logo_0022.png</property>
  <property name="ttl">25</property>
  <property name="aspect_ratio">1</property>
  <property name="meta.media.progressive">1</property>
  <property name="seekable">1</property>
  <property name="format">2</property>
  <property name="meta.media.width">1920</property>
  <property name="meta.media.height">1080</property>
  <property name="mlt_service">qimage</property>
  <property name="kdenlive:duration">00:00:05:00</property>
  <property name="xml">was here</property>
  <property name="kdenlive:folderid">15</property>
  <property name="kdenlive:id">37</property>
  <property name="kdenlive:control_uuid">{a6620793-dedd-44d7-a2f4-f88d2b835fb1}</property>
  <property name="kdenlive:clip_type">2</property>
  <property name="kdenlive:file_size">1816511</property>
  <property name="kdenlive:file_hash">3ef7b3ae98e29fb678842a0dc4b1bbbf</property>
 </producer>
 <producer id="producer26" in="00:00:00.000" out="00:00:04.958">
  <property name="length">00:00:05.000</property>
  <property name="eof">pause</property>
  <property name="resource">LOGO/logo_0023.png</property>
  <property name="ttl">25</property>
  <property name="aspect_ratio">1</property>
  <property name="meta.media.progressive">1</property>
  <property name="seekable">1</property>
  <property name="format">2</property>
  <property name="meta.media.width">1920</property>
  <property name="meta.media.height">1080</property>
  <property name="mlt_service">qimage</property>
  <property name="kdenlive:duration">00:00:05:00</property>
  <property name="xml">was here</property>
  <property name="kdenlive:folderid">15</property>
  <property name="kdenlive:id">38</property>
  <property name="kdenlive:control_uuid">{b6635b3c-cd52-483c-ab32-dd149add2513}</property>
  <property name="kdenlive:clip_type">2</property>
  <property name="kdenlive:file_size">1809670</property>
  <property name="kdenlive:file_hash">d1705ea996a0cd997527142cc2d02a20</property>
 </producer>
 <producer id="producer27" in="00:00:00.000" out="00:00:04.958">
  <property name="length">00:00:05.000</property>
  <property name="eof">pause</property>
  <property name="resource">LOGO/logo_0020.png</property>
  <property name="ttl">25</property>
  <property name="aspect_ratio">1</property>
  <property name="meta.media.progressive">1</property>
  <property name="seekable">1</property>
  <property name="format">2</property>
  <property name="meta.media.width">1920</property>
  <property name="meta.media.height">1080</property>
  <property name="mlt_service">qimage</property>
  <property name="kdenlive:duration">00:00:05:00</property>
  <property name="xml">was here</property>
  <property name="kdenlive:folderid">15</property>
  <property name="kdenlive:id">35</property>
  <property name="kdenlive:control_uuid">{bd549043-fad1-466d-a28a-6a64fcf5bd02}</property>
  <property name="kdenlive:clip_type">2</property>
  <property name="kdenlive:file_size">1830355</property>
  <property name="kdenlive:file_hash">9bf46a54cb08f58165981d0af74d1f43</property>
 </producer>
 <producer id="producer28" in="00:00:00.000" out="00:00:04.958">
  <property name="length">00:00:05.000</property>
  <property name="eof">pause</property>
  <property name="resource">LOGO/logo_0024.png</property>
  <property name="ttl">25</property>
  <property name="aspect_ratio">1</property>
  <property name="meta.media.progressive">1</property>
  <property name="seekable">1</property>
  <property name="format">2</property>
  <property name="meta.media.width">1920</property>
  <property name="meta.media.height">1080</property>
  <property name="mlt_service">qimage</property>
  <property name="kdenlive:duration">00:00:05:00</property>
  <property name="xml">was here</property>
  <property name="kdenlive:folderid">15</property>
  <property name="kdenlive:id">39</property>
  <property name="kdenlive:control_uuid">{13ab6f37-2585-41db-917d-66dff72fca47}</property>
  <property name="kdenlive:clip_type">2</property>
  <property name="kdenlive:file_size">1802455</property>
  <property name="kdenlive:file_hash">5633aa824c228a48013a29f1623b8a2c</property>
 </producer>
 <producer id="producer29" in="00:00:00.000" out="00:00:04.958">
  <property name="length">00:00:05.000</property>
  <property name="eof">pause</property>
  <property name="resource">LOGO/logo_0025.png</property>
  <property name="ttl">25</property>
  <property name="aspect_ratio">1</property>
  <property name="meta.media.progressive">1</property>
  <property name="seekable">1</property>
  <property name="format">2</property>
  <property name="meta.media.width">1920</property>
  <property name="meta.media.height">1080</property>
  <property name="mlt_service">qimage</property>
  <property name="kdenlive:duration">00:00:05:00</property>
  <property name="xml">was here</property>
  <property name="kdenlive:folderid">15</property>
  <property name="kdenlive:id">40</property>
  <property name="kdenlive:control_uuid">{e4f6b1ee-271c-470f-8349-9aad2cddd64a}</property>
  <property name="kdenlive:clip_type">2</property>
  <property name="kdenlive:file_size">1793652</property>
  <property name="kdenlive:file_hash">690525c4a7c116a1b6cf15f6f4507990</property>
 </producer>
 <producer id="producer30" in="00:00:00.000" out="00:00:04.958">
  <property name="length">00:00:05.000</property>
  <property name="eof">pause</property>
  <property name="resource">LOGO/logo_0026.png</property>
  <property name="ttl">25</property>
  <property name="aspect_ratio">1</property>
  <property name="meta.media.progressive">1</property>
  <property name="seekable">1</property>
  <property name="format">2</property>
  <property name="meta.media.width">1920</property>
  <property name="meta.media.height">1080</property>
  <property name="mlt_service">qimage</property>
  <property name="kdenlive:duration">00:00:05:00</property>
  <property name="xml">was here</property>
  <property name="kdenlive:folderid">15</property>
  <property name="kdenlive:id">41</property>
  <property name="kdenlive:control_uuid">{ac50cb56-2e77-4a09-888f-43862b74079b}</property>
  <property name="kdenlive:clip_type">2</property>
  <property name="kdenlive:file_size">1784104</property>
  <property name="kdenlive:file_hash">96da6c798d12acf4ec099df4e65e184b</property>
 </producer>
 <producer id="producer31" in="00:00:00.000" out="00:00:04.958">
  <property name="length">00:00:05.000</property>
  <property name="eof">pause</property>
  <property name="resource">LOGO/logo_0028.png</property>
  <property name="ttl">25</property>
  <property name="aspect_ratio">1</property>
  <property name="meta.media.progressive">1</property>
  <property name="seekable">1</property>
  <property name="format">2</property>
  <property name="meta.media.width">1920</property>
  <property name="meta.media.height">1080</property>
  <property name="mlt_service">qimage</property>
  <property name="kdenlive:duration">00:00:05:00</property>
  <property name="xml">was here</property>
  <property name="kdenlive:folderid">15</property>
  <property name="kdenlive:id">43</property>
  <property name="kdenlive:control_uuid">{f9ba8f38-1115-4478-b354-8c5fb0761c33}</property>
  <property name="kdenlive:clip_type">2</property>
  <property name="kdenlive:file_size">1770147</property>
  <property name="kdenlive:file_hash">ba2074f4c1863c7f1f43ca3472e9bcb2</property>
 </producer>
 <producer id="producer32" in="00:00:00.000" out="00:00:04.958">
  <property name="length">00:00:05.000</property>
  <property name="eof">pause</property>
  <property name="resource">LOGO/logo_0029.png</property>
  <property name="ttl">25</property>
  <property name="aspect_ratio">1</property>
  <property name="meta.media.progressive">1</property>
  <property name="seekable">1</property>
  <property name="format">2</property>
  <property name="meta.media.width">1920</property>
  <property name="meta.media.height">1080</property>
  <property name="mlt_service">qimage</property>
  <property name="kdenlive:duration">00:00:05:00</property>
  <property name="xml">was here</property>
  <property name="kdenlive:folderid">15</property>
  <property name="kdenlive:id">44</property>
  <property name="kdenlive:control_uuid">{bb97e08c-9e66-4799-a5b0-a7d8ba0ca5a2}</property>
  <property name="kdenlive:clip_type">2</property>
  <property name="kdenlive:file_size">1764370</property>
  <property name="kdenlive:file_hash">8133031f4e8c8940818ecebb3848f548</property>
 </producer>
 <producer id="producer33" in="00:00:00.000" out="00:00:04.958">
  <property name="length">00:00:05.000</property>
  <property name="eof">pause</property>
  <property name="resource">LOGO/logo_0027.png</property>
  <property name="ttl">25</property>
  <property name="aspect_ratio">1</property>
  <property name="meta.media.progressive">1</property>
  <property name="seekable">1</property>
  <property name="format">2</property>
  <property name="meta.media.width">1920</property>
  <property name="meta.media.height">1080</property>
  <property name="mlt_service">qimage</property>
  <property name="kdenlive:duration">00:00:05:00</property>
  <property name="xml">was here</property>
  <property name="kdenlive:folderid">15</property>
  <property name="kdenlive:id">42</property>
  <property name="kdenlive:control_uuid">{1f3d7017-0037-47cf-b35e-6fa5772a36ed}</property>
  <property name="kdenlive:clip_type">2</property>
  <property name="kdenlive:file_size">1777546</property>
  <property name="kdenlive:file_hash">dc1ea2a12a9f05510d5be31f0bf31e86</property>
 </producer>
 <producer id="producer34" in="00:00:00.000" out="00:00:04.958">
  <property name="length">00:00:05.000</property>
  <property name="eof">pause</property>
  <property name="resource">LOGO/logo_0030.png</property>
  <property name="ttl">25</property>
  <property name="aspect_ratio">1</property>
  <property name="meta.media.progressive">1</property>
  <property name="seekable">1</property>
  <property name="format">2</property>
  <property name="meta.media.width">1920</property>
  <property name="meta.media.height">1080</property>
  <property name="mlt_service">qimage</property>
  <property name="kdenlive:duration">00:00:05:00</property>
  <property name="xml">was here</property>
  <property name="kdenlive:folderid">15</property>
  <property name="kdenlive:id">45</property>
  <property name="kdenlive:control_uuid">{b5889f43-3fe5-46a6-8132-d9a17d08878d}</property>
  <property name="kdenlive:clip_type">2</property>
  <property name="kdenlive:file_size">1756246</property>
  <property name="kdenlive:file_hash">4b822780cd71d727ba3cd45a900cb28d</property>
 </producer>
 <producer id="producer35" in="00:00:00.000" out="00:00:04.958">
  <property name="length">00:00:05.000</property>
  <property name="eof">pause</property>
  <property name="resource">LOGO/logo_0031.png</property>
  <property name="ttl">25</property>
  <property name="aspect_ratio">1</property>
  <property name="meta.media.progressive">1</property>
  <property name="seekable">1</property>
  <property name="format">2</property>
  <property name="meta.media.width">1920</property>
  <property name="meta.media.height">1080</property>
  <property name="mlt_service">qimage</property>
  <property name="kdenlive:duration">00:00:05:00</property>
  <property name="xml">was here</property>
  <property name="kdenlive:folderid">15</property>
  <property name="kdenlive:id">46</property>
  <property name="kdenlive:control_uuid">{213720d0-4c10-4a01-bb2e-d826e2cea296}</property>
  <property name="kdenlive:clip_type">2</property>
  <property name="kdenlive:file_size">1746111</property>
  <property name="kdenlive:file_hash">844eddaa06f9a2d333c0c8eeb947afcc</property>
 </producer>
 <producer id="producer36" in="00:00:00.000" out="00:00:04.958">
  <property name="length">00:00:05.000</property>
  <property name="eof">pause</property>
  <property name="resource">LOGO/logo_0032.png</property>
  <property name="ttl">25</property>
  <property name="aspect_ratio">1</property>
  <property name="meta.media.progressive">1</property>
  <property name="seekable">1</property>
  <property name="format">2</property>
  <property name="meta.media.width">1920</property>
  <property name="meta.media.height">1080</property>
  <property name="mlt_service">qimage</property>
  <property name="kdenlive:duration">00:00:05:00</property>
  <property name="xml">was here</property>
  <property name="kdenlive:folderid">15</property>
  <property name="kdenlive:id">47</property>
  <property name="kdenlive:control_uuid">{c6de02d1-7379-4ff8-b4b5-c6394c70c638}</property>
  <property name="kdenlive:clip_type">2</property>
  <property name="kdenlive:file_size">1736591</property>
  <property name="kdenlive:file_hash">2320cf342274acc3f83ec56ac7404803</property>
 </producer>
 <producer id="producer37" in="00:00:00.000" out="00:00:04.958">
  <property name="length">00:00:05.000</property>
  <property name="eof">pause</property>
  <property name="resource">LOGO/logo_0034.png</property>
  <property name="ttl">25</property>
  <property name="aspect_ratio">1</property>
  <property name="meta.media.progressive">1</property>
  <property name="seekable">1</property>
  <property name="format">2</property>
  <property name="meta.media.width">1920</property>
  <property name="meta.media.height">1080</property>
  <property name="mlt_service">qimage</property>
  <property name="kdenlive:duration">00:00:05:00</property>
  <property name="xml">was here</property>
  <property name="kdenlive:folderid">15</property>
  <property name="kdenlive:id">49</property>
  <property name="kdenlive:control_uuid">{72c89387-265e-4f71-b61a-8300cfa8d482}</property>
  <property name="kdenlive:clip_type">2</property>
  <property name="kdenlive:file_size">1719591</property>
  <property name="kdenlive:file_hash">e8b2ebd68c189d11975f5f42f711f785</property>
 </producer>
 <producer id="producer38" in="00:00:00.000" out="00:00:04.958">
  <property name="length">00:00:05.000</property>
  <property name="eof">pause</property>
  <property name="resource">LOGO/logo_0033.png</property>
  <property name="ttl">25</property>
  <property name="aspect_ratio">1</property>
  <property name="meta.media.progressive">1</property>
  <property name="seekable">1</property>
  <property name="format">2</property>
  <property name="meta.media.width">1920</property>
  <property name="meta.media.height">1080</property>
  <property name="mlt_service">qimage</property>
  <property name="kdenlive:duration">00:00:05:00</property>
  <property name="xml">was here</property>
  <property name="kdenlive:folderid">15</property>
  <property name="kdenlive:id">48</property>
  <property name="kdenlive:control_uuid">{0b0e8821-bcbf-4717-a06c-79eb27fb2ce1}</property>
  <property name="kdenlive:clip_type">2</property>
  <property name="kdenlive:file_size">1724517</property>
  <property name="kdenlive:file_hash">b6f3f5b7d40656bcb1bb49bb5a31269d</property>
 </producer>
 <producer id="producer39" in="00:00:00.000" out="00:00:04.958">
  <property name="length">00:00:05.000</property>
  <property name="eof">pause</property>
  <property name="resource">LOGO/logo_0035.png</property>
  <property name="ttl">25</property>
  <property name="aspect_ratio">1</property>
  <property name="meta.media.progressive">1</property>
  <property name="seekable">1</property>
  <property name="format">2</property>
  <property name="meta.media.width">1920</property>
  <property name="meta.media.height">1080</property>
  <property name="mlt_service">qimage</property>
  <property name="kdenlive:duration">00:00:05:00</property>
  <property name="xml">was here</property>
  <property name="kdenlive:folderid">15</property>
  <property name="kdenlive:id">50</property>
  <property name="kdenlive:control_uuid">{6b6bb9c6-ccb3-40de-a85c-124834fde598}</property>
  <property name="kdenlive:clip_type">2</property>
  <property name="kdenlive:file_size">1707188</property>
  <property name="kdenlive:file_hash">8d905f9c16018ed182a15fbf5ff0ce90</property>
 </producer>
 <producer id="producer40" in="00:00:00.000" out="00:00:04.958">
  <property name="length">00:00:05.000</property>
  <property name="eof">pause</property>
  <property name="resource">LOGO/logo_0036.png</property>
  <property name="ttl">25</property>
  <property name="aspect_ratio">1</property>
  <property name="meta.media.progressive">1</property>
  <property name="seekable">1</property>
  <property name="format">2</property>
  <property name="meta.media.width">1920</property>
  <property name="meta.media.height">1080</property>
  <property name="mlt_service">qimage</property>
  <property name="kdenlive:duration">00:00:05:00</property>
  <property name="xml">was here</property>
  <property name="kdenlive:folderid">15</property>
  <property name="kdenlive:id">51</property>
  <property name="kdenlive:control_uuid">{25cc733c-53ed-427f-b07b-464708c63d80}</property>
  <property name="kdenlive:clip_type">2</property>
  <property name="kdenlive:file_size">1693269</property>
  <property name="kdenlive:file_hash">e5ebced497d13a4f43e749f31dd80b02</property>
 </producer>
 <producer id="producer41" in="00:00:00.000" out="00:00:04.958">
  <property name="length">00:00:05.000</property>
  <property name="eof">pause</property>
  <property name="resource">LOGO/logo_0037.png</property>
  <property name="ttl">25</property>
  <property name="aspect_ratio">1</property>
  <property name="meta.media.progressive">1</property>
  <property name="seekable">1</property>
  <property name="format">2</property>
  <property name="meta.media.width">1920</property>
  <property name="meta.media.height">1080</property>
  <property name="mlt_service">qimage</property>
  <property name="kdenlive:duration">00:00:05:00</property>
  <property name="xml">was here</property>
  <property name="kdenlive:folderid">15</property>
  <property name="kdenlive:id">52</property>
  <property name="kdenlive:control_uuid">{e7bc3fa5-923a-4603-807a-3da1e6d32b71}</property>
  <property name="kdenlive:clip_type">2</property>
  <property name="kdenlive:file_size">1680545</property>
  <property name="kdenlive:file_hash">e88639d9a075313ba0b84303bb9e7070</property>
 </producer>
 <producer id="producer42" in="00:00:00.000" out="00:00:04.958">
  <property name="length">00:00:05.000</property>
  <property name="eof">pause</property>
  <property name="resource">LOGO/logo_0039.png</property>
  <property name="ttl">25</property>
  <property name="aspect_ratio">1</property>
  <property name="meta.media.progressive">1</property>
  <property name="seekable">1</property>
  <property name="format">2</property>
  <property name="meta.media.width">1920</property>
  <property name="meta.media.height">1080</property>
  <property name="mlt_service">qimage</property>
  <property name="kdenlive:duration">00:00:05:00</property>
  <property name="xml">was here</property>
  <property name="kdenlive:folderid">15</property>
  <property name="kdenlive:id">54</property>
  <property name="kdenlive:control_uuid">{862cea7e-ae0c-4fe4-b4b6-9915f7b003e1}</property>
  <property name="kdenlive:clip_type">2</property>
  <property name="kdenlive:file_size">1654644</property>
  <property name="kdenlive:file_hash">c5468e6ce91eb57cf05a5f8e9b04c717</property>
 </producer>
 <producer id="producer43" in="00:00:00.000" out="00:00:04.958">
  <property name="length">00:00:05.000</property>
  <property name="eof">pause</property>
  <property name="resource">LOGO/logo_0040.png</property>
  <property name="ttl">25</property>
  <property name="aspect_ratio">1</property>
  <property name="meta.media.progressive">1</property>
  <property name="seekable">1</property>
  <property name="format">2</property>
  <property name="meta.media.width">1920</property>
  <property name="meta.media.height">1080</property>
  <property name="mlt_service">qimage</property>
  <property name="kdenlive:duration">00:00:05:00</property>
  <property name="xml">was here</property>
  <property name="kdenlive:folderid">15</property>
  <property name="kdenlive:id">55</property>
  <property name="kdenlive:control_uuid">{43ff7c5c-5bdc-4266-9f54-92abc59bda05}</property>
  <property name="kdenlive:clip_type">2</property>
  <property name="kdenlive:file_size">1642408</property>
  <property name="kdenlive:file_hash">dc2041bed420fdcc9a46d29c7c2b16f9</property>
 </producer>
 <producer id="producer44" in="00:00:00.000" out="00:00:04.958">
  <property name="length">00:00:05.000</property>
  <property name="eof">pause</property>
  <property name="resource">LOGO/logo_0038.png</property>
  <property name="ttl">25</property>
  <property name="aspect_ratio">1</property>
  <property name="meta.media.progressive">1</property>
  <property name="seekable">1</property>
  <property name="format">2</property>
  <property name="meta.media.width">1920</property>
  <property name="meta.media.height">1080</property>
  <property name="mlt_service">qimage</property>
  <property name="kdenlive:duration">00:00:05:00</property>
  <property name="xml">was here</property>
  <property name="kdenlive:folderid">15</property>
  <property name="kdenlive:id">53</property>
  <property name="kdenlive:control_uuid">{5e131d8d-249c-430f-93a9-7b416e9164ce}</property>
  <property name="kdenlive:clip_type">2</property>
  <property name="kdenlive:file_size">1668024</property>
  <property name="kdenlive:file_hash">ed40034635a8959ecf644e2cb8f1656d</property>
 </producer>
 <producer id="producer45" in="00:00:00.000" out="00:00:04.958">
  <property name="length">00:00:05.000</property>
  <property name="eof">pause</property>
  <property name="resource">LOGO/logo_0041.png</property>
  <property name="ttl">25</property>
  <property name="aspect_ratio">1</property>
  <property name="meta.media.progressive">1</property>
  <property name="seekable">1</property>
  <property name="format">2</property>
  <property name="meta.media.width">1920</property>
  <property name="meta.media.height">1080</property>
  <property name="mlt_service">qimage</property>
  <property name="kdenlive:duration">00:00:05:00</property>
  <property name="xml">was here</property>
  <property name="kdenlive:folderid">15</property>
  <property name="kdenlive:id">56</property>
  <property name="kdenlive:control_uuid">{d4161c0b-054d-4209-ada2-9ba1d837a77e}</property>
  <property name="kdenlive:clip_type">2</property>
  <property name="kdenlive:file_size">1626904</property>
  <property name="kdenlive:file_hash">e6c927a12ff6fa909e856c16146251b7</property>
 </producer>
 <producer id="producer46" in="00:00:00.000" out="00:00:04.958">
  <property name="length">00:00:05.000</property>
  <property name="eof">pause</property>
  <property name="resource">LOGO/logo_0042.png</property>
  <property name="ttl">25</property>
  <property name="aspect_ratio">1</property>
  <property name="meta.media.progressive">1</property>
  <property name="seekable">1</property>
  <property name="format">2</property>
  <property name="meta.media.width">1920</property>
  <property name="meta.media.height">1080</property>
  <property name="mlt_service">qimage</property>
  <property name="kdenlive:duration">00:00:05:00</property>
  <property name="xml">was here</property>
  <property name="kdenlive:folderid">15</property>
  <property name="kdenlive:id">57</property>
  <property name="kdenlive:control_uuid">{a78424b2-6b69-4702-bfa6-087976419659}</property>
  <property name="kdenlive:clip_type">2</property>
  <property name="kdenlive:file_size">1615837</property>
  <property name="kdenlive:file_hash">0623f36a590d515dd2f428c84ac1beed</property>
 </producer>
 <producer id="producer47" in="00:00:00.000" out="00:00:04.958">
  <property name="length">00:00:05.000</property>
  <property name="eof">pause</property>
  <property name="resource">LOGO/logo_0043.png</property>
  <property name="ttl">25</property>
  <property name="aspect_ratio">1</property>
  <property name="meta.media.progressive">1</property>
  <property name="seekable">1</property>
  <property name="format">2</property>
  <property name="meta.media.width">1920</property>
  <property name="meta.media.height">1080</property>
  <property name="mlt_service">qimage</property>
  <property name="kdenlive:duration">00:00:05:00</property>
  <property name="xml">was here</property>
  <property name="kdenlive:folderid">15</property>
  <property name="kdenlive:id">58</property>
  <property name="kdenlive:control_uuid">{f96470eb-8fc4-4cee-9816-14913c413926}</property>
  <property name="kdenlive:clip_type">2</property>
  <property name="kdenlive:file_size">1603018</property>
  <property name="kdenlive:file_hash">d4dfb8251f7bfabaa7959559b100453b</property>
 </producer>
 <producer id="producer48" in="00:00:00.000" out="00:00:04.958">
  <property name="length">00:00:05.000</property>
  <property name="eof">pause</property>
  <property name="resource">LOGO/logo_0045.png</property>
  <property name="ttl">25</property>
  <property name="aspect_ratio">1</property>
  <property name="meta.media.progressive">1</property>
  <property name="seekable">1</property>
  <property name="format">2</property>
  <property name="meta.media.width">1920</property>
  <property name="meta.media.height">1080</property>
  <property name="mlt_service">qimage</property>
  <property name="kdenlive:duration">00:00:05:00</property>
  <property name="xml">was here</property>
  <property name="kdenlive:folderid">15</property>
  <property name="kdenlive:id">60</property>
  <property name="kdenlive:control_uuid">{e0d5c73a-560a-4013-9650-8fd07efe70ba}</property>
  <property name="kdenlive:clip_type">2</property>
  <property name="kdenlive:file_size">1576116</property>
  <property name="kdenlive:file_hash">8459cb582d3ebbb18999d06d16b0eb89</property>
 </producer>
 <producer id="producer49" in="00:00:00.000" out="00:00:04.958">
  <property name="length">00:00:05.000</property>
  <property name="eof">pause</property>
  <property name="resource">LOGO/logo_0046.png</property>
  <property name="ttl">25</property>
  <property name="aspect_ratio">1</property>
  <property name="meta.media.progressive">1</property>
  <property name="seekable">1</property>
  <property name="format">2</property>
  <property name="meta.media.width">1920</property>
  <property name="meta.media.height">1080</property>
  <property name="mlt_service">qimage</property>
  <property name="kdenlive:duration">00:00:05:00</property>
  <property name="xml">was here</property>
  <property name="kdenlive:folderid">15</property>
  <property name="kdenlive:id">61</property>
  <property name="kdenlive:control_uuid">{3e33b498-6530-48af-b6b1-24fc3d1030ae}</property>
  <property name="kdenlive:clip_type">2</property>
  <property name="kdenlive:file_size">1557824</property>
  <property name="kdenlive:file_hash">a915f886e13e8230feab4aab73b0ec2a</property>
 </producer>
 <producer id="producer50" in="00:00:00.000" out="00:00:04.958">
  <property name="length">00:00:05.000</property>
  <property name="eof">pause</property>
  <property name="resource">LOGO/logo_0044.png</property>
  <property name="ttl">25</property>
  <property name="aspect_ratio">1</property>
  <property name="meta.media.progressive">1</property>
  <property name="seekable">1</property>
  <property name="format">2</property>
  <property name="meta.media.width">1920</property>
  <property name="meta.media.height">1080</property>
  <property name="mlt_service">qimage</property>
  <property name="kdenlive:duration">00:00:05:00</property>
  <property name="xml">was here</property>
  <property name="kdenlive:folderid">15</property>
  <property name="kdenlive:id">59</property>
  <property name="kdenlive:control_uuid">{e57c55fe-d24f-4506-90f4-084fe91a642a}</property>
  <property name="kdenlive:clip_type">2</property>
  <property name="kdenlive:file_size">1591183</property>
  <property name="kdenlive:file_hash">ea4a1bce3cb9ddc434ccb2441dba8268</property>
 </producer>
 <producer id="producer51" in="00:00:00.000" out="00:00:04.958">
  <property name="length">00:00:05.000</property>
  <property name="eof">pause</property>
  <property name="resource">LOGO/logo_0047.png</property>
  <property name="ttl">25</property>
  <property name="aspect_ratio">1</property>
  <property name="meta.media.progressive">1</property>
  <property name="seekable">1</property>
  <property name="format">2</property>
  <property name="meta.media.width">1920</property>
  <property name="meta.media.height">1080</property>
  <property name="mlt_service">qimage</property>
  <property name="kdenlive:duration">00:00:05:00</property>
  <property name="xml">was here</property>
  <property name="kdenlive:folderid">15</property>
  <property name="kdenlive:id">62</property>
  <property name="kdenlive:control_uuid">{9ca93f3f-289e-45b8-9a25-3720682d3c96}</property>
  <property name="kdenlive:clip_type">2</property>
  <property name="kdenlive:file_size">1538032</property>
  <property name="kdenlive:file_hash">ad5ca99f274cd6964d14da5e31dd5207</property>
 </producer>
 <producer id="producer52" in="00:00:00.000" out="00:00:04.958">
  <property name="length">00:00:05.000</property>
  <property name="eof">pause</property>
  <property name="resource">LOGO/logo_0048.png</property>
  <property name="ttl">25</property>
  <property name="aspect_ratio">1</property>
  <property name="meta.media.progressive">1</property>
  <property name="seekable">1</property>
  <property name="format">2</property>
  <property name="meta.media.width">1920</property>
  <property name="meta.media.height">1080</property>
  <property name="mlt_service">qimage</property>
  <property name="kdenlive:duration">00:00:05:00</property>
  <property name="xml">was here</property>
  <property name="kdenlive:folderid">15</property>
  <property name="kdenlive:id">63</property>
  <property name="kdenlive:control_uuid">{8603b206-f88c-4897-9cd4-91bb43918be0}</property>
  <property name="kdenlive:clip_type">2</property>
  <property name="kdenlive:file_size">1521575</property>
  <property name="kdenlive:file_hash">a274d375d9a25b03e4b2680b06368102</property>
 </producer>
 <producer id="producer53" in="00:00:00.000" out="00:00:04.958">
  <property name="length">00:00:05.000</property>
  <property name="eof">pause</property>
  <property name="resource">LOGO/logo_0049.png</property>
  <property name="ttl">25</property>
  <property name="aspect_ratio">1</property>
  <property name="meta.media.progressive">1</property>
  <property name="seekable">1</property>
  <property name="format">2</property>
  <property name="meta.media.width">1920</property>
  <property name="meta.media.height">1080</property>
  <property name="mlt_service">qimage</property>
  <property name="kdenlive:duration">00:00:05:00</property>
  <property name="xml">was here</property>
  <property name="kdenlive:folderid">15</property>
  <property name="kdenlive:id">64</property>
  <property name="kdenlive:control_uuid">{b67568d6-baee-441c-a112-5c4b46750b11}</property>
  <property name="kdenlive:clip_type">2</property>
  <property name="kdenlive:file_size">1498767</property>
  <property name="kdenlive:file_hash">725dd27b7df9484c970018b858c8c94f</property>
 </producer>
 <producer id="producer54" in="00:00:00.000" out="00:00:04.958">
  <property name="length">00:00:05.000</property>
  <property name="eof">pause</property>
  <property name="resource">LOGO/logo_0051.png</property>
  <property name="ttl">25</property>
  <property name="aspect_ratio">1</property>
  <property name="meta.media.progressive">1</property>
  <property name="seekable">1</property>
  <property name="format">2</property>
  <property name="meta.media.width">1920</property>
  <property name="meta.media.height">1080</property>
  <property name="mlt_service">qimage</property>
  <property name="kdenlive:duration">00:00:05:00</property>
  <property name="xml">was here</property>
  <property name="kdenlive:folderid">15</property>
  <property name="kdenlive:id">66</property>
  <property name="kdenlive:control_uuid">{ec4a9e7c-e02e-4894-9f11-2be1ef3a7e61}</property>
  <property name="kdenlive:clip_type">2</property>
  <property name="kdenlive:file_size">1458635</property>
  <property name="kdenlive:file_hash">6c1a24fd56e8e185f8e5b0f7ce5e639d</property>
 </producer>
 <producer id="producer55" in="00:00:00.000" out="00:00:04.958">
  <property name="length">00:00:05.000</property>
  <property name="eof">pause</property>
  <property name="resource">LOGO/logo_0052.png</property>
  <property name="ttl">25</property>
  <property name="aspect_ratio">1</property>
  <property name="meta.media.progressive">1</property>
  <property name="seekable">1</property>
  <property name="format">2</property>
  <property name="meta.media.width">1920</property>
  <property name="meta.media.height">1080</property>
  <property name="mlt_service">qimage</property>
  <property name="kdenlive:duration">00:00:05:00</property>
  <property name="xml">was here</property>
  <property name="kdenlive:folderid">15</property>
  <property name="kdenlive:id">67</property>
  <property name="kdenlive:control_uuid">{673ca28a-d5b2-418d-9b8c-148eca9ec900}</property>
  <property name="kdenlive:clip_type">2</property>
  <property name="kdenlive:file_size">1437299</property>
  <property name="kdenlive:file_hash">4b9ed298c6fb0a03b8af8b755ada4f8c</property>
 </producer>
 <producer id="producer56" in="00:00:00.000" out="00:00:04.958">
  <property name="length">00:00:05.000</property>
  <property name="eof">pause</property>
  <property name="resource">LOGO/logo_0050.png</property>
  <property name="ttl">25</property>
  <property name="aspect_ratio">1</property>
  <property name="meta.media.progressive">1</property>
  <property name="seekable">1</property>
  <property name="format">2</property>
  <property name="meta.media.width">1920</property>
  <property name="meta.media.height">1080</property>
  <property name="mlt_service">qimage</property>
  <property name="kdenlive:duration">00:00:05:00</property>
  <property name="xml">was here</property>
  <property name="kdenlive:folderid">15</property>
  <property name="kdenlive:id">65</property>
  <property name="kdenlive:control_uuid">{eaf8f8e4-bdb2-470c-acf1-e54fc42c5dc9}</property>
  <property name="kdenlive:clip_type">2</property>
  <property name="kdenlive:file_size">1480275</property>
  <property name="kdenlive:file_hash">efd36356bba9869da37b001fbf010b55</property>
 </producer>
 <producer id="producer57" in="00:00:00.000" out="00:00:04.958">
  <property name="length">00:00:05.000</property>
  <property name="eof">pause</property>
  <property name="resource">LOGO/logo_0054.png</property>
  <property name="ttl">25</property>
  <property name="aspect_ratio">1</property>
  <property name="meta.media.progressive">1</property>
  <property name="seekable">1</property>
  <property name="format">2</property>
  <property name="meta.media.width">1920</property>
  <property name="meta.media.height">1080</property>
  <property name="mlt_service">qimage</property>
  <property name="kdenlive:duration">00:00:05:00</property>
  <property name="xml">was here</property>
  <property name="kdenlive:folderid">15</property>
  <property name="kdenlive:id">69</property>
  <property name="kdenlive:control_uuid">{ca947e37-4688-4fa0-bad4-03b417c94fe0}</property>
  <property name="kdenlive:clip_type">2</property>
  <property name="kdenlive:file_size">1394560</property>
  <property name="kdenlive:file_hash">9518cedb88af8260f19b17039698f6f0</property>
 </producer>
 <producer id="producer58" in="00:00:00.000" out="00:00:04.958">
  <property name="length">00:00:05.000</property>
  <property name="eof">pause</property>
  <property name="resource">LOGO/logo_0053.png</property>
  <property name="ttl">25</property>
  <property name="aspect_ratio">1</property>
  <property name="meta.media.progressive">1</property>
  <property name="seekable">1</property>
  <property name="format">2</property>
  <property name="meta.media.width">1920</property>
  <property name="meta.media.height">1080</property>
  <property name="mlt_service">qimage</property>
  <property name="kdenlive:duration">00:00:05:00</property>
  <property name="xml">was here</property>
  <property name="kdenlive:folderid">15</property>
  <property name="kdenlive:id">68</property>
  <property name="kdenlive:control_uuid">{03c64a64-4126-4487-b663-dfdc0cbed562}</property>
  <property name="kdenlive:clip_type">2</property>
  <property name="kdenlive:file_size">1413102</property>
  <property name="kdenlive:file_hash">da097ebd3f3b4d6e9ac0443c80b8097c</property>
 </producer>
 <producer id="producer59" in="00:00:00.000" out="00:00:04.958">
  <property name="length">00:00:05.000</property>
  <property name="eof">pause</property>
  <property name="resource">LOGO/logo_0055.png</property>
  <property name="ttl">25</property>
  <property name="aspect_ratio">1</property>
  <property name="meta.media.progressive">1</property>
  <property name="seekable">1</property>
  <property name="format">2</property>
  <property name="meta.media.width">1920</property>
  <property name="meta.media.height">1080</property>
  <property name="mlt_service">qimage</property>
  <property name="kdenlive:duration">00:00:05:00</property>
  <property name="xml">was here</property>
  <property name="kdenlive:folderid">15</property>
  <property name="kdenlive:id">70</property>
  <property name="kdenlive:control_uuid">{36c90319-3d73-41d8-a712-96195d115c19}</property>
  <property name="kdenlive:clip_type">2</property>
  <property name="kdenlive:file_size">1370824</property>
  <property name="kdenlive:file_hash">cb11654dc7ea16b417a9c7074e2957ce</property>
 </producer>
 <producer id="producer60" in="00:00:00.000" out="00:00:04.958">
  <property name="length">00:00:05.000</property>
  <property name="eof">pause</property>
  <property name="resource">LOGO/logo_0057.png</property>
  <property name="ttl">25</property>
  <property name="aspect_ratio">1</property>
  <property name="meta.media.progressive">1</property>
  <property name="seekable">1</property>
  <property name="format">2</property>
  <property name="meta.media.width">1920</property>
  <property name="meta.media.height">1080</property>
  <property name="mlt_service">qimage</property>
  <property name="kdenlive:duration">00:00:05:00</property>
  <property name="xml">was here</property>
  <property name="kdenlive:folderid">15</property>
  <property name="kdenlive:id">72</property>
  <property name="kdenlive:control_uuid">{d30a1054-6e77-4a5c-a249-2a9d5c94ea00}</property>
  <property name="kdenlive:clip_type">2</property>
  <property name="kdenlive:file_size">1321756</property>
  <property name="kdenlive:file_hash">6dbd8bc09de7f5bb2e4bc858792eac87</property>
 </producer>
 <producer id="producer61" in="00:00:00.000" out="00:00:04.958">
  <property name="length">00:00:05.000</property>
  <property name="eof">pause</property>
  <property name="resource">LOGO/logo_0056.png</property>
  <property name="ttl">25</property>
  <property name="aspect_ratio">1</property>
  <property name="meta.media.progressive">1</property>
  <property name="seekable">1</property>
  <property name="format">2</property>
  <property name="meta.media.width">1920</property>
  <property name="meta.media.height">1080</property>
  <property name="mlt_service">qimage</property>
  <property name="kdenlive:duration">00:00:05:00</property>
  <property name="xml">was here</property>
  <property name="kdenlive:folderid">15</property>
  <property name="kdenlive:id">71</property>
  <property name="kdenlive:control_uuid">{9c62392b-16e8-48c2-9824-ed62ef34b917}</property>
  <property name="kdenlive:clip_type">2</property>
  <property name="kdenlive:file_size">1350023</property>
  <property name="kdenlive:file_hash">a00fa38466771de4aced2edb146012f6</property>
 </producer>
 <producer id="producer62" in="00:00:00.000" out="00:00:04.958">
  <property name="length">00:00:05.000</property>
  <property name="eof">pause</property>
  <property name="resource">LOGO/logo_0058.png</property>
  <property name="ttl">25</property>
  <property name="aspect_ratio">1</property>
  <property name="meta.media.progressive">1</property>
  <property name="seekable">1</property>
  <property name="format">2</property>
  <property name="meta.media.width">1920</property>
  <property name="meta.media.height">1080</property>
  <property name="mlt_service">qimage</property>
  <property name="kdenlive:duration">00:00:05:00</property>
  <property name="xml">was here</property>
  <property name="kdenlive:folderid">15</property>
  <property name="kdenlive:id">73</property>
  <property name="kdenlive:control_uuid">{8e17d640-11f6-463e-9a45-0d294229b14e}</property>
  <property name="kdenlive:clip_type">2</property>
  <property name="kdenlive:file_size">1292622</property>
  <property name="kdenlive:file_hash">1bc98573a0fc7e5177721877526c9b25</property>
 </producer>
 <producer id="producer63" in="00:00:00.000" out="00:00:04.958">
  <property name="length">00:00:05.000</property>
  <property name="eof">pause</property>
  <property name="resource">LOGO/logo_0059.png</property>
  <property name="ttl">25</property>
  <property name="aspect_ratio">1</property>
  <property name="meta.media.progressive">1</property>
  <property name="seekable">1</property>
  <property name="format">2</property>
  <property name="meta.media.width">1920</property>
  <property name="meta.media.height">1080</property>
  <property name="mlt_service">qimage</property>
  <property name="kdenlive:duration">00:00:05:00</property>
  <property name="xml">was here</property>
  <property name="kdenlive:folderid">15</property>
  <property name="kdenlive:id">74</property>
  <property name="kdenlive:control_uuid">{5279bab3-0973-45dd-a105-f24d3df7da3a}</property>
  <property name="kdenlive:clip_type">2</property>
  <property name="kdenlive:file_size">1264498</property>
  <property name="kdenlive:file_hash">fec725b8c931859c9e25344dcd19ce62</property>
 </producer>
 <producer id="producer64" in="00:00:00.000" out="00:00:04.958">
  <property name="length">00:00:05.000</property>
  <property name="eof">pause</property>
  <property name="resource">LOGO/logo_0060.png</property>
  <property name="ttl">25</property>
  <property name="aspect_ratio">1</property>
  <property name="meta.media.progressive">1</property>
  <property name="seekable">1</property>
  <property name="format">2</property>
  <property name="meta.media.width">1920</property>
  <property name="meta.media.height">1080</property>
  <property name="mlt_service">qimage</property>
  <property name="kdenlive:duration">00:00:05:00</property>
  <property name="xml">was here</property>
  <property name="kdenlive:folderid">15</property>
  <property name="kdenlive:id">75</property>
  <property name="kdenlive:control_uuid">{d6e1260c-f40f-4d19-b975-b82dbd0a120b}</property>
  <property name="kdenlive:clip_type">2</property>
  <property name="kdenlive:file_size">1234317</property>
  <property name="kdenlive:file_hash">12785a656fdbf2abb3c2f12b8a8dc6f0</property>
 </producer>
 <producer id="producer65" in="00:00:00.000" out="00:00:04.958">
  <property name="length">00:00:05.000</property>
  <property name="eof">pause</property>
  <property name="resource">LOGO/logo_0062.png</property>
  <property name="ttl">25</property>
  <property name="aspect_ratio">1</property>
  <property name="meta.media.progressive">1</property>
  <property name="seekable">1</property>
  <property name="format">2</property>
  <property name="meta.media.width">1920</property>
  <property name="meta.media.height">1080</property>
  <property name="mlt_service">qimage</property>
  <property name="kdenlive:duration">00:00:05:00</property>
  <property name="xml">was here</property>
  <property name="kdenlive:folderid">15</property>
  <property name="kdenlive:id">77</property>
  <property name="kdenlive:control_uuid">{6cd3807e-b57b-4f29-b320-7681d4fed60e}</property>
  <property name="kdenlive:clip_type">2</property>
  <property name="kdenlive:file_size">1143728</property>
  <property name="kdenlive:file_hash">bd61ae16a4a684af822265c04befe10a</property>
 </producer>
 <producer id="producer66" in="00:00:00.000" out="00:00:04.958">
  <property name="length">00:00:05.000</property>
  <property name="eof">pause</property>
  <property name="resource">LOGO/logo_0063.png</property>
  <property name="ttl">25</property>
  <property name="aspect_ratio">1</property>
  <property name="meta.media.progressive">1</property>
  <property name="seekable">1</property>
  <property name="format">2</property>
  <property name="meta.media.width">1920</property>
  <property name="meta.media.height">1080</property>
  <property name="mlt_service">qimage</property>
  <property name="kdenlive:duration">00:00:05:00</property>
  <property name="xml">was here</property>
  <property name="kdenlive:folderid">15</property>
  <property name="kdenlive:id">78</property>
  <property name="kdenlive:control_uuid">{e933604b-e07e-4b1f-9661-efdc30e88403}</property>
  <property name="kdenlive:clip_type">2</property>
  <property name="kdenlive:file_size">1097062</property>
  <property name="kdenlive:file_hash">37b18cc90b28fbd5631a9ef5553ee7d2</property>
 </producer>
 <producer id="producer67" in="00:00:00.000" out="00:00:04.958">
  <property name="length">00:00:05.000</property>
  <property name="eof">pause</property>
  <property name="resource">LOGO/logo_0061.png</property>
  <property name="ttl">25</property>
  <property name="aspect_ratio">1</property>
  <property name="meta.media.progressive">1</property>
  <property name="seekable">1</property>
  <property name="format">2</property>
  <property name="meta.media.width">1920</property>
  <property name="meta.media.height">1080</property>
  <property name="mlt_service">qimage</property>
  <property name="kdenlive:duration">00:00:05:00</property>
  <property name="xml">was here</property>
  <property name="kdenlive:folderid">15</property>
  <property name="kdenlive:id">76</property>
  <property name="kdenlive:control_uuid">{59d8dc50-b450-469f-8e67-fbda0073a56d}</property>
  <property name="kdenlive:clip_type">2</property>
  <property name="kdenlive:file_size">1191754</property>
  <property name="kdenlive:file_hash">55807ec1f4abcf7e9248aff33776ec87</property>
 </producer>
 <producer id="producer68" in="00:00:00.000" out="00:00:04.958">
  <property name="length">00:00:05.000</property>
  <property name="eof">pause</property>
  <property name="resource">LOGO/logo_0064.png</property>
  <property name="ttl">25</property>
  <property name="aspect_ratio">1</property>
  <property name="meta.media.progressive">1</property>
  <property name="seekable">1</property>
  <property name="format">2</property>
  <property name="meta.media.width">1920</property>
  <property name="meta.media.height">1080</property>
  <property name="mlt_service">qimage</property>
  <property name="kdenlive:duration">00:00:05:00</property>
  <property name="xml">was here</property>
  <property name="kdenlive:folderid">15</property>
  <property name="kdenlive:id">79</property>
  <property name="kdenlive:control_uuid">{9c37b616-8058-4910-b4f5-4f0df959c225}</property>
  <property name="kdenlive:clip_type">2</property>
  <property name="kdenlive:file_size">1141401</property>
  <property name="kdenlive:file_hash">cd874db64e6051c91297d27cb74324aa</property>
 </producer>
 <producer id="producer69" in="00:00:00.000" out="00:00:04.958">
  <property name="length">00:00:05.000</property>
  <property name="eof">pause</property>
  <property name="resource">LOGO/logo_0065.png</property>
  <property name="ttl">25</property>
  <property name="aspect_ratio">1</property>
  <property name="meta.media.progressive">1</property>
  <property name="seekable">1</property>
  <property name="format">2</property>
  <property name="meta.media.width">1920</property>
  <property name="meta.media.height">1080</property>
  <property name="mlt_service">qimage</property>
  <property name="kdenlive:duration">00:00:05:00</property>
  <property name="xml">was here</property>
  <property name="kdenlive:folderid">15</property>
  <property name="kdenlive:id">80</property>
  <property name="kdenlive:control_uuid">{83980c1f-8b4a-40ab-ace6-b40907f74383}</property>
  <property name="kdenlive:clip_type">2</property>
  <property name="kdenlive:file_size">1192384</property>
  <property name="kdenlive:file_hash">40ffe65edc52f006bbea5aced87a349d</property>
 </producer>
 <producer id="producer70" in="00:00:00.000" out="00:00:04.958">
  <property name="length">00:00:05.000</property>
  <property name="eof">pause</property>
  <property name="resource">LOGO/logo_0066.png</property>
  <property name="ttl">25</property>
  <property name="aspect_ratio">1</property>
  <property name="meta.media.progressive">1</property>
  <property name="seekable">1</property>
  <property name="format">2</property>
  <property name="meta.media.width">1920</property>
  <property name="meta.media.height">1080</property>
  <property name="mlt_service">qimage</property>
  <property name="kdenlive:duration">00:00:05:00</property>
  <property name="xml">was here</property>
  <property name="kdenlive:folderid">15</property>
  <property name="kdenlive:id">81</property>
  <property name="kdenlive:control_uuid">{58d32ce0-4846-4d35-abf5-7409cbbd298b}</property>
  <property name="kdenlive:clip_type">2</property>
  <property name="kdenlive:file_size">1230057</property>
  <property name="kdenlive:file_hash">d473e2efc93d939257efbef6c001700f</property>
 </producer>
 <producer id="producer71" in="00:00:00.000" out="00:00:04.958">
  <property name="length">00:00:05.000</property>
  <property name="eof">pause</property>
  <property name="resource">LOGO/logo_0068.png</property>
  <property name="ttl">25</property>
  <property name="aspect_ratio">1</property>
  <property name="meta.media.progressive">1</property>
  <property name="seekable">1</property>
  <property name="format">2</property>
  <property name="meta.media.width">1920</property>
  <property name="meta.media.height">1080</property>
  <property name="mlt_service">qimage</property>
  <property name="kdenlive:duration">00:00:05:00</property>
  <property name="xml">was here</property>
  <property name="kdenlive:folderid">15</property>
  <property name="kdenlive:id">83</property>
  <property name="kdenlive:control_uuid">{2137f3ac-4fb4-4aab-b324-9056b3169780}</property>
  <property name="kdenlive:clip_type">2</property>
  <property name="kdenlive:file_size">1284884</property>
  <property name="kdenlive:file_hash">e88251071f24c1e0230191aa0bb7aecf</property>
 </producer>
 <producer id="producer72" in="00:00:00.000" out="00:00:04.958">
  <property name="length">00:00:05.000</property>
  <property name="eof">pause</property>
  <property name="resource">LOGO/logo_0069.png</property>
  <property name="ttl">25</property>
  <property name="aspect_ratio">1</property>
  <property name="meta.media.progressive">1</property>
  <property name="seekable">1</property>
  <property name="format">2</property>
  <property name="meta.media.width">1920</property>
  <property name="meta.media.height">1080</property>
  <property name="mlt_service">qimage</property>
  <property name="kdenlive:duration">00:00:05:00</property>
  <property name="xml">was here</property>
  <property name="kdenlive:folderid">15</property>
  <property name="kdenlive:id">84</property>
  <property name="kdenlive:control_uuid">{2e8f107c-b4bb-46c8-9dad-32652ffb2223}</property>
  <property name="kdenlive:clip_type">2</property>
  <property name="kdenlive:file_size">1314136</property>
  <property name="kdenlive:file_hash">8f7b6023e54d608a00fdb0cd406da41e</property>
 </producer>
 <producer id="producer73" in="00:00:00.000" out="00:00:04.958">
  <property name="length">00:00:05.000</property>
  <property name="eof">pause</property>
  <property name="resource">LOGO/logo_0067.png</property>
  <property name="ttl">25</property>
  <property name="aspect_ratio">1</property>
  <property name="meta.media.progressive">1</property>
  <property name="seekable">1</property>
  <property name="format">2</property>
  <property name="meta.media.width">1920</property>
  <property name="meta.media.height">1080</property>
  <property name="mlt_service">qimage</property>
  <property name="kdenlive:duration">00:00:05:00</property>
  <property name="xml">was here</property>
  <property name="kdenlive:folderid">15</property>
  <property name="kdenlive:id">82</property>
  <property name="kdenlive:control_uuid">{b75503a9-3239-4266-8282-d5a0882602ad}</property>
  <property name="kdenlive:clip_type">2</property>
  <property name="kdenlive:file_size">1256794</property>
  <property name="kdenlive:file_hash">ac8cb7551433ce087cab0c787eee3aaa</property>
 </producer>
 <producer id="producer74" in="00:00:00.000" out="00:00:04.958">
  <property name="length">00:00:05.000</property>
  <property name="eof">pause</property>
  <property name="resource">LOGO/logo_0070.png</property>
  <property name="ttl">25</property>
  <property name="aspect_ratio">1</property>
  <property name="meta.media.progressive">1</property>
  <property name="seekable">1</property>
  <property name="format">2</property>
  <property name="meta.media.width">1920</property>
  <property name="meta.media.height">1080</property>
  <property name="mlt_service">qimage</property>
  <property name="kdenlive:duration">00:00:05:00</property>
  <property name="xml">was here</property>
  <property name="kdenlive:folderid">15</property>
  <property name="kdenlive:id">85</property>
  <property name="kdenlive:control_uuid">{bdda0073-84db-4e3e-ac27-8dc9ad53c4d5}</property>
  <property name="kdenlive:clip_type">2</property>
  <property name="kdenlive:file_size">1338527</property>
  <property name="kdenlive:file_hash">bc38800231eea6ff79e41774957c1cc0</property>
 </producer>
 <producer id="producer75" in="00:00:00.000" out="00:00:04.958">
  <property name="length">00:00:05.000</property>
  <property name="eof">pause</property>
  <property name="resource">LOGO/logo_0071.png</property>
  <property name="ttl">25</property>
  <property name="aspect_ratio">1</property>
  <property name="meta.media.progressive">1</property>
  <property name="seekable">1</property>
  <property name="format">2</property>
  <property name="meta.media.width">1920</property>
  <property name="meta.media.height">1080</property>
  <property name="mlt_service">qimage</property>
  <property name="kdenlive:duration">00:00:05:00</property>
  <property name="xml">was here</property>
  <property name="kdenlive:folderid">15</property>
  <property name="kdenlive:id">86</property>
  <property name="kdenlive:control_uuid">{cf04416f-c121-4b85-ba60-b337e35419b3}</property>
  <property name="kdenlive:clip_type">2</property>
  <property name="kdenlive:file_size">1368997</property>
  <property name="kdenlive:file_hash">3483ee1117a64bc6c7180122dce36d8f</property>
 </producer>
 <producer id="producer76" in="00:00:00.000" out="00:00:04.958">
  <property name="length">00:00:05.000</property>
  <property name="eof">pause</property>
  <property name="resource">LOGO/logo_0072.png</property>
  <property name="ttl">25</property>
  <property name="aspect_ratio">1</property>
  <property name="meta.media.progressive">1</property>
  <property name="seekable">1</property>
  <property name="format">2</property>
  <property name="meta.media.width">1920</property>
  <property name="meta.media.height">1080</property>
  <property name="mlt_service">qimage</property>
  <property name="kdenlive:duration">00:00:05:00</property>
  <property name="xml">was here</property>
  <property name="kdenlive:folderid">15</property>
  <property name="kdenlive:id">87</property>
  <property name="kdenlive:control_uuid">{5c1364e2-260b-4bad-b2b6-c75e1a4fd0a5}</property>
  <property name="kdenlive:clip_type">2</property>
  <property name="kdenlive:file_size">1388507</property>
  <property name="kdenlive:file_hash">5fe3b21deaaadc3e9cf21524ad06ba7b</property>
 </producer>
 <producer id="producer77" in="00:00:00.000" out="00:00:04.958">
  <property name="length">00:00:05.000</property>
  <property name="eof">pause</property>
  <property name="resource">LOGO/logo_0074.png</property>
  <property name="ttl">25</property>
  <property name="aspect_ratio">1</property>
  <property name="meta.media.progressive">1</property>
  <property name="seekable">1</property>
  <property name="format">2</property>
  <property name="meta.media.width">1920</property>
  <property name="meta.media.height">1080</property>
  <property name="mlt_service">qimage</property>
  <property name="kdenlive:duration">00:00:05:00</property>
  <property name="xml">was here</property>
  <property name="kdenlive:folderid">15</property>
  <property name="kdenlive:id">89</property>
  <property name="kdenlive:control_uuid">{465ba822-4fd8-4a3c-bb08-7cdbc9133e43}</property>
  <property name="kdenlive:clip_type">2</property>
  <property name="kdenlive:file_size">1434401</property>
  <property name="kdenlive:file_hash">864b214f3cd1d9c40a927c817c2e9766</property>
 </producer>
 <producer id="producer78" in="00:00:00.000" out="00:00:04.958">
  <property name="length">00:00:05.000</property>
  <property name="eof">pause</property>
  <property name="resource">LOGO/logo_0073.png</property>
  <property name="ttl">25</property>
  <property name="aspect_ratio">1</property>
  <property name="meta.media.progressive">1</property>
  <property name="seekable">1</property>
  <property name="format">2</property>
  <property name="meta.media.width">1920</property>
  <property name="meta.media.height">1080</property>
  <property name="mlt_service">qimage</property>
  <property name="kdenlive:duration">00:00:05:00</property>
  <property name="xml">was here</property>
  <property name="kdenlive:folderid">15</property>
  <property name="kdenlive:id">88</property>
  <property name="kdenlive:control_uuid">{91fb6376-cc14-4d96-8bd0-4da827e7aad6}</property>
  <property name="kdenlive:clip_type">2</property>
  <property name="kdenlive:file_size">1410460</property>
  <property name="kdenlive:file_hash">563c9d6c963a1171cf583daa1e8982d1</property>
 </producer>
 <producer id="producer79" in="00:00:00.000" out="00:00:04.958">
  <property name="length">00:00:05.000</property>
  <property name="eof">pause</property>
  <property name="resource">LOGO/logo_0075.png</property>
  <property name="ttl">25</property>
  <property name="aspect_ratio">1</property>
  <property name="meta.media.progressive">1</property>
  <property name="seekable">1</property>
  <property name="format">2</property>
  <property name="meta.media.width">1920</property>
  <property name="meta.media.height">1080</property>
  <property name="mlt_service">qimage</property>
  <property name="kdenlive:duration">00:00:05:00</property>
  <property name="xml">was here</property>
  <property name="kdenlive:folderid">15</property>
  <property name="kdenlive:id">90</property>
  <property name="kdenlive:control_uuid">{00e2c68f-499e-405c-a85e-a0e9240bcaea}</property>
  <property name="kdenlive:clip_type">2</property>
  <property name="kdenlive:file_size">1458085</property>
  <property name="kdenlive:file_hash">e9d5c8484dddf7d1c772cdf379208d68</property>
 </producer>
 <producer id="producer80" in="00:00:00.000" out="00:00:04.958">
  <property name="length">00:00:05.000</property>
  <property name="eof">pause</property>
  <property name="resource">LOGO/logo_0076.png</property>
  <property name="ttl">25</property>
  <property name="aspect_ratio">1</property>
  <property name="meta.media.progressive">1</property>
  <property name="seekable">1</property>
  <property name="format">2</property>
  <property name="meta.media.width">1920</property>
  <property name="meta.media.height">1080</property>
  <property name="mlt_service">qimage</property>
  <property name="kdenlive:duration">00:00:05:00</property>
  <property name="xml">was here</property>
  <property name="kdenlive:folderid">15</property>
  <property name="kdenlive:id">91</property>
  <property name="kdenlive:control_uuid">{8a7876e0-5c0d-44b8-92f9-937fa87b9c11}</property>
  <property name="kdenlive:clip_type">2</property>
  <property name="kdenlive:file_size">1481617</property>
  <property name="kdenlive:file_hash">0fd77081245c416af0092d2c46748d25</property>
 </producer>
 <producer id="producer81" in="00:00:00.000" out="00:00:04.958">
  <property name="length">00:00:05.000</property>
  <property name="eof">pause</property>
  <property name="resource">LOGO/logo_0077.png</property>
  <property name="ttl">25</property>
  <property name="aspect_ratio">1</property>
  <property name="meta.media.progressive">1</property>
  <property name="seekable">1</property>
  <property name="format">2</property>
  <property name="meta.media.width">1920</property>
  <property name="meta.media.height">1080</property>
  <property name="mlt_service">qimage</property>
  <property name="kdenlive:duration">00:00:05:00</property>
  <property name="xml">was here</property>
  <property name="kdenlive:folderid">15</property>
  <property name="kdenlive:id">92</property>
  <property name="kdenlive:control_uuid">{2a798a6d-8640-4d0b-9957-cf93a2a27104}</property>
  <property name="kdenlive:clip_type">2</property>
  <property name="kdenlive:file_size">1501617</property>
  <property name="kdenlive:file_hash">a3834ab62d4ca143774e06376ed6656d</property>
 </producer>
 <producer id="producer82" in="00:00:00.000" out="00:00:04.958">
  <property name="length">00:00:05.000</property>
  <property name="eof">pause</property>
  <property name="resource">LOGO/logo_0079.png</property>
  <property name="ttl">25</property>
  <property name="aspect_ratio">1</property>
  <property name="meta.media.progressive">1</property>
  <property name="seekable">1</property>
  <property name="format">2</property>
  <property name="meta.media.width">1920</property>
  <property name="meta.media.height">1080</property>
  <property name="mlt_service">qimage</property>
  <property name="kdenlive:duration">00:00:05:00</property>
  <property name="xml">was here</property>
  <property name="kdenlive:folderid">15</property>
  <property name="kdenlive:id">94</property>
  <property name="kdenlive:control_uuid">{77a225a5-1328-43c5-83d3-abb0f4758330}</property>
  <property name="kdenlive:clip_type">2</property>
  <property name="kdenlive:file_size">1543500</property>
  <property name="kdenlive:file_hash">b22ef9ce0a45a1b38f1b7e94761460a3</property>
 </producer>
 <producer id="producer83" in="00:00:00.000" out="00:00:04.958">
  <property name="length">00:00:05.000</property>
  <property name="eof">pause</property>
  <property name="resource">LOGO/logo_0080.png</property>
  <property name="ttl">25</property>
  <property name="aspect_ratio">1</property>
  <property name="meta.media.progressive">1</property>
  <property name="seekable">1</property>
  <property name="format">2</property>
  <property name="meta.media.width">1920</property>
  <property name="meta.media.height">1080</property>
  <property name="mlt_service">qimage</property>
  <property name="kdenlive:duration">00:00:05:00</property>
  <property name="xml">was here</property>
  <property name="kdenlive:folderid">15</property>
  <property name="kdenlive:id">95</property>
  <property name="kdenlive:control_uuid">{5e023085-ece5-4408-9315-ed26837542ed}</property>
  <property name="kdenlive:clip_type">2</property>
  <property name="kdenlive:file_size">1561415</property>
  <property name="kdenlive:file_hash">02c8cc1a46fc990148518ce0822284f3</property>
 </producer>
 <producer id="producer84" in="00:00:00.000" out="00:00:04.958">
  <property name="length">00:00:05.000</property>
  <property name="eof">pause</property>
  <property name="resource">LOGO/logo_0078.png</property>
  <property name="ttl">25</property>
  <property name="aspect_ratio">1</property>
  <property name="meta.media.progressive">1</property>
  <property name="seekable">1</property>
  <property name="format">2</property>
  <property name="meta.media.width">1920</property>
  <property name="meta.media.height">1080</property>
  <property name="mlt_service">qimage</property>
  <property name="kdenlive:duration">00:00:05:00</property>
  <property name="xml">was here</property>
  <property name="kdenlive:folderid">15</property>
  <property name="kdenlive:id">93</property>
  <property name="kdenlive:control_uuid">{ac90a5a5-068a-4829-bca4-468e576aabca}</property>
  <property name="kdenlive:clip_type">2</property>
  <property name="kdenlive:file_size">1526761</property>
  <property name="kdenlive:file_hash">56bfc512f8f8cf3f796a0f5803bd46a9</property>
 </producer>
 <producer id="producer85" in="00:00:00.000" out="00:00:04.958">
  <property name="length">00:00:05.000</property>
  <property name="eof">pause</property>
  <property name="resource">LOGO/logo_0081.png</property>
  <property name="ttl">25</property>
  <property name="aspect_ratio">1</property>
  <property name="meta.media.progressive">1</property>
  <property name="seekable">1</property>
  <property name="format">2</property>
  <property name="meta.media.width">1920</property>
  <property name="meta.media.height">1080</property>
  <property name="mlt_service">qimage</property>
  <property name="kdenlive:duration">00:00:05:00</property>
  <property name="xml">was here</property>
  <property name="kdenlive:folderid">15</property>
  <property name="kdenlive:id">96</property>
  <property name="kdenlive:control_uuid">{c0a34d33-3cc1-45e1-bcf7-5dd023a6f769}</property>
  <property name="kdenlive:clip_type">2</property>
  <property name="kdenlive:file_size">1581288</property>
  <property name="kdenlive:file_hash">baeb79773d4da4636d7e53c2a937c490</property>
 </producer>
 <producer id="producer86" in="00:00:00.000" out="00:00:04.958">
  <property name="length">00:00:05.000</property>
  <property name="eof">pause</property>
  <property name="resource">LOGO/logo_0082.png</property>
  <property name="ttl">25</property>
  <property name="aspect_ratio">1</property>
  <property name="meta.media.progressive">1</property>
  <property name="seekable">1</property>
  <property name="format">2</property>
  <property name="meta.media.width">1920</property>
  <property name="meta.media.height">1080</property>
  <property name="mlt_service">qimage</property>
  <property name="kdenlive:duration">00:00:05:00</property>
  <property name="xml">was here</property>
  <property name="kdenlive:folderid">15</property>
  <property name="kdenlive:id">97</property>
  <property name="kdenlive:control_uuid">{1710c0fb-38a5-49a8-9748-894c9f62cd18}</property>
  <property name="kdenlive:clip_type">2</property>
  <property name="kdenlive:file_size">1597934</property>
  <property name="kdenlive:file_hash">8062128edfedaa58e3376893c4adb799</property>
 </producer>
 <producer id="producer87" in="00:00:00.000" out="00:00:04.958">
  <property name="length">00:00:05.000</property>
  <property name="eof">pause</property>
  <property name="resource">LOGO/logo_0083.png</property>
  <property name="ttl">25</property>
  <property name="aspect_ratio">1</property>
  <property name="meta.media.progressive">1</property>
  <property name="seekable">1</property>
  <property name="format">2</property>
  <property name="meta.media.width">1920</property>
  <property name="meta.media.height">1080</property>
  <property name="mlt_service">qimage</property>
  <property name="kdenlive:duration">00:00:05:00</property>
  <property name="xml">was here</property>
  <property name="kdenlive:folderid">15</property>
  <property name="kdenlive:id">98</property>
  <property name="kdenlive:control_uuid">{ca0a2fe2-a7dd-498e-8d2e-4b610893b423}</property>
  <property name="kdenlive:clip_type">2</property>
  <property name="kdenlive:file_size">1611707</property>
  <property name="kdenlive:file_hash">d39ef7ce5dff880a54d852716c7a82cb</property>
 </producer>
 <producer id="producer88" in="00:00:00.000" out="00:00:04.958">
  <property name="length">00:00:05.000</property>
  <property name="eof">pause</property>
  <property name="resource">LOGO/logo_0085.png</property>
  <property name="ttl">25</property>
  <property name="aspect_ratio">1</property>
  <property name="meta.media.progressive">1</property>
  <property name="seekable">1</property>
  <property name="format">2</property>
  <property name="meta.media.width">1920</property>
  <property name="meta.media.height">1080</property>
  <property name="mlt_service">qimage</property>
  <property name="kdenlive:duration">00:00:05:00</property>
  <property name="xml">was here</property>
  <property name="kdenlive:folderid">15</property>
  <property name="kdenlive:id">100</property>
  <property name="kdenlive:control_uuid">{0f5bc8be-c3be-4268-81d9-8814a109bfb4}</property>
  <property name="kdenlive:clip_type">2</property>
  <property name="kdenlive:file_size">1635652</property>
  <property name="kdenlive:file_hash">668623401f6670825889987a9d171564</property>
 </producer>
 <producer id="producer89" in="00:00:00.000" out="00:00:04.958">
  <property name="length">00:00:05.000</property>
  <property name="eof">pause</property>
  <property name="resource">LOGO/logo_0084.png</property>
  <property name="ttl">25</property>
  <property name="aspect_ratio">1</property>
  <property name="meta.media.progressive">1</property>
  <property name="seekable">1</property>
  <property name="format">2</property>
  <property name="meta.media.width">1920</property>
  <property name="meta.media.height">1080</property>
  <property name="mlt_service">qimage</property>
  <property name="kdenlive:duration">00:00:05:00</property>
  <property name="xml">was here</property>
  <property name="kdenlive:folderid">15</property>
  <property name="kdenlive:id">99</property>
  <property name="kdenlive:control_uuid">{fe6dcaaa-093f-4f7a-8c1c-78e608341e9d}</property>
  <property name="kdenlive:clip_type">2</property>
  <property name="kdenlive:file_size">1623689</property>
  <property name="kdenlive:file_hash">67cb38128c14a116dc12f1e2d46e76b8</property>
 </producer>
 <producer id="producer90" in="00:00:00.000" out="00:00:04.958">
  <property name="length">00:00:05.000</property>
  <property name="eof">pause</property>
  <property name="resource">LOGO/logo_0086.png</property>
  <property name="ttl">25</property>
  <property name="aspect_ratio">1</property>
  <property name="meta.media.progressive">1</property>
  <property name="seekable">1</property>
  <property name="format">2</property>
  <property name="meta.media.width">1920</property>
  <property name="meta.media.height">1080</property>
  <property name="mlt_service">qimage</property>
  <property name="kdenlive:duration">00:00:05:00</property>
  <property name="xml">was here</property>
  <property name="kdenlive:folderid">15</property>
  <property name="kdenlive:id">101</property>
  <property name="kdenlive:control_uuid">{c38bd994-b6d1-4963-9a1a-24fbdd5677fc}</property>
  <property name="kdenlive:clip_type">2</property>
  <property name="kdenlive:file_size">1648423</property>
  <property name="kdenlive:file_hash">d089438eff14edd953070baa9ba20335</property>
 </producer>
 <producer id="producer91" in="00:00:00.000" out="00:00:04.958">
  <property name="length">00:00:05.000</property>
  <property name="eof">pause</property>
  <property name="resource">LOGO/logo_0087.png</property>
  <property name="ttl">25</property>
  <property name="aspect_ratio">1</property>
  <property name="meta.media.progressive">1</property>
  <property name="seekable">1</property>
  <property name="format">2</property>
  <property name="meta.media.width">1920</property>
  <property name="meta.media.height">1080</property>
  <property name="mlt_service">qimage</property>
  <property name="kdenlive:duration">00:00:05:00</property>
  <property name="xml">was here</property>
  <property name="kdenlive:folderid">15</property>
  <property name="kdenlive:id">102</property>
  <property name="kdenlive:control_uuid">{e8efc93c-d412-4734-a3a9-dcbef9a4afee}</property>
  <property name="kdenlive:clip_type">2</property>
  <property name="kdenlive:file_size">1661864</property>
  <property name="kdenlive:file_hash">c04b8ef7ff9488936e9f2a2763e4a2b5</property>
 </producer>
 <producer id="producer92" in="00:00:00.000" out="00:00:04.958">
  <property name="length">00:00:05.000</property>
  <property name="eof">pause</property>
  <property name="resource">LOGO/logo_0088.png</property>
  <property name="ttl">25</property>
  <property name="aspect_ratio">1</property>
  <property name="meta.media.progressive">1</property>
  <property name="seekable">1</property>
  <property name="format">2</property>
  <property name="meta.media.width">1920</property>
  <property name="meta.media.height">1080</property>
  <property name="mlt_service">qimage</property>
  <property name="kdenlive:duration">00:00:05:00</property>
  <property name="xml">was here</property>
  <property name="kdenlive:folderid">15</property>
  <property name="kdenlive:id">103</property>
  <property name="kdenlive:control_uuid">{3a4e1dac-6456-4ef3-aec7-760fb0d44b21}</property>
  <property name="kdenlive:clip_type">2</property>
  <property name="kdenlive:file_size">1671768</property>
  <property name="kdenlive:file_hash">439f6a6bd44716d7855836ebeb74ae45</property>
 </producer>
 <producer id="producer93" in="00:00:00.000" out="00:00:04.958">
  <property name="length">00:00:05.000</property>
  <property name="eof">pause</property>
  <property name="resource">LOGO/logo_0090.png</property>
  <property name="ttl">25</property>
  <property name="aspect_ratio">1</property>
  <property name="meta.media.progressive">1</property>
  <property name="seekable">1</property>
  <property name="format">2</property>
  <property name="meta.media.width">1920</property>
  <property name="meta.media.height">1080</property>
  <property name="mlt_service">qimage</property>
  <property name="kdenlive:duration">00:00:05:00</property>
  <property name="xml">was here</property>
  <property name="kdenlive:folderid">15</property>
  <property name="kdenlive:id">105</property>
  <property name="kdenlive:control_uuid">{c5563a79-8022-4b68-8cd0-2b295c6ae1e6}</property>
  <property name="kdenlive:clip_type">2</property>
  <property name="kdenlive:file_size">1694560</property>
  <property name="kdenlive:file_hash">a324426141a369b3420cf50e7b98a86b</property>
 </producer>
 <producer id="producer94" in="00:00:00.000" out="00:00:04.958">
  <property name="length">00:00:05.000</property>
  <property name="eof">pause</property>
  <property name="resource">LOGO/logo_0091.png</property>
  <property name="ttl">25</property>
  <property name="aspect_ratio">1</property>
  <property name="meta.media.progressive">1</property>
  <property name="seekable">1</property>
  <property name="format">2</property>
  <property name="meta.media.width">1920</property>
  <property name="meta.media.height">1080</property>
  <property name="mlt_service">qimage</property>
  <property name="kdenlive:duration">00:00:05:00</property>
  <property name="xml">was here</property>
  <property name="kdenlive:folderid">15</property>
  <property name="kdenlive:id">106</property>
  <property name="kdenlive:control_uuid">{05cd90d0-03b3-402d-a972-18547f5a9773}</property>
  <property name="kdenlive:clip_type">2</property>
  <property name="kdenlive:file_size">1707566</property>
  <property name="kdenlive:file_hash">cfee953860f2e8ef521bc19c6e806951</property>
 </producer>
 <producer id="producer95" in="00:00:00.000" out="00:00:04.958">
  <property name="length">00:00:05.000</property>
  <property name="eof">pause</property>
  <property name="resource">LOGO/logo_0089.png</property>
  <property name="ttl">25</property>
  <property name="aspect_ratio">1</property>
  <property name="meta.media.progressive">1</property>
  <property name="seekable">1</property>
  <property name="format">2</property>
  <property name="meta.media.width">1920</property>
  <property name="meta.media.height">1080</property>
  <property name="mlt_service">qimage</property>
  <property name="kdenlive:duration">00:00:05:00</property>
  <property name="xml">was here</property>
  <property name="kdenlive:folderid">15</property>
  <property name="kdenlive:id">104</property>
  <property name="kdenlive:control_uuid">{aa7de81b-3c6b-4a1b-9c17-474df4a97d40}</property>
  <property name="kdenlive:clip_type">2</property>
  <property name="kdenlive:file_size">1681352</property>
  <property name="kdenlive:file_hash">b7375583ed01b3f05a036c6eb547385b</property>
 </producer>
 <producer id="producer96" in="00:00:00.000" out="00:00:04.958">
  <property name="length">00:00:05.000</property>
  <property name="eof">pause</property>
  <property name="resource">LOGO/logo_0092.png</property>
  <property name="ttl">25</property>
  <property name="aspect_ratio">1</property>
  <property name="meta.media.progressive">1</property>
  <property name="seekable">1</property>
  <property name="format">2</property>
  <property name="meta.media.width">1920</property>
  <property name="meta.media.height">1080</property>
  <property name="mlt_service">qimage</property>
  <property name="kdenlive:duration">00:00:05:00</property>
  <property name="xml">was here</property>
  <property name="kdenlive:folderid">15</property>
  <property name="kdenlive:id">107</property>
  <property name="kdenlive:control_uuid">{7f407adf-7861-4577-9fa7-419b9833ec46}</property>
  <property name="kdenlive:clip_type">2</property>
  <property name="kdenlive:file_size">1719594</property>
  <property name="kdenlive:file_hash">b747e6af78ad2329def0d5e7e33b51b1</property>
 </producer>
 <producer id="producer97" in="00:00:00.000" out="00:00:04.958">
  <property name="length">00:00:05.000</property>
  <property name="eof">pause</property>
  <property name="resource">LOGO/logo_0093.png</property>
  <property name="ttl">25</property>
  <property name="aspect_ratio">1</property>
  <property name="meta.media.progressive">1</property>
  <property name="seekable">1</property>
  <property name="format">2</property>
  <property name="meta.media.width">1920</property>
  <property name="meta.media.height">1080</property>
  <property name="mlt_service">qimage</property>
  <property name="kdenlive:duration">00:00:05:00</property>
  <property name="xml">was here</property>
  <property name="kdenlive:folderid">15</property>
  <property name="kdenlive:id">108</property>
  <property name="kdenlive:control_uuid">{7cae6c00-90bc-44cd-9ff2-c9b21df34dda}</property>
  <property name="kdenlive:clip_type">2</property>
  <property name="kdenlive:file_size">1730896</property>
  <property name="kdenlive:file_hash">a4f3cc40f60ae9cb799a51290defa493</property>
 </producer>
 <producer id="producer98" in="00:00:00.000" out="00:00:04.958">
  <property name="length">00:00:05.000</property>
  <property name="eof">pause</property>
  <property name="resource">LOGO/logo_0094.png</property>
  <property name="ttl">25</property>
  <property name="aspect_ratio">1</property>
  <property name="meta.media.progressive">1</property>
  <property name="seekable">1</property>
  <property name="format">2</property>
  <property name="meta.media.width">1920</property>
  <property name="meta.media.height">1080</property>
  <property name="mlt_service">qimage</property>
  <property name="kdenlive:duration">00:00:05:00</property>
  <property name="xml">was here</property>
  <property name="kdenlive:folderid">15</property>
  <property name="kdenlive:id">109</property>
  <property name="kdenlive:control_uuid">{0524ea75-7438-4a55-bf1b-08f2727878c9}</property>
  <property name="kdenlive:clip_type">2</property>
  <property name="kdenlive:file_size">1740726</property>
  <property name="kdenlive:file_hash">4b8ba05b88070a47f97a80e060db54a9</property>
 </producer>
 <producer id="producer99" in="00:00:00.000" out="00:00:04.958">
  <property name="length">00:00:05.000</property>
  <property name="eof">pause</property>
  <property name="resource">LOGO/logo_0096.png</property>
  <property name="ttl">25</property>
  <property name="aspect_ratio">1</property>
  <property name="meta.media.progressive">1</property>
  <property name="seekable">1</property>
  <property name="format">2</property>
  <property name="meta.media.width">1920</property>
  <property name="meta.media.height">1080</property>
  <property name="mlt_service">qimage</property>
  <property name="kdenlive:duration">00:00:05:00</property>
  <property name="xml">was here</property>
  <property name="kdenlive:folderid">15</property>
  <property name="kdenlive:id">111</property>
  <property name="kdenlive:control_uuid">{d4bd4fd2-2591-49cb-a40d-2ee10f8ec788}</property>
  <property name="kdenlive:clip_type">2</property>
  <property name="kdenlive:file_size">1755041</property>
  <property name="kdenlive:file_hash">c0c5bb517f0b8824db5a3f15d4691007</property>
 </producer>
 <producer id="producer100" in="00:00:00.000" out="00:00:04.958">
  <property name="length">00:00:05.000</property>
  <property name="eof">pause</property>
  <property name="resource">LOGO/logo_0097.png</property>
  <property name="ttl">25</property>
  <property name="aspect_ratio">1</property>
  <property name="meta.media.progressive">1</property>
  <property name="seekable">1</property>
  <property name="format">2</property>
  <property name="meta.media.width">1920</property>
  <property name="meta.media.height">1080</property>
  <property name="mlt_service">qimage</property>
  <property name="kdenlive:duration">00:00:05:00</property>
  <property name="xml">was here</property>
  <property name="kdenlive:folderid">15</property>
  <property name="kdenlive:id">112</property>
  <property name="kdenlive:control_uuid">{cf9a60e1-f829-4af9-99aa-259102202f94}</property>
  <property name="kdenlive:clip_type">2</property>
  <property name="kdenlive:file_size">1768074</property>
  <property name="kdenlive:file_hash">621ed8e5a4658911890f93039db19a16</property>
 </producer>
 <producer id="producer101" in="00:00:00.000" out="00:00:04.958">
  <property name="length">00:00:05.000</property>
  <property name="eof">pause</property>
  <property name="resource">LOGO/logo_0095.png</property>
  <property name="ttl">25</property>
  <property name="aspect_ratio">1</property>
  <property name="meta.media.progressive">1</property>
  <property name="seekable">1</property>
  <property name="format">2</property>
  <property name="meta.media.width">1920</property>
  <property name="meta.media.height">1080</property>
  <property name="mlt_service">qimage</property>
  <property name="kdenlive:duration">00:00:05:00</property>
  <property name="xml">was here</property>
  <property name="kdenlive:folderid">15</property>
  <property name="kdenlive:id">110</property>
  <property name="kdenlive:control_uuid">{59c28282-bda8-4883-b5df-8b60cfdc1f54}</property>
  <property name="kdenlive:clip_type">2</property>
  <property name="kdenlive:file_size">1748877</property>
  <property name="kdenlive:file_hash">723f05713751822fa46ffb7549170213</property>
 </producer>
 <producer id="producer102" in="00:00:00.000" out="00:00:04.958">
  <property name="length">00:00:05.000</property>
  <property name="eof">pause</property>
  <property name="resource">LOGO/logo_0098.png</property>
  <property name="ttl">25</property>
  <property name="aspect_ratio">1</property>
  <property name="meta.media.progressive">1</property>
  <property name="seekable">1</property>
  <property name="format">2</property>
  <property name="meta.media.width">1920</property>
  <property name="meta.media.height">1080</property>
  <property name="mlt_service">qimage</property>
  <property name="kdenlive:duration">00:00:05:00</property>
  <property name="xml">was here</property>
  <property name="kdenlive:folderid">15</property>
  <property name="kdenlive:id">113</property>
  <property name="kdenlive:control_uuid">{d1667631-c717-4d85-948c-42f4b060d736}</property>
  <property name="kdenlive:clip_type">2</property>
  <property name="kdenlive:file_size">1772352</property>
  <property name="kdenlive:file_hash">186f1eb23cb688db081c59f1467b91cb</property>
 </producer>
 <producer id="producer103" in="00:00:00.000" out="00:00:04.958">
  <property name="length">00:00:05.000</property>
  <property name="eof">pause</property>
  <property name="resource">LOGO/logo_0099.png</property>
  <property name="ttl">25</property>
  <property name="aspect_ratio">1</property>
  <property name="meta.media.progressive">1</property>
  <property name="seekable">1</property>
  <property name="format">2</property>
  <property name="meta.media.width">1920</property>
  <property name="meta.media.height">1080</property>
  <property name="mlt_service">qimage</property>
  <property name="kdenlive:duration">00:00:05:00</property>
  <property name="xml">was here</property>
  <property name="kdenlive:folderid">15</property>
  <property name="kdenlive:id">114</property>
  <property name="kdenlive:control_uuid">{ee7171de-8578-4921-8071-c042484b56ec}</property>
  <property name="kdenlive:clip_type">2</property>
  <property name="kdenlive:file_size">1777140</property>
  <property name="kdenlive:file_hash">b3fb2bb177a204abc72c58086ef1b43e</property>
 </producer>
 <producer id="producer104" in="00:00:00.000" out="00:00:04.958">
  <property name="length">00:00:05.000</property>
  <property name="eof">pause</property>
  <property name="resource">LOGO/logo_0102.png</property>
  <property name="ttl">25</property>
  <property name="aspect_ratio">1</property>
  <property name="meta.media.progressive">1</property>
  <property name="seekable">1</property>
  <property name="format">2</property>
  <property name="meta.media.width">1920</property>
  <property name="meta.media.height">1080</property>
  <property name="mlt_service">qimage</property>
  <property name="kdenlive:duration">00:00:05:00</property>
  <property name="xml">was here</property>
  <property name="kdenlive:folderid">15</property>
  <property name="kdenlive:id">117</property>
  <property name="kdenlive:control_uuid">{3422fa68-9e42-4131-81f8-ffc47bf34721}</property>
  <property name="kdenlive:clip_type">2</property>
  <property name="kdenlive:file_size">1793599</property>
  <property name="kdenlive:file_hash">f2e5f6555d7636caf34ae40edb0869c0</property>
 </producer>
 <producer id="producer105" in="00:00:00.000" out="00:00:04.958">
  <property name="length">00:00:05.000</property>
  <property name="eof">pause</property>
  <property name="resource">LOGO/logo_0100.png</property>
  <property name="ttl">25</property>
  <property name="aspect_ratio">1</property>
  <property name="meta.media.progressive">1</property>
  <property name="seekable">1</property>
  <property name="format">2</property>
  <property name="meta.media.width">1920</property>
  <property name="meta.media.height">1080</property>
  <property name="mlt_service">qimage</property>
  <property name="kdenlive:duration">00:00:05:00</property>
  <property name="xml">was here</property>
  <property name="kdenlive:folderid">15</property>
  <property name="kdenlive:id">115</property>
  <property name="kdenlive:control_uuid">{b885b796-3266-4dae-949d-097a318fd249}</property>
  <property name="kdenlive:clip_type">2</property>
  <property name="kdenlive:file_size">1784207</property>
  <property name="kdenlive:file_hash">a7987079f85b549d01181c5929810062</property>
 </producer>
 <producer id="producer106" in="00:00:00.000" out="00:00:04.958">
  <property name="length">00:00:05.000</property>
  <property name="eof">pause</property>
  <property name="resource">LOGO/logo_0103.png</property>
  <property name="ttl">25</property>
  <property name="aspect_ratio">1</property>
  <property name="meta.media.progressive">1</property>
  <property name="seekable">1</property>
  <property name="format">2</property>
  <property name="meta.media.width">1920</property>
  <property name="meta.media.height">1080</property>
  <property name="mlt_service">qimage</property>
  <property name="kdenlive:duration">00:00:05:00</property>
  <property name="xml">was here</property>
  <property name="kdenlive:folderid">15</property>
  <property name="kdenlive:id">118</property>
  <property name="kdenlive:control_uuid">{75aedeb6-b772-4914-abae-ceed7f782c64}</property>
  <property name="kdenlive:clip_type">2</property>
  <property name="kdenlive:file_size">1803466</property>
  <property name="kdenlive:file_hash">90d7d517171574bac15e18013722a1c6</property>
 </producer>
 <producer id="producer107" in="00:00:00.000" out="00:00:04.958">
  <property name="length">00:00:05.000</property>
  <property name="eof">pause</property>
  <property name="resource">LOGO/logo_0101.png</property>
  <property name="ttl">25</property>
  <property name="aspect_ratio">1</property>
  <property name="meta.media.progressive">1</property>
  <property name="seekable">1</property>
  <property name="format">2</property>
  <property name="meta.media.width">1920</property>
  <property name="meta.media.height">1080</property>
  <property name="mlt_service">qimage</property>
  <property name="kdenlive:duration">00:00:05:00</property>
  <property name="xml">was here</property>
  <property name="kdenlive:folderid">15</property>
  <property name="kdenlive:id">116</property>
  <property name="kdenlive:control_uuid">{4dbf655c-c7fe-464b-8bfb-27bdb35a71aa}</property>
  <property name="kdenlive:clip_type">2</property>
  <property name="kdenlive:file_size">1788952</property>
  <property name="kdenlive:file_hash">e53fc8027a026cdf6de25ec2f4d13e3c</property>
 </producer>
 <producer id="producer108" in="00:00:00.000" out="00:00:04.958">
  <property name="length">00:00:05.000</property>
  <property name="eof">pause</property>
  <property name="resource">LOGO/logo_0104.png</property>
  <property name="ttl">25</property>
  <property name="aspect_ratio">1</property>
  <property name="meta.media.progressive">1</property>
  <property name="seekable">1</property>
  <property name="format">2</property>
  <property name="meta.media.width">1920</property>
  <property name="meta.media.height">1080</property>
  <property name="mlt_service">qimage</property>
  <property name="kdenlive:duration">00:00:05:00</property>
  <property name="xml">was here</property>
  <property name="kdenlive:folderid">15</property>
  <property name="kdenlive:id">119</property>
  <property name="kdenlive:control_uuid">{b85b6e9d-5b1a-4ecb-b5db-7e5540c479fa}</property>
  <property name="kdenlive:clip_type">2</property>
  <property name="kdenlive:file_size">1809737</property>
  <property name="kdenlive:file_hash">fc61995d504ded8c8dbcd9c39af31db1</property>
 </producer>
 <producer id="producer109" in="00:00:00.000" out="00:00:04.958">
  <property name="length">00:00:05.000</property>
  <property name="eof">pause</property>
  <property name="resource">LOGO/logo_0105.png</property>
  <property name="ttl">25</property>
  <property name="aspect_ratio">1</property>
  <property name="meta.media.progressive">1</property>
  <property name="seekable">1</property>
  <property name="format">2</property>
  <property name="meta.media.width">1920</property>
  <property name="meta.media.height">1080</property>
  <property name="mlt_service">qimage</property>
  <property name="kdenlive:duration">00:00:05:00</property>
  <property name="xml">was here</property>
  <property name="kdenlive:folderid">15</property>
  <property name="kdenlive:id">120</property>
  <property name="kdenlive:control_uuid">{a161bc82-03d4-40bd-82e0-4fcd1befbcb4}</property>
  <property name="kdenlive:clip_type">2</property>
  <property name="kdenlive:file_size">1815574</property>
  <property name="kdenlive:file_hash">0b7361733a467782b995697fc5aad340</property>
 </producer>
 <producer id="producer110" in="00:00:00.000" out="00:00:04.958">
  <property name="length">00:00:05.000</property>
  <property name="eof">pause</property>
  <property name="resource">LOGO/logo_0106.png</property>
  <property name="ttl">25</property>
  <property name="aspect_ratio">1</property>
  <property name="meta.media.progressive">1</property>
  <property name="seekable">1</property>
  <property name="format">2</property>
  <property name="meta.media.width">1920</property>
  <property name="meta.media.height">1080</property>
  <property name="mlt_service">qimage</property>
  <property name="kdenlive:duration">00:00:05:00</property>
  <property name="xml">was here</property>
  <property name="kdenlive:folderid">15</property>
  <property name="kdenlive:id">121</property>
  <property name="kdenlive:control_uuid">{d2840c93-cdfb-4a01-91cc-7fe07e13978f}</property>
  <property name="kdenlive:clip_type">2</property>
  <property name="kdenlive:file_size">1822379</property>
  <property name="kdenlive:file_hash">de417da9f1fa32cab032c7df9b45f1c3</property>
 </producer>
 <producer id="producer111" in="00:00:00.000" out="00:00:04.958">
  <property name="length">00:00:05.000</property>
  <property name="eof">pause</property>
  <property name="resource">LOGO/logo_0107.png</property>
  <property name="ttl">25</property>
  <property name="aspect_ratio">1</property>
  <property name="meta.media.progressive">1</property>
  <property name="seekable">1</property>
  <property name="format">2</property>
  <property name="meta.media.width">1920</property>
  <property name="meta.media.height">1080</property>
  <property name="mlt_service">qimage</property>
  <property name="kdenlive:duration">00:00:05:00</property>
  <property name="xml">was here</property>
  <property name="kdenlive:folderid">15</property>
  <property name="kdenlive:id">122</property>
  <property name="kdenlive:control_uuid">{8efb8fc1-71ce-472c-8350-40f4d0d45fc1}</property>
  <property name="kdenlive:clip_type">2</property>
  <property name="kdenlive:file_size">1829022</property>
  <property name="kdenlive:file_hash">a2bf9873a72d7a75b68bb529754d2deb</property>
 </producer>
 <producer id="producer112" in="00:00:00.000" out="00:00:04.958">
  <property name="length">00:00:05.000</property>
  <property name="eof">pause</property>
  <property name="resource">LOGO/logo_0108.png</property>
  <property name="ttl">25</property>
  <property name="aspect_ratio">1</property>
  <property name="meta.media.progressive">1</property>
  <property name="seekable">1</property>
  <property name="format">2</property>
  <property name="meta.media.width">1920</property>
  <property name="meta.media.height">1080</property>
  <property name="mlt_service">qimage</property>
  <property name="kdenlive:duration">00:00:05:00</property>
  <property name="xml">was here</property>
  <property name="kdenlive:folderid">15</property>
  <property name="kdenlive:id">123</property>
  <property name="kdenlive:control_uuid">{7adc02f8-0f7f-4525-bcde-c60ae868e715}</property>
  <property name="kdenlive:clip_type">2</property>
  <property name="kdenlive:file_size">1839881</property>
  <property name="kdenlive:file_hash">f925dc3a708b13cdfe499564e4ae22b9</property>
 </producer>
 <producer id="producer113" in="00:00:00.000" out="00:00:04.958">
  <property name="length">00:00:05.000</property>
  <property name="eof">pause</property>
  <property name="resource">LOGO/logo_0109.png</property>
  <property name="ttl">25</property>
  <property name="aspect_ratio">1</property>
  <property name="meta.media.progressive">1</property>
  <property name="seekable">1</property>
  <property name="format">2</property>
  <property name="meta.media.width">1920</property>
  <property name="meta.media.height">1080</property>
  <property name="mlt_service">qimage</property>
  <property name="kdenlive:duration">00:00:05:00</property>
  <property name="xml">was here</property>
  <property name="kdenlive:folderid">15</property>
  <property name="kdenlive:id">124</property>
  <property name="kdenlive:control_uuid">{b089ba7a-295d-415a-9cdb-5fb5c1b1508b}</property>
  <property name="kdenlive:clip_type">2</property>
  <property name="kdenlive:file_size">1846817</property>
  <property name="kdenlive:file_hash">a43f1813f92d496a836f16848a407864</property>
 </producer>
 <producer id="producer114" in="00:00:00.000" out="00:00:04.958">
  <property name="length">00:00:05.000</property>
  <property name="eof">pause</property>
  <property name="resource">LOGO/logo_0110.png</property>
  <property name="ttl">25</property>
  <property name="aspect_ratio">1</property>
  <property name="meta.media.progressive">1</property>
  <property name="seekable">1</property>
  <property name="format">2</property>
  <property name="meta.media.width">1920</property>
  <property name="meta.media.height">1080</property>
  <property name="mlt_service">qimage</property>
  <property name="kdenlive:duration">00:00:05:00</property>
  <property name="xml">was here</property>
  <property name="kdenlive:folderid">15</property>
  <property name="kdenlive:id">125</property>
  <property name="kdenlive:control_uuid">{ce08a55a-d583-4192-b6a8-771cba8bd658}</property>
  <property name="kdenlive:clip_type">2</property>
  <property name="kdenlive:file_size">1855050</property>
  <property name="kdenlive:file_hash">9b1966a8de77dfdf1f20aa9e5c4605b7</property>
 </producer>
 <producer id="producer115" in="00:00:00.000" out="00:00:04.958">
  <property name="length">00:00:05.000</property>
  <property name="eof">pause</property>
  <property name="resource">LOGO/logo_0111.png</property>
  <property name="ttl">25</property>
  <property name="aspect_ratio">1</property>
  <property name="meta.media.progressive">1</property>
  <property name="seekable">1</property>
  <property name="format">2</property>
  <property name="meta.media.width">1920</property>
  <property name="meta.media.height">1080</property>
  <property name="mlt_service">qimage</property>
  <property name="kdenlive:duration">00:00:05:00</property>
  <property name="xml">was here</property>
  <property name="kdenlive:folderid">15</property>
  <property name="kdenlive:id">126</property>
  <property name="kdenlive:control_uuid">{3464ca20-ab91-4e76-8ced-fb176c6bec73}</property>
  <property name="kdenlive:clip_type">2</property>
  <property name="kdenlive:file_size">1858467</property>
  <property name="kdenlive:file_hash">ee2ddaca13c94536c56447d824a13794</property>
 </producer>
 <producer id="producer116" in="00:00:00.000" out="00:00:04.958">
  <property name="length">00:00:05.000</property>
  <property name="eof">pause</property>
  <property name="resource">LOGO/logo_0112.png</property>
  <property name="ttl">25</property>
  <property name="aspect_ratio">1</property>
  <property name="meta.media.progressive">1</property>
  <property name="seekable">1</property>
  <property name="format">2</property>
  <property name="meta.media.width">1920</property>
  <property name="meta.media.height">1080</property>
  <property name="mlt_service">qimage</property>
  <property name="kdenlive:duration">00:00:05:00</property>
  <property name="xml">was here</property>
  <property name="kdenlive:folderid">15</property>
  <property name="kdenlive:id">127</property>
  <property name="kdenlive:control_uuid">{c9118e8f-e396-4db2-b86f-d75de6054496}</property>
  <property name="kdenlive:clip_type">2</property>
  <property name="kdenlive:file_size">1864268</property>
  <property name="kdenlive:file_hash">5394dcad98634a077bc3cdead363179f</property>
 </producer>
 <producer id="producer117" in="00:00:00.000" out="00:00:04.958">
  <property name="length">00:00:05.000</property>
  <property name="eof">pause</property>
  <property name="resource">LOGO/logo_0114.png</property>
  <property name="ttl">25</property>
  <property name="aspect_ratio">1</property>
  <property name="meta.media.progressive">1</property>
  <property name="seekable">1</property>
  <property name="format">2</property>
  <property name="meta.media.width">1920</property>
  <property name="meta.media.height">1080</property>
  <property name="mlt_service">qimage</property>
  <property name="kdenlive:duration">00:00:05:00</property>
  <property name="xml">was here</property>
  <property name="kdenlive:folderid">15</property>
  <property name="kdenlive:id">129</property>
  <property name="kdenlive:control_uuid">{2560447a-0497-42e0-ba83-b96f7d5e8cbc}</property>
  <property name="kdenlive:clip_type">2</property>
  <property name="kdenlive:file_size">1875399</property>
  <property name="kdenlive:file_hash">791c0e7af61089da54097c2d5c2165f2</property>
 </producer>
 <producer id="producer118" in="00:00:00.000" out="00:00:04.958">
  <property name="length">00:00:05.000</property>
  <property name="eof">pause</property>
  <property name="resource">LOGO/logo_0115.png</property>
  <property name="ttl">25</property>
  <property name="aspect_ratio">1</property>
  <property name="meta.media.progressive">1</property>
  <property name="seekable">1</property>
  <property name="format">2</property>
  <property name="meta.media.width">1920</property>
  <property name="meta.media.height">1080</property>
  <property name="mlt_service">qimage</property>
  <property name="kdenlive:duration">00:00:05:00</property>
  <property name="xml">was here</property>
  <property name="kdenlive:folderid">15</property>
  <property name="kdenlive:id">130</property>
  <property name="kdenlive:control_uuid">{43553280-0950-4cfe-b1cf-7dc38d3edad5}</property>
  <property name="kdenlive:clip_type">2</property>
  <property name="kdenlive:file_size">1879567</property>
  <property name="kdenlive:file_hash">4a08e9f57449964e9721cb0f8e29dddb</property>
 </producer>
 <producer id="producer119" in="00:00:00.000" out="00:00:04.958">
  <property name="length">00:00:05.000</property>
  <property name="eof">pause</property>
  <property name="resource">LOGO/logo_0113.png</property>
  <property name="ttl">25</property>
  <property name="aspect_ratio">1</property>
  <property name="meta.media.progressive">1</property>
  <property name="seekable">1</property>
  <property name="format">2</property>
  <property name="meta.media.width">1920</property>
  <property name="meta.media.height">1080</property>
  <property name="mlt_service">qimage</property>
  <property name="kdenlive:duration">00:00:05:00</property>
  <property name="xml">was here</property>
  <property name="kdenlive:folderid">15</property>
  <property name="kdenlive:id">128</property>
  <property name="kdenlive:control_uuid">{125d9a92-b7f0-4c35-8e0e-50107322ad5b}</property>
  <property name="kdenlive:clip_type">2</property>
  <property name="kdenlive:file_size">1868768</property>
  <property name="kdenlive:file_hash">70fcfdc2ab28eb91bdba4c8288f92771</property>
 </producer>
 <producer id="producer120" in="00:00:00.000" out="00:00:04.958">
  <property name="length">00:00:05.000</property>
  <property name="eof">pause</property>
  <property name="resource">LOGO/logo_0116.png</property>
  <property name="ttl">25</property>
  <property name="aspect_ratio">1</property>
  <property name="meta.media.progressive">1</property>
  <property name="seekable">1</property>
  <property name="format">2</property>
  <property name="meta.media.width">1920</property>
  <property name="meta.media.height">1080</property>
  <property name="mlt_service">qimage</property>
  <property name="kdenlive:duration">00:00:05:00</property>
  <property name="xml">was here</property>
  <property name="kdenlive:folderid">15</property>
  <property name="kdenlive:id">131</property>
  <property name="kdenlive:control_uuid">{28c96cd9-73bd-4c9d-ba3b-d5a7450878f3}</property>
  <property name="kdenlive:clip_type">2</property>
  <property name="kdenlive:file_size">1882145</property>
  <property name="kdenlive:file_hash">1205ff5e6172f901e7072f218fa43252</property>
 </producer>
 <producer id="producer121" in="00:00:00.000" out="00:00:04.958">
  <property name="length">00:00:05.000</property>
  <property name="eof">pause</property>
  <property name="resource">LOGO/logo_0117.png</property>
  <property name="ttl">25</property>
  <property name="aspect_ratio">1</property>
  <property name="meta.media.progressive">1</property>
  <property name="seekable">1</property>
  <property name="format">2</property>
  <property name="meta.media.width">1920</property>
  <property name="meta.media.height">1080</property>
  <property name="mlt_service">qimage</property>
  <property name="kdenlive:duration">00:00:05:00</property>
  <property name="xml">was here</property>
  <property name="kdenlive:folderid">15</property>
  <property name="kdenlive:id">132</property>
  <property name="kdenlive:control_uuid">{a627d1f3-a636-4796-945e-7f75434d8dc2}</property>
  <property name="kdenlive:clip_type">2</property>
  <property name="kdenlive:file_size">1884244</property>
  <property name="kdenlive:file_hash">d50165b95d951775af95f25110e419a2</property>
 </producer>
 <producer id="producer122" in="00:00:00.000" out="00:00:04.958">
  <property name="length">00:00:05.000</property>
  <property name="eof">pause</property>
  <property name="resource">LOGO/logo_0118.png</property>
  <property name="ttl">25</property>
  <property name="aspect_ratio">1</property>
  <property name="meta.media.progressive">1</property>
  <property name="seekable">1</property>
  <property name="format">2</property>
  <property name="meta.media.width">1920</property>
  <property name="meta.media.height">1080</property>
  <property name="mlt_service">qimage</property>
  <property name="kdenlive:duration">00:00:05:00</property>
  <property name="xml">was here</property>
  <property name="kdenlive:folderid">15</property>
  <property name="kdenlive:id">133</property>
  <property name="kdenlive:control_uuid">{80803af4-6e25-498a-b6c0-0f6469fd3b37}</property>
  <property name="kdenlive:clip_type">2</property>
  <property name="kdenlive:file_size">1884851</property>
  <property name="kdenlive:file_hash">39964ff4b707f9e6790c2522d8496fbf</property>
 </producer>
 <producer id="producer123" in="00:00:00.000" out="00:00:04.958">
  <property name="length">00:00:05.000</property>
  <property name="eof">pause</property>
  <property name="resource">LOGO/logo_0120.png</property>
  <property name="ttl">25</property>
  <property name="aspect_ratio">1</property>
  <property name="meta.media.progressive">1</property>
  <property name="seekable">1</property>
  <property name="format">2</property>
  <property name="meta.media.width">1920</property>
  <property name="meta.media.height">1080</property>
  <property name="mlt_service">qimage</property>
  <property name="kdenlive:duration">00:00:05:00</property>
  <property name="xml">was here</property>
  <property name="kdenlive:folderid">15</property>
  <property name="kdenlive:id">135</property>
  <property name="kdenlive:control_uuid">{7341dfe5-5240-43c8-bf25-9a13cfc377d1}</property>
  <property name="kdenlive:clip_type">2</property>
  <property name="kdenlive:file_size">1883744</property>
  <property name="kdenlive:file_hash">af9cf529f74bbfc20eb0b051a7c0ab9a</property>
 </producer>
 <producer id="producer124" in="00:00:00.000" out="00:00:04.958">
  <property name="length">00:00:05.000</property>
  <property name="eof">pause</property>
  <property name="resource">LOGO/logo_0121.png</property>
  <property name="ttl">25</property>
  <property name="aspect_ratio">1</property>
  <property name="meta.media.progressive">1</property>
  <property name="seekable">1</property>
  <property name="format">2</property>
  <property name="meta.media.width">1920</property>
  <property name="meta.media.height">1080</property>
  <property name="mlt_service">qimage</property>
  <property name="kdenlive:duration">00:00:05:00</property>
  <property name="xml">was here</property>
  <property name="kdenlive:folderid">15</property>
  <property name="kdenlive:id">136</property>
  <property name="kdenlive:control_uuid">{da6b928f-710d-4e29-8d0c-c4e1468dcd3c}</property>
  <property name="kdenlive:clip_type">2</property>
  <property name="kdenlive:file_size">1883679</property>
  <property name="kdenlive:file_hash">044f3f0015203e238de043a7741629ae</property>
 </producer>
 <producer id="producer125" in="00:00:00.000" out="00:00:04.958">
  <property name="length">00:00:05.000</property>
  <property name="eof">pause</property>
  <property name="resource">LOGO/logo_0119.png</property>
  <property name="ttl">25</property>
  <property name="aspect_ratio">1</property>
  <property name="meta.media.progressive">1</property>
  <property name="seekable">1</property>
  <property name="format">2</property>
  <property name="meta.media.width">1920</property>
  <property name="meta.media.height">1080</property>
  <property name="mlt_service">qimage</property>
  <property name="kdenlive:duration">00:00:05:00</property>
  <property name="xml">was here</property>
  <property name="kdenlive:folderid">15</property>
  <property name="kdenlive:id">134</property>
  <property name="kdenlive:control_uuid">{a36f6321-8fa5-43aa-ab2b-e87a948c5a1f}</property>
  <property name="kdenlive:clip_type">2</property>
  <property name="kdenlive:file_size">1883460</property>
  <property name="kdenlive:file_hash">72c912296437808c796d7e9a31def9e7</property>
 </producer>
 <producer id="producer126" in="00:00:00.000" out="00:00:04.958">
  <property name="length">00:00:05.000</property>
  <property name="eof">pause</property>
  <property name="resource">LOGO/logo_0122.png</property>
  <property name="ttl">25</property>
  <property name="aspect_ratio">1</property>
  <property name="meta.media.progressive">1</property>
  <property name="seekable">1</property>
  <property name="format">2</property>
  <property name="meta.media.width">1920</property>
  <property name="meta.media.height">1080</property>
  <property name="mlt_service">qimage</property>
  <property name="kdenlive:duration">00:00:05:00</property>
  <property name="xml">was here</property>
  <property name="kdenlive:folderid">15</property>
  <property name="kdenlive:id">137</property>
  <property name="kdenlive:control_uuid">{82a37107-6c3a-4ba1-b31b-f6fca9f22709}</property>
  <property name="kdenlive:clip_type">2</property>
  <property name="kdenlive:file_size">1880266</property>
  <property name="kdenlive:file_hash">82a51c016af2504856874c2b55587e9e</property>
 </producer>
 <producer id="producer127" in="00:00:00.000" out="00:00:04.958">
  <property name="length">00:00:05.000</property>
  <property name="eof">pause</property>
  <property name="resource">LOGO/logo_0123.png</property>
  <property name="ttl">25</property>
  <property name="aspect_ratio">1</property>
  <property name="meta.media.progressive">1</property>
  <property name="seekable">1</property>
  <property name="format">2</property>
  <property name="meta.media.width">1920</property>
  <property name="meta.media.height">1080</property>
  <property name="mlt_service">qimage</property>
  <property name="kdenlive:duration">00:00:05:00</property>
  <property name="xml">was here</property>
  <property name="kdenlive:folderid">15</property>
  <property name="kdenlive:id">138</property>
  <property name="kdenlive:control_uuid">{8a0b5e27-0e9f-4243-8735-9e7bc67367a4}</property>
  <property name="kdenlive:clip_type">2</property>
  <property name="kdenlive:file_size">1875425</property>
  <property name="kdenlive:file_hash">11a1c8b05e0e5c9f1027e70b0a4e4b30</property>
 </producer>
 <producer id="producer128" in="00:00:00.000" out="00:00:04.958">
  <property name="length">00:00:05.000</property>
  <property name="eof">pause</property>
  <property name="resource">LOGO/logo_0124.png</property>
  <property name="ttl">25</property>
  <property name="aspect_ratio">1</property>
  <property name="meta.media.progressive">1</property>
  <property name="seekable">1</property>
  <property name="format">2</property>
  <property name="meta.media.width">1920</property>
  <property name="meta.media.height">1080</property>
  <property name="mlt_service">qimage</property>
  <property name="kdenlive:duration">00:00:05:00</property>
  <property name="xml">was here</property>
  <property name="kdenlive:folderid">15</property>
  <property name="kdenlive:id">139</property>
  <property name="kdenlive:control_uuid">{142ddd92-5fb2-408f-bcba-c541839e3d19}</property>
  <property name="kdenlive:clip_type">2</property>
  <property name="kdenlive:file_size">1871140</property>
  <property name="kdenlive:file_hash">39f4cb267e072cd335511430bcec9da1</property>
 </producer>
 <producer id="producer129" in="00:00:00.000" out="00:00:04.958">
  <property name="length">00:00:05.000</property>
  <property name="eof">pause</property>
  <property name="resource">LOGO/logo_0125.png</property>
  <property name="ttl">25</property>
  <property name="aspect_ratio">1</property>
  <property name="meta.media.progressive">1</property>
  <property name="seekable">1</property>
  <property name="format">2</property>
  <property name="meta.media.width">1920</property>
  <property name="meta.media.height">1080</property>
  <property name="mlt_service">qimage</property>
  <property name="kdenlive:duration">00:00:05:00</property>
  <property name="xml">was here</property>
  <property name="kdenlive:folderid">15</property>
  <property name="kdenlive:id">140</property>
  <property name="kdenlive:control_uuid">{25410daf-7cde-4740-8a6f-6a178612c32f}</property>
  <property name="kdenlive:clip_type">2</property>
  <property name="kdenlive:file_size">1867172</property>
  <property name="kdenlive:file_hash">6364e5bd8f7e1463fb3d1c5ea136a764</property>
 </producer>
 <producer id="producer130" in="00:00:00.000" out="00:00:04.958">
  <property name="length">00:00:05.000</property>
  <property name="eof">pause</property>
  <property name="resource">LOGO/logo_0126.png</property>
  <property name="ttl">25</property>
  <property name="aspect_ratio">1</property>
  <property name="meta.media.progressive">1</property>
  <property name="seekable">1</property>
  <property name="format">2</property>
  <property name="meta.media.width">1920</property>
  <property name="meta.media.height">1080</property>
  <property name="mlt_service">qimage</property>
  <property name="kdenlive:duration">00:00:05:00</property>
  <property name="xml">was here</property>
  <property name="kdenlive:folderid">15</property>
  <property name="kdenlive:id">141</property>
  <property name="kdenlive:control_uuid">{7b129134-6902-43ae-804e-b1ad22af82c4}</property>
  <property name="kdenlive:clip_type">2</property>
  <property name="kdenlive:file_size">1866178</property>
  <property name="kdenlive:file_hash">1050456ad3c2aa95800dec9503bf6c98</property>
 </producer>
 <producer id="producer131" in="00:00:00.000" out="00:00:04.958">
  <property name="length">00:00:05.000</property>
  <property name="eof">pause</property>
  <property name="resource">LOGO/logo_0127.png</property>
  <property name="ttl">25</property>
  <property name="aspect_ratio">1</property>
  <property name="meta.media.progressive">1</property>
  <property name="seekable">1</property>
  <property name="format">2</property>
  <property name="meta.media.width">1920</property>
  <property name="meta.media.height">1080</property>
  <property name="mlt_service">qimage</property>
  <property name="kdenlive:duration">00:00:05:00</property>
  <property name="xml">was here</property>
  <property name="kdenlive:folderid">15</property>
  <property name="kdenlive:id">142</property>
  <property name="kdenlive:control_uuid">{698e12d3-b32f-48e5-b474-cc0186dec076}</property>
  <property name="kdenlive:clip_type">2</property>
  <property name="kdenlive:file_size">1868257</property>
  <property name="kdenlive:file_hash">6201ef485523b52088e52de83646c01c</property>
 </producer>
 <producer id="producer132" in="00:00:00.000" out="00:00:04.958">
  <property name="length">00:00:05.000</property>
  <property name="eof">pause</property>
  <property name="resource">LOGO/logo_0128.png</property>
  <property name="ttl">25</property>
  <property name="aspect_ratio">1</property>
  <property name="meta.media.progressive">1</property>
  <property name="seekable">1</property>
  <property name="format">2</property>
  <property name="meta.media.width">1920</property>
  <property name="meta.media.height">1080</property>
  <property name="mlt_service">qimage</property>
  <property name="kdenlive:duration">00:00:05:00</property>
  <property name="xml">was here</property>
  <property name="kdenlive:folderid">15</property>
  <property name="kdenlive:id">143</property>
  <property name="kdenlive:control_uuid">{3fcf1f2c-832b-403f-a2de-c71649da661c}</property>
  <property name="kdenlive:clip_type">2</property>
  <property name="kdenlive:file_size">1873174</property>
  <property name="kdenlive:file_hash">aebe273a1dc6bb648392040ea7057a43</property>
 </producer>
 <producer id="producer133" in="00:00:00.000" out="00:00:04.958">
  <property name="length">00:00:05.000</property>
  <property name="eof">pause</property>
  <property name="resource">LOGO/logo_0129.png</property>
  <property name="ttl">25</property>
  <property name="aspect_ratio">1</property>
  <property name="meta.media.progressive">1</property>
  <property name="seekable">1</property>
  <property name="format">2</property>
  <property name="meta.media.width">1920</property>
  <property name="meta.media.height">1080</property>
  <property name="mlt_service">qimage</property>
  <property name="kdenlive:duration">00:00:05:00</property>
  <property name="xml">was here</property>
  <property name="kdenlive:folderid">15</property>
  <property name="kdenlive:id">144</property>
  <property name="kdenlive:control_uuid">{1374eb28-a261-4007-97d4-cc824fc75bb3}</property>
  <property name="kdenlive:clip_type">2</property>
  <property name="kdenlive:file_size">1878645</property>
  <property name="kdenlive:file_hash">6e6974c9594012396a561da9015a84c8</property>
 </producer>
 <producer id="producer134" in="00:00:00.000" out="00:00:04.958">
  <property name="length">00:00:05.000</property>
  <property name="eof">pause</property>
  <property name="resource">LOGO/logo_0130.png</property>
  <property name="ttl">25</property>
  <property name="aspect_ratio">1</property>
  <property name="meta.media.progressive">1</property>
  <property name="seekable">1</property>
  <property name="format">2</property>
  <property name="meta.media.width">1920</property>
  <property name="meta.media.height">1080</property>
  <property name="mlt_service">qimage</property>
  <property name="kdenlive:duration">00:00:05:00</property>
  <property name="xml">was here</property>
  <property name="kdenlive:folderid">15</property>
  <property name="kdenlive:id">145</property>
  <property name="kdenlive:control_uuid">{47399fc9-d696-4d6d-8cec-b03af6535432}</property>
  <property name="kdenlive:clip_type">2</property>
  <property name="kdenlive:file_size">1877794</property>
  <property name="kdenlive:file_hash">f085ad310dfc6a18b3ca23be0cf4df6e</property>
 </producer>
 <producer id="producer135" in="00:00:00.000" out="00:00:04.958">
  <property name="length">00:00:05.000</property>
  <property name="eof">pause</property>
  <property name="resource">LOGO/logo_0131.png</property>
  <property name="ttl">25</property>
  <property name="aspect_ratio">1</property>
  <property name="meta.media.progressive">1</property>
  <property name="seekable">1</property>
  <property name="format">2</property>
  <property name="meta.media.width">1920</property>
  <property name="meta.media.height">1080</property>
  <property name="mlt_service">qimage</property>
  <property name="kdenlive:duration">00:00:05:00</property>
  <property name="xml">was here</property>
  <property name="kdenlive:folderid">15</property>
  <property name="kdenlive:id">146</property>
  <property name="kdenlive:control_uuid">{1867e5cd-af5c-44e0-a0c7-150df33c13ef}</property>
  <property name="kdenlive:clip_type">2</property>
  <property name="kdenlive:file_size">1882183</property>
  <property name="kdenlive:file_hash">adf21cecab54571bcc870b8d91143f32</property>
 </producer>
 <producer id="producer136" in="00:00:00.000" out="00:00:04.958">
  <property name="length">00:00:05.000</property>
  <property name="eof">pause</property>
  <property name="resource">LOGO/logo_0132.png</property>
  <property name="ttl">25</property>
  <property name="aspect_ratio">1</property>
  <property name="meta.media.progressive">1</property>
  <property name="seekable">1</property>
  <property name="format">2</property>
  <property name="meta.media.width">1920</property>
  <property name="meta.media.height">1080</property>
  <property name="mlt_service">qimage</property>
  <property name="kdenlive:duration">00:00:05:00</property>
  <property name="xml">was here</property>
  <property name="kdenlive:folderid">15</property>
  <property name="kdenlive:id">147</property>
  <property name="kdenlive:control_uuid">{3734b4a7-3af2-4bda-9818-65b4771a455a}</property>
  <property name="kdenlive:clip_type">2</property>
  <property name="kdenlive:file_size">1881066</property>
  <property name="kdenlive:file_hash">fe31365cfadfc7837ac4ba6cf03968ca</property>
 </producer>
 <producer id="producer137" in="00:00:00.000" out="00:00:04.958">
  <property name="length">00:00:05.000</property>
  <property name="eof">pause</property>
  <property name="resource">LOGO/logo_0133.png</property>
  <property name="ttl">25</property>
  <property name="aspect_ratio">1</property>
  <property name="meta.media.progressive">1</property>
  <property name="seekable">1</property>
  <property name="format">2</property>
  <property name="meta.media.width">1920</property>
  <property name="meta.media.height">1080</property>
  <property name="mlt_service">qimage</property>
  <property name="kdenlive:duration">00:00:05:00</property>
  <property name="xml">was here</property>
  <property name="kdenlive:folderid">15</property>
  <property name="kdenlive:id">148</property>
  <property name="kdenlive:control_uuid">{025043ca-c7f0-45ad-875e-d0194daaaa05}</property>
  <property name="kdenlive:clip_type">2</property>
  <property name="kdenlive:file_size">1883351</property>
  <property name="kdenlive:file_hash">0a59d3f3774872b5db49bec3a3b23abd</property>
 </producer>
 <producer id="producer138" in="00:00:00.000" out="00:00:04.958">
  <property name="length">00:00:05.000</property>
  <property name="eof">pause</property>
  <property name="resource">LOGO/logo_0134.png</property>
  <property name="ttl">25</property>
  <property name="aspect_ratio">1</property>
  <property name="meta.media.progressive">1</property>
  <property name="seekable">1</property>
  <property name="format">2</property>
  <property name="meta.media.width">1920</property>
  <property name="meta.media.height">1080</property>
  <property name="mlt_service">qimage</property>
  <property name="kdenlive:duration">00:00:05:00</property>
  <property name="xml">was here</property>
  <property name="kdenlive:folderid">15</property>
  <property name="kdenlive:id">149</property>
  <property name="kdenlive:control_uuid">{bb4b0b2b-4457-439f-afba-cd8c0528aadd}</property>
  <property name="kdenlive:clip_type">2</property>
  <property name="kdenlive:file_size">1882441</property>
  <property name="kdenlive:file_hash">1d7a920614996e679980b5e696ffe9e2</property>
 </producer>
 <producer id="producer139" in="00:00:00.000" out="00:00:04.958">
  <property name="length">00:00:05.000</property>
  <property name="eof">pause</property>
  <property name="resource">LOGO/logo_0135.png</property>
  <property name="ttl">25</property>
  <property name="aspect_ratio">1</property>
  <property name="meta.media.progressive">1</property>
  <property name="seekable">1</property>
  <property name="format">2</property>
  <property name="meta.media.width">1920</property>
  <property name="meta.media.height">1080</property>
  <property name="mlt_service">qimage</property>
  <property name="kdenlive:duration">00:00:05:00</property>
  <property name="xml">was here</property>
  <property name="kdenlive:folderid">15</property>
  <property name="kdenlive:id">150</property>
  <property name="kdenlive:control_uuid">{d9615c70-e306-4870-9465-153c9cc760d4}</property>
  <property name="kdenlive:clip_type">2</property>
  <property name="kdenlive:file_size">1881842</property>
  <property name="kdenlive:file_hash">3d5c0f982e6294650fd4d81b7676622c</property>
 </producer>
 <producer id="producer140" in="00:00:00.000" out="00:00:04.958">
  <property name="length">00:00:05.000</property>
  <property name="eof">pause</property>
  <property name="resource">LOGO/logo_0136.png</property>
  <property name="ttl">25</property>
  <property name="aspect_ratio">1</property>
  <property name="meta.media.progressive">1</property>
  <property name="seekable">1</property>
  <property name="format">2</property>
  <property name="meta.media.width">1920</property>
  <property name="meta.media.height">1080</property>
  <property name="mlt_service">qimage</property>
  <property name="kdenlive:duration">00:00:05:00</property>
  <property name="xml">was here</property>
  <property name="kdenlive:folderid">15</property>
  <property name="kdenlive:id">151</property>
  <property name="kdenlive:control_uuid">{0223e774-c595-4f1b-86a3-1746fcf9da40}</property>
  <property name="kdenlive:clip_type">2</property>
  <property name="kdenlive:file_size">1879107</property>
  <property name="kdenlive:file_hash">eabc6aded1d0a57ea84187e7d876531d</property>
 </producer>
 <producer id="producer141" in="00:00:00.000" out="00:00:04.958">
  <property name="length">00:00:05.000</property>
  <property name="eof">pause</property>
  <property name="resource">LOGO/logo_0137.png</property>
  <property name="ttl">25</property>
  <property name="aspect_ratio">1</property>
  <property name="meta.media.progressive">1</property>
  <property name="seekable">1</property>
  <property name="format">2</property>
  <property name="meta.media.width">1920</property>
  <property name="meta.media.height">1080</property>
  <property name="mlt_service">qimage</property>
  <property name="kdenlive:duration">00:00:05:00</property>
  <property name="xml">was here</property>
  <property name="kdenlive:folderid">15</property>
  <property name="kdenlive:id">152</property>
  <property name="kdenlive:control_uuid">{f2e232d2-00df-45f7-8337-d66156671f5b}</property>
  <property name="kdenlive:clip_type">2</property>
  <property name="kdenlive:file_size">1877052</property>
  <property name="kdenlive:file_hash">31b6855dac0b724e53abee28e4dbc43d</property>
 </producer>
 <producer id="producer142" in="00:00:00.000" out="00:00:04.958">
  <property name="length">00:00:05.000</property>
  <property name="eof">pause</property>
  <property name="resource">LOGO/logo_0138.png</property>
  <property name="ttl">25</property>
  <property name="aspect_ratio">1</property>
  <property name="meta.media.progressive">1</property>
  <property name="seekable">1</property>
  <property name="format">2</property>
  <property name="meta.media.width">1920</property>
  <property name="meta.media.height">1080</property>
  <property name="mlt_service">qimage</property>
  <property name="kdenlive:duration">00:00:05:00</property>
  <property name="xml">was here</property>
  <property name="kdenlive:folderid">15</property>
  <property name="kdenlive:id">153</property>
  <property name="kdenlive:control_uuid">{2ea5cad9-bb64-4b7e-870d-31fda27793f0}</property>
  <property name="kdenlive:clip_type">2</property>
  <property name="kdenlive:file_size">1873501</property>
  <property name="kdenlive:file_hash">4bf1fd4dd54e53a0624aabfed9efef51</property>
 </producer>
 <producer id="producer143" in="00:00:00.000" out="00:00:04.958">
  <property name="length">00:00:05.000</property>
  <property name="eof">pause</property>
  <property name="resource">LOGO/logo_0139.png</property>
  <property name="ttl">25</property>
  <property name="aspect_ratio">1</property>
  <property name="meta.media.progressive">1</property>
  <property name="seekable">1</property>
  <property name="format">2</property>
  <property name="meta.media.width">1920</property>
  <property name="meta.media.height">1080</property>
  <property name="mlt_service">qimage</property>
  <property name="kdenlive:duration">00:00:05:00</property>
  <property name="xml">was here</property>
  <property name="kdenlive:folderid">15</property>
  <property name="kdenlive:id">154</property>
  <property name="kdenlive:control_uuid">{8ddc7313-d9cf-4fcc-bf14-3632cbe06b99}</property>
  <property name="kdenlive:clip_type">2</property>
  <property name="kdenlive:file_size">1866238</property>
  <property name="kdenlive:file_hash">096b151bac684d74eb3fb6c62832d018</property>
 </producer>
 <producer id="producer144" in="00:00:00.000" out="00:00:04.958">
  <property name="length">00:00:05.000</property>
  <property name="eof">pause</property>
  <property name="resource">LOGO/logo_0140.png</property>
  <property name="ttl">25</property>
  <property name="aspect_ratio">1</property>
  <property name="meta.media.progressive">1</property>
  <property name="seekable">1</property>
  <property name="format">2</property>
  <property name="meta.media.width">1920</property>
  <property name="meta.media.height">1080</property>
  <property name="mlt_service">qimage</property>
  <property name="kdenlive:duration">00:00:05:00</property>
  <property name="xml">was here</property>
  <property name="kdenlive:folderid">15</property>
  <property name="kdenlive:id">155</property>
  <property name="kdenlive:control_uuid">{94c926f1-d2b2-4d6a-8a2e-0ef2834ba02f}</property>
  <property name="kdenlive:clip_type">2</property>
  <property name="kdenlive:file_size">1859681</property>
  <property name="kdenlive:file_hash">a62a25ecd9a82ed8a1791a2ca44d49f9</property>
 </producer>
 <producer id="producer145" in="00:00:00.000" out="00:00:04.958">
  <property name="length">00:00:05.000</property>
  <property name="eof">pause</property>
  <property name="resource">LOGO/logo_0142.png</property>
  <property name="ttl">25</property>
  <property name="aspect_ratio">1</property>
  <property name="meta.media.progressive">1</property>
  <property name="seekable">1</property>
  <property name="format">2</property>
  <property name="meta.media.width">1920</property>
  <property name="meta.media.height">1080</property>
  <property name="mlt_service">qimage</property>
  <property name="kdenlive:duration">00:00:05:00</property>
  <property name="xml">was here</property>
  <property name="kdenlive:folderid">15</property>
  <property name="kdenlive:id">157</property>
  <property name="kdenlive:control_uuid">{40794183-77e5-41db-bdaa-a2aa4771a36f}</property>
  <property name="kdenlive:clip_type">2</property>
  <property name="kdenlive:file_size">1845868</property>
  <property name="kdenlive:file_hash">aad77061f7759b40db84a410318484b9</property>
 </producer>
 <producer id="producer146" in="00:00:00.000" out="00:00:04.958">
  <property name="length">00:00:05.000</property>
  <property name="eof">pause</property>
  <property name="resource">LOGO/logo_0141.png</property>
  <property name="ttl">25</property>
  <property name="aspect_ratio">1</property>
  <property name="meta.media.progressive">1</property>
  <property name="seekable">1</property>
  <property name="format">2</property>
  <property name="meta.media.width">1920</property>
  <property name="meta.media.height">1080</property>
  <property name="mlt_service">qimage</property>
  <property name="kdenlive:duration">00:00:05:00</property>
  <property name="xml">was here</property>
  <property name="kdenlive:folderid">15</property>
  <property name="kdenlive:id">156</property>
  <property name="kdenlive:control_uuid">{34269eb6-2153-4691-9d67-48e751ea59fc}</property>
  <property name="kdenlive:clip_type">2</property>
  <property name="kdenlive:file_size">1855158</property>
  <property name="kdenlive:file_hash">e9f3e81b6ed2515557907dabdd70fccf</property>
 </producer>
 <producer id="producer147" in="00:00:00.000" out="00:00:04.958">
  <property name="length">00:00:05.000</property>
  <property name="eof">pause</property>
  <property name="resource">LOGO/logo_0143.png</property>
  <property name="ttl">25</property>
  <property name="aspect_ratio">1</property>
  <property name="meta.media.progressive">1</property>
  <property name="seekable">1</property>
  <property name="format">2</property>
  <property name="meta.media.width">1920</property>
  <property name="meta.media.height">1080</property>
  <property name="mlt_service">qimage</property>
  <property name="kdenlive:duration">00:00:05:00</property>
  <property name="xml">was here</property>
  <property name="kdenlive:folderid">15</property>
  <property name="kdenlive:id">158</property>
  <property name="kdenlive:control_uuid">{be1960f0-11a8-450f-a186-bde8f0a27167}</property>
  <property name="kdenlive:clip_type">2</property>
  <property name="kdenlive:file_size">1839381</property>
  <property name="kdenlive:file_hash">55801ff8a09653e1a8f1660820caf5ac</property>
 </producer>
 <producer id="producer148" in="00:00:00.000" out="00:00:04.958">
  <property name="length">00:00:05.000</property>
  <property name="eof">pause</property>
  <property name="resource">LOGO/logo_0144.png</property>
  <property name="ttl">25</property>
  <property name="aspect_ratio">1</property>
  <property name="meta.media.progressive">1</property>
  <property name="seekable">1</property>
  <property name="format">2</property>
  <property name="meta.media.width">1920</property>
  <property name="meta.media.height">1080</property>
  <property name="mlt_service">qimage</property>
  <property name="kdenlive:duration">00:00:05:00</property>
  <property name="xml">was here</property>
  <property name="kdenlive:folderid">15</property>
  <property name="kdenlive:id">159</property>
  <property name="kdenlive:control_uuid">{0647db04-3a38-4790-8fc1-49f726a6bdb7}</property>
  <property name="kdenlive:clip_type">2</property>
  <property name="kdenlive:file_size">1832238</property>
  <property name="kdenlive:file_hash">fe4e863920a49d70dc57f0323baca492</property>
 </producer>
 <producer id="producer149" in="00:00:00.000" out="00:00:04.958">
  <property name="length">00:00:05.000</property>
  <property name="eof">pause</property>
  <property name="resource">LOGO/logo_0145.png</property>
  <property name="ttl">25</property>
  <property name="aspect_ratio">1</property>
  <property name="meta.media.progressive">1</property>
  <property name="seekable">1</property>
  <property name="format">2</property>
  <property name="meta.media.width">1920</property>
  <property name="meta.media.height">1080</property>
  <property name="mlt_service">qimage</property>
  <property name="kdenlive:duration">00:00:05:00</property>
  <property name="xml">was here</property>
  <property name="kdenlive:folderid">15</property>
  <property name="kdenlive:id">160</property>
  <property name="kdenlive:control_uuid">{a13da43b-222d-41be-9267-7d212f138a7d}</property>
  <property name="kdenlive:clip_type">2</property>
  <property name="kdenlive:file_size">1824466</property>
  <property name="kdenlive:file_hash">b5b3a837021313d08f29dfb47533f719</property>
 </producer>
 <producer id="producer150" in="00:00:00.000" out="00:00:04.958">
  <property name="length">00:00:05.000</property>
  <property name="eof">pause</property>
  <property name="resource">LOGO/logo_0147.png</property>
  <property name="ttl">25</property>
  <property name="aspect_ratio">1</property>
  <property name="meta.media.progressive">1</property>
  <property name="seekable">1</property>
  <property name="format">2</property>
  <property name="meta.media.width">1920</property>
  <property name="meta.media.height">1080</property>
  <property name="mlt_service">qimage</property>
  <property name="kdenlive:duration">00:00:05:00</property>
  <property name="xml">was here</property>
  <property name="kdenlive:folderid">15</property>
  <property name="kdenlive:id">162</property>
  <property name="kdenlive:control_uuid">{56cd560e-9a78-4e97-b7a7-dd746da344f6}</property>
  <property name="kdenlive:clip_type">2</property>
  <property name="kdenlive:file_size">1810729</property>
  <property name="kdenlive:file_hash">f81f4f5c7c326eaf002f5236ec98a674</property>
 </producer>
 <producer id="producer151" in="00:00:00.000" out="00:00:04.958">
  <property name="length">00:00:05.000</property>
  <property name="eof">pause</property>
  <property name="resource">LOGO/logo_0148.png</property>
  <property name="ttl">25</property>
  <property name="aspect_ratio">1</property>
  <property name="meta.media.progressive">1</property>
  <property name="seekable">1</property>
  <property name="format">2</property>
  <property name="meta.media.width">1920</property>
  <property name="meta.media.height">1080</property>
  <property name="mlt_service">qimage</property>
  <property name="kdenlive:duration">00:00:05:00</property>
  <property name="xml">was here</property>
  <property name="kdenlive:folderid">15</property>
  <property name="kdenlive:id">163</property>
  <property name="kdenlive:control_uuid">{3b1c5703-d4e9-403b-9fa9-0c11ae5738a3}</property>
  <property name="kdenlive:clip_type">2</property>
  <property name="kdenlive:file_size">1801997</property>
  <property name="kdenlive:file_hash">0ee9312ef6ac624c82808f268789ab45</property>
 </producer>
 <producer id="producer152" in="00:00:00.000" out="00:00:04.958">
  <property name="length">00:00:05.000</property>
  <property name="eof">pause</property>
  <property name="resource">LOGO/logo_0146.png</property>
  <property name="ttl">25</property>
  <property name="aspect_ratio">1</property>
  <property name="meta.media.progressive">1</property>
  <property name="seekable">1</property>
  <property name="format">2</property>
  <property name="meta.media.width">1920</property>
  <property name="meta.media.height">1080</property>
  <property name="mlt_service">qimage</property>
  <property name="kdenlive:duration">00:00:05:00</property>
  <property name="xml">was here</property>
  <property name="kdenlive:folderid">15</property>
  <property name="kdenlive:id">161</property>
  <property name="kdenlive:control_uuid">{d6ae484b-216b-48a3-9785-f50a39c75554}</property>
  <property name="kdenlive:clip_type">2</property>
  <property name="kdenlive:file_size">1813769</property>
  <property name="kdenlive:file_hash">cf3c6d95f43de20c8547113403dab4dc</property>
 </producer>
 <producer id="producer153" in="00:00:00.000" out="00:00:04.958">
  <property name="length">00:00:05.000</property>
  <property name="eof">pause</property>
  <property name="resource">LOGO/logo_0149.png</property>
  <property name="ttl">25</property>
  <property name="aspect_ratio">1</property>
  <property name="meta.media.progressive">1</property>
  <property name="seekable">1</property>
  <property name="format">2</property>
  <property name="meta.media.width">1920</property>
  <property name="meta.media.height">1080</property>
  <property name="mlt_service">qimage</property>
  <property name="kdenlive:duration">00:00:05:00</property>
  <property name="xml">was here</property>
  <property name="kdenlive:folderid">15</property>
  <property name="kdenlive:id">164</property>
  <property name="kdenlive:control_uuid">{7ea9cd3c-8611-4566-8cb9-b1f1641cfd47}</property>
  <property name="kdenlive:clip_type">2</property>
  <property name="kdenlive:file_size">1794892</property>
  <property name="kdenlive:file_hash">80b6326afaa17e7f255a1e55f637682c</property>
 </producer>
 <producer id="producer154" in="00:00:00.000" out="00:00:04.958">
  <property name="length">00:00:05.000</property>
  <property name="eof">pause</property>
  <property name="resource">LOGO/logo_0150.png</property>
  <property name="ttl">25</property>
  <property name="aspect_ratio">1</property>
  <property name="meta.media.progressive">1</property>
  <property name="seekable">1</property>
  <property name="format">2</property>
  <property name="meta.media.width">1920</property>
  <property name="meta.media.height">1080</property>
  <property name="mlt_service">qimage</property>
  <property name="kdenlive:duration">00:00:05:00</property>
  <property name="xml">was here</property>
  <property name="kdenlive:folderid">15</property>
  <property name="kdenlive:id">165</property>
  <property name="kdenlive:control_uuid">{82bc8ddc-e3bb-4a59-b786-1468fb06cc2b}</property>
  <property name="kdenlive:clip_type">2</property>
  <property name="kdenlive:file_size">1790375</property>
  <property name="kdenlive:file_hash">322e103814624ae4526eaf0bd61e5407</property>
 </producer>
 <producer id="producer155" in="00:00:00.000" out="00:00:04.958">
  <property name="length">00:00:05.000</property>
  <property name="eof">pause</property>
  <property name="resource">LOGO/logo_0151.png</property>
  <property name="ttl">25</property>
  <property name="aspect_ratio">1</property>
  <property name="meta.media.progressive">1</property>
  <property name="seekable">1</property>
  <property name="format">2</property>
  <property name="meta.media.width">1920</property>
  <property name="meta.media.height">1080</property>
  <property name="mlt_service">qimage</property>
  <property name="kdenlive:duration">00:00:05:00</property>
  <property name="xml">was here</property>
  <property name="kdenlive:folderid">15</property>
  <property name="kdenlive:id">166</property>
  <property name="kdenlive:control_uuid">{e30e8339-95bf-47ac-b3d4-e6138a230c5a}</property>
  <property name="kdenlive:clip_type">2</property>
  <property name="kdenlive:file_size">1781654</property>
  <property name="kdenlive:file_hash">2b8f981376b0c9b9c85b5e9bc68601f4</property>
 </producer>
 <producer id="producer156" in="00:00:00.000" out="00:00:04.958">
  <property name="length">00:00:05.000</property>
  <property name="eof">pause</property>
  <property name="resource">LOGO/logo_0152.png</property>
  <property name="ttl">25</property>
  <property name="aspect_ratio">1</property>
  <property name="meta.media.progressive">1</property>
  <property name="seekable">1</property>
  <property name="format">2</property>
  <property name="meta.media.width">1920</property>
  <property name="meta.media.height">1080</property>
  <property name="mlt_service">qimage</property>
  <property name="kdenlive:duration">00:00:05:00</property>
  <property name="xml">was here</property>
  <property name="kdenlive:folderid">15</property>
  <property name="kdenlive:id">167</property>
  <property name="kdenlive:control_uuid">{4ef46c1d-8681-4f58-8fef-d4ed226e488c}</property>
  <property name="kdenlive:clip_type">2</property>
  <property name="kdenlive:file_size">1776213</property>
  <property name="kdenlive:file_hash">84d3a119d673b3380b179584479d262e</property>
 </producer>
 <producer id="producer157" in="00:00:00.000" out="00:00:04.958">
  <property name="length">00:00:05.000</property>
  <property name="eof">pause</property>
  <property name="resource">LOGO/logo_0153.png</property>
  <property name="ttl">25</property>
  <property name="aspect_ratio">1</property>
  <property name="meta.media.progressive">1</property>
  <property name="seekable">1</property>
  <property name="format">2</property>
  <property name="meta.media.width">1920</property>
  <property name="meta.media.height">1080</property>
  <property name="mlt_service">qimage</property>
  <property name="kdenlive:duration">00:00:05:00</property>
  <property name="xml">was here</property>
  <property name="kdenlive:folderid">15</property>
  <property name="kdenlive:id">168</property>
  <property name="kdenlive:control_uuid">{87646d36-1344-4225-ad20-a35bdb1b7c6b}</property>
  <property name="kdenlive:clip_type">2</property>
  <property name="kdenlive:file_size">1768326</property>
  <property name="kdenlive:file_hash">d00854c70c994389e3268691c9cbec0b</property>
 </producer>
 <producer id="producer158" in="00:00:00.000" out="00:00:04.958">
  <property name="length">00:00:05.000</property>
  <property name="eof">pause</property>
  <property name="resource">LOGO/logo_0154.png</property>
  <property name="ttl">25</property>
  <property name="aspect_ratio">1</property>
  <property name="meta.media.progressive">1</property>
  <property name="seekable">1</property>
  <property name="format">2</property>
  <property name="meta.media.width">1920</property>
  <property name="meta.media.height">1080</property>
  <property name="mlt_service">qimage</property>
  <property name="kdenlive:duration">00:00:05:00</property>
  <property name="xml">was here</property>
  <property name="kdenlive:folderid">15</property>
  <property name="kdenlive:id">169</property>
  <property name="kdenlive:control_uuid">{5c51ae26-f3e8-4023-8bfd-13aa19a5f9fd}</property>
  <property name="kdenlive:clip_type">2</property>
  <property name="kdenlive:file_size">1760699</property>
  <property name="kdenlive:file_hash">ff580ef5ec88db7180e3f09026852483</property>
 </producer>
 <producer id="producer159" in="00:00:00.000" out="00:00:04.958">
  <property name="length">00:00:05.000</property>
  <property name="eof">pause</property>
  <property name="resource">LOGO/logo_0155.png</property>
  <property name="ttl">25</property>
  <property name="aspect_ratio">1</property>
  <property name="meta.media.progressive">1</property>
  <property name="seekable">1</property>
  <property name="format">2</property>
  <property name="meta.media.width">1920</property>
  <property name="meta.media.height">1080</property>
  <property name="mlt_service">qimage</property>
  <property name="kdenlive:duration">00:00:05:00</property>
  <property name="xml">was here</property>
  <property name="kdenlive:folderid">15</property>
  <property name="kdenlive:id">170</property>
  <property name="kdenlive:control_uuid">{71056ba6-c983-4a9a-9d40-a34faaaaec93}</property>
  <property name="kdenlive:clip_type">2</property>
  <property name="kdenlive:file_size">1751050</property>
  <property name="kdenlive:file_hash">a2534314d2995e21604cdffc30dea113</property>
 </producer>
 <producer id="producer160" in="00:00:00.000" out="00:00:04.958">
  <property name="length">00:00:05.000</property>
  <property name="eof">pause</property>
  <property name="resource">LOGO/logo_0156.png</property>
  <property name="ttl">25</property>
  <property name="aspect_ratio">1</property>
  <property name="meta.media.progressive">1</property>
  <property name="seekable">1</property>
  <property name="format">2</property>
  <property name="meta.media.width">1920</property>
  <property name="meta.media.height">1080</property>
  <property name="mlt_service">qimage</property>
  <property name="kdenlive:duration">00:00:05:00</property>
  <property name="xml">was here</property>
  <property name="kdenlive:folderid">15</property>
  <property name="kdenlive:id">171</property>
  <property name="kdenlive:control_uuid">{905cfb60-3b51-4373-98ad-b4ef1c8d0bc5}</property>
  <property name="kdenlive:clip_type">2</property>
  <property name="kdenlive:file_size">1740722</property>
  <property name="kdenlive:file_hash">9badce3f2af2c22c77a5ac74eb5aa6ca</property>
 </producer>
 <producer id="producer161" in="00:00:00.000" out="00:00:04.958">
  <property name="length">00:00:05.000</property>
  <property name="eof">pause</property>
  <property name="resource">LOGO/logo_0157.png</property>
  <property name="ttl">25</property>
  <property name="aspect_ratio">1</property>
  <property name="meta.media.progressive">1</property>
  <property name="seekable">1</property>
  <property name="format">2</property>
  <property name="meta.media.width">1920</property>
  <property name="meta.media.height">1080</property>
  <property name="mlt_service">qimage</property>
  <property name="kdenlive:duration">00:00:05:00</property>
  <property name="xml">was here</property>
  <property name="kdenlive:folderid">15</property>
  <property name="kdenlive:id">172</property>
  <property name="kdenlive:control_uuid">{4b45342b-45a9-4822-99e0-e5f52b6a2b8a}</property>
  <property name="kdenlive:clip_type">2</property>
  <property name="kdenlive:file_size">1728953</property>
  <property name="kdenlive:file_hash">8d0a252889204d78a7e77877c36cad97</property>
 </producer>
 <producer id="producer162" in="00:00:00.000" out="00:00:04.958">
  <property name="length">00:00:05.000</property>
  <property name="eof">pause</property>
  <property name="resource">LOGO/logo_0158.png</property>
  <property name="ttl">25</property>
  <property name="aspect_ratio">1</property>
  <property name="meta.media.progressive">1</property>
  <property name="seekable">1</property>
  <property name="format">2</property>
  <property name="meta.media.width">1920</property>
  <property name="meta.media.height">1080</property>
  <property name="mlt_service">qimage</property>
  <property name="kdenlive:duration">00:00:05:00</property>
  <property name="xml">was here</property>
  <property name="kdenlive:folderid">15</property>
  <property name="kdenlive:id">173</property>
  <property name="kdenlive:control_uuid">{3ed1b12f-cbef-4c30-88c1-66f036435647}</property>
  <property name="kdenlive:clip_type">2</property>
  <property name="kdenlive:file_size">1716019</property>
  <property name="kdenlive:file_hash">517653d8d4552504c0854dde47ad9606</property>
 </producer>
 <producer id="producer163" in="00:00:00.000" out="00:00:04.958">
  <property name="length">00:00:05.000</property>
  <property name="eof">pause</property>
  <property name="resource">LOGO/logo_0159.png</property>
  <property name="ttl">25</property>
  <property name="aspect_ratio">1</property>
  <property name="meta.media.progressive">1</property>
  <property name="seekable">1</property>
  <property name="format">2</property>
  <property name="meta.media.width">1920</property>
  <property name="meta.media.height">1080</property>
  <property name="mlt_service">qimage</property>
  <property name="kdenlive:duration">00:00:05:00</property>
  <property name="xml">was here</property>
  <property name="kdenlive:folderid">15</property>
  <property name="kdenlive:id">174</property>
  <property name="kdenlive:control_uuid">{6ce5decc-8c6d-49e5-b21a-05dd6ad3ab0d}</property>
  <property name="kdenlive:clip_type">2</property>
  <property name="kdenlive:file_size">1708348</property>
  <property name="kdenlive:file_hash">5621cf7762e6720f01ef4df5567bb6f2</property>
 </producer>
 <producer id="producer164" in="00:00:00.000" out="00:00:04.958">
  <property name="length">00:00:05.000</property>
  <property name="eof">pause</property>
  <property name="resource">LOGO/logo_0160.png</property>
  <property name="ttl">25</property>
  <property name="aspect_ratio">1</property>
  <property name="meta.media.progressive">1</property>
  <property name="seekable">1</property>
  <property name="format">2</property>
  <property name="meta.media.width">1920</property>
  <property name="meta.media.height">1080</property>
  <property name="mlt_service">qimage</property>
  <property name="kdenlive:duration">00:00:05:00</property>
  <property name="xml">was here</property>
  <property name="kdenlive:folderid">15</property>
  <property name="kdenlive:id">175</property>
  <property name="kdenlive:control_uuid">{b70ef246-b26a-4016-9ce4-d0b859da177e}</property>
  <property name="kdenlive:clip_type">2</property>
  <property name="kdenlive:file_size">1697626</property>
  <property name="kdenlive:file_hash">a9bb880d371f726b7fc1e33c027db4c1</property>
 </producer>
 <producer id="producer165" in="00:00:00.000" out="00:00:04.958">
  <property name="length">00:00:05.000</property>
  <property name="eof">pause</property>
  <property name="resource">LOGO/logo_0161.png</property>
  <property name="ttl">25</property>
  <property name="aspect_ratio">1</property>
  <property name="meta.media.progressive">1</property>
  <property name="seekable">1</property>
  <property name="format">2</property>
  <property name="meta.media.width">1920</property>
  <property name="meta.media.height">1080</property>
  <property name="mlt_service">qimage</property>
  <property name="kdenlive:duration">00:00:05:00</property>
  <property name="xml">was here</property>
  <property name="kdenlive:folderid">15</property>
  <property name="kdenlive:id">176</property>
  <property name="kdenlive:control_uuid">{0e47f037-b80e-4e3d-bb1d-f8f66418b010}</property>
  <property name="kdenlive:clip_type">2</property>
  <property name="kdenlive:file_size">1687815</property>
  <property name="kdenlive:file_hash">d29ec706abb12758873ab7c314537a2b</property>
 </producer>
 <producer id="producer166" in="00:00:00.000" out="00:00:04.958">
  <property name="length">00:00:05.000</property>
  <property name="eof">pause</property>
  <property name="resource">LOGO/logo_0162.png</property>
  <property name="ttl">25</property>
  <property name="aspect_ratio">1</property>
  <property name="meta.media.progressive">1</property>
  <property name="seekable">1</property>
  <property name="format">2</property>
  <property name="meta.media.width">1920</property>
  <property name="meta.media.height">1080</property>
  <property name="mlt_service">qimage</property>
  <property name="kdenlive:duration">00:00:05:00</property>
  <property name="xml">was here</property>
  <property name="kdenlive:folderid">15</property>
  <property name="kdenlive:id">177</property>
  <property name="kdenlive:control_uuid">{2b1a70c0-52e8-4967-8675-416b4c896629}</property>
  <property name="kdenlive:clip_type">2</property>
  <property name="kdenlive:file_size">1671675</property>
  <property name="kdenlive:file_hash">7a2d3f6b2b1a723ee847f83e29ea1705</property>
 </producer>
 <producer id="producer167" in="00:00:00.000" out="00:00:04.958">
  <property name="length">00:00:05.000</property>
  <property name="eof">pause</property>
  <property name="resource">LOGO/logo_0163.png</property>
  <property name="ttl">25</property>
  <property name="aspect_ratio">1</property>
  <property name="meta.media.progressive">1</property>
  <property name="seekable">1</property>
  <property name="format">2</property>
  <property name="meta.media.width">1920</property>
  <property name="meta.media.height">1080</property>
  <property name="mlt_service">qimage</property>
  <property name="kdenlive:duration">00:00:05:00</property>
  <property name="xml">was here</property>
  <property name="kdenlive:folderid">15</property>
  <property name="kdenlive:id">178</property>
  <property name="kdenlive:control_uuid">{c9049e54-7981-4092-9e18-567a222d81ca}</property>
  <property name="kdenlive:clip_type">2</property>
  <property name="kdenlive:file_size">1660797</property>
  <property name="kdenlive:file_hash">fa7caee267af4c347040bc503212c254</property>
 </producer>
 <producer id="producer168" in="00:00:00.000" out="00:00:04.958">
  <property name="length">00:00:05.000</property>
  <property name="eof">pause</property>
  <property name="resource">LOGO/logo_0165.png</property>
  <property name="ttl">25</property>
  <property name="aspect_ratio">1</property>
  <property name="meta.media.progressive">1</property>
  <property name="seekable">1</property>
  <property name="format">2</property>
  <property name="meta.media.width">1920</property>
  <property name="meta.media.height">1080</property>
  <property name="mlt_service">qimage</property>
  <property name="kdenlive:duration">00:00:05:00</property>
  <property name="xml">was here</property>
  <property name="kdenlive:folderid">15</property>
  <property name="kdenlive:id">180</property>
  <property name="kdenlive:control_uuid">{458a3ec8-9844-435c-8ff0-dce28f7e8721}</property>
  <property name="kdenlive:clip_type">2</property>
  <property name="kdenlive:file_size">1633509</property>
  <property name="kdenlive:file_hash">187f4da6daa56fa50eb68c2d2d54bc25</property>
 </producer>
 <producer id="producer169" in="00:00:00.000" out="00:00:04.958">
  <property name="length">00:00:05.000</property>
  <property name="eof">pause</property>
  <property name="resource">LOGO/logo_0164.png</property>
  <property name="ttl">25</property>
  <property name="aspect_ratio">1</property>
  <property name="meta.media.progressive">1</property>
  <property name="seekable">1</property>
  <property name="format">2</property>
  <property name="meta.media.width">1920</property>
  <property name="meta.media.height">1080</property>
  <property name="mlt_service">qimage</property>
  <property name="kdenlive:duration">00:00:05:00</property>
  <property name="xml">was here</property>
  <property name="kdenlive:folderid">15</property>
  <property name="kdenlive:id">179</property>
  <property name="kdenlive:control_uuid">{6162cf5a-4dda-4977-9d03-7535b8124175}</property>
  <property name="kdenlive:clip_type">2</property>
  <property name="kdenlive:file_size">1647132</property>
  <property name="kdenlive:file_hash">17ba4159ce0fbfaa43c5bd0c620fd9fd</property>
 </producer>
 <producer id="producer170" in="00:00:00.000" out="00:00:04.958">
  <property name="length">00:00:05.000</property>
  <property name="eof">pause</property>
  <property name="resource">LOGO/logo_0166.png</property>
  <property name="ttl">25</property>
  <property name="aspect_ratio">1</property>
  <property name="meta.media.progressive">1</property>
  <property name="seekable">1</property>
  <property name="format">2</property>
  <property name="meta.media.width">1920</property>
  <property name="meta.media.height">1080</property>
  <property name="mlt_service">qimage</property>
  <property name="kdenlive:duration">00:00:05:00</property>
  <property name="xml">was here</property>
  <property name="kdenlive:folderid">15</property>
  <property name="kdenlive:id">181</property>
  <property name="kdenlive:control_uuid">{471b6044-7e19-42aa-9f7b-cf9b6e921b26}</property>
  <property name="kdenlive:clip_type">2</property>
  <property name="kdenlive:file_size">1619787</property>
  <property name="kdenlive:file_hash">3e1e425f63e114350ac65a67905b42bd</property>
 </producer>
 <producer id="producer171" in="00:00:00.000" out="00:00:04.958">
  <property name="length">00:00:05.000</property>
  <property name="eof">pause</property>
  <property name="resource">LOGO/logo_0167.png</property>
  <property name="ttl">25</property>
  <property name="aspect_ratio">1</property>
  <property name="meta.media.progressive">1</property>
  <property name="seekable">1</property>
  <property name="format">2</property>
  <property name="meta.media.width">1920</property>
  <property name="meta.media.height">1080</property>
  <property name="mlt_service">qimage</property>
  <property name="kdenlive:duration">00:00:05:00</property>
  <property name="xml">was here</property>
  <property name="kdenlive:folderid">15</property>
  <property name="kdenlive:id">182</property>
  <property name="kdenlive:control_uuid">{504df12e-1381-4022-aba2-0848a5a21546}</property>
  <property name="kdenlive:clip_type">2</property>
  <property name="kdenlive:file_size">1604410</property>
  <property name="kdenlive:file_hash">b1076c216e680189be141e63a5aa16d3</property>
 </producer>
 <producer id="producer172" in="00:00:00.000" out="00:00:04.958">
  <property name="length">00:00:05.000</property>
  <property name="eof">pause</property>
  <property name="resource">LOGO/logo_0168.png</property>
  <property name="ttl">25</property>
  <property name="aspect_ratio">1</property>
  <property name="meta.media.progressive">1</property>
  <property name="seekable">1</property>
  <property name="format">2</property>
  <property name="meta.media.width">1920</property>
  <property name="meta.media.height">1080</property>
  <property name="mlt_service">qimage</property>
  <property name="kdenlive:duration">00:00:05:00</property>
  <property name="xml">was here</property>
  <property name="kdenlive:folderid">15</property>
  <property name="kdenlive:id">183</property>
  <property name="kdenlive:control_uuid">{f4eefe81-13f3-492c-af28-565fc6d96091}</property>
  <property name="kdenlive:clip_type">2</property>
  <property name="kdenlive:file_size">1592661</property>
  <property name="kdenlive:file_hash">054811510bd0649536d7a2b6dd15dca1</property>
 </producer>
 <producer id="producer173" in="00:00:00.000" out="00:00:04.958">
  <property name="length">00:00:05.000</property>
  <property name="eof">pause</property>
  <property name="resource">LOGO/logo_0170.png</property>
  <property name="ttl">25</property>
  <property name="aspect_ratio">1</property>
  <property name="meta.media.progressive">1</property>
  <property name="seekable">1</property>
  <property name="format">2</property>
  <property name="meta.media.width">1920</property>
  <property name="meta.media.height">1080</property>
  <property name="mlt_service">qimage</property>
  <property name="kdenlive:duration">00:00:05:00</property>
  <property name="xml">was here</property>
  <property name="kdenlive:folderid">15</property>
  <property name="kdenlive:id">185</property>
  <property name="kdenlive:control_uuid">{7841a51c-df61-4660-aa48-6834a143dd1c}</property>
  <property name="kdenlive:clip_type">2</property>
  <property name="kdenlive:file_size">1564091</property>
  <property name="kdenlive:file_hash">9f69a503ccaaa79320d11bcc6a77d615</property>
 </producer>
 <producer id="producer174" in="00:00:00.000" out="00:00:04.958">
  <property name="length">00:00:05.000</property>
  <property name="eof">pause</property>
  <property name="resource">LOGO/logo_0169.png</property>
  <property name="ttl">25</property>
  <property name="aspect_ratio">1</property>
  <property name="meta.media.progressive">1</property>
  <property name="seekable">1</property>
  <property name="format">2</property>
  <property name="meta.media.width">1920</property>
  <property name="meta.media.height">1080</property>
  <property name="mlt_service">qimage</property>
  <property name="kdenlive:duration">00:00:05:00</property>
  <property name="xml">was here</property>
  <property name="kdenlive:folderid">15</property>
  <property name="kdenlive:id">184</property>
  <property name="kdenlive:control_uuid">{6a1989c2-bfc7-413e-ac2d-a9e9a8a3ba0d}</property>
  <property name="kdenlive:clip_type">2</property>
  <property name="kdenlive:file_size">1580215</property>
  <property name="kdenlive:file_hash">b1b27a57de8f88bda37e47b2654affb5</property>
 </producer>
 <producer id="producer175" in="00:00:00.000" out="00:00:04.958">
  <property name="length">00:00:05.000</property>
  <property name="eof">pause</property>
  <property name="resource">LOGO/logo_0171.png</property>
  <property name="ttl">25</property>
  <property name="aspect_ratio">1</property>
  <property name="meta.media.progressive">1</property>
  <property name="seekable">1</property>
  <property name="format">2</property>
  <property name="meta.media.width">1920</property>
  <property name="meta.media.height">1080</property>
  <property name="mlt_service">qimage</property>
  <property name="kdenlive:duration">00:00:05:00</property>
  <property name="xml">was here</property>
  <property name="kdenlive:folderid">15</property>
  <property name="kdenlive:id">186</property>
  <property name="kdenlive:control_uuid">{c58698be-bc3e-4db1-b2ad-86ebb6d2168a}</property>
  <property name="kdenlive:clip_type">2</property>
  <property name="kdenlive:file_size">1545273</property>
  <property name="kdenlive:file_hash">4201a71c7862073bc829e951897b2efb</property>
 </producer>
 <producer id="producer176" in="00:00:00.000" out="00:00:04.958">
  <property name="length">00:00:05.000</property>
  <property name="eof">pause</property>
  <property name="resource">LOGO/logo_0172.png</property>
  <property name="ttl">25</property>
  <property name="aspect_ratio">1</property>
  <property name="meta.media.progressive">1</property>
  <property name="seekable">1</property>
  <property name="format">2</property>
  <property name="meta.media.width">1920</property>
  <property name="meta.media.height">1080</property>
  <property name="mlt_service">qimage</property>
  <property name="kdenlive:duration">00:00:05:00</property>
  <property name="xml">was here</property>
  <property name="kdenlive:folderid">15</property>
  <property name="kdenlive:id">187</property>
  <property name="kdenlive:control_uuid">{a7dcd6b7-ef0a-4c54-a726-0d0184072776}</property>
  <property name="kdenlive:clip_type">2</property>
  <property name="kdenlive:file_size">1524667</property>
  <property name="kdenlive:file_hash">2bd9dde74a847924d3c7c32c5792f813</property>
 </producer>
 <producer id="producer177" in="00:00:00.000" out="00:00:04.958">
  <property name="length">00:00:05.000</property>
  <property name="eof">pause</property>
  <property name="resource">LOGO/logo_0173.png</property>
  <property name="ttl">25</property>
  <property name="aspect_ratio">1</property>
  <property name="meta.media.progressive">1</property>
  <property name="seekable">1</property>
  <property name="format">2</property>
  <property name="meta.media.width">1920</property>
  <property name="meta.media.height">1080</property>
  <property name="mlt_service">qimage</property>
  <property name="kdenlive:duration">00:00:05:00</property>
  <property name="xml">was here</property>
  <property name="kdenlive:folderid">15</property>
  <property name="kdenlive:id">188</property>
  <property name="kdenlive:control_uuid">{14ef901d-e9c4-45c6-937b-b9e8943b00d8}</property>
  <property name="kdenlive:clip_type">2</property>
  <property name="kdenlive:file_size">1507822</property>
  <property name="kdenlive:file_hash">c4a4b2f8c8cb07292666f412524e77a3</property>
 </producer>
 <producer id="producer178" in="00:00:00.000" out="00:00:04.958">
  <property name="length">00:00:05.000</property>
  <property name="eof">pause</property>
  <property name="resource">LOGO/logo_0174.png</property>
  <property name="ttl">25</property>
  <property name="aspect_ratio">1</property>
  <property name="meta.media.progressive">1</property>
  <property name="seekable">1</property>
  <property name="format">2</property>
  <property name="meta.media.width">1920</property>
  <property name="meta.media.height">1080</property>
  <property name="mlt_service">qimage</property>
  <property name="kdenlive:duration">00:00:05:00</property>
  <property name="xml">was here</property>
  <property name="kdenlive:folderid">15</property>
  <property name="kdenlive:id">189</property>
  <property name="kdenlive:control_uuid">{03b74cce-e05f-4f92-b349-bb58eec14204}</property>
  <property name="kdenlive:clip_type">2</property>
  <property name="kdenlive:file_size">1484682</property>
  <property name="kdenlive:file_hash">cf81b21ce68355b48bca92f80a47786a</property>
 </producer>
 <producer id="producer179" in="00:00:00.000" out="00:00:04.958">
  <property name="length">00:00:05.000</property>
  <property name="eof">pause</property>
  <property name="resource">LOGO/logo_0175.png</property>
  <property name="ttl">25</property>
  <property name="aspect_ratio">1</property>
  <property name="meta.media.progressive">1</property>
  <property name="seekable">1</property>
  <property name="format">2</property>
  <property name="meta.media.width">1920</property>
  <property name="meta.media.height">1080</property>
  <property name="mlt_service">qimage</property>
  <property name="kdenlive:duration">00:00:05:00</property>
  <property name="xml">was here</property>
  <property name="kdenlive:folderid">15</property>
  <property name="kdenlive:id">190</property>
  <property name="kdenlive:control_uuid">{4db1a3c2-8c3c-4f4d-a29a-c00d43f9b373}</property>
  <property name="kdenlive:clip_type">2</property>
  <property name="kdenlive:file_size">1463107</property>
  <property name="kdenlive:file_hash">83d86907b77838f20814d7c91ed0e5a9</property>
 </producer>
 <producer id="producer180" in="00:00:00.000" out="00:00:04.958">
  <property name="length">00:00:05.000</property>
  <property name="eof">pause</property>
  <property name="resource">LOGO/logo_0176.png</property>
  <property name="ttl">25</property>
  <property name="aspect_ratio">1</property>
  <property name="meta.media.progressive">1</property>
  <property name="seekable">1</property>
  <property name="format">2</property>
  <property name="meta.media.width">1920</property>
  <property name="meta.media.height">1080</property>
  <property name="mlt_service">qimage</property>
  <property name="kdenlive:duration">00:00:05:00</property>
  <property name="xml">was here</property>
  <property name="kdenlive:folderid">15</property>
  <property name="kdenlive:id">191</property>
  <property name="kdenlive:control_uuid">{283673cb-65e2-4060-af3f-833f9310d95c}</property>
  <property name="kdenlive:clip_type">2</property>
  <property name="kdenlive:file_size">1443745</property>
  <property name="kdenlive:file_hash">1e5c86703ffbc4dc4c707a39be9360c5</property>
 </producer>
 <producer id="producer181" in="00:00:00.000" out="00:00:04.958">
  <property name="length">00:00:05.000</property>
  <property name="eof">pause</property>
  <property name="resource">LOGO/logo_0177.png</property>
  <property name="ttl">25</property>
  <property name="aspect_ratio">1</property>
  <property name="meta.media.progressive">1</property>
  <property name="seekable">1</property>
  <property name="format">2</property>
  <property name="meta.media.width">1920</property>
  <property name="meta.media.height">1080</property>
  <property name="mlt_service">qimage</property>
  <property name="kdenlive:duration">00:00:05:00</property>
  <property name="xml">was here</property>
  <property name="kdenlive:folderid">15</property>
  <property name="kdenlive:id">192</property>
  <property name="kdenlive:control_uuid">{8633aabf-dc6e-49c3-80ca-9c644a286a22}</property>
  <property name="kdenlive:clip_type">2</property>
  <property name="kdenlive:file_size">1423431</property>
  <property name="kdenlive:file_hash">a715163df75974467b197468de56a87a</property>
 </producer>
 <producer id="producer182" in="00:00:00.000" out="00:00:04.958">
  <property name="length">00:00:05.000</property>
  <property name="eof">pause</property>
  <property name="resource">LOGO/logo_0178.png</property>
  <property name="ttl">25</property>
  <property name="aspect_ratio">1</property>
  <property name="meta.media.progressive">1</property>
  <property name="seekable">1</property>
  <property name="format">2</property>
  <property name="meta.media.width">1920</property>
  <property name="meta.media.height">1080</property>
  <property name="mlt_service">qimage</property>
  <property name="kdenlive:duration">00:00:05:00</property>
  <property name="xml">was here</property>
  <property name="kdenlive:folderid">15</property>
  <property name="kdenlive:id">193</property>
  <property name="kdenlive:control_uuid">{444625d5-4219-47c3-ab80-22461d77ca35}</property>
  <property name="kdenlive:clip_type">2</property>
  <property name="kdenlive:file_size">1398721</property>
  <property name="kdenlive:file_hash">53a513df2800b23d59ab3b90e5693fa4</property>
 </producer>
 <producer id="producer183" in="00:00:00.000" out="00:00:04.958">
  <property name="length">00:00:05.000</property>
  <property name="eof">pause</property>
  <property name="resource">LOGO/logo_0179.png</property>
  <property name="ttl">25</property>
  <property name="aspect_ratio">1</property>
  <property name="meta.media.progressive">1</property>
  <property name="seekable">1</property>
  <property name="format">2</property>
  <property name="meta.media.width">1920</property>
  <property name="meta.media.height">1080</property>
  <property name="mlt_service">qimage</property>
  <property name="kdenlive:duration">00:00:05:00</property>
  <property name="xml">was here</property>
  <property name="kdenlive:folderid">15</property>
  <property name="kdenlive:id">194</property>
  <property name="kdenlive:control_uuid">{215ee130-aa53-4058-8602-96691bbe7f78}</property>
  <property name="kdenlive:clip_type">2</property>
  <property name="kdenlive:file_size">1382015</property>
  <property name="kdenlive:file_hash">90ccf2ce69d215b4f43c7d621422f797</property>
 </producer>
 <producer id="producer184" in="00:00:00.000" out="00:00:04.958">
  <property name="length">00:00:05.000</property>
  <property name="eof">pause</property>
  <property name="resource">LOGO/logo_0180.png</property>
  <property name="ttl">25</property>
  <property name="aspect_ratio">1</property>
  <property name="meta.media.progressive">1</property>
  <property name="seekable">1</property>
  <property name="format">2</property>
  <property name="meta.media.width">1920</property>
  <property name="meta.media.height">1080</property>
  <property name="mlt_service">qimage</property>
  <property name="kdenlive:duration">00:00:05:00</property>
  <property name="xml">was here</property>
  <property name="kdenlive:folderid">15</property>
  <property name="kdenlive:id">195</property>
  <property name="kdenlive:control_uuid">{34efc143-3f06-418d-b523-93c1185f20ad}</property>
  <property name="kdenlive:clip_type">2</property>
  <property name="kdenlive:file_size">1356960</property>
  <property name="kdenlive:file_hash">2ac4956c3d6061582bb2bc6ba07ff1f6</property>
 </producer>
 <producer id="producer185" in="00:00:00.000" out="00:00:04.958">
  <property name="length">00:00:05.000</property>
  <property name="eof">pause</property>
  <property name="resource">LOGO/logo_0181.png</property>
  <property name="ttl">25</property>
  <property name="aspect_ratio">1</property>
  <property name="meta.media.progressive">1</property>
  <property name="seekable">1</property>
  <property name="format">2</property>
  <property name="meta.media.width">1920</property>
  <property name="meta.media.height">1080</property>
  <property name="mlt_service">qimage</property>
  <property name="kdenlive:duration">00:00:05:00</property>
  <property name="xml">was here</property>
  <property name="kdenlive:folderid">15</property>
  <property name="kdenlive:id">196</property>
  <property name="kdenlive:control_uuid">{91bad7fd-1868-4107-b0e3-338b51e02388}</property>
  <property name="kdenlive:clip_type">2</property>
  <property name="kdenlive:file_size">1332958</property>
  <property name="kdenlive:file_hash">61c6b1547004e6c786d0b0dd93ff1ad5</property>
 </producer>
 <producer id="producer186" in="00:00:00.000" out="00:00:04.958">
  <property name="length">00:00:05.000</property>
  <property name="eof">pause</property>
  <property name="resource">LOGO/logo_0182.png</property>
  <property name="ttl">25</property>
  <property name="aspect_ratio">1</property>
  <property name="meta.media.progressive">1</property>
  <property name="seekable">1</property>
  <property name="format">2</property>
  <property name="meta.media.width">1920</property>
  <property name="meta.media.height">1080</property>
  <property name="mlt_service">qimage</property>
  <property name="kdenlive:duration">00:00:05:00</property>
  <property name="xml">was here</property>
  <property name="kdenlive:folderid">15</property>
  <property name="kdenlive:id">197</property>
  <property name="kdenlive:control_uuid">{5e46a38c-6966-46d4-8038-c88e171b4cf5}</property>
  <property name="kdenlive:clip_type">2</property>
  <property name="kdenlive:file_size">1305393</property>
  <property name="kdenlive:file_hash">e314fd1ae6cea1e385fcaa0cdc4dd480</property>
 </producer>
 <producer id="producer187" in="00:00:00.000" out="00:00:04.958">
  <property name="length">00:00:05.000</property>
  <property name="eof">pause</property>
  <property name="resource">LOGO/logo_0183.png</property>
  <property name="ttl">25</property>
  <property name="aspect_ratio">1</property>
  <property name="meta.media.progressive">1</property>
  <property name="seekable">1</property>
  <property name="format">2</property>
  <property name="meta.media.width">1920</property>
  <property name="meta.media.height">1080</property>
  <property name="mlt_service">qimage</property>
  <property name="kdenlive:duration">00:00:05:00</property>
  <property name="xml">was here</property>
  <property name="kdenlive:folderid">15</property>
  <property name="kdenlive:id">198</property>
  <property name="kdenlive:control_uuid">{c78807f4-3e51-43cc-a282-461ab0167d03}</property>
  <property name="kdenlive:clip_type">2</property>
  <property name="kdenlive:file_size">1273854</property>
  <property name="kdenlive:file_hash">6ec3053a184b230f4edd1030c993d5c1</property>
 </producer>
 <producer id="producer188" in="00:00:00.000" out="00:00:04.958">
  <property name="length">00:00:05.000</property>
  <property name="eof">pause</property>
  <property name="resource">LOGO/logo_0184.png</property>
  <property name="ttl">25</property>
  <property name="aspect_ratio">1</property>
  <property name="meta.media.progressive">1</property>
  <property name="seekable">1</property>
  <property name="format">2</property>
  <property name="meta.media.width">1920</property>
  <property name="meta.media.height">1080</property>
  <property name="mlt_service">qimage</property>
  <property name="kdenlive:duration">00:00:05:00</property>
  <property name="xml">was here</property>
  <property name="kdenlive:folderid">15</property>
  <property name="kdenlive:id">199</property>
  <property name="kdenlive:control_uuid">{182ef302-2d3e-4598-a4cb-cd96f5eca998}</property>
  <property name="kdenlive:clip_type">2</property>
  <property name="kdenlive:file_size">1245659</property>
  <property name="kdenlive:file_hash">7a1d9b244c2deec2867fe92cbaddb96a</property>
 </producer>
 <producer id="producer189" in="00:00:00.000" out="00:00:04.958">
  <property name="length">00:00:05.000</property>
  <property name="eof">pause</property>
  <property name="resource">LOGO/logo_0185.png</property>
  <property name="ttl">25</property>
  <property name="aspect_ratio">1</property>
  <property name="meta.media.progressive">1</property>
  <property name="seekable">1</property>
  <property name="format">2</property>
  <property name="meta.media.width">1920</property>
  <property name="meta.media.height">1080</property>
  <property name="mlt_service">qimage</property>
  <property name="kdenlive:duration">00:00:05:00</property>
  <property name="xml">was here</property>
  <property name="kdenlive:folderid">15</property>
  <property name="kdenlive:id">200</property>
  <property name="kdenlive:control_uuid">{37e08644-01ed-4a9b-8c9e-c9406cd1171e}</property>
  <property name="kdenlive:clip_type">2</property>
  <property name="kdenlive:file_size">1212335</property>
  <property name="kdenlive:file_hash">b6ccd71ade97cc2e951591614c39a39f</property>
 </producer>
 <producer id="producer190" in="00:00:00.000" out="00:00:04.958">
  <property name="length">00:00:05.000</property>
  <property name="eof">pause</property>
  <property name="resource">LOGO/logo_0186.png</property>
  <property name="ttl">25</property>
  <property name="aspect_ratio">1</property>
  <property name="meta.media.progressive">1</property>
  <property name="seekable">1</property>
  <property name="format">2</property>
  <property name="meta.media.width">1920</property>
  <property name="meta.media.height">1080</property>
  <property name="mlt_service">qimage</property>
  <property name="kdenlive:duration">00:00:05:00</property>
  <property name="xml">was here</property>
  <property name="kdenlive:folderid">15</property>
  <property name="kdenlive:id">201</property>
  <property name="kdenlive:control_uuid">{c7f2b770-58ee-412f-889a-bf027ded72d7}</property>
  <property name="kdenlive:clip_type">2</property>
  <property name="kdenlive:file_size">1168801</property>
  <property name="kdenlive:file_hash">307bb1d9fdbb31226d374c59b850cdb3</property>
 </producer>
 <producer id="producer191" in="00:00:00.000" out="00:00:04.958">
  <property name="length">00:00:05.000</property>
  <property name="eof">pause</property>
  <property name="resource">LOGO/logo_0187.png</property>
  <property name="ttl">25</property>
  <property name="aspect_ratio">1</property>
  <property name="meta.media.progressive">1</property>
  <property name="seekable">1</property>
  <property name="format">2</property>
  <property name="meta.media.width">1920</property>
  <property name="meta.media.height">1080</property>
  <property name="mlt_service">qimage</property>
  <property name="kdenlive:duration">00:00:05:00</property>
  <property name="xml">was here</property>
  <property name="kdenlive:folderid">15</property>
  <property name="kdenlive:id">202</property>
  <property name="kdenlive:control_uuid">{64546da9-9d24-4c69-8585-8aea6db92b25}</property>
  <property name="kdenlive:clip_type">2</property>
  <property name="kdenlive:file_size">1111211</property>
  <property name="kdenlive:file_hash">c66663db652cb55a74432313133141c7</property>
 </producer>
 <producer id="producer192" in="00:00:00.000" out="00:00:04.958">
  <property name="length">00:00:05.000</property>
  <property name="eof">pause</property>
  <property name="resource">LOGO/logo_0188.png</property>
  <property name="ttl">25</property>
  <property name="aspect_ratio">1</property>
  <property name="meta.media.progressive">1</property>
  <property name="seekable">1</property>
  <property name="format">2</property>
  <property name="meta.media.width">1920</property>
  <property name="meta.media.height">1080</property>
  <property name="mlt_service">qimage</property>
  <property name="kdenlive:duration">00:00:05:00</property>
  <property name="xml">was here</property>
  <property name="kdenlive:folderid">15</property>
  <property name="kdenlive:id">203</property>
  <property name="kdenlive:control_uuid">{9ad66ee8-39ad-4567-9ba7-7e16b70f4417}</property>
  <property name="kdenlive:clip_type">2</property>
  <property name="kdenlive:file_size">1115046</property>
  <property name="kdenlive:file_hash">93cfb32d44a498293f4102b32625ee70</property>
 </producer>
 <producer id="producer193" in="00:00:00.000" out="00:00:04.958">
  <property name="length">00:00:05.000</property>
  <property name="eof">pause</property>
  <property name="resource">LOGO/logo_0189.png</property>
  <property name="ttl">25</property>
  <property name="aspect_ratio">1</property>
  <property name="meta.media.progressive">1</property>
  <property name="seekable">1</property>
  <property name="format">2</property>
  <property name="meta.media.width">1920</property>
  <property name="meta.media.height">1080</property>
  <property name="mlt_service">qimage</property>
  <property name="kdenlive:duration">00:00:05:00</property>
  <property name="xml">was here</property>
  <property name="kdenlive:folderid">15</property>
  <property name="kdenlive:id">204</property>
  <property name="kdenlive:control_uuid">{2744eceb-2b04-4e04-9a23-a25ea697c763}</property>
  <property name="kdenlive:clip_type">2</property>
  <property name="kdenlive:file_size">1164190</property>
  <property name="kdenlive:file_hash">51f978c763935976522106a134db973c</property>
 </producer>
 <producer id="producer194" in="00:00:00.000" out="00:00:04.958">
  <property name="length">00:00:05.000</property>
  <property name="eof">pause</property>
  <property name="resource">LOGO/logo_0190.png</property>
  <property name="ttl">25</property>
  <property name="aspect_ratio">1</property>
  <property name="meta.media.progressive">1</property>
  <property name="seekable">1</property>
  <property name="format">2</property>
  <property name="meta.media.width">1920</property>
  <property name="meta.media.height">1080</property>
  <property name="mlt_service">qimage</property>
  <property name="kdenlive:duration">00:00:05:00</property>
  <property name="xml">was here</property>
  <property name="kdenlive:folderid">15</property>
  <property name="kdenlive:id">205</property>
  <property name="kdenlive:control_uuid">{30683514-4790-4f74-ad67-5f6b01621f75}</property>
  <property name="kdenlive:clip_type">2</property>
  <property name="kdenlive:file_size">1208663</property>
  <property name="kdenlive:file_hash">7070653265ef5afe1549f04f73872bb3</property>
 </producer>
 <producer id="producer195" in="00:00:00.000" out="00:00:04.958">
  <property name="length">00:00:05.000</property>
  <property name="eof">pause</property>
  <property name="resource">LOGO/logo_0191.png</property>
  <property name="ttl">25</property>
  <property name="aspect_ratio">1</property>
  <property name="meta.media.progressive">1</property>
  <property name="seekable">1</property>
  <property name="format">2</property>
  <property name="meta.media.width">1920</property>
  <property name="meta.media.height">1080</property>
  <property name="mlt_service">qimage</property>
  <property name="kdenlive:duration">00:00:05:00</property>
  <property name="xml">was here</property>
  <property name="kdenlive:folderid">15</property>
  <property name="kdenlive:id">206</property>
  <property name="kdenlive:control_uuid">{7409bfb6-c000-4c49-aae8-a29049de97a0}</property>
  <property name="kdenlive:clip_type">2</property>
  <property name="kdenlive:file_size">1240965</property>
  <property name="kdenlive:file_hash">9fbaba4665248af915400a4131e00cc0</property>
 </producer>
 <producer id="producer196" in="00:00:00.000" out="00:00:04.958">
  <property name="length">00:00:05.000</property>
  <property name="eof">pause</property>
  <property name="resource">LOGO/logo_0192.png</property>
  <property name="ttl">25</property>
  <property name="aspect_ratio">1</property>
  <property name="meta.media.progressive">1</property>
  <property name="seekable">1</property>
  <property name="format">2</property>
  <property name="meta.media.width">1920</property>
  <property name="meta.media.height">1080</property>
  <property name="mlt_service">qimage</property>
  <property name="kdenlive:duration">00:00:05:00</property>
  <property name="xml">was here</property>
  <property name="kdenlive:folderid">15</property>
  <property name="kdenlive:id">207</property>
  <property name="kdenlive:control_uuid">{f27a4955-3a19-42e1-9050-346405a92579}</property>
  <property name="kdenlive:clip_type">2</property>
  <property name="kdenlive:file_size">1264418</property>
  <property name="kdenlive:file_hash">0b8aa249dab67da219fc7d7f232ad331</property>
 </producer>
 <producer id="producer197" in="00:00:00.000" out="00:00:04.958">
  <property name="length">00:00:05.000</property>
  <property name="eof">pause</property>
  <property name="resource">LOGO/logo_0193.png</property>
  <property name="ttl">25</property>
  <property name="aspect_ratio">1</property>
  <property name="meta.media.progressive">1</property>
  <property name="seekable">1</property>
  <property name="format">2</property>
  <property name="meta.media.width">1920</property>
  <property name="meta.media.height">1080</property>
  <property name="mlt_service">qimage</property>
  <property name="kdenlive:duration">00:00:05:00</property>
  <property name="xml">was here</property>
  <property name="kdenlive:folderid">15</property>
  <property name="kdenlive:id">208</property>
  <property name="kdenlive:control_uuid">{fe0146bf-8156-44e3-bdc8-6d4c00ff7b4e}</property>
  <property name="kdenlive:clip_type">2</property>
  <property name="kdenlive:file_size">1293157</property>
  <property name="kdenlive:file_hash">b386f157c73ac0fc9795ca3c4cbc2cac</property>
 </producer>
 <producer id="producer198" in="00:00:00.000" out="00:00:04.958">
  <property name="length">00:00:05.000</property>
  <property name="eof">pause</property>
  <property name="resource">LOGO/logo_0194.png</property>
  <property name="ttl">25</property>
  <property name="aspect_ratio">1</property>
  <property name="meta.media.progressive">1</property>
  <property name="seekable">1</property>
  <property name="format">2</property>
  <property name="meta.media.width">1920</property>
  <property name="meta.media.height">1080</property>
  <property name="mlt_service">qimage</property>
  <property name="kdenlive:duration">00:00:05:00</property>
  <property name="xml">was here</property>
  <property name="kdenlive:folderid">15</property>
  <property name="kdenlive:id">209</property>
  <property name="kdenlive:control_uuid">{d781c744-2765-48c1-a35d-1c758b1037d3}</property>
  <property name="kdenlive:clip_type">2</property>
  <property name="kdenlive:file_size">1319882</property>
  <property name="kdenlive:file_hash">3c3961142c11b019072a87ce3ff7fcb8</property>
 </producer>
 <producer id="producer199" in="00:00:00.000" out="00:00:04.958">
  <property name="length">00:00:05.000</property>
  <property name="eof">pause</property>
  <property name="resource">LOGO/logo_0195.png</property>
  <property name="ttl">25</property>
  <property name="aspect_ratio">1</property>
  <property name="meta.media.progressive">1</property>
  <property name="seekable">1</property>
  <property name="format">2</property>
  <property name="meta.media.width">1920</property>
  <property name="meta.media.height">1080</property>
  <property name="mlt_service">qimage</property>
  <property name="kdenlive:duration">00:00:05:00</property>
  <property name="xml">was here</property>
  <property name="kdenlive:folderid">15</property>
  <property name="kdenlive:id">210</property>
  <property name="kdenlive:control_uuid">{33e2a24b-2ed3-4325-b048-cda695ffeadd}</property>
  <property name="kdenlive:clip_type">2</property>
  <property name="kdenlive:file_size">1344928</property>
  <property name="kdenlive:file_hash">30b54938f6bc912bcf3597ed2da0a047</property>
 </producer>
 <producer id="producer200" in="00:00:00.000" out="00:00:04.958">
  <property name="length">00:00:05.000</property>
  <property name="eof">pause</property>
  <property name="resource">LOGO/logo_0196.png</property>
  <property name="ttl">25</property>
  <property name="aspect_ratio">1</property>
  <property name="meta.media.progressive">1</property>
  <property name="seekable">1</property>
  <property name="format">2</property>
  <property name="meta.media.width">1920</property>
  <property name="meta.media.height">1080</property>
  <property name="mlt_service">qimage</property>
  <property name="kdenlive:duration">00:00:05:00</property>
  <property name="xml">was here</property>
  <property name="kdenlive:folderid">15</property>
  <property name="kdenlive:id">211</property>
  <property name="kdenlive:control_uuid">{2c6d9d8f-24e1-47fa-a06d-45fed8eb714a}</property>
  <property name="kdenlive:clip_type">2</property>
  <property name="kdenlive:file_size">1372146</property>
  <property name="kdenlive:file_hash">52f31151dd4aebf7763bd4bf6a1e66e1</property>
 </producer>
 <producer id="producer201" in="00:00:00.000" out="00:00:04.958">
  <property name="length">00:00:05.000</property>
  <property name="eof">pause</property>
  <property name="resource">LOGO/logo_0197.png</property>
  <property name="ttl">25</property>
  <property name="aspect_ratio">1</property>
  <property name="meta.media.progressive">1</property>
  <property name="seekable">1</property>
  <property name="format">2</property>
  <property name="meta.media.width">1920</property>
  <property name="meta.media.height">1080</property>
  <property name="mlt_service">qimage</property>
  <property name="kdenlive:duration">00:00:05:00</property>
  <property name="xml">was here</property>
  <property name="kdenlive:folderid">15</property>
  <property name="kdenlive:id">212</property>
  <property name="kdenlive:control_uuid">{248c240c-1594-4495-a312-64b235ff1204}</property>
  <property name="kdenlive:clip_type">2</property>
  <property name="kdenlive:file_size">1392424</property>
  <property name="kdenlive:file_hash">85ab83377863554c66d139172757f52f</property>
 </producer>
 <producer id="producer202" in="00:00:00.000" out="00:00:04.958">
  <property name="length">00:00:05.000</property>
  <property name="eof">pause</property>
  <property name="resource">LOGO/logo_0199.png</property>
  <property name="ttl">25</property>
  <property name="aspect_ratio">1</property>
  <property name="meta.media.progressive">1</property>
  <property name="seekable">1</property>
  <property name="format">2</property>
  <property name="meta.media.width">1920</property>
  <property name="meta.media.height">1080</property>
  <property name="mlt_service">qimage</property>
  <property name="kdenlive:duration">00:00:05:00</property>
  <property name="xml">was here</property>
  <property name="kdenlive:folderid">15</property>
  <property name="kdenlive:id">214</property>
  <property name="kdenlive:control_uuid">{72fb7571-559e-46a8-8fcf-291d97efea12}</property>
  <property name="kdenlive:clip_type">2</property>
  <property name="kdenlive:file_size">1440657</property>
  <property name="kdenlive:file_hash">bbdada8eaabd9005f19bb8c54b378670</property>
 </producer>
 <producer id="producer203" in="00:00:00.000" out="00:00:04.958">
  <property name="length">00:00:05.000</property>
  <property name="eof">pause</property>
  <property name="resource">LOGO/logo_0198.png</property>
  <property name="ttl">25</property>
  <property name="aspect_ratio">1</property>
  <property name="meta.media.progressive">1</property>
  <property name="seekable">1</property>
  <property name="format">2</property>
  <property name="meta.media.width">1920</property>
  <property name="meta.media.height">1080</property>
  <property name="mlt_service">qimage</property>
  <property name="kdenlive:duration">00:00:05:00</property>
  <property name="xml">was here</property>
  <property name="kdenlive:folderid">15</property>
  <property name="kdenlive:id">213</property>
  <property name="kdenlive:control_uuid">{8a20b10e-a5a8-42cb-8345-207f279c6f61}</property>
  <property name="kdenlive:clip_type">2</property>
  <property name="kdenlive:file_size">1418449</property>
  <property name="kdenlive:file_hash">d1af8374eaad81d1297c9f57cf2ade63</property>
 </producer>
 <producer id="producer204" in="00:00:00.000" out="00:00:04.958">
  <property name="length">00:00:05.000</property>
  <property name="eof">pause</property>
  <property name="resource">LOGO/logo_0200.png</property>
  <property name="ttl">25</property>
  <property name="aspect_ratio">1</property>
  <property name="meta.media.progressive">1</property>
  <property name="seekable">1</property>
  <property name="format">2</property>
  <property name="meta.media.width">1920</property>
  <property name="meta.media.height">1080</property>
  <property name="mlt_service">qimage</property>
  <property name="kdenlive:duration">00:00:05:00</property>
  <property name="xml">was here</property>
  <property name="kdenlive:folderid">15</property>
  <property name="kdenlive:id">215</property>
  <property name="kdenlive:control_uuid">{ae7cbb5d-1a60-47ad-a925-499730340be9}</property>
  <property name="kdenlive:clip_type">2</property>
  <property name="kdenlive:file_size">1467865</property>
  <property name="kdenlive:file_hash">65f8b33079d18c82941cbe4fbe02d360</property>
 </producer>
 <producer id="producer205" in="00:00:00.000" out="00:00:04.958">
  <property name="length">00:00:05.000</property>
  <property name="eof">pause</property>
  <property name="resource">LOGO/logo_0201.png</property>
  <property name="ttl">25</property>
  <property name="aspect_ratio">1</property>
  <property name="meta.media.progressive">1</property>
  <property name="seekable">1</property>
  <property name="format">2</property>
  <property name="meta.media.width">1920</property>
  <property name="meta.media.height">1080</property>
  <property name="mlt_service">qimage</property>
  <property name="kdenlive:duration">00:00:05:00</property>
  <property name="xml">was here</property>
  <property name="kdenlive:folderid">15</property>
  <property name="kdenlive:id">216</property>
  <property name="kdenlive:control_uuid">{74a5e463-1a36-4fa9-b57a-f31070051ff8}</property>
  <property name="kdenlive:clip_type">2</property>
  <property name="kdenlive:file_size">1488395</property>
  <property name="kdenlive:file_hash">15850f455eda0f1d9127baf126021a1d</property>
 </producer>
 <producer id="producer206" in="00:00:00.000" out="00:00:04.958">
  <property name="length">00:00:05.000</property>
  <property name="eof">pause</property>
  <property name="resource">LOGO/logo_0202.png</property>
  <property name="ttl">25</property>
  <property name="aspect_ratio">1</property>
  <property name="meta.media.progressive">1</property>
  <property name="seekable">1</property>
  <property name="format">2</property>
  <property name="meta.media.width">1920</property>
  <property name="meta.media.height">1080</property>
  <property name="mlt_service">qimage</property>
  <property name="kdenlive:duration">00:00:05:00</property>
  <property name="xml">was here</property>
  <property name="kdenlive:folderid">15</property>
  <property name="kdenlive:id">217</property>
  <property name="kdenlive:control_uuid">{75a75d0e-d2e6-43fc-b382-3631d45d3dc8}</property>
  <property name="kdenlive:clip_type">2</property>
  <property name="kdenlive:file_size">1511301</property>
  <property name="kdenlive:file_hash">f1332d1d1b9224755877355876443fc7</property>
 </producer>
 <producer id="producer207" in="00:00:00.000" out="00:00:04.958">
  <property name="length">00:00:05.000</property>
  <property name="eof">pause</property>
  <property name="resource">LOGO/logo_0203.png</property>
  <property name="ttl">25</property>
  <property name="aspect_ratio">1</property>
  <property name="meta.media.progressive">1</property>
  <property name="seekable">1</property>
  <property name="format">2</property>
  <property name="meta.media.width">1920</property>
  <property name="meta.media.height">1080</property>
  <property name="mlt_service">qimage</property>
  <property name="kdenlive:duration">00:00:05:00</property>
  <property name="xml">was here</property>
  <property name="kdenlive:folderid">15</property>
  <property name="kdenlive:id">218</property>
  <property name="kdenlive:control_uuid">{e6b0c2f9-aad9-46cb-8063-3fb8abc6deca}</property>
  <property name="kdenlive:clip_type">2</property>
  <property name="kdenlive:file_size">1531720</property>
  <property name="kdenlive:file_hash">ecd0566eb8ceb5f28f3ab6ccca69fa5f</property>
 </producer>
 <producer id="producer208" in="00:00:00.000" out="00:00:04.958">
  <property name="length">00:00:05.000</property>
  <property name="eof">pause</property>
  <property name="resource">LOGO/logo_0204.png</property>
  <property name="ttl">25</property>
  <property name="aspect_ratio">1</property>
  <property name="meta.media.progressive">1</property>
  <property name="seekable">1</property>
  <property name="format">2</property>
  <property name="meta.media.width">1920</property>
  <property name="meta.media.height">1080</property>
  <property name="mlt_service">qimage</property>
  <property name="kdenlive:duration">00:00:05:00</property>
  <property name="xml">was here</property>
  <property name="kdenlive:folderid">15</property>
  <property name="kdenlive:id">219</property>
  <property name="kdenlive:control_uuid">{07d35e6c-3b65-4fde-8656-49d1b93853c8}</property>
  <property name="kdenlive:clip_type">2</property>
  <property name="kdenlive:file_size">1549420</property>
  <property name="kdenlive:file_hash">cccc68e78c4d586854622445643b87a9</property>
 </producer>
 <producer id="producer209" in="00:00:00.000" out="00:00:04.958">
  <property name="length">00:00:05.000</property>
  <property name="eof">pause</property>
  <property name="resource">LOGO/logo_0205.png</property>
  <property name="ttl">25</property>
  <property name="aspect_ratio">1</property>
  <property name="meta.media.progressive">1</property>
  <property name="seekable">1</property>
  <property name="format">2</property>
  <property name="meta.media.width">1920</property>
  <property name="meta.media.height">1080</property>
  <property name="mlt_service">qimage</property>
  <property name="kdenlive:duration">00:00:05:00</property>
  <property name="xml">was here</property>
  <property name="kdenlive:folderid">15</property>
  <property name="kdenlive:id">220</property>
  <property name="kdenlive:control_uuid">{6a106325-5950-4c8d-95db-0a820a8192d4}</property>
  <property name="kdenlive:clip_type">2</property>
  <property name="kdenlive:file_size">1570513</property>
  <property name="kdenlive:file_hash">b3f006404490556bda6495d4d36c8387</property>
 </producer>
 <producer id="producer210" in="00:00:00.000" out="00:00:04.958">
  <property name="length">00:00:05.000</property>
  <property name="eof">pause</property>
  <property name="resource">LOGO/logo_0206.png</property>
  <property name="ttl">25</property>
  <property name="aspect_ratio">1</property>
  <property name="meta.media.progressive">1</property>
  <property name="seekable">1</property>
  <property name="format">2</property>
  <property name="meta.media.width">1920</property>
  <property name="meta.media.height">1080</property>
  <property name="mlt_service">qimage</property>
  <property name="kdenlive:duration">00:00:05:00</property>
  <property name="xml">was here</property>
  <property name="kdenlive:folderid">15</property>
  <property name="kdenlive:id">221</property>
  <property name="kdenlive:control_uuid">{6ecaa7e4-3d37-488f-b89a-a261eeaaf9ba}</property>
  <property name="kdenlive:clip_type">2</property>
  <property name="kdenlive:file_size">1589653</property>
  <property name="kdenlive:file_hash">b96d3b31cec0de331e0c464acf269405</property>
 </producer>
 <producer id="producer211" in="00:00:00.000" out="00:00:04.958">
  <property name="length">00:00:05.000</property>
  <property name="eof">pause</property>
  <property name="resource">LOGO/logo_0207.png</property>
  <property name="ttl">25</property>
  <property name="aspect_ratio">1</property>
  <property name="meta.media.progressive">1</property>
  <property name="seekable">1</property>
  <property name="format">2</property>
  <property name="meta.media.width">1920</property>
  <property name="meta.media.height">1080</property>
  <property name="mlt_service">qimage</property>
  <property name="kdenlive:duration">00:00:05:00</property>
  <property name="xml">was here</property>
  <property name="kdenlive:folderid">15</property>
  <property name="kdenlive:id">222</property>
  <property name="kdenlive:control_uuid">{bbff2b7a-0b96-4fd1-a9db-9ce280170591}</property>
  <property name="kdenlive:clip_type">2</property>
  <property name="kdenlive:file_size">1603947</property>
  <property name="kdenlive:file_hash">c20d4acc25d57d5749890cd3320741b3</property>
 </producer>
 <producer id="producer212" in="00:00:00.000" out="00:00:04.958">
  <property name="length">00:00:05.000</property>
  <property name="eof">pause</property>
  <property name="resource">LOGO/logo_0208.png</property>
  <property name="ttl">25</property>
  <property name="aspect_ratio">1</property>
  <property name="meta.media.progressive">1</property>
  <property name="seekable">1</property>
  <property name="format">2</property>
  <property name="meta.media.width">1920</property>
  <property name="meta.media.height">1080</property>
  <property name="mlt_service">qimage</property>
  <property name="kdenlive:duration">00:00:05:00</property>
  <property name="xml">was here</property>
  <property name="kdenlive:folderid">15</property>
  <property name="kdenlive:id">223</property>
  <property name="kdenlive:control_uuid">{b929a199-2e80-4a0a-9894-9ca75669cb34}</property>
  <property name="kdenlive:clip_type">2</property>
  <property name="kdenlive:file_size">1615777</property>
  <property name="kdenlive:file_hash">73b6fce9c3498c1e41ab9710dd92152b</property>
 </producer>
 <producer id="producer213" in="00:00:00.000" out="00:00:04.958">
  <property name="length">00:00:05.000</property>
  <property name="eof">pause</property>
  <property name="resource">LOGO/logo_0209.png</property>
  <property name="ttl">25</property>
  <property name="aspect_ratio">1</property>
  <property name="meta.media.progressive">1</property>
  <property name="seekable">1</property>
  <property name="format">2</property>
  <property name="meta.media.width">1920</property>
  <property name="meta.media.height">1080</property>
  <property name="mlt_service">qimage</property>
  <property name="kdenlive:duration">00:00:05:00</property>
  <property name="xml">was here</property>
  <property name="kdenlive:folderid">15</property>
  <property name="kdenlive:id">224</property>
  <property name="kdenlive:control_uuid">{2896a9b3-f442-4665-bc95-46a984cd38e6}</property>
  <property name="kdenlive:clip_type">2</property>
  <property name="kdenlive:file_size">1628287</property>
  <property name="kdenlive:file_hash">0f783cbbb7fdfa0c58f89e11bb84374a</property>
 </producer>
 <producer id="producer214" in="00:00:00.000" out="00:00:04.958">
  <property name="length">00:00:05.000</property>
  <property name="eof">pause</property>
  <property name="resource">LOGO/logo_0210.png</property>
  <property name="ttl">25</property>
  <property name="aspect_ratio">1</property>
  <property name="meta.media.progressive">1</property>
  <property name="seekable">1</property>
  <property name="format">2</property>
  <property name="meta.media.width">1920</property>
  <property name="meta.media.height">1080</property>
  <property name="mlt_service">qimage</property>
  <property name="kdenlive:duration">00:00:05:00</property>
  <property name="xml">was here</property>
  <property name="kdenlive:folderid">15</property>
  <property name="kdenlive:id">225</property>
  <property name="kdenlive:control_uuid">{2cb246fe-b2cd-4e9c-9f63-f6fc980dd561}</property>
  <property name="kdenlive:clip_type">2</property>
  <property name="kdenlive:file_size">1643126</property>
  <property name="kdenlive:file_hash">5c4d7088fbc46687c840ba0cb95e4bb5</property>
 </producer>
 <producer id="producer215" in="00:00:00.000" out="00:00:04.958">
  <property name="length">00:00:05.000</property>
  <property name="eof">pause</property>
  <property name="resource">LOGO/logo_0211.png</property>
  <property name="ttl">25</property>
  <property name="aspect_ratio">1</property>
  <property name="meta.media.progressive">1</property>
  <property name="seekable">1</property>
  <property name="format">2</property>
  <property name="meta.media.width">1920</property>
  <property name="meta.media.height">1080</property>
  <property name="mlt_service">qimage</property>
  <property name="kdenlive:duration">00:00:05:00</property>
  <property name="xml">was here</property>
  <property name="kdenlive:folderid">15</property>
  <property name="kdenlive:id">226</property>
  <property name="kdenlive:control_uuid">{ad09f6d7-6c69-469b-a65a-5cf9f424d16b}</property>
  <property name="kdenlive:clip_type">2</property>
  <property name="kdenlive:file_size">1656187</property>
  <property name="kdenlive:file_hash">67f531ec44a8e40dfe04e22f9ac154c5</property>
 </producer>
 <producer id="producer216" in="00:00:00.000" out="00:00:04.958">
  <property name="length">00:00:05.000</property>
  <property name="eof">pause</property>
  <property name="resource">LOGO/logo_0212.png</property>
  <property name="ttl">25</property>
  <property name="aspect_ratio">1</property>
  <property name="meta.media.progressive">1</property>
  <property name="seekable">1</property>
  <property name="format">2</property>
  <property name="meta.media.width">1920</property>
  <property name="meta.media.height">1080</property>
  <property name="mlt_service">qimage</property>
  <property name="kdenlive:duration">00:00:05:00</property>
  <property name="xml">was here</property>
  <property name="kdenlive:folderid">15</property>
  <property name="kdenlive:id">227</property>
  <property name="kdenlive:control_uuid">{484eba16-7eac-42d4-b85d-42d0d76ef295}</property>
  <property name="kdenlive:clip_type">2</property>
  <property name="kdenlive:file_size">1666571</property>
  <property name="kdenlive:file_hash">6a344a3d15d160a4749ae79241d394c7</property>
 </producer>
 <producer id="producer217" in="00:00:00.000" out="00:00:04.958">
  <property name="length">00:00:05.000</property>
  <property name="eof">pause</property>
  <property name="resource">LOGO/logo_0213.png</property>
  <property name="ttl">25</property>
  <property name="aspect_ratio">1</property>
  <property name="meta.media.progressive">1</property>
  <property name="seekable">1</property>
  <property name="format">2</property>
  <property name="meta.media.width">1920</property>
  <property name="meta.media.height">1080</property>
  <property name="mlt_service">qimage</property>
  <property name="kdenlive:duration">00:00:05:00</property>
  <property name="xml">was here</property>
  <property name="kdenlive:folderid">15</property>
  <property name="kdenlive:id">228</property>
  <property name="kdenlive:control_uuid">{985fbbb8-320a-4b41-b237-5e2e48ca495f}</property>
  <property name="kdenlive:clip_type">2</property>
  <property name="kdenlive:file_size">1677775</property>
  <property name="kdenlive:file_hash">4da65d46ba153c7464bf986c1e3f3fb4</property>
 </producer>
 <producer id="producer218" in="00:00:00.000" out="00:00:04.958">
  <property name="length">00:00:05.000</property>
  <property name="eof">pause</property>
  <property name="resource">LOGO/logo_0214.png</property>
  <property name="ttl">25</property>
  <property name="aspect_ratio">1</property>
  <property name="meta.media.progressive">1</property>
  <property name="seekable">1</property>
  <property name="format">2</property>
  <property name="meta.media.width">1920</property>
  <property name="meta.media.height">1080</property>
  <property name="mlt_service">qimage</property>
  <property name="kdenlive:duration">00:00:05:00</property>
  <property name="xml">was here</property>
  <property name="kdenlive:folderid">15</property>
  <property name="kdenlive:id">229</property>
  <property name="kdenlive:control_uuid">{d1b9fc8a-e382-46be-8731-ca367553746c}</property>
  <property name="kdenlive:clip_type">2</property>
  <property name="kdenlive:file_size">1686264</property>
  <property name="kdenlive:file_hash">f7896e322324a6034bed69dbd62e2536</property>
 </producer>
 <producer id="producer219" in="00:00:00.000" out="00:00:04.958">
  <property name="length">00:00:05.000</property>
  <property name="eof">pause</property>
  <property name="resource">LOGO/logo_0216.png</property>
  <property name="ttl">25</property>
  <property name="aspect_ratio">1</property>
  <property name="meta.media.progressive">1</property>
  <property name="seekable">1</property>
  <property name="format">2</property>
  <property name="meta.media.width">1920</property>
  <property name="meta.media.height">1080</property>
  <property name="mlt_service">qimage</property>
  <property name="kdenlive:duration">00:00:05:00</property>
  <property name="xml">was here</property>
  <property name="kdenlive:folderid">15</property>
  <property name="kdenlive:id">231</property>
  <property name="kdenlive:control_uuid">{8cd78e3f-4491-4cc5-a2a3-2df4490e3e31}</property>
  <property name="kdenlive:clip_type">2</property>
  <property name="kdenlive:file_size">1711450</property>
  <property name="kdenlive:file_hash">12978740cd7a26ff1c4ef11fe9f2994e</property>
 </producer>
 <producer id="producer220" in="00:00:00.000" out="00:00:04.958">
  <property name="length">00:00:05.000</property>
  <property name="eof">pause</property>
  <property name="resource">LOGO/logo_0215.png</property>
  <property name="ttl">25</property>
  <property name="aspect_ratio">1</property>
  <property name="meta.media.progressive">1</property>
  <property name="seekable">1</property>
  <property name="format">2</property>
  <property name="meta.media.width">1920</property>
  <property name="meta.media.height">1080</property>
  <property name="mlt_service">qimage</property>
  <property name="kdenlive:duration">00:00:05:00</property>
  <property name="xml">was here</property>
  <property name="kdenlive:folderid">15</property>
  <property name="kdenlive:id">230</property>
  <property name="kdenlive:control_uuid">{2890b8c1-485d-48b6-83b6-0da4596ea433}</property>
  <property name="kdenlive:clip_type">2</property>
  <property name="kdenlive:file_size">1700671</property>
  <property name="kdenlive:file_hash">3b1a525bdc4539189be3ce9eae2e43bf</property>
 </producer>
 <producer id="producer221" in="00:00:00.000" out="00:00:04.958">
  <property name="length">00:00:05.000</property>
  <property name="eof">pause</property>
  <property name="resource">LOGO/logo_0217.png</property>
  <property name="ttl">25</property>
  <property name="aspect_ratio">1</property>
  <property name="meta.media.progressive">1</property>
  <property name="seekable">1</property>
  <property name="format">2</property>
  <property name="meta.media.width">1920</property>
  <property name="meta.media.height">1080</property>
  <property name="mlt_service">qimage</property>
  <property name="kdenlive:duration">00:00:05:00</property>
  <property name="xml">was here</property>
  <property name="kdenlive:folderid">15</property>
  <property name="kdenlive:id">232</property>
  <property name="kdenlive:control_uuid">{c9759e53-6256-4796-9674-389aaa863b86}</property>
  <property name="kdenlive:clip_type">2</property>
  <property name="kdenlive:file_size">1724628</property>
  <property name="kdenlive:file_hash">93353ae454d6f599ce30b16c2b7bb24a</property>
 </producer>
 <producer id="producer222" in="00:00:00.000" out="00:00:04.958">
  <property name="length">00:00:05.000</property>
  <property name="eof">pause</property>
  <property name="resource">LOGO/logo_0218.png</property>
  <property name="ttl">25</property>
  <property name="aspect_ratio">1</property>
  <property name="meta.media.progressive">1</property>
  <property name="seekable">1</property>
  <property name="format">2</property>
  <property name="meta.media.width">1920</property>
  <property name="meta.media.height">1080</property>
  <property name="mlt_service">qimage</property>
  <property name="kdenlive:duration">00:00:05:00</property>
  <property name="xml">was here</property>
  <property name="kdenlive:folderid">15</property>
  <property name="kdenlive:id">233</property>
  <property name="kdenlive:control_uuid">{2fbd3549-126b-4333-9d01-a8392b47a952}</property>
  <property name="kdenlive:clip_type">2</property>
  <property name="kdenlive:file_size">1732184</property>
  <property name="kdenlive:file_hash">bcab5fd67cbb102832dd68570df56161</property>
 </producer>
 <producer id="producer223" in="00:00:00.000" out="00:00:04.958">
  <property name="length">00:00:05.000</property>
  <property name="eof">pause</property>
  <property name="resource">LOGO/logo_0219.png</property>
  <property name="ttl">25</property>
  <property name="aspect_ratio">1</property>
  <property name="meta.media.progressive">1</property>
  <property name="seekable">1</property>
  <property name="format">2</property>
  <property name="meta.media.width">1920</property>
  <property name="meta.media.height">1080</property>
  <property name="mlt_service">qimage</property>
  <property name="kdenlive:duration">00:00:05:00</property>
  <property name="xml">was here</property>
  <property name="kdenlive:folderid">15</property>
  <property name="kdenlive:id">234</property>
  <property name="kdenlive:control_uuid">{1290f4fc-bb8b-42b8-95ba-c5a78106d870}</property>
  <property name="kdenlive:clip_type">2</property>
  <property name="kdenlive:file_size">1742166</property>
  <property name="kdenlive:file_hash">119b07ee1e515a2a1e5f913f85420cee</property>
 </producer>
 <producer id="producer224" in="00:00:00.000" out="00:00:04.958">
  <property name="length">00:00:05.000</property>
  <property name="eof">pause</property>
  <property name="resource">LOGO/logo_0221.png</property>
  <property name="ttl">25</property>
  <property name="aspect_ratio">1</property>
  <property name="meta.media.progressive">1</property>
  <property name="seekable">1</property>
  <property name="format">2</property>
  <property name="meta.media.width">1920</property>
  <property name="meta.media.height">1080</property>
  <property name="mlt_service">qimage</property>
  <property name="kdenlive:duration">00:00:05:00</property>
  <property name="xml">was here</property>
  <property name="kdenlive:folderid">15</property>
  <property name="kdenlive:id">236</property>
  <property name="kdenlive:control_uuid">{b46281e3-5bf1-4dd0-9ba3-7a565ab99767}</property>
  <property name="kdenlive:clip_type">2</property>
  <property name="kdenlive:file_size">1761459</property>
  <property name="kdenlive:file_hash">b467dc30f30e0eadcb09693930751563</property>
 </producer>
 <producer id="producer225" in="00:00:00.000" out="00:00:04.958">
  <property name="length">00:00:05.000</property>
  <property name="eof">pause</property>
  <property name="resource">LOGO/logo_0220.png</property>
  <property name="ttl">25</property>
  <property name="aspect_ratio">1</property>
  <property name="meta.media.progressive">1</property>
  <property name="seekable">1</property>
  <property name="format">2</property>
  <property name="meta.media.width">1920</property>
  <property name="meta.media.height">1080</property>
  <property name="mlt_service">qimage</property>
  <property name="kdenlive:duration">00:00:05:00</property>
  <property name="xml">was here</property>
  <property name="kdenlive:folderid">15</property>
  <property name="kdenlive:id">235</property>
  <property name="kdenlive:control_uuid">{634550c6-4a39-45f6-8fc8-ec8370dec68e}</property>
  <property name="kdenlive:clip_type">2</property>
  <property name="kdenlive:file_size">1750115</property>
  <property name="kdenlive:file_hash">0e9ede30846062436c4986e4ef5dcb5c</property>
 </producer>
 <producer id="producer226" in="00:00:00.000" out="00:00:04.958">
  <property name="length">00:00:05.000</property>
  <property name="eof">pause</property>
  <property name="resource">LOGO/logo_0222.png</property>
  <property name="ttl">25</property>
  <property name="aspect_ratio">1</property>
  <property name="meta.media.progressive">1</property>
  <property name="seekable">1</property>
  <property name="format">2</property>
  <property name="meta.media.width">1920</property>
  <property name="meta.media.height">1080</property>
  <property name="mlt_service">qimage</property>
  <property name="kdenlive:duration">00:00:05:00</property>
  <property name="xml">was here</property>
  <property name="kdenlive:folderid">15</property>
  <property name="kdenlive:id">237</property>
  <property name="kdenlive:control_uuid">{c38af54b-2634-41de-80f0-895e1547285d}</property>
  <property name="kdenlive:clip_type">2</property>
  <property name="kdenlive:file_size">1769516</property>
  <property name="kdenlive:file_hash">ffddf3d45a9171a86eec49582658e65b</property>
 </producer>
 <producer id="producer227" in="00:00:00.000" out="00:00:04.958">
  <property name="length">00:00:05.000</property>
  <property name="eof">pause</property>
  <property name="resource">LOGO/logo_0223.png</property>
  <property name="ttl">25</property>
  <property name="aspect_ratio">1</property>
  <property name="meta.media.progressive">1</property>
  <property name="seekable">1</property>
  <property name="format">2</property>
  <property name="meta.media.width">1920</property>
  <property name="meta.media.height">1080</property>
  <property name="mlt_service">qimage</property>
  <property name="kdenlive:duration">00:00:05:00</property>
  <property name="xml">was here</property>
  <property name="kdenlive:folderid">15</property>
  <property name="kdenlive:id">238</property>
  <property name="kdenlive:control_uuid">{4f4eef7e-c584-4998-963e-1e91cc306633}</property>
  <property name="kdenlive:clip_type">2</property>
  <property name="kdenlive:file_size">1774826</property>
  <property name="kdenlive:file_hash">47a03f136a852b069e6a2826433da645</property>
 </producer>
 <producer id="producer228" in="00:00:00.000" out="00:00:04.958">
  <property name="length">00:00:05.000</property>
  <property name="eof">pause</property>
  <property name="resource">LOGO/logo_0224.png</property>
  <property name="ttl">25</property>
  <property name="aspect_ratio">1</property>
  <property name="meta.media.progressive">1</property>
  <property name="seekable">1</property>
  <property name="format">2</property>
  <property name="meta.media.width">1920</property>
  <property name="meta.media.height">1080</property>
  <property name="mlt_service">qimage</property>
  <property name="kdenlive:duration">00:00:05:00</property>
  <property name="xml">was here</property>
  <property name="kdenlive:folderid">15</property>
  <property name="kdenlive:id">239</property>
  <property name="kdenlive:control_uuid">{237ee00e-702d-4c30-b4d9-cbafe0990fae}</property>
  <property name="kdenlive:clip_type">2</property>
  <property name="kdenlive:file_size">1781387</property>
  <property name="kdenlive:file_hash">01eb495d1e716a5a6639b842d7b92c4b</property>
 </producer>
 <producer id="producer229" in="00:00:00.000" out="00:00:04.958">
  <property name="length">00:00:05.000</property>
  <property name="eof">pause</property>
  <property name="resource">LOGO/logo_0225.png</property>
  <property name="ttl">25</property>
  <property name="aspect_ratio">1</property>
  <property name="meta.media.progressive">1</property>
  <property name="seekable">1</property>
  <property name="format">2</property>
  <property name="meta.media.width">1920</property>
  <property name="meta.media.height">1080</property>
  <property name="mlt_service">qimage</property>
  <property name="kdenlive:duration">00:00:05:00</property>
  <property name="xml">was here</property>
  <property name="kdenlive:folderid">15</property>
  <property name="kdenlive:id">240</property>
  <property name="kdenlive:control_uuid">{38453bb2-65fd-4853-bb11-d86aaea9dabb}</property>
  <property name="kdenlive:clip_type">2</property>
  <property name="kdenlive:file_size">1786342</property>
  <property name="kdenlive:file_hash">04ff8f28a0023bd4b16af3bdefedc456</property>
 </producer>
 <producer id="producer230" in="00:00:00.000" out="00:00:04.958">
  <property name="length">00:00:05.000</property>
  <property name="eof">pause</property>
  <property name="resource">LOGO/logo_0226.png</property>
  <property name="ttl">25</property>
  <property name="aspect_ratio">1</property>
  <property name="meta.media.progressive">1</property>
  <property name="seekable">1</property>
  <property name="format">2</property>
  <property name="meta.media.width">1920</property>
  <property name="meta.media.height">1080</property>
  <property name="mlt_service">qimage</property>
  <property name="kdenlive:duration">00:00:05:00</property>
  <property name="xml">was here</property>
  <property name="kdenlive:folderid">15</property>
  <property name="kdenlive:id">241</property>
  <property name="kdenlive:control_uuid">{164c4854-ae7e-482f-8906-54e8675669d8}</property>
  <property name="kdenlive:clip_type">2</property>
  <property name="kdenlive:file_size">1793175</property>
  <property name="kdenlive:file_hash">6536d184b34e16be5968b9eadf731dc6</property>
 </producer>
 <producer id="producer231" in="00:00:00.000" out="00:00:04.958">
  <property name="length">00:00:05.000</property>
  <property name="eof">pause</property>
  <property name="resource">LOGO/logo_0227.png</property>
  <property name="ttl">25</property>
  <property name="aspect_ratio">1</property>
  <property name="meta.media.progressive">1</property>
  <property name="seekable">1</property>
  <property name="format">2</property>
  <property name="meta.media.width">1920</property>
  <property name="meta.media.height">1080</property>
  <property name="mlt_service">qimage</property>
  <property name="kdenlive:duration">00:00:05:00</property>
  <property name="xml">was here</property>
  <property name="kdenlive:folderid">15</property>
  <property name="kdenlive:id">242</property>
  <property name="kdenlive:control_uuid">{f92f2b46-b860-41b8-9d82-aec0277ce67e}</property>
  <property name="kdenlive:clip_type">2</property>
  <property name="kdenlive:file_size">1801761</property>
  <property name="kdenlive:file_hash">6ae27b38a2b51c60e6b5263ad0a263bc</property>
 </producer>
 <producer id="producer232" in="00:00:00.000" out="00:00:04.958">
  <property name="length">00:00:05.000</property>
  <property name="eof">pause</property>
  <property name="resource">LOGO/logo_0228.png</property>
  <property name="ttl">25</property>
  <property name="aspect_ratio">1</property>
  <property name="meta.media.progressive">1</property>
  <property name="seekable">1</property>
  <property name="format">2</property>
  <property name="meta.media.width">1920</property>
  <property name="meta.media.height">1080</property>
  <property name="mlt_service">qimage</property>
  <property name="kdenlive:duration">00:00:05:00</property>
  <property name="xml">was here</property>
  <property name="kdenlive:folderid">15</property>
  <property name="kdenlive:id">243</property>
  <property name="kdenlive:control_uuid">{4c278f8e-6cbf-4d5b-9c83-743d1c0d1483}</property>
  <property name="kdenlive:clip_type">2</property>
  <property name="kdenlive:file_size">1808047</property>
  <property name="kdenlive:file_hash">3dfc538f7609bfcae17140da0b3c3f8b</property>
 </producer>
 <producer id="producer233" in="00:00:00.000" out="00:00:04.958">
  <property name="length">00:00:05.000</property>
  <property name="eof">pause</property>
  <property name="resource">LOGO/logo_0229.png</property>
  <property name="ttl">25</property>
  <property name="aspect_ratio">1</property>
  <property name="meta.media.progressive">1</property>
  <property name="seekable">1</property>
  <property name="format">2</property>
  <property name="meta.media.width">1920</property>
  <property name="meta.media.height">1080</property>
  <property name="mlt_service">qimage</property>
  <property name="kdenlive:duration">00:00:05:00</property>
  <property name="xml">was here</property>
  <property name="kdenlive:folderid">15</property>
  <property name="kdenlive:id">244</property>
  <property name="kdenlive:control_uuid">{5066c973-3041-44c8-8f23-b46d875e9910}</property>
  <property name="kdenlive:clip_type">2</property>
  <property name="kdenlive:file_size">1815856</property>
  <property name="kdenlive:file_hash">dc61394ccb0c5a3ce431ab3f75f9fc9a</property>
 </producer>
 <producer id="producer234" in="00:00:00.000" out="00:00:04.958">
  <property name="length">00:00:05.000</property>
  <property name="eof">pause</property>
  <property name="resource">LOGO/logo_0230.png</property>
  <property name="ttl">25</property>
  <property name="aspect_ratio">1</property>
  <property name="meta.media.progressive">1</property>
  <property name="seekable">1</property>
  <property name="format">2</property>
  <property name="meta.media.width">1920</property>
  <property name="meta.media.height">1080</property>
  <property name="mlt_service">qimage</property>
  <property name="kdenlive:duration">00:00:05:00</property>
  <property name="xml">was here</property>
  <property name="kdenlive:folderid">15</property>
  <property name="kdenlive:id">245</property>
  <property name="kdenlive:control_uuid">{b0491459-e0e3-4cda-b665-2e664ae82db5}</property>
  <property name="kdenlive:clip_type">2</property>
  <property name="kdenlive:file_size">1821921</property>
  <property name="kdenlive:file_hash">d0e6080d8749bc2e59be05a207ffb463</property>
 </producer>
 <producer id="producer235" in="00:00:00.000" out="00:00:04.958">
  <property name="length">00:00:05.000</property>
  <property name="eof">pause</property>
  <property name="resource">LOGO/logo_0231.png</property>
  <property name="ttl">25</property>
  <property name="aspect_ratio">1</property>
  <property name="meta.media.progressive">1</property>
  <property name="seekable">1</property>
  <property name="format">2</property>
  <property name="meta.media.width">1920</property>
  <property name="meta.media.height">1080</property>
  <property name="mlt_service">qimage</property>
  <property name="kdenlive:duration">00:00:05:00</property>
  <property name="xml">was here</property>
  <property name="kdenlive:folderid">15</property>
  <property name="kdenlive:id">246</property>
  <property name="kdenlive:control_uuid">{5d7bbeeb-df5d-4f1a-a04c-2cdcdbcaecaf}</property>
  <property name="kdenlive:clip_type">2</property>
  <property name="kdenlive:file_size">1827052</property>
  <property name="kdenlive:file_hash">73d5fca816cf3ef46e34cf580f4d1f75</property>
 </producer>
 <producer id="producer236" in="00:00:00.000" out="00:00:04.958">
  <property name="length">00:00:05.000</property>
  <property name="eof">pause</property>
  <property name="resource">LOGO/logo_0232.png</property>
  <property name="ttl">25</property>
  <property name="aspect_ratio">1</property>
  <property name="meta.media.progressive">1</property>
  <property name="seekable">1</property>
  <property name="format">2</property>
  <property name="meta.media.width">1920</property>
  <property name="meta.media.height">1080</property>
  <property name="mlt_service">qimage</property>
  <property name="kdenlive:duration">00:00:05:00</property>
  <property name="xml">was here</property>
  <property name="kdenlive:folderid">15</property>
  <property name="kdenlive:id">247</property>
  <property name="kdenlive:control_uuid">{fe9cf9b8-1410-4bfe-8c91-71e9f3b3c448}</property>
  <property name="kdenlive:clip_type">2</property>
  <property name="kdenlive:file_size">1834222</property>
  <property name="kdenlive:file_hash">96286a40a7a02411335d8d17ef0bb914</property>
 </producer>
 <producer id="producer237" in="00:00:00.000" out="00:00:04.958">
  <property name="length">00:00:05.000</property>
  <property name="eof">pause</property>
  <property name="resource">LOGO/logo_0233.png</property>
  <property name="ttl">25</property>
  <property name="aspect_ratio">1</property>
  <property name="meta.media.progressive">1</property>
  <property name="seekable">1</property>
  <property name="format">2</property>
  <property name="meta.media.width">1920</property>
  <property name="meta.media.height">1080</property>
  <property name="mlt_service">qimage</property>
  <property name="kdenlive:duration">00:00:05:00</property>
  <property name="xml">was here</property>
  <property name="kdenlive:folderid">15</property>
  <property name="kdenlive:id">248</property>
  <property name="kdenlive:control_uuid">{802c5ac8-af28-4527-9f01-355266ecb93e}</property>
  <property name="kdenlive:clip_type">2</property>
  <property name="kdenlive:file_size">1841723</property>
  <property name="kdenlive:file_hash">27e263117558f8c2526a58863d55e69f</property>
 </producer>
 <producer id="producer238" in="00:00:00.000" out="00:00:04.958">
  <property name="length">00:00:05.000</property>
  <property name="eof">pause</property>
  <property name="resource">LOGO/logo_0234.png</property>
  <property name="ttl">25</property>
  <property name="aspect_ratio">1</property>
  <property name="meta.media.progressive">1</property>
  <property name="seekable">1</property>
  <property name="format">2</property>
  <property name="meta.media.width">1920</property>
  <property name="meta.media.height">1080</property>
  <property name="mlt_service">qimage</property>
  <property name="kdenlive:duration">00:00:05:00</property>
  <property name="xml">was here</property>
  <property name="kdenlive:folderid">15</property>
  <property name="kdenlive:id">249</property>
  <property name="kdenlive:control_uuid">{fea8a620-8b1a-4256-b986-eff0b506f31c}</property>
  <property name="kdenlive:clip_type">2</property>
  <property name="kdenlive:file_size">1850429</property>
  <property name="kdenlive:file_hash">d01312b8b13e87d7a6ffd583377fb0ce</property>
 </producer>
 <producer id="producer239" in="00:00:00.000" out="00:00:04.958">
  <property name="length">00:00:05.000</property>
  <property name="eof">pause</property>
  <property name="resource">LOGO/logo_0235.png</property>
  <property name="ttl">25</property>
  <property name="aspect_ratio">1</property>
  <property name="meta.media.progressive">1</property>
  <property name="seekable">1</property>
  <property name="format">2</property>
  <property name="meta.media.width">1920</property>
  <property name="meta.media.height">1080</property>
  <property name="mlt_service">qimage</property>
  <property name="kdenlive:duration">00:00:05:00</property>
  <property name="xml">was here</property>
  <property name="kdenlive:folderid">15</property>
  <property name="kdenlive:id">250</property>
  <property name="kdenlive:control_uuid">{d57fb713-8322-458c-93e4-fc06b8ff6d72}</property>
  <property name="kdenlive:clip_type">2</property>
  <property name="kdenlive:file_size">1856526</property>
  <property name="kdenlive:file_hash">4ef9bbd242dc5b2f871a77f9c0c4cffe</property>
 </producer>
 <producer id="producer240" in="00:00:00.000" out="00:00:04.958">
  <property name="length">00:00:05.000</property>
  <property name="eof">pause</property>
  <property name="resource">LOGO/logo_0236.png</property>
  <property name="ttl">25</property>
  <property name="aspect_ratio">1</property>
  <property name="meta.media.progressive">1</property>
  <property name="seekable">1</property>
  <property name="format">2</property>
  <property name="meta.media.width">1920</property>
  <property name="meta.media.height">1080</property>
  <property name="mlt_service">qimage</property>
  <property name="kdenlive:duration">00:00:05:00</property>
  <property name="xml">was here</property>
  <property name="kdenlive:folderid">15</property>
  <property name="kdenlive:id">251</property>
  <property name="kdenlive:control_uuid">{29b38926-5743-46c9-86d4-767d169ccf47}</property>
  <property name="kdenlive:clip_type">2</property>
  <property name="kdenlive:file_size">1864741</property>
  <property name="kdenlive:file_hash">7ca5ca51bff970206026594dcd65ad5b</property>
 </producer>
 <producer id="producer241" in="00:00:00.000" out="00:00:04.958">
  <property name="length">00:00:05.000</property>
  <property name="eof">pause</property>
  <property name="resource">LOGO/logo_0237.png</property>
  <property name="ttl">25</property>
  <property name="aspect_ratio">1</property>
  <property name="meta.media.progressive">1</property>
  <property name="seekable">1</property>
  <property name="format">2</property>
  <property name="meta.media.width">1920</property>
  <property name="meta.media.height">1080</property>
  <property name="mlt_service">qimage</property>
  <property name="kdenlive:duration">00:00:05:00</property>
  <property name="xml">was here</property>
  <property name="kdenlive:folderid">15</property>
  <property name="kdenlive:id">252</property>
  <property name="kdenlive:control_uuid">{a54da550-f4fe-4731-8d22-75f28d0c36b3}</property>
  <property name="kdenlive:clip_type">2</property>
  <property name="kdenlive:file_size">1870518</property>
  <property name="kdenlive:file_hash">01a1f5dc9fadbe8cc9cc63b457865f16</property>
 </producer>
 <producer id="producer242" in="00:00:00.000" out="00:00:04.958">
  <property name="length">00:00:05.000</property>
  <property name="eof">pause</property>
  <property name="resource">LOGO/logo_0238.png</property>
  <property name="ttl">25</property>
  <property name="aspect_ratio">1</property>
  <property name="meta.media.progressive">1</property>
  <property name="seekable">1</property>
  <property name="format">2</property>
  <property name="meta.media.width">1920</property>
  <property name="meta.media.height">1080</property>
  <property name="mlt_service">qimage</property>
  <property name="kdenlive:duration">00:00:05:00</property>
  <property name="xml">was here</property>
  <property name="kdenlive:folderid">15</property>
  <property name="kdenlive:id">253</property>
  <property name="kdenlive:control_uuid">{7a54378e-c230-478b-bd94-537c851acb09}</property>
  <property name="kdenlive:clip_type">2</property>
  <property name="kdenlive:file_size">1875039</property>
  <property name="kdenlive:file_hash">bd4bcd8277f1c1155571fa0e27f951d0</property>
 </producer>
 <producer id="producer243" in="00:00:00.000" out="00:00:04.958">
  <property name="length">00:00:05.000</property>
  <property name="eof">pause</property>
  <property name="resource">LOGO/logo_0239.png</property>
  <property name="ttl">25</property>
  <property name="aspect_ratio">1</property>
  <property name="meta.media.progressive">1</property>
  <property name="seekable">1</property>
  <property name="format">2</property>
  <property name="meta.media.width">1920</property>
  <property name="meta.media.height">1080</property>
  <property name="mlt_service">qimage</property>
  <property name="kdenlive:duration">00:00:05:00</property>
  <property name="xml">was here</property>
  <property name="kdenlive:folderid">15</property>
  <property name="kdenlive:id">254</property>
  <property name="kdenlive:control_uuid">{ff7a3f7e-c94e-47c2-b78a-18dd9dd543e7}</property>
  <property name="kdenlive:clip_type">2</property>
  <property name="kdenlive:file_size">1879329</property>
  <property name="kdenlive:file_hash">c8eefe7af380f1f9defb729020f59024</property>
 </producer>
 <producer id="producer244" in="00:00:00.000" out="00:00:04.958">
  <property name="length">00:00:05.000</property>
  <property name="eof">pause</property>
  <property name="resource">LOGO/logo_0240.png</property>
  <property name="ttl">25</property>
  <property name="aspect_ratio">1</property>
  <property name="meta.media.progressive">1</property>
  <property name="seekable">1</property>
  <property name="format">2</property>
  <property name="meta.media.width">1920</property>
  <property name="meta.media.height">1080</property>
  <property name="mlt_service">qimage</property>
  <property name="kdenlive:duration">00:00:05:00</property>
  <property name="xml">was here</property>
  <property name="kdenlive:folderid">15</property>
  <property name="kdenlive:id">255</property>
  <property name="kdenlive:control_uuid">{10620dc9-4298-41a2-a4f1-32f62895a2d6}</property>
  <property name="kdenlive:clip_type">2</property>
  <property name="kdenlive:file_size">1880715</property>
  <property name="kdenlive:file_hash">7540920c9fbc758ce173075ad800764b</property>
 </producer>
 <producer id="producer245" in="00:00:00.000" out="00:00:04.958">
  <property name="length">00:00:05.000</property>
  <property name="eof">pause</property>
  <property name="resource">LOGO/logo_0241.png</property>
  <property name="ttl">25</property>
  <property name="aspect_ratio">1</property>
  <property name="meta.media.progressive">1</property>
  <property name="seekable">1</property>
  <property name="format">2</property>
  <property name="meta.media.width">1920</property>
  <property name="meta.media.height">1080</property>
  <property name="mlt_service">qimage</property>
  <property name="kdenlive:duration">00:00:05:00</property>
  <property name="xml">was here</property>
  <property name="kdenlive:folderid">15</property>
  <property name="kdenlive:id">256</property>
  <property name="kdenlive:control_uuid">{bf794fb4-e8bc-49b6-bfc1-59bd48919e50}</property>
  <property name="kdenlive:clip_type">2</property>
  <property name="kdenlive:file_size">1883154</property>
  <property name="kdenlive:file_hash">d8f730186f8ff215787c4803776db143</property>
 </producer>
 <producer id="producer246" in="00:00:00.000" out="00:00:04.958">
  <property name="length">00:00:05.000</property>
  <property name="eof">pause</property>
  <property name="resource">LOGO/logo_0242.png</property>
  <property name="ttl">25</property>
  <property name="aspect_ratio">1</property>
  <property name="meta.media.progressive">1</property>
  <property name="seekable">1</property>
  <property name="format">2</property>
  <property name="meta.media.width">1920</property>
  <property name="meta.media.height">1080</property>
  <property name="mlt_service">qimage</property>
  <property name="kdenlive:duration">00:00:05:00</property>
  <property name="xml">was here</property>
  <property name="kdenlive:folderid">15</property>
  <property name="kdenlive:id">257</property>
  <property name="kdenlive:control_uuid">{5dac6122-d58a-47c9-ab84-b5809d2de8f4}</property>
  <property name="kdenlive:clip_type">2</property>
  <property name="kdenlive:file_size">1883963</property>
  <property name="kdenlive:file_hash">8289ad7c8c29e9f08f0da4ec207f4b31</property>
 </producer>
 <producer id="producer247" in="00:00:00.000" out="00:00:04.958">
  <property name="length">00:00:05.000</property>
  <property name="eof">pause</property>
  <property name="resource">LOGO/logo_0244.png</property>
  <property name="ttl">25</property>
  <property name="aspect_ratio">1</property>
  <property name="meta.media.progressive">1</property>
  <property name="seekable">1</property>
  <property name="format">2</property>
  <property name="meta.media.width">1920</property>
  <property name="meta.media.height">1080</property>
  <property name="mlt_service">qimage</property>
  <property name="kdenlive:duration">00:00:05:00</property>
  <property name="xml">was here</property>
  <property name="kdenlive:folderid">15</property>
  <property name="kdenlive:id">259</property>
  <property name="kdenlive:control_uuid">{ac8f8a83-d3c3-48e0-988e-a7ad88ca0898}</property>
  <property name="kdenlive:clip_type">2</property>
  <property name="kdenlive:file_size">1886082</property>
  <property name="kdenlive:file_hash">291d7d6eb2763800e27526590548841a</property>
 </producer>
 <producer id="producer248" in="00:00:00.000" out="00:00:04.958">
  <property name="length">00:00:05.000</property>
  <property name="eof">pause</property>
  <property name="resource">LOGO/logo_0243.png</property>
  <property name="ttl">25</property>
  <property name="aspect_ratio">1</property>
  <property name="meta.media.progressive">1</property>
  <property name="seekable">1</property>
  <property name="format">2</property>
  <property name="meta.media.width">1920</property>
  <property name="meta.media.height">1080</property>
  <property name="mlt_service">qimage</property>
  <property name="kdenlive:duration">00:00:05:00</property>
  <property name="xml">was here</property>
  <property name="kdenlive:folderid">15</property>
  <property name="kdenlive:id">258</property>
  <property name="kdenlive:control_uuid">{78075d05-36cc-4454-93ca-125ebb2ca6db}</property>
  <property name="kdenlive:clip_type">2</property>
  <property name="kdenlive:file_size">1884424</property>
  <property name="kdenlive:file_hash">71005bda3a997c28cea0e5b4f2385e01</property>
 </producer>
 <producer id="producer249" in="00:00:00.000" out="00:00:04.958">
  <property name="length">00:00:05.000</property>
  <property name="eof">pause</property>
  <property name="resource">LOGO/logo_0245.png</property>
  <property name="ttl">25</property>
  <property name="aspect_ratio">1</property>
  <property name="meta.media.progressive">1</property>
  <property name="seekable">1</property>
  <property name="format">2</property>
  <property name="meta.media.width">1920</property>
  <property name="meta.media.height">1080</property>
  <property name="mlt_service">qimage</property>
  <property name="kdenlive:duration">00:00:05:00</property>
  <property name="xml">was here</property>
  <property name="kdenlive:folderid">15</property>
  <property name="kdenlive:id">260</property>
  <property name="kdenlive:control_uuid">{44719c95-fea8-4449-b901-8abf1b7f6e97}</property>
  <property name="kdenlive:clip_type">2</property>
  <property name="kdenlive:file_size">1882600</property>
  <property name="kdenlive:file_hash">aa7d00b07aa048bb95f20676c47cbd06</property>
 </producer>
 <producer id="producer250" in="00:00:00.000" out="00:00:04.958">
  <property name="length">00:00:05.000</property>
  <property name="eof">pause</property>
  <property name="resource">LOGO/logo_0246.png</property>
  <property name="ttl">25</property>
  <property name="aspect_ratio">1</property>
  <property name="meta.media.progressive">1</property>
  <property name="seekable">1</property>
  <property name="format">2</property>
  <property name="meta.media.width">1920</property>
  <property name="meta.media.height">1080</property>
  <property name="mlt_service">qimage</property>
  <property name="kdenlive:duration">00:00:05:00</property>
  <property name="xml">was here</property>
  <property name="kdenlive:folderid">15</property>
  <property name="kdenlive:id">261</property>
  <property name="kdenlive:control_uuid">{96135cac-17d9-4248-a928-a38fd3f50178}</property>
  <property name="kdenlive:clip_type">2</property>
  <property name="kdenlive:file_size">1882489</property>
  <property name="kdenlive:file_hash">7b5cd139abe7a1ba82dc6ee86b12e30a</property>
 </producer>
 <producer id="producer251" in="00:00:00.000" out="00:00:04.958">
  <property name="length">00:00:05.000</property>
  <property name="eof">pause</property>
  <property name="resource">LOGO/logo_0247.png</property>
  <property name="ttl">25</property>
  <property name="aspect_ratio">1</property>
  <property name="meta.media.progressive">1</property>
  <property name="seekable">1</property>
  <property name="format">2</property>
  <property name="meta.media.width">1920</property>
  <property name="meta.media.height">1080</property>
  <property name="mlt_service">qimage</property>
  <property name="kdenlive:duration">00:00:05:00</property>
  <property name="xml">was here</property>
  <property name="kdenlive:folderid">15</property>
  <property name="kdenlive:id">262</property>
  <property name="kdenlive:control_uuid">{7628a49e-fff4-47ce-a716-66ef7c1a4253}</property>
  <property name="kdenlive:clip_type">2</property>
  <property name="kdenlive:file_size">1876986</property>
  <property name="kdenlive:file_hash">d08bd32a18cf39330392b667e4484216</property>
 </producer>
 <producer id="producer252" in="00:00:00.000" out="00:00:04.958">
  <property name="length">00:00:05.000</property>
  <property name="eof">pause</property>
  <property name="resource">LOGO/logo_0248.png</property>
  <property name="ttl">25</property>
  <property name="aspect_ratio">1</property>
  <property name="meta.media.progressive">1</property>
  <property name="seekable">1</property>
  <property name="format">2</property>
  <property name="meta.media.width">1920</property>
  <property name="meta.media.height">1080</property>
  <property name="mlt_service">qimage</property>
  <property name="kdenlive:duration">00:00:05:00</property>
  <property name="xml">was here</property>
  <property name="kdenlive:folderid">15</property>
  <property name="kdenlive:id">263</property>
  <property name="kdenlive:control_uuid">{2565a593-60f8-4a62-9142-4e9463b36b82}</property>
  <property name="kdenlive:clip_type">2</property>
  <property name="kdenlive:file_size">1878160</property>
  <property name="kdenlive:file_hash">0ffb26fe6cdd679aae5e5bdc644bc4a1</property>
 </producer>
 <producer id="producer253" in="00:00:00.000" out="00:00:04.958">
  <property name="length">00:00:05.000</property>
  <property name="eof">pause</property>
  <property name="resource">LOGO/logo_0250.png</property>
  <property name="ttl">25</property>
  <property name="aspect_ratio">1</property>
  <property name="meta.media.progressive">1</property>
  <property name="seekable">1</property>
  <property name="format">2</property>
  <property name="meta.media.width">1920</property>
  <property name="meta.media.height">1080</property>
  <property name="mlt_service">qimage</property>
  <property name="kdenlive:duration">00:00:05:00</property>
  <property name="xml">was here</property>
  <property name="kdenlive:folderid">15</property>
  <property name="kdenlive:id">265</property>
  <property name="kdenlive:control_uuid">{8a94c769-659d-4d5e-b190-3fcd74c30f44}</property>
  <property name="kdenlive:clip_type">2</property>
  <property name="kdenlive:file_size">1860392</property>
  <property name="kdenlive:file_hash">d80deedd03f54b3931fa865ba12fcae7</property>
 </producer>
 <producer id="producer254" in="00:00:00.000" out="00:00:04.958">
  <property name="length">00:00:05.000</property>
  <property name="eof">pause</property>
  <property name="resource">LOGO/logo_0249.png</property>
  <property name="ttl">25</property>
  <property name="aspect_ratio">1</property>
  <property name="meta.media.progressive">1</property>
  <property name="seekable">1</property>
  <property name="format">2</property>
  <property name="meta.media.width">1920</property>
  <property name="meta.media.height">1080</property>
  <property name="mlt_service">qimage</property>
  <property name="kdenlive:duration">00:00:05:00</property>
  <property name="xml">was here</property>
  <property name="kdenlive:folderid">15</property>
  <property name="kdenlive:id">264</property>
  <property name="kdenlive:control_uuid">{9848d24d-db68-42eb-8649-cbb97d84b6f0}</property>
  <property name="kdenlive:clip_type">2</property>
  <property name="kdenlive:file_size">1874448</property>
  <property name="kdenlive:file_hash">6e0065d5fb651c75d3c9ec8058a62c77</property>
 </producer>
 <chain id="chain13" out="00:00:10.375">
  <property name="length">250</property>
  <property name="eof">pause</property>
  <property name="resource">logo_0001-0250.mkv</property>
  <property name="mlt_service">avformat-novalidate</property>
  <property name="meta.media.nb_streams">1</property>
  <property name="meta.media.0.stream.type">video</property>
  <property name="meta.media.0.stream.frame_rate">24</property>
  <property name="meta.media.0.stream.sample_aspect_ratio">1</property>
  <property name="meta.media.0.codec.width">1920</property>
  <property name="meta.media.0.codec.height">1080</property>
  <property name="meta.media.0.codec.rotate">0</property>
  <property name="meta.media.0.codec.pix_fmt">yuv420p</property>
  <property name="meta.media.0.codec.sample_aspect_ratio">1</property>
  <property name="meta.media.0.codec.colorspace">709</property>
  <property name="meta.media.0.codec.color_trc">1</property>
  <property name="meta.media.0.codec.name">h264</property>
  <property name="meta.media.0.codec.long_name">H.264 / AVC / MPEG-4 AVC / MPEG-4 part 10</property>
  <property name="meta.media.0.codec.bit_rate">0</property>
  <property name="meta.attr.0.stream.DURATION.markup">00:00:10.417000000</property>
  <property name="meta.attr.SCENE.markup">Scene</property>
  <property name="meta.attr.FILE.markup">&lt;untitled></property>
  <property name="meta.attr.DATE.markup">2025/06/16 15:57:32</property>
  <property name="meta.attr.ENCODER.markup">Lavf61.7.100</property>
  <property name="seekable">1</property>
  <property name="meta.media.sample_aspect_num">1</property>
  <property name="meta.media.sample_aspect_den">1</property>
  <property name="format">3</property>
  <property name="audio_index">-1</property>
  <property name="video_index">0</property>
  <property name="vstream">0</property>
  <property name="meta.media.frame_rate_num">24</property>
  <property name="meta.media.frame_rate_den">1</property>
  <property name="meta.media.colorspace">709</property>
  <property name="meta.media.color_trc">1</property>
  <property name="meta.media.has_b_frames">0</property>
  <property name="meta.media.width">1920</property>
  <property name="meta.media.height">1080</property>
  <property name="meta.media.aspect_ratio">1</property>
  <property name="meta.media.color_range">mpeg</property>
  <property name="meta.media.top_field_first">0</property>
  <property name="meta.media.progressive">1</property>
  <property name="kdenlive:folderid">-1</property>
  <property name="kdenlive:id">266</property>
  <property name="kdenlive:control_uuid">{c0870148-6f95-4de4-8e3d-17e42dcc49cd}</property>
  <property name="mute_on_pause">0</property>
  <property name="kdenlive:clip_type">2</property>
  <property name="kdenlive:file_size">2104546</property>
  <property name="kdenlive:file_hash">9d75efe6a1d0ac725103cf834c29b849</property>
  <property name="kdenlive:activeeffect">0</property>
  <filter id="filter29">
   <property name="key">00:00:00.000=0x000000ff</property>
   <property name="variance">00:00:00.000=0</property>
   <property name="mlt_service">chroma</property>
   <property name="kdenlive_id">chroma</property>
   <property name="kdenlive:collapsed">0</property>
  </filter>
 </chain>
 <playlist id="main_bin">
  <property name="kdenlive:folder.-1.2">Последовательности</property>
  <property name="kdenlive:sequenceFolder">2</property>
  <property name="kdenlive:folder.-1.15">LOGO</property>
  <property name="kdenlive:docproperties.activetimeline">{6f288ca6-c6d1-40d6-955b-253ef83fa707}</property>
  <property name="kdenlive:docproperties.audioChannels">2</property>
  <property name="kdenlive:docproperties.binsort">0</property>
  <property name="kdenlive:docproperties.browserurl">/home/vir0id/Документы/</property>
  <property name="kdenlive:docproperties.documentid">1749479402876</property>
  <property name="kdenlive:docproperties.enableTimelineZone">0</property>
  <property name="kdenlive:docproperties.enableexternalproxy">0</property>
  <property name="kdenlive:docproperties.enableproxy">0</property>
  <property name="kdenlive:docproperties.externalproxyparams"/>
  <property name="kdenlive:docproperties.generateimageproxy">0</property>
  <property name="kdenlive:docproperties.generateproxy">0</property>
  <property name="kdenlive:docproperties.guidesCategories">[
    {
        "color": "#9b59b6",
        "comment": "Категория 1",
        "index": 0
    },
    {
        "color": "#3daee9",
        "comment": "Категория 2",
        "index": 1
    },
    {
        "color": "#1abc9c",
        "comment": "Категория 3",
        "index": 2
    },
    {
        "color": "#1cdc9a",
        "comment": "Категория 4",
        "index": 3
    },
    {
        "color": "#c9ce3b",
        "comment": "Категория 5",
        "index": 4
    },
    {
        "color": "#fdbc4b",
        "comment": "Категория 6",
        "index": 5
    },
    {
        "color": "#f39c1f",
        "comment": "Категория 7",
        "index": 6
    },
    {
        "color": "#f47750",
        "comment": "Категория 8",
        "index": 7
    },
    {
        "color": "#da4453",
        "comment": "Категория 9",
        "index": 8
    }
]
</property>
  <property name="kdenlive:docproperties.kdenliveversion">25.04.2</property>
  <property name="kdenlive:docproperties.opensequences">{6f288ca6-c6d1-40d6-955b-253ef83fa707}</property>
  <property name="kdenlive:docproperties.previewextension"/>
  <property name="kdenlive:docproperties.previewparameters"/>
  <property name="kdenlive:docproperties.profile">atsc_1080p_24</property>
  <property name="kdenlive:docproperties.proxyextension"/>
  <property name="kdenlive:docproperties.proxyimageminsize">2000</property>
  <property name="kdenlive:docproperties.proxyimagesize">800</property>
  <property name="kdenlive:docproperties.proxyminsize">1000</property>
  <property name="kdenlive:docproperties.proxyparams"/>
  <property name="kdenlive:docproperties.proxyresize">640</property>
  <property name="kdenlive:docproperties.rendercategory">Generic (HD for web, mobile devices...)</property>
  <property name="kdenlive:docproperties.rendercustomquality">-1</property>
  <property name="kdenlive:docproperties.renderendguide">-1</property>
  <property name="kdenlive:docproperties.renderexportaudio">0</property>
  <property name="kdenlive:docproperties.renderfullcolorrange">0</property>
  <property name="kdenlive:docproperties.rendermode">0</property>
  <property name="kdenlive:docproperties.renderplay">0</property>
  <property name="kdenlive:docproperties.renderpreview">0</property>
  <property name="kdenlive:docproperties.renderprofile">MP4-H264/AAC</property>
  <property name="kdenlive:docproperties.renderrescale">0</property>
  <property name="kdenlive:docproperties.renderrescaleheight">540</property>
  <property name="kdenlive:docproperties.renderrescalewidth">960</property>
  <property name="kdenlive:docproperties.renderspeed">6</property>
  <property name="kdenlive:docproperties.renderstartguide">-1</property>
  <property name="kdenlive:docproperties.rendertcoverlay">0</property>
  <property name="kdenlive:docproperties.rendertctype">-1</property>
  <property name="kdenlive:docproperties.rendertwopass">0</property>
  <property name="kdenlive:docproperties.seekOffset">30000</property>
  <property name="kdenlive:docproperties.sessionid">{44321c71-22e2-470a-818c-1ec8424f8bfe}</property>
  <property name="kdenlive:docproperties.uuid">{6f288ca6-c6d1-40d6-955b-253ef83fa707}</property>
  <property name="kdenlive:docproperties.version">1.1</property>
  <property name="kdenlive:expandedFolders"/>
  <property name="kdenlive:binZoom">4</property>
  <property name="kdenlive:extraBins">project_bin:-1:0</property>
  <property name="kdenlive:documentnotes"/>
  <property name="kdenlive:documentnotesversion">2</property>
  <property name="xml_retain">1</property>
  <entry in="00:00:00.000" out="00:00:12.500" producer="chain3"/>
  <entry in="00:00:00.000" out="00:00:04.958" producer="chain4"/>
  <entry in="00:00:00.000" out="00:00:15.917" producer="chain5"/>
  <entry in="00:00:00.000" out="00:00:08.167" producer="chain6"/>
  <entry in="00:00:00.000" out="00:00:33.583" producer="chain7"/>
  <entry in="00:00:00.000" out="00:02:35.583" producer="chain8"/>
  <entry in="00:00:00.000" out="00:00:12.458" producer="chain1"/>
  <entry in="00:00:00.000" out="00:00:12.458" producer="chain9"/>
  <entry in="00:00:00.000" out="00:00:12.458" producer="chain10"/>
  <entry in="00:00:00.000" out="00:00:12.458" producer="chain11"/>
  <entry in="00:00:00.000" out="00:00:04.958" producer="producer4"/>
  <entry in="00:00:00.000" out="00:00:21.458" producer="tractor7"/>
  <entry in="00:00:00.000" out="00:00:04.958" producer="producer5"/>
  <entry in="00:00:00.000" out="00:00:04.958" producer="producer6"/>
  <entry in="00:00:00.000" out="00:00:04.958" producer="producer7"/>
  <entry in="00:00:00.000" out="00:00:04.958" producer="producer8"/>
  <entry in="00:00:00.000" out="00:00:04.958" producer="producer9"/>
  <entry in="00:00:00.000" out="00:00:04.958" producer="producer10"/>
  <entry in="00:00:00.000" out="00:00:04.958" producer="producer11"/>
  <entry in="00:00:00.000" out="00:00:04.958" producer="producer12"/>
  <entry in="00:00:00.000" out="00:00:04.958" producer="producer13"/>
  <entry in="00:00:00.000" out="00:00:04.958" producer="producer14"/>
  <entry in="00:00:00.000" out="00:00:04.958" producer="producer15"/>
  <entry in="00:00:00.000" out="00:00:04.958" producer="producer16"/>
  <entry in="00:00:00.000" out="00:00:04.958" producer="producer17"/>
  <entry in="00:00:00.000" out="00:00:04.958" producer="producer18"/>
  <entry in="00:00:00.000" out="00:00:04.958" producer="producer19"/>
  <entry in="00:00:00.000" out="00:00:04.958" producer="producer20"/>
  <entry in="00:00:00.000" out="00:00:04.958" producer="producer21"/>
  <entry in="00:00:00.000" out="00:00:04.958" producer="producer22"/>
  <entry in="00:00:00.000" out="00:00:04.958" producer="producer23"/>
  <entry in="00:00:00.000" out="00:00:04.958" producer="producer24"/>
  <entry in="00:00:00.000" out="00:00:04.958" producer="producer25"/>
  <entry in="00:00:00.000" out="00:00:04.958" producer="producer26"/>
  <entry in="00:00:00.000" out="00:00:04.958" producer="producer27"/>
  <entry in="00:00:00.000" out="00:00:04.958" producer="producer28"/>
  <entry in="00:00:00.000" out="00:00:04.958" producer="producer29"/>
  <entry in="00:00:00.000" out="00:00:04.958" producer="producer30"/>
  <entry in="00:00:00.000" out="00:00:04.958" producer="producer31"/>
  <entry in="00:00:00.000" out="00:00:04.958" producer="producer32"/>
  <entry in="00:00:00.000" out="00:00:04.958" producer="producer33"/>
  <entry in="00:00:00.000" out="00:00:04.958" producer="producer34"/>
  <entry in="00:00:00.000" out="00:00:04.958" producer="producer35"/>
  <entry in="00:00:00.000" out="00:00:04.958" producer="producer36"/>
  <entry in="00:00:00.000" out="00:00:04.958" producer="producer37"/>
  <entry in="00:00:00.000" out="00:00:04.958" producer="producer38"/>
  <entry in="00:00:00.000" out="00:00:04.958" producer="producer39"/>
  <entry in="00:00:00.000" out="00:00:04.958" producer="producer40"/>
  <entry in="00:00:00.000" out="00:00:04.958" producer="producer41"/>
  <entry in="00:00:00.000" out="00:00:04.958" producer="producer42"/>
  <entry in="00:00:00.000" out="00:00:04.958" producer="producer43"/>
  <entry in="00:00:00.000" out="00:00:04.958" producer="producer44"/>
  <entry in="00:00:00.000" out="00:00:04.958" producer="producer45"/>
  <entry in="00:00:00.000" out="00:00:04.958" producer="producer46"/>
  <entry in="00:00:00.000" out="00:00:04.958" producer="producer47"/>
  <entry in="00:00:00.000" out="00:00:04.958" producer="producer48"/>
  <entry in="00:00:00.000" out="00:00:04.958" producer="producer49"/>
  <entry in="00:00:00.000" out="00:00:04.958" producer="producer50"/>
  <entry in="00:00:00.000" out="00:00:04.958" producer="producer51"/>
  <entry in="00:00:00.000" out="00:00:04.958" producer="producer52"/>
  <entry in="00:00:00.000" out="00:00:04.958" producer="producer53"/>
  <entry in="00:00:00.000" out="00:00:04.958" producer="producer54"/>
  <entry in="00:00:00.000" out="00:00:04.958" producer="producer55"/>
  <entry in="00:00:00.000" out="00:00:04.958" producer="producer56"/>
  <entry in="00:00:00.000" out="00:00:04.958" producer="producer57"/>
  <entry in="00:00:00.000" out="00:00:04.958" producer="producer58"/>
  <entry in="00:00:00.000" out="00:00:04.958" producer="producer59"/>
  <entry in="00:00:00.000" out="00:00:04.958" producer="producer60"/>
  <entry in="00:00:00.000" out="00:00:04.958" producer="producer61"/>
  <entry in="00:00:00.000" out="00:00:04.958" producer="producer62"/>
  <entry in="00:00:00.000" out="00:00:04.958" producer="producer63"/>
  <entry in="00:00:00.000" out="00:00:04.958" producer="producer64"/>
  <entry in="00:00:00.000" out="00:00:04.958" producer="producer65"/>
  <entry in="00:00:00.000" out="00:00:04.958" producer="producer66"/>
  <entry in="00:00:00.000" out="00:00:04.958" producer="producer67"/>
  <entry in="00:00:00.000" out="00:00:04.958" producer="producer68"/>
  <entry in="00:00:00.000" out="00:00:04.958" producer="producer69"/>
  <entry in="00:00:00.000" out="00:00:04.958" producer="producer70"/>
  <entry in="00:00:00.000" out="00:00:04.958" producer="producer71"/>
  <entry in="00:00:00.000" out="00:00:04.958" producer="producer72"/>
  <entry in="00:00:00.000" out="00:00:04.958" producer="producer73"/>
  <entry in="00:00:00.000" out="00:00:04.958" producer="producer74"/>
  <entry in="00:00:00.000" out="00:00:04.958" producer="producer75"/>
  <entry in="00:00:00.000" out="00:00:04.958" producer="producer76"/>
  <entry in="00:00:00.000" out="00:00:04.958" producer="producer77"/>
  <entry in="00:00:00.000" out="00:00:04.958" producer="producer78"/>
  <entry in="00:00:00.000" out="00:00:04.958" producer="producer79"/>
  <entry in="00:00:00.000" out="00:00:04.958" producer="producer80"/>
  <entry in="00:00:00.000" out="00:00:04.958" producer="producer81"/>
  <entry in="00:00:00.000" out="00:00:04.958" producer="producer82"/>
  <entry in="00:00:00.000" out="00:00:04.958" producer="producer83"/>
  <entry in="00:00:00.000" out="00:00:04.958" producer="producer84"/>
  <entry in="00:00:00.000" out="00:00:04.958" producer="producer85"/>
  <entry in="00:00:00.000" out="00:00:04.958" producer="producer86"/>
  <entry in="00:00:00.000" out="00:00:04.958" producer="producer87"/>
  <entry in="00:00:00.000" out="00:00:04.958" producer="producer88"/>
  <entry in="00:00:00.000" out="00:00:04.958" producer="producer89"/>
  <entry in="00:00:00.000" out="00:00:04.958" producer="producer90"/>
  <entry in="00:00:00.000" out="00:00:04.958" producer="producer91"/>
  <entry in="00:00:00.000" out="00:00:04.958" producer="producer92"/>
  <entry in="00:00:00.000" out="00:00:04.958" producer="producer93"/>
  <entry in="00:00:00.000" out="00:00:04.958" producer="producer94"/>
  <entry in="00:00:00.000" out="00:00:04.958" producer="producer95"/>
  <entry in="00:00:00.000" out="00:00:04.958" producer="producer96"/>
  <entry in="00:00:00.000" out="00:00:04.958" producer="producer97"/>
  <entry in="00:00:00.000" out="00:00:04.958" producer="producer98"/>
  <entry in="00:00:00.000" out="00:00:04.958" producer="producer99"/>
  <entry in="00:00:00.000" out="00:00:04.958" producer="producer100"/>
  <entry in="00:00:00.000" out="00:00:04.958" producer="producer101"/>
  <entry in="00:00:00.000" out="00:00:04.958" producer="producer102"/>
  <entry in="00:00:00.000" out="00:00:04.958" producer="producer103"/>
  <entry in="00:00:00.000" out="00:00:04.958" producer="producer104"/>
  <entry in="00:00:00.000" out="00:00:04.958" producer="producer105"/>
  <entry in="00:00:00.000" out="00:00:04.958" producer="producer106"/>
  <entry in="00:00:00.000" out="00:00:04.958" producer="producer107"/>
  <entry in="00:00:00.000" out="00:00:04.958" producer="producer108"/>
  <entry in="00:00:00.000" out="00:00:04.958" producer="producer109"/>
  <entry in="00:00:00.000" out="00:00:04.958" producer="producer110"/>
  <entry in="00:00:00.000" out="00:00:04.958" producer="producer111"/>
  <entry in="00:00:00.000" out="00:00:04.958" producer="producer112"/>
  <entry in="00:00:00.000" out="00:00:04.958" producer="producer113"/>
  <entry in="00:00:00.000" out="00:00:04.958" producer="producer114"/>
  <entry in="00:00:00.000" out="00:00:04.958" producer="producer115"/>
  <entry in="00:00:00.000" out="00:00:04.958" producer="producer116"/>
  <entry in="00:00:00.000" out="00:00:04.958" producer="producer117"/>
  <entry in="00:00:00.000" out="00:00:04.958" producer="producer118"/>
  <entry in="00:00:00.000" out="00:00:04.958" producer="producer119"/>
  <entry in="00:00:00.000" out="00:00:04.958" producer="producer120"/>
  <entry in="00:00:00.000" out="00:00:04.958" producer="producer121"/>
  <entry in="00:00:00.000" out="00:00:04.958" producer="producer122"/>
  <entry in="00:00:00.000" out="00:00:04.958" producer="producer123"/>
  <entry in="00:00:00.000" out="00:00:04.958" producer="producer124"/>
  <entry in="00:00:00.000" out="00:00:04.958" producer="producer125"/>
  <entry in="00:00:00.000" out="00:00:04.958" producer="producer126"/>
  <entry in="00:00:00.000" out="00:00:04.958" producer="producer127"/>
  <entry in="00:00:00.000" out="00:00:04.958" producer="producer128"/>
  <entry in="00:00:00.000" out="00:00:04.958" producer="producer129"/>
  <entry in="00:00:00.000" out="00:00:04.958" producer="producer130"/>
  <entry in="00:00:00.000" out="00:00:04.958" producer="producer131"/>
  <entry in="00:00:00.000" out="00:00:04.958" producer="producer132"/>
  <entry in="00:00:00.000" out="00:00:04.958" producer="producer133"/>
  <entry in="00:00:00.000" out="00:00:04.958" producer="producer134"/>
  <entry in="00:00:00.000" out="00:00:04.958" producer="producer135"/>
  <entry in="00:00:00.000" out="00:00:04.958" producer="producer136"/>
  <entry in="00:00:00.000" out="00:00:04.958" producer="producer137"/>
  <entry in="00:00:00.000" out="00:00:04.958" producer="producer138"/>
  <entry in="00:00:00.000" out="00:00:04.958" producer="producer139"/>
  <entry in="00:00:00.000" out="00:00:04.958" producer="producer140"/>
  <entry in="00:00:00.000" out="00:00:04.958" producer="producer141"/>
  <entry in="00:00:00.000" out="00:00:04.958" producer="producer142"/>
  <entry in="00:00:00.000" out="00:00:04.958" producer="producer143"/>
  <entry in="00:00:00.000" out="00:00:04.958" producer="producer144"/>
  <entry in="00:00:00.000" out="00:00:04.958" producer="producer145"/>
  <entry in="00:00:00.000" out="00:00:04.958" producer="producer146"/>
  <entry in="00:00:00.000" out="00:00:04.958" producer="producer147"/>
  <entry in="00:00:00.000" out="00:00:04.958" producer="producer148"/>
  <entry in="00:00:00.000" out="00:00:04.958" producer="producer149"/>
  <entry in="00:00:00.000" out="00:00:04.958" producer="producer150"/>
  <entry in="00:00:00.000" out="00:00:04.958" producer="producer151"/>
  <entry in="00:00:00.000" out="00:00:04.958" producer="producer152"/>
  <entry in="00:00:00.000" out="00:00:04.958" producer="producer153"/>
  <entry in="00:00:00.000" out="00:00:04.958" producer="producer154"/>
  <entry in="00:00:00.000" out="00:00:04.958" producer="producer155"/>
  <entry in="00:00:00.000" out="00:00:04.958" producer="producer156"/>
  <entry in="00:00:00.000" out="00:00:04.958" producer="producer157"/>
  <entry in="00:00:00.000" out="00:00:04.958" producer="producer158"/>
  <entry in="00:00:00.000" out="00:00:04.958" producer="producer159"/>
  <entry in="00:00:00.000" out="00:00:04.958" producer="producer160"/>
  <entry in="00:00:00.000" out="00:00:04.958" producer="producer161"/>
  <entry in="00:00:00.000" out="00:00:04.958" producer="producer162"/>
  <entry in="00:00:00.000" out="00:00:04.958" producer="producer163"/>
  <entry in="00:00:00.000" out="00:00:04.958" producer="producer164"/>
  <entry in="00:00:00.000" out="00:00:04.958" producer="producer165"/>
  <entry in="00:00:00.000" out="00:00:04.958" producer="producer166"/>
  <entry in="00:00:00.000" out="00:00:04.958" producer="producer167"/>
  <entry in="00:00:00.000" out="00:00:04.958" producer="producer168"/>
  <entry in="00:00:00.000" out="00:00:04.958" producer="producer169"/>
  <entry in="00:00:00.000" out="00:00:04.958" producer="producer170"/>
  <entry in="00:00:00.000" out="00:00:04.958" producer="producer171"/>
  <entry in="00:00:00.000" out="00:00:04.958" producer="producer172"/>
  <entry in="00:00:00.000" out="00:00:04.958" producer="producer173"/>
  <entry in="00:00:00.000" out="00:00:04.958" producer="producer174"/>
  <entry in="00:00:00.000" out="00:00:04.958" producer="producer175"/>
  <entry in="00:00:00.000" out="00:00:04.958" producer="producer176"/>
  <entry in="00:00:00.000" out="00:00:04.958" producer="producer177"/>
  <entry in="00:00:00.000" out="00:00:04.958" producer="producer178"/>
  <entry in="00:00:00.000" out="00:00:04.958" producer="producer179"/>
  <entry in="00:00:00.000" out="00:00:04.958" producer="producer180"/>
  <entry in="00:00:00.000" out="00:00:04.958" producer="producer181"/>
  <entry in="00:00:00.000" out="00:00:04.958" producer="producer182"/>
  <entry in="00:00:00.000" out="00:00:04.958" producer="producer183"/>
  <entry in="00:00:00.000" out="00:00:04.958" producer="producer184"/>
  <entry in="00:00:00.000" out="00:00:04.958" producer="producer185"/>
  <entry in="00:00:00.000" out="00:00:04.958" producer="producer186"/>
  <entry in="00:00:00.000" out="00:00:04.958" producer="producer187"/>
  <entry in="00:00:00.000" out="00:00:04.958" producer="producer188"/>
  <entry in="00:00:00.000" out="00:00:04.958" producer="producer189"/>
  <entry in="00:00:00.000" out="00:00:04.958" producer="producer190"/>
  <entry in="00:00:00.000" out="00:00:04.958" producer="producer191"/>
  <entry in="00:00:00.000" out="00:00:04.958" producer="producer192"/>
  <entry in="00:00:00.000" out="00:00:04.958" producer="producer193"/>
  <entry in="00:00:00.000" out="00:00:04.958" producer="producer194"/>
  <entry in="00:00:00.000" out="00:00:04.958" producer="producer195"/>
  <entry in="00:00:00.000" out="00:00:04.958" producer="producer196"/>
  <entry in="00:00:00.000" out="00:00:04.958" producer="producer197"/>
  <entry in="00:00:00.000" out="00:00:04.958" producer="producer198"/>
  <entry in="00:00:00.000" out="00:00:04.958" producer="producer199"/>
  <entry in="00:00:00.000" out="00:00:04.958" producer="producer200"/>
  <entry in="00:00:00.000" out="00:00:04.958" producer="producer201"/>
  <entry in="00:00:00.000" out="00:00:04.958" producer="producer202"/>
  <entry in="00:00:00.000" out="00:00:04.958" producer="producer203"/>
  <entry in="00:00:00.000" out="00:00:04.958" producer="producer204"/>
  <entry in="00:00:00.000" out="00:00:04.958" producer="producer205"/>
  <entry in="00:00:00.000" out="00:00:04.958" producer="producer206"/>
  <entry in="00:00:00.000" out="00:00:04.958" producer="producer207"/>
  <entry in="00:00:00.000" out="00:00:04.958" producer="producer208"/>
  <entry in="00:00:00.000" out="00:00:04.958" producer="producer209"/>
  <entry in="00:00:00.000" out="00:00:04.958" producer="producer210"/>
  <entry in="00:00:00.000" out="00:00:04.958" producer="producer211"/>
  <entry in="00:00:00.000" out="00:00:04.958" producer="producer212"/>
  <entry in="00:00:00.000" out="00:00:04.958" producer="producer213"/>
  <entry in="00:00:00.000" out="00:00:04.958" producer="producer214"/>
  <entry in="00:00:00.000" out="00:00:04.958" producer="producer215"/>
  <entry in="00:00:00.000" out="00:00:04.958" producer="producer216"/>
  <entry in="00:00:00.000" out="00:00:04.958" producer="producer217"/>
  <entry in="00:00:00.000" out="00:00:04.958" producer="producer218"/>
  <entry in="00:00:00.000" out="00:00:04.958" producer="producer219"/>
  <entry in="00:00:00.000" out="00:00:04.958" producer="producer220"/>
  <entry in="00:00:00.000" out="00:00:04.958" producer="producer221"/>
  <entry in="00:00:00.000" out="00:00:04.958" producer="producer222"/>
  <entry in="00:00:00.000" out="00:00:04.958" producer="producer223"/>
  <entry in="00:00:00.000" out="00:00:04.958" producer="producer224"/>
  <entry in="00:00:00.000" out="00:00:04.958" producer="producer225"/>
  <entry in="00:00:00.000" out="00:00:04.958" producer="producer226"/>
  <entry in="00:00:00.000" out="00:00:04.958" producer="producer227"/>
  <entry in="00:00:00.000" out="00:00:04.958" producer="producer228"/>
  <entry in="00:00:00.000" out="00:00:04.958" producer="producer229"/>
  <entry in="00:00:00.000" out="00:00:04.958" producer="producer230"/>
  <entry in="00:00:00.000" out="00:00:04.958" producer="producer231"/>
  <entry in="00:00:00.000" out="00:00:04.958" producer="producer232"/>
  <entry in="00:00:00.000" out="00:00:04.958" producer="producer233"/>
  <entry in="00:00:00.000" out="00:00:04.958" producer="producer234"/>
  <entry in="00:00:00.000" out="00:00:04.958" producer="producer235"/>
  <entry in="00:00:00.000" out="00:00:04.958" producer="producer236"/>
  <entry in="00:00:00.000" out="00:00:04.958" producer="producer237"/>
  <entry in="00:00:00.000" out="00:00:04.958" producer="producer238"/>
  <entry in="00:00:00.000" out="00:00:04.958" producer="producer239"/>
  <entry in="00:00:00.000" out="00:00:04.958" producer="producer240"/>
  <entry in="00:00:00.000" out="00:00:04.958" producer="producer241"/>
  <entry in="00:00:00.000" out="00:00:04.958" producer="producer242"/>
  <entry in="00:00:00.000" out="00:00:04.958" producer="producer243"/>
  <entry in="00:00:00.000" out="00:00:04.958" producer="producer244"/>
  <entry in="00:00:00.000" out="00:00:04.958" producer="producer245"/>
  <entry in="00:00:00.000" out="00:00:04.958" producer="producer246"/>
  <entry in="00:00:00.000" out="00:00:04.958" producer="producer247"/>
  <entry in="00:00:00.000" out="00:00:04.958" producer="producer248"/>
  <entry in="00:00:00.000" out="00:00:04.958" producer="producer249"/>
  <entry in="00:00:00.000" out="00:00:04.958" producer="producer250"/>
  <entry in="00:00:00.000" out="00:00:04.958" producer="producer251"/>
  <entry in="00:00:00.000" out="00:00:04.958" producer="producer252"/>
  <entry in="00:00:00.000" out="00:00:04.958" producer="producer253"/>
  <entry in="00:00:00.000" out="00:00:04.958" producer="producer254"/>
  <entry in="00:00:00.000" out="00:00:10.375" producer="chain13"/>
 </playlist>
 <tractor id="tractor8" in="00:00:00.000" out="00:00:21.458">
  <property name="kdenlive:projectTractor">1</property>
  <track in="00:00:00.000" out="00:00:21.458" producer="tractor7"/>
 </tractor>
</mlt>
