<?xml version="1.0" encoding="UTF-8" standalone="no"?>
<svg
   viewBox="0 0 32 32"
   version="1.1"
   id="svg1"
   sodipodi:docname="system-suspend-hibernate.svg"
   width="32"
   height="32"
   inkscape:version="1.3.2 (091e20ef0f, 2023-11-25)"
   xmlns:inkscape="http://www.inkscape.org/namespaces/inkscape"
   xmlns:sodipodi="http://sodipodi.sourceforge.net/DTD/sodipodi-0.dtd"
   xmlns="http://www.w3.org/2000/svg"
   xmlns:svg="http://www.w3.org/2000/svg">
  <defs
     id="defs1" />
  <sodipodi:namedview
     id="namedview1"
     pagecolor="#ffffff"
     bordercolor="#999999"
     borderopacity="1"
     inkscape:showpageshadow="2"
     inkscape:pageopacity="0"
     inkscape:pagecheckerboard="0"
     inkscape:deskcolor="#d1d1d1"
     inkscape:zoom="11.90625"
     inkscape:cx="15.874016"
     inkscape:cy="22.845144"
     inkscape:window-width="1920"
     inkscape:window-height="994"
     inkscape:window-x="0"
     inkscape:window-y="0"
     inkscape:window-maximized="1"
     inkscape:current-layer="svg1"
     showguides="true" />
  <style
     type="text/css"
     id="current-color-scheme">.ColorScheme-Text {color:#fcfcfc;}</style>
  <g
     id="system-suspend-hibernate">
    <path
       id="path938-2"
       overflow="visible"
       d="M 16,0 C 7.17237,0 0,7.17237 0,16 0,24.82763 7.17237,32 16,32 24.82763,32 32,24.82763 32,16 32,7.17237 24.82763,0 16,0 Z"
       inkscape:connector-curvature="0"
       style="color:#000000;overflow:visible;opacity:0;fill:#d1d5e9;fill-opacity:1;stroke-width:1.06667" />
    <path
       d="M 16,28 A 12.000001,12.000001 0 1 1 28.000001,16 12.01329,12.01329 0 0 1 16,28 Z M 16,5.20809 A 10.791906,10.791906 0 1 0 26.791907,16 10.803987,10.803987 0 0 0 16,5.20809 Z"
       id="path2592"
       style="color:#e5e9ef;fill:currentColor;fill-opacity:1;stroke-width:1.20809"
       class="ColorScheme-Text" />
    <path
       d="m 16.571479,8.571435 v 4.57144 c 0,0.20411 -0.108941,0.39279 -0.285722,0.49487 -0.176796,0.10211 -0.394642,0.10211 -0.571425,0 -0.176788,-0.10208 -0.285736,-0.29077 -0.285736,-0.49487 v -4.57144 c 0,-0.20423 0.108948,-0.39296 0.285736,-0.49495 0.176789,-0.10198 0.394637,-0.10198 0.571425,0 0.176781,0.10199 0.285722,0.29072 0.285722,0.49495 z m -0.571435,9.71429 c -0.151526,0 -0.296939,0.06 -0.404089,0.16736 -0.107149,0.10717 -0.167359,0.25254 -0.167359,0.40404 v 4.57143 c 0,0.20428 0.108948,0.39296 0.285736,0.49495 0.176789,0.10199 0.394637,0.10199 0.571425,0 0.176781,-0.10199 0.285722,-0.29067 0.285722,-0.49495 v -4.57143 c 0,-0.1515 -0.06013,-0.29687 -0.167358,-0.40404 -0.107139,-0.10712 -0.252546,-0.16736 -0.404077,-0.16736 z m 7.428605,-2.8572 h -4.571444 c -0.204219,0 -0.39286,0.10892 -0.494894,0.28585 -0.102047,0.17663 -0.102047,0.39462 0,0.57134 0.102033,0.17683 0.290683,0.28576 0.494894,0.28576 h 4.571444 c 0.204217,0 0.392859,-0.10893 0.494892,-0.28576 0.102049,-0.17673 0.102049,-0.39472 0,-0.57134 -0.102033,-0.17693 -0.290684,-0.28585 -0.494892,-0.28585 z m -9.714332,0.57147 c 0,-0.15148 -0.06013,-0.29686 -0.167351,-0.40398 -0.107139,-0.10718 -0.252557,-0.16749 -0.404088,-0.16749 H 8.5714355 c -0.204216,0 -0.392856,0.10892 -0.494886,0.28585 -0.102066,0.17663 -0.102066,0.39462 0,0.57134 0.10203,0.17683 0.290681,0.28576 0.494886,0.28576 h 4.5714415 c 0.151531,0 0.296949,-0.0598 0.404088,-0.16741 0.107152,-0.10711 0.167351,-0.25258 0.167352,-0.40407 z m -1.754369,-4.85132 c -0.14489,-0.14493 -0.356116,-0.2015 -0.554218,-0.14841 -0.197956,0.0535 -0.352685,0.20758 -0.405626,0.40553 -0.05308,0.19824 0.0038,0.40944 0.148472,0.55433 l 2.857163,2.85705 c 0.107787,0.107 0.25384,0.1666 0.405751,0.16595 0.151795,5.8e-4 0.297837,-0.0581 0.405622,-0.16595 0.108277,-0.10723 0.169126,-0.25315 0.169126,-0.40554 0,-0.15245 -0.0608,-0.29851 -0.169126,-0.40583 z m 6.063057,6.06317 c -0.144896,-0.14515 -0.356245,-0.20169 -0.554218,-0.14861 -0.197974,0.0537 -0.352688,0.20778 -0.405753,0.40573 -0.05309,0.19787 0.0041,0.40921 0.148599,0.55427 l 2.828591,2.82854 c 0.107774,0.10699 0.253819,0.16662 0.405617,0.16558 0.151905,7.5e-4 0.297953,-0.0579 0.40576,-0.16558 0.10816,-0.10731 0.168994,-0.25338 0.168994,-0.40584 0,-0.15229 -0.0608,-0.2983 -0.168994,-0.40554 z m -0.40575,-2.28587 c 0.151914,7.6e-4 0.297962,-0.0581 0.40575,-0.16571 l 2.828595,-2.85712 c 0.145015,-0.14503 0.201531,-0.35623 0.148468,-0.55428 -0.05293,-0.19793 -0.207656,-0.35277 -0.405621,-0.40563 -0.198081,-0.0537 -0.409311,0.005 -0.554224,0.14852 l -2.828584,2.85712 c -0.108293,0.1073 -0.16914,0.25338 -0.16914,0.40568 0,0.15231 0.0608,0.29845 0.16914,0.4057 0.102924,0.11752 0.249484,0.18778 0.405616,0.19432 z m -3.640189,2.28587 -2.857151,2.82854 h 1.32e-4 c -0.108166,0.10724 -0.169012,0.25325 -0.169012,0.40554 0,0.15245 0.0608,0.29852 0.169012,0.40584 0.107784,0.10699 0.25382,0.16662 0.405741,0.16559 0.151792,7.5e-4 0.297829,-0.0579 0.405622,-0.16559 l 2.857161,-2.82854 c 0.14502,-0.14505 0.20166,-0.35639 0.148597,-0.55427 -0.05313,-0.19796 -0.207781,-0.35273 -0.405739,-0.40572 -0.197977,-0.0537 -0.409311,0.005 -0.554232,0.1486 z"
       id="path2554"
       style="fill:#e5e9ef;fill-opacity:1;stroke-width:0.0326529" />
  </g>
</svg>
