<?xml version="1.0" encoding="UTF-8" standalone="no"?>
<svg
   viewBox="0 0 32 32"
   version="1.1"
   id="svg1"
   sodipodi:docname="system-reboot.svg"
   inkscape:version="1.3.2 (091e20ef0f, 2023-11-25)"
   width="32"
   height="32"
   xmlns:inkscape="http://www.inkscape.org/namespaces/inkscape"
   xmlns:sodipodi="http://sodipodi.sourceforge.net/DTD/sodipodi-0.dtd"
   xmlns="http://www.w3.org/2000/svg"
   xmlns:svg="http://www.w3.org/2000/svg">
  <sodipodi:namedview
     id="namedview1"
     pagecolor="#ffffff"
     bordercolor="#000000"
     borderopacity="0.25"
     inkscape:showpageshadow="2"
     inkscape:pageopacity="0.0"
     inkscape:pagecheckerboard="0"
     inkscape:deskcolor="#d1d1d1"
     inkscape:zoom="4.3579546"
     inkscape:cx="-4.3598435"
     inkscape:cy="18.816167"
     inkscape:window-width="1920"
     inkscape:window-height="994"
     inkscape:window-x="0"
     inkscape:window-y="0"
     inkscape:window-maximized="1"
     inkscape:current-layer="svg1"
     showgrid="false"
     showguides="true">
    <inkscape:grid
       id="grid1"
       units="px"
       originx="9"
       originy="-108"
       spacingx="1"
       spacingy="1"
       empcolor="#0099e5"
       empopacity="0.30196078"
       color="#0099e5"
       opacity="0.14902"
       empspacing="5"
       dotted="false"
       gridanglex="30"
       gridanglez="30"
       visible="false" />
  </sodipodi:namedview>
  <defs
     id="defs1">
    <style
       type="text/css"
       id="style1">.ColorScheme-Text {
        color:#d8dee9;
      }
      .ColorScheme-Highlight {
        color:#88c0d0;
      }</style>
    <linearGradient
       id="a-5"
       x1="16"
       x2="16"
       y1="1"
       y2="31"
       gradientUnits="userSpaceOnUse">
      <stop
         stop-color="#f4282c"
         offset="0"
         id="stop1009" />
      <stop
         stop-color="#fac136"
         offset="1"
         id="stop1011" />
    </linearGradient>
    <linearGradient
       id="linearGradient1120"
       x1="16"
       x2="16"
       y1="1"
       y2="31"
       gradientUnits="userSpaceOnUse">
      <stop
         stop-color="#ff791d"
         offset="0"
         id="stop1115"
         style="stop-color:#ff5555;stop-opacity:1" />
      <stop
         stop-color="#f8c430"
         offset="1"
         id="stop1117"
         style="stop-color:#ffb380;stop-opacity:1" />
    </linearGradient>
  </defs>
  <g
     id="system-reboot"
     transform="translate(75,179)">
    <path
       id="path34-6"
       d="m -75,-179 v 32 h 32 v -32 z"
       style="fill:none" />
    <path
       d="m -69.959318,-160.76785 a 10.98449,10.684851 0 0 0 16.755557,8.14991 11.126662,10.823144 0 0 0 5.203761,-9.08977 0.690154,0.6713277 0 0 0 -1.380308,0 9.6290279,9.3663634 0 0 1 -15.183387,7.65313 9.6193658,9.3569648 0 0 1 1.380308,-16.07158 13.906602,13.527252 0 0 1 6.404629,-0.92643 v 1.94685 a 0.69015395,0.67132765 0 0 0 1.118049,0.52363 l 3.409361,-2.61818 a 0.69015395,0.67132765 0 0 0 0,-1.06069 l -3.436967,-2.60475 a 0.69015395,0.67132765 0 0 0 -1.104246,0.53706 v 1.93342 c -0.980019,-0.0134 -1.97384,-0.0403 -2.940056,0.0268 a 11.021759,10.721103 0 0 0 -10.228081,11.60055 z"
       id="path7861"
       style="color:#e5e9ef;fill:currentColor;fill-opacity:1;stroke-width:1.36135"
       class="ColorScheme-Text" />
  </g>
</svg>
