<?xml version="1.0" encoding="UTF-8" standalone="no"?>
<svg
   viewBox="0 0 32 32"
   version="1.1"
   id="svg1"
   sodipodi:docname="system-suspend.svg"
   width="32"
   height="32"
   inkscape:version="1.3.2 (091e20ef0f, 2023-11-25)"
   xmlns:inkscape="http://www.inkscape.org/namespaces/inkscape"
   xmlns:sodipodi="http://sodipodi.sourceforge.net/DTD/sodipodi-0.dtd"
   xmlns="http://www.w3.org/2000/svg"
   xmlns:svg="http://www.w3.org/2000/svg">
  <defs
     id="defs1" />
  <sodipodi:namedview
     id="namedview1"
     pagecolor="#ffffff"
     bordercolor="#999999"
     borderopacity="1"
     inkscape:showpageshadow="2"
     inkscape:pageopacity="0"
     inkscape:pagecheckerboard="0"
     inkscape:deskcolor="#d1d1d1"
     inkscape:zoom="5.953125"
     inkscape:cx="16.125984"
     inkscape:cy="29.732283"
     inkscape:window-width="1920"
     inkscape:window-height="994"
     inkscape:window-x="0"
     inkscape:window-y="0"
     inkscape:window-maximized="1"
     inkscape:current-layer="svg1" />
  <style
     type="text/css"
     id="current-color-scheme">.ColorScheme-Text {color:#fcfcfc;}</style>
  <g
     id="system-suspend"
     transform="translate(-19,179)">
    <path
       id="path74-9"
       d="m 19,-179 v 32 h 32 v -32 z"
       style="fill:none" />
    <path
       d="m 35.000002,-151 a 12.000001,12.000001 0 1 1 12,-12 12.01329,12.01329 0 0 1 -12,12 z m 0,-22.7919 A 10.791906,10.791906 0 1 0 45.791908,-163 10.803987,10.803987 0 0 0 35.000002,-173.7919 Z"
       id="path2592-5"
       class="  ColorScheme-Text"
       style="color:#e5e9ef;fill:currentColor;fill-opacity:1" />
    <path
       d="m 29.233683,-160.66875 h 1.907984 l -2.506409,3.43839 c -0.158886,0.21809 -0.179425,0.50426 -0.05295,0.7423 0.125893,0.2376 0.377201,0.3872 0.6522,0.38806 h 3.330568 c 0.394148,-0.0161 0.705404,-0.33169 0.705404,-0.71585 0,-0.38415 -0.311256,-0.69981 -0.705404,-0.71585 h -1.906498 l 2.506354,-3.43838 v 4.4e-4 c 0.158588,-0.21853 0.179547,-0.50513 0.05215,-0.74273 -0.126835,-0.23804 -0.378043,-0.38763 -0.65293,-0.38763 H 29.23344 c -0.394051,0.0156 -0.705413,0.3317 -0.705413,0.71585 0,0.38415 0.311362,0.69981 0.705413,0.71541 z"
       id="path5336"
       style="color:#e5e9ef;fill:currentColor;fill-opacity:1"
       class="ColorScheme-Text" />
    <path
       d="m 35.640685,-168.71039 h 3.479387 l -4.001983,5.68849 c -0.138936,0.19717 -0.156649,0.45627 -0.04584,0.67108 0.110031,0.2148 0.329424,0.35004 0.569434,0.35082 h 4.723221 c 0.34415,-0.0145 0.616052,-0.29987 0.616052,-0.64716 0,-0.34729 -0.271902,-0.63266 -0.616052,-0.64677 H 36.88009 l 4.002022,-5.68418 v -4e-4 c 0.138485,-0.19714 0.156343,-0.45585 0.04624,-0.67067 -0.110569,-0.21518 -0.329767,-0.35043 -0.569337,-0.35082 h -4.717897 c -0.344118,0.0143 -0.616041,0.29948 -0.616041,0.64676 0,0.34731 0.271923,0.63266 0.616041,0.64717 z"
       id="path5338"
       style="color:#e5e9ef;fill:currentColor;fill-opacity:1"
       class="ColorScheme-Text" />
  </g>
</svg>
