<?xml version="1.0" encoding="UTF-8" standalone="no"?>
<svg
   viewBox="0 0 32 32"
   version="1.1"
   id="svg1"
   sodipodi:docname="system-switch-user.svg"
   width="32"
   height="32"
   inkscape:version="1.3.2 (091e20ef0f, 2023-11-25)"
   xmlns:inkscape="http://www.inkscape.org/namespaces/inkscape"
   xmlns:sodipodi="http://sodipodi.sourceforge.net/DTD/sodipodi-0.dtd"
   xmlns="http://www.w3.org/2000/svg"
   xmlns:svg="http://www.w3.org/2000/svg">
  <sodipodi:namedview
     id="namedview1"
     pagecolor="#ffffff"
     bordercolor="#999999"
     borderopacity="1"
     inkscape:showpageshadow="2"
     inkscape:pageopacity="0"
     inkscape:pagecheckerboard="0"
     inkscape:deskcolor="#d1d1d1"
     inkscape:zoom="8.4189901"
     inkscape:cx="16.153957"
     inkscape:cy="25.893842"
     inkscape:window-width="1920"
     inkscape:window-height="994"
     inkscape:window-x="0"
     inkscape:window-y="0"
     inkscape:window-maximized="1"
     inkscape:current-layer="svg1" />
  <defs
     id="defs3051">
    <style
       type="text/css"
       id="current-color-scheme">
      .ColorScheme-Text {
        color:#fcfcfc;
      }
      </style>
  </defs>
  <g
     id="system-switch-user"
     transform="translate(-161,179)">
    <circle
       style="opacity:0;fill:#d1d5e9;fill-opacity:1;stroke-width:1.06667"
       id="circle955-8"
       r="16"
       cy="163"
       cx="177"
       transform="scale(1,-1)" />
    <path
       d="m 185.86607,-165.16082 a 0.4089071,0.43715484 0 0 0 0.12403,-0.29881 c 0,-0.0144 0,-0.0269 0.007,-0.0413 0.007,-0.0144 0,-0.026 -0.007,-0.0394 a 0.41070449,0.43907636 0 0 0 -0.12403,-0.29977 l -3.29732,-3.52509 a 0.44934847,0.4803899 0 0 0 -0.63538,0.67926 l 2.52983,2.70557 h -9.6538 a 0.44935073,0.48039232 0 0 0 0,0.96078 h 9.6538 l -2.52983,2.70555 a 0.44934847,0.4803899 0 0 0 0.63538,0.67928 z"
       id="path3089-3"
       style="color:#e5e9ef;fill:currentColor;fill-opacity:1"
       class="ColorScheme-Text" />
    <path
       d="m 168.13107,-160.83914 a 0.40891399,0.43716221 0 0 0 -0.12401,0.29881 c 0,0.0144 0,0.0269 -0.005,0.0413 -0.005,0.0144 0,0.026 0.005,0.0394 a 0.4107114,0.43908376 0 0 0 0.12401,0.29978 l 3.29739,3.52515 a 0.44935606,0.48039803 0 0 0 0.63537,-0.67928 l -2.52986,-2.70561 h 9.65395 a 0.44935927,0.48040148 0 0 0 0,-0.9608 h -9.65395 l 2.52986,-2.7056 a 0.44935606,0.48039803 0 0 0 -0.63537,-0.67929 z"
       id="path3089-3-5"
       style="color:#e5e9ef;fill:currentColor;fill-opacity:1"
       class="ColorScheme-Text" />
    <path
       d="m 177,-151 a 12.000001,12.000001 0 1 1 12,-12 12.01329,12.01329 0 0 1 -12,12 z m 0,-22.7919 A 10.791906,10.791906 0 1 0 187.79191,-163 10.803987,10.803987 0 0 0 177,-173.7919 Z"
       id="path2592-6"
       style="color:#e5e9ef;fill:currentColor;fill-opacity:1"
       class="ColorScheme-Text" />
  </g>
</svg>
