<?xml version="1.0" encoding="UTF-8"?>
<svg enable-background="new 0 0 501.677 560.37" version="1.1" viewBox="0 0 512 512" xmlns="http://www.w3.org/2000/svg">
 <rect width="512" height="512" rx="35.84" ry="35.84" fill="#1f1f1f" stroke-miterlimit="10" stroke-width="5.12" style="paint-order:stroke fill markers"/>
 <path d="m363.42 305.57c-1.5126.68214 27.583-30.11 27.583-84.193 0-54.083-41.73-136.8-136.54-136.8-94.807 0-138.43 78.838-138.43 140.94v188.9h82.463v-67.277c-1.3636 0 23.478 12.938 55.455 12.938 31.976 0 41.84-7.2468 41.84-7.2468l51.825 61.588 61.983-52.961zm-109.81-31.75c-28.526 0-51.656-23.172-51.656-51.753 0-28.585 23.128-51.758 51.656-51.758 28.527 0 51.656 23.172 51.656 51.758 0 28.581-23.127 51.753-51.656 51.753z" clip-rule="evenodd" fill="#fff" fill-rule="evenodd" stroke-width=".58865"/>
 <path d="m254.57 104.37c-58.199 0-118.74 45.731-118.74 115.79 0 70.067-.17398 174.47-.17398 174.47h43.054v-80.072c.20977 0 22.839 27.268 78.966 27.268 56.131 0 115.64-48.582 115.64-119.59 2e-5-71.014-60.201-117.87-118.4-117.87zm-.43044 192.59c-40.344 0-73.329-33.033-73.329-73.779 0-40.744 32.986-73.774 73.677-73.774s73.677 33.033 73.677 73.774c.0835 40.744-32.903 73.779-73.595 73.779z" clip-rule="evenodd" fill="#202020" fill-rule="evenodd" stroke-width=".58865"/>
</svg>
