<svg height="635.00043" viewBox="0 0 380.00266 635.00043" width="380.00266" xmlns="http://www.w3.org/2000/svg" xmlns:xlink="http://www.w3.org/1999/xlink"><linearGradient id="a"><stop offset="0" stop-color="#00a7ff" stop-opacity=".976471"/><stop offset="1" stop-color="#339" stop-opacity=".784"/></linearGradient><linearGradient id="b" gradientTransform="matrix(1.0357277 0 0 .5263158 97.25087 226.6579)" gradientUnits="userSpaceOnUse" x1="-24.863001" x2="-24.863001" xlink:href="#c" y1="1080.8" y2="1072.25"/><linearGradient id="c"><stop offset="0"/><stop offset="1" stop-opacity="0"/></linearGradient><radialGradient id="d" cx="-24.705" cy="1133.2469" fx="-24.686001" fy="1133.543" gradientTransform="matrix(-.00000145 1.7989906 -2.4827569 -.00001325 2937.5806 423.97281)" gradientUnits="userSpaceOnUse" r="3.625" xlink:href="#e"/><linearGradient id="e"><stop offset="0"/><stop offset=".488"/><stop offset="1" stop-opacity="0"/></linearGradient><radialGradient id="f" cx="-75.382004" cy="1132.228" fx="-75.843002" fy="1132.274" gradientTransform="matrix(-3.5863106 .00002291 .00000343 -2.0702316 -192.34372 2723.4714)" gradientUnits="userSpaceOnUse" r="3.625" xlink:href="#e"/><radialGradient id="g" cx="-24.531" cy="1084.0439" gradientTransform="matrix(1.9696085 -.00000288 -.00000023 3.0094402 174.8192 -2935.8658)" gradientUnits="userSpaceOnUse" r="3.625" xlink:href="#e"/><radialGradient id="h" cx="-73.334999" cy="1084.806" gradientTransform="matrix(.00019936 -3.8621156 2.8413414 .00000079 -3008.3522 45.772152)" gradientUnits="userSpaceOnUse" r="3.625" xlink:href="#i"/><linearGradient id="i"><stop offset="0"/><stop offset=".714"/><stop offset="1" stop-opacity="0"/></linearGradient><linearGradient id="j" gradientTransform="matrix(1.0357277 0 0 .68966345 149.75305 -404.49213)" gradientUnits="userSpaceOnUse" x1="-73.000999" x2="-73.015999" xlink:href="#c" y1="1137.5" y2="1145.25"/><linearGradient id="k" gradientTransform="matrix(.68967448 0 0 1.1538462 141.796 -929.0386)" gradientUnits="userSpaceOnUse" x1="-21.450001" x2="-12.75" xlink:href="#c" y1="1084.234" y2="1084.234"/><linearGradient id="l" gradientTransform="matrix(.68963586 0 0 1.1538462 123.79411 -929.0386)" gradientUnits="userSpaceOnUse" x1="-70.75" x2="-85.25" xlink:href="#c" y1="1084.234" y2="1084.234"/><radialGradient id="m" cx="-24.990999" cy="1133.449" fx="-25.268" fy="1133.64" gradientTransform="matrix(.00000858 1.7989906 -2.6207253 -.00000003 3041.4588 985.95773)" gradientUnits="userSpaceOnUse" r="3.625" xlink:href="#e"/><radialGradient id="n" cx="-75.382004" cy="1132.228" fx="-75.843002" fy="1132.274" gradientTransform="matrix(-3.5863106 -.0002111 .00012826 -1.9323222 -244.98724 3129.3088)" gradientUnits="userSpaceOnUse" r="3.625" xlink:href="#e"/><radialGradient id="o" cx="-24.531" cy="1083.8781" gradientTransform="matrix(2.0689655 .00000439 -.00001125 3.0094402 124.76629 -2373.8657)" gradientUnits="userSpaceOnUse" r="3.625" xlink:href="#e"/><radialGradient id="p" cx="-73.205002" cy="1084.653" gradientTransform="matrix(.00019936 -3.8621156 2.8413414 .00000079 -3060.8544 607.77205)" gradientUnits="userSpaceOnUse" r="3.625" xlink:href="#i"/><linearGradient id="q" gradientTransform="matrix(1.0357277 0 0 .68966345 97.25086 157.50777)" gradientUnits="userSpaceOnUse" x1="-73.138" x2="-73.138" xlink:href="#c" y1="1136.775" y2="1144.75"/><linearGradient id="r" gradientTransform="matrix(.68967448 0 0 1.1538462 89.29381 -367.03866)" gradientUnits="userSpaceOnUse" x1="-22.174999" x2="-12.75" xlink:href="#c" y1="1084.234" y2="1084.234"/><linearGradient id="s" gradientTransform="matrix(.68963586 0 0 1.1538462 71.291918 -367.03866)" gradientUnits="userSpaceOnUse" x1="-70.75" x2="-85.25" xlink:href="#c" y1="1084.234" y2="1084.234"/><linearGradient id="t" gradientTransform="matrix(1.0357277 0 0 .63157896 97.25087 199.78948)" gradientUnits="userSpaceOnUse" x1="-24.863001" x2="-24.863001" xlink:href="#c" y1="1080.8" y2="1072.25"/><linearGradient id="u" gradientUnits="userSpaceOnUse" x1="36.952801" x2="36.830433" xlink:href="#a" y1="221.764502" y2="238.331732"/><linearGradient id="v" gradientUnits="userSpaceOnUse" x1="48.791169" x2="48.749619" xlink:href="#a" y1="222.249392" y2="238.412552"/><filter id="w" color-interpolation-filters="sRGB" height="1.192" width="1.192" x="-.096" y="-.096"><feGaussianBlur stdDeviation="1.92"/></filter><linearGradient id="x" gradientUnits="userSpaceOnUse" x1="120.002644" x2="135.458684" xlink:href="#a" y1="487.000002" y2="486.698522"/><linearGradient id="y" gradientUnits="userSpaceOnUse" x1="120.002644" x2="135.910894" xlink:href="#a" y1="493.000002" y2="492.547792"/><linearGradient id="z" gradientUnits="userSpaceOnUse" x1="120.002644" x2="136.061634" xlink:href="#a" y1="499.000002" y2="498.849272"/><linearGradient id="A" gradientUnits="userSpaceOnUse" x1="120.083474" x2="136.374024" xlink:href="#a" y1="487.000002" y2="487.000002"/><linearGradient id="B" gradientUnits="userSpaceOnUse" x1="120.083474" x2="135.771074" xlink:href="#a" y1="493.301482" y2="493.150732"/><linearGradient id="C" gradientUnits="userSpaceOnUse" x1="120.234214" x2="135.771074" xlink:href="#a" y1="498.849272" y2="498.698522"/><linearGradient id="D" gradientUnits="userSpaceOnUse" x1="120.395864" x2="136.002644" xlink:href="#a" y1="487.150732" y2="487.000002"/><linearGradient id="E" gradientUnits="userSpaceOnUse" x1="120.019024" x2="136.002644" xlink:href="#a" y1="492.773902" y2="493.000002"/><linearGradient id="F" gradientUnits="userSpaceOnUse" x1="119.868284" x2="136.002644" xlink:href="#a" y1="499.226102" y2="499.000002"/><linearGradient id="G" gradientUnits="userSpaceOnUse" x1="145.002644" x2="160.910894" xlink:href="#a" y1="487.000002" y2="486.924622"/><linearGradient id="H" gradientUnits="userSpaceOnUse" x1="145.002644" x2="161.061634" xlink:href="#a" y1="493.000002" y2="492.623172"/><linearGradient id="I" gradientUnits="userSpaceOnUse" x1="145.002644" x2="160.910894" xlink:href="#a" y1="499.000002" y2="499.075382"/><linearGradient id="J" gradientUnits="userSpaceOnUse" x1="145.158834" x2="160.771074" xlink:href="#a" y1="487.075382" y2="487.075382"/><linearGradient id="K" gradientUnits="userSpaceOnUse" x1="145.234214" x2="160.771074" xlink:href="#a" y1="493.000002" y2="493.376832"/><linearGradient id="L" gradientUnits="userSpaceOnUse" x1="145.008104" x2="160.997184" xlink:href="#a" y1="498.849272" y2="498.924622"/><linearGradient id="M" gradientUnits="userSpaceOnUse" x1="145.094394" x2="161.002644" xlink:href="#a" y1="487.150732" y2="487.000002"/><linearGradient id="N" gradientUnits="userSpaceOnUse" x1="144.943654" x2="161.002644" xlink:href="#a" y1="493.150732" y2="493.000002"/><linearGradient id="O" gradientUnits="userSpaceOnUse" x1="144.792914" x2="161.002644" xlink:href="#a" y1="499.301482" y2="499.000002"/><linearGradient id="P" gradientUnits="userSpaceOnUse" x1="70.002644" x2="94.588849" xlink:href="#a" y1="470.000002" y2="468.575322"/><linearGradient id="Q" gradientUnits="userSpaceOnUse" x1="230.002644" x2="245.002644" xlink:href="#a" y1="217.500002" y2="217.500002"/><g transform="translate(.002644 45.000002)"><g fill-rule="evenodd"><path d="m115 524.99992h5v48h-5z" fill="#10121c" fill-opacity=".8"/><path d="m120 519.99992-4.9989.0003-.001 5h5z" fill="#10121c" fill-opacity=".8"/><path d="m168 519.99992v5h-48v-5z" fill="#10121c" opacity=".8"/><path d="m173 524.99992-.0003-4.9989-5-.001v5z" fill="#10121c" opacity=".8"/><path d="m172.99985 524.99992h-5v48l5-.0003z" fill="#10121c" opacity=".8"/><path d="m167.9998 577.99992 4.9989-.0003.001-5h-5z" fill="#10121c" fill-opacity=".8"/><path d="m120.00075 577.99992.0003-5h48l-.0003 5z" fill="#10121c" fill-opacity=".8"/><path d="m115.0005 572.99992.0003 4.9989 5 .001v-5z" fill="#10121c" fill-opacity=".8"/><path d="m120 525h48v48h-48z" fill="#10121c" opacity=".8"/><g transform="translate(172.49994 -356.99994)"><path d="m17.5005 877-.00015 2.0003h58l.00015-2.0003z" fill="url(#t)" opacity=".3"/><path d="m17.5 879v3h58v-3z" fill="#10121c" opacity=".8"/></g></g><use height="100%" transform="matrix(1 0 0 .8 119.5078 268.00038)" width="100%" xlink:href="#Z"/><g fill-rule="evenodd" transform="translate(172.49994 -356.99994)"><path d="m12.5005 882v60l1.99985.0003v-60z" fill="url(#s)" opacity=".4"/><path d="m14.5 882v60h3v-60z" fill="#10121c" opacity=".8"/></g><use height="100%" transform="matrix(.4 0 0 1 158.99912 207.50036)" width="100%" xlink:href="#Y"/><g fill-rule="evenodd" transform="translate(172.49994 -356.99994)"><path d="m77.50035 882.0003v60l2.99995-.0003v-60z" fill="url(#r)" opacity=".48"/><path d="m75.5003 882v60h2v-60z" fill="#10121c"/></g><use height="100%" transform="matrix(.6 0 0 1 173.19868 207.50036)" width="100%" xlink:href="#X"/><g fill-rule="evenodd" transform="translate(172.49994 -356.99994)"><path d="m17.50035 944.0003.00015 2.9997h58l-.00015-2.9997z" fill="url(#q)" opacity=".58"/><path d="m17.5 942v2h58v-2z" fill="#10121c"/></g><use height="100%" transform="matrix(1 0 0 .6 118.24781 359.0004)" width="100%" xlink:href="#W"/><g fill-rule="evenodd" transform="translate(172.49994 -356.99994)"><path d="m12.50035 877 .0001 5 1.9999.0003-.00035-3.0003 3.00035.0003.000095-2.0004z" fill="url(#p)" opacity=".28"/><path d="m14.5 879 .00006 3 3-.00006v-3z" fill="#10121c" opacity=".8"/></g><g fill-rule="evenodd" transform="translate(172.49994 -356.99994)"><path d="m75.5005 877-.00015 2.0003h2v3l3.00015-.0003.0001-5z" fill="url(#o)" opacity=".43"/><path d="m75.5005 879v3h2v-3z" fill="#10121c"/></g><g fill-rule="evenodd" transform="translate(172.49994 -356.99994)"><path d="m12.50045 942v5h5l-.0001-2.9997h-3v-2z" fill="url(#n)" opacity=".48"/><path d="m14.5 942v2h3l-.0003-2z" fill="#10121c"/></g><g fill-rule="evenodd" transform="translate(172.49994 -356.99994)"><path d="m77.5006 944-2.00025.0003.0004 2.9997h5v-5l-3.0004.0003z" fill="url(#m)" opacity=".48"/><path d="m75.5005 942 .0001 2h2v-2z" fill="#10121c"/></g></g><g transform="translate(-324.997356 492.500002)"><path d="m375 87.5h25v25h-25z" fill="#fff" opacity=".001"/><path d="m400 95-17.5 17.5h17.5z" opacity="0" stroke-width=".935"/></g><g transform="translate(-298.166816 587.500002)"><path d="m378.62646-7.5h25v25h-25z" fill="#fff" opacity=".001"/><path d="m400.44511-4.318634c-7.27286 7.272869-14.54575 14.545754-21.81863 21.818634h25v-25c-1.06047 1.060474-2.12095 2.120948-3.18142 3.181422z" opacity="0" stroke-width=".931859"/></g><path d="m.002644 565.000002h40v40h-40z" fill="#161925"/><g transform="translate(.002644 45.000002)"><path d="m85 505h10v10h-10z" fill="none"/><path d="m70 505h10v10h-10z" fill="none"/><path d="m55 505h10v10h-10z" fill="none"/><use height="100%" transform="translate(14.999998)" width="100%" xlink:href="#R"/><g id="R" transform="matrix(1.1428571 0 0 1 -244.2857 -574)"><path d="m275 1039h7v32h-7z" fill="none"/><path d="m277.625 1039h1.75v32h-1.75z" fill="#fff" opacity=".12"/></g><g transform="matrix(1.1428571 0 0 1 -259.2857 -574)"><path d="m275 1039h7v32h-7z" fill="none"/><path d="m277.625 1039h1.75v32h-1.75z" fill="#fff" opacity=".1"/></g></g><path d="m610.00043-369.02874h40v1.00005h-40z" fill="#0c0e15" transform="matrix(1 0 0 -1 -608.997786 141.971312)"/><path d="m1-506.00006h40v40h-40z" fill="#002700" opacity=".001" transform="matrix(1 0 0 -1 .002644 45.000002)"/><path d="m609.00043 368.02864c-1.10167 0-.99779-.10151-.99779 1.00012h.99736z" fill="#0c0e15" transform="translate(-607.997786 141.971362)"/><path d="m650.99998 368.03139c1.10161 0 .99736-.10427.99736.99736h-.99736z" fill="#0c0e15" transform="translate(-609.994696 141.971302)"/><path d="m-410.02869-608.99998h40v.99998h-40z" fill="#0c0e15" transform="matrix(0 -1 -1 0 -607.997356 140.971362)"/><path d="m370.02878 651.00002h40v1.00004h-40z" fill="#0c0e15" transform="matrix(0 1 1 0 -609.997376 140.971272)"/><path d="m610.00043 411.02889h40v.99986h-40z" fill="#0c0e15" transform="translate(-608.997786 139.971162)"/><path d="m609 412.02609c-1.10167 0-.99736.10447-.99736-.99735h.99736z" fill="#0c0e15" transform="translate(-607.999996 139.971312)"/><path d="m650.99998 412.02609c1.10161 0 .99736.10447.99736-.99735h-.99736z" fill="#0c0e15" transform="translate(-609.997336 139.971312)"/><g transform="translate(.002644 45.000002)"><path d="m300 445.00043h30v30h-30z" fill="#161925" fill-opacity=".6" opacity=".8"/><g fill="#0c0e15"><path d="m340 445.00043h5v30h-5z"/><path d="m-445.00043 345h5v30h-5z" transform="rotate(-90)"/><path d="m340 440.00043h5v5h-5z"/><path d="m375 440.00043h5v5h-5z"/><path d="m375 445.00043h5v30h-5z"/><path d="m-480.00043 345h5v30h-5z" transform="rotate(-90)"/><path d="m375 475.00043h5v5h-5z"/><path d="m340 475.00043h5v5h-5z"/><path d="m295 445.00043h5v30h-5z"/><path d="m295 440.00043h5v5h-5z"/><path d="m440.00043-330h5v30h-5z" transform="rotate(90)"/><path d="m330 440.00043h5v5h-5z"/><path d="m330 445.00043h5v30h-5z"/><path d="m330 475.00043h5v5h-5z"/><path d="m-480.00043 300h5v30h-5z" transform="rotate(-90)"/><path d="m295 475.00043h5v5h-5z"/></g><path d="m345 445.00043h30v30h-30z" fill="#151926" fill-opacity=".478431" opacity=".8"/></g><g transform="translate(151.002644 56.970003)"><path d="m54 428.03h16v16h-16z" opacity=".001"/><path d="m65.002415 432.02406a1 1 0 0 0 -.70703.29297l-2.29297 2.29297-2.2832-2.2832a1 1 0 0 0 -.01-.01 1 1 0 0 0 -.70117-.28906l-.01.0137a1 1 0 0 0 -1 1 1 1 0 0 0 .29297.70703l2.29297 2.29297-2.29297 2.29297a1 1 0 0 0 -.28906.69922 1 1 0 0 0 1 1 1 1 0 0 0 .70703-.29297l2.29297-2.29297 2.2832 2.2832a1 1 0 0 0 .7168.30274 1 1 0 0 0 1-1 1 1 0 0 0 -.29297-.70703l-2.30078-2.29883 2.2832-2.2832a1 1 0 0 0 .31055-.72071 1 1 0 0 0 -1-1z" fill="#aaaaac"/></g><path d="m221.002644 485.999993h16v16h-16z" opacity=".001"/><path d="m225.002644 492.999993h8v2h-8z" fill="#aaaaac"/><g transform="translate(147.002644 57.969993)"><path d="m90 428.03h16v16h-16z" opacity=".001"/><path d="m97 432.03v2.9993l-3 .0007v2l3-.0007v3.0007h2v-3.0007l3 .0007v-2l-3-.0007v-2.9993z" fill="#aaaaac"/></g><g transform="translate(145.002644 57.969993)"><path d="m108 428.03h16v16h-16z" opacity=".001"/><path d="m116 432.0293a4 4 0 0 0 -4 4 4 4 0 0 0 4 4 4 4 0 0 0 4-4 4 4 0 0 0 -4-4zm0 2a2 2 0 0 1 2 2 2 2 0 0 1 -2 2 2 2 0 0 1 -2-2 2 2 0 0 1 2-2z" fill="#aaaaac"/></g><g transform="translate(151.002644 72.970003)"><path d="m54 428.03h16v16h-16z" opacity=".001"/><path d="m65.002415 432.02406a1 1 0 0 0 -.70703.29297l-2.29297 2.29297-2.2832-2.2832a1 1 0 0 0 -.01-.01 1 1 0 0 0 -.70117-.28906l-.01.0137a1 1 0 0 0 -1 1 1 1 0 0 0 .29297.70703l2.29297 2.29297-2.29297 2.29297a1 1 0 0 0 -.28906.69922 1 1 0 0 0 1 1 1 1 0 0 0 .70703-.29297l2.29297-2.29297 2.2832 2.2832a1 1 0 0 0 .7168.30274 1 1 0 0 0 1-1 1 1 0 0 0 -.29297-.70703l-2.30078-2.29883 2.2832-2.2832a1 1 0 0 0 .31055-.72071 1 1 0 0 0 -1-1z" fill="#da4453"/></g><path d="m221.002644 501.000003h16v16h-16z" opacity=".001"/><path d="m225.002644 508.000003h8v2h-8z" fill="#c8c8ca"/><g transform="translate(147.002644 72.970003)"><path d="m90 428.03h16v16h-16z" opacity=".001"/><path d="m97 432.03001v2.99929l-3 .00071v2l3-.00071v3.00071h2v-3.00071l3 .00071v-2l-3-.00071v-2.99929z" fill="#c8c8ca"/></g><g transform="translate(145.002644 72.970003)"><path d="m108 428.03h16v16h-16z" opacity=".001"/><path d="m116 432.0293a4 4 0 0 0 -4 4 4 4 0 0 0 4 4 4 4 0 0 0 4-4 4 4 0 0 0 -4-4zm0 2a2 2 0 0 1 2 2 2 2 0 0 1 -2 2 2 2 0 0 1 -2-2 2 2 0 0 1 2-2z" fill="#c8c8ca"/></g><g transform="translate(151.002644 88.970003)"><path d="m54 428.03h16v16h-16z" opacity=".001"/><path d="m65.002415 432.02406a1 1 0 0 0 -.70703.29297l-2.29297 2.29297-2.2832-2.2832a1 1 0 0 0 -.01-.01 1 1 0 0 0 -.70117-.28906l-.01.0137a1 1 0 0 0 -1 1 1 1 0 0 0 .29297.70703l2.29297 2.29297-2.29297 2.29297a1 1 0 0 0 -.28906.69922 1 1 0 0 0 1 1 1 1 0 0 0 .70703-.29297l2.29297-2.29297 2.2832 2.2832a1 1 0 0 0 .7168.30274 1 1 0 0 0 1-1 1 1 0 0 0 -.29297-.70703l-2.30078-2.29883 2.2832-2.2832a1 1 0 0 0 .31055-.72071 1 1 0 0 0 -1-1z" fill="#da4453" opacity=".8"/></g><path d="m221.002644 517.000003h16v16h-16z" opacity=".001"/><path d="m225.002644 524.000003h8v2h-8z" fill="#d2d2d4"/><g transform="translate(147.002644 88.970003)"><path d="m90 428.03h16v16h-16z" opacity=".001"/><path d="m97 432.03v2.9993l-3 .0007v2l3-.0007v3.0007h2v-3.0007l3 .0007v-2l-3-.0007v-2.9993z" fill="#d2d2d4"/></g><g transform="translate(145.002644 88.970003)"><path d="m108 428.03h16v16h-16z" opacity=".001"/><path d="m116 432.0293a4 4 0 0 0 -4 4 4 4 0 0 0 4 4 4 4 0 0 0 4-4 4 4 0 0 0 -4-4zm0 2a2 2 0 0 1 2 2 2 2 0 0 1 -2 2 2 2 0 0 1 -2-2 2 2 0 0 1 2-2z" fill="#d2d2d4"/></g><g transform="translate(151.002644 104.970003)"><path d="m54 428.03h16v16h-16z" opacity=".001"/><path d="m65.002415 432.02406a1 1 0 0 0 -.70703.29297l-2.29297 2.29297-2.2832-2.2832a1 1 0 0 0 -.01-.01 1 1 0 0 0 -.70117-.28906l-.01.0137a1 1 0 0 0 -1 1 1 1 0 0 0 .29297.70703l2.29297 2.29297-2.29297 2.29297a1 1 0 0 0 -.28906.69922 1 1 0 0 0 1 1 1 1 0 0 0 .70703-.29297l2.29297-2.29297 2.2832 2.2832a1 1 0 0 0 .7168.30274 1 1 0 0 0 1-1 1 1 0 0 0 -.29297-.70703l-2.30078-2.29883 2.2832-2.2832a1 1 0 0 0 .31055-.72071 1 1 0 0 0 -1-1z" fill="#fff" opacity=".3"/></g><path d="m221.002644 533.000003h16v16h-16z" opacity=".001"/><path d="m225.002644 540.000003h8v2h-8z" fill="#fff" opacity=".3"/><g transform="translate(147.002644 104.970003)"><path d="m90 428.03h16v16h-16z" opacity=".001"/><path d="m97 432.03v2.9993l-3 .0007v2l3-.0007v3.0007h2v-3.0007l3 .0007v-2l-3-.0007v-2.9993z" fill="#fff" opacity=".3"/></g><g transform="translate(145.002644 104.970003)"><path d="m108 428.03h16v16h-16z" opacity=".001"/><path d="m116 432.0293a4 4 0 0 0 -4 4 4 4 0 0 0 4 4 4 4 0 0 0 4-4 4 4 0 0 0 -4-4zm0 2a2 2 0 0 1 2 2 2 2 0 0 1 -2 2 2 2 0 0 1 -2-2 2 2 0 0 1 2-2z" fill="#fff" opacity=".3"/></g><g transform="translate(134.002644 57.969993)"><path d="m135 428.03h16v16h-16z" opacity=".001"/><path d="m139 432.03v2h8v-2zm0 3v2h8v-2zm0 3v2h8v-2z" fill="#aaaaac"/></g><g fill="#0c0e14" transform="translate(.002644 45.000002)"><path d="m170 475v30h30v-30z"/><path d="m170 440v30h30v-30z"/></g><path d="m124.00265 485h8v4h-8z" fill="url(#A)" fill-rule="evenodd"/><path d="m124.00265 497h8v4h-8z" fill="url(#C)" fill-rule="evenodd"/><path d="m124.00264 489h8v8h-8z" fill="url(#B)" fill-rule="evenodd"/><path d="m132.00264 485h4v4h-4z" fill="url(#D)" fill-rule="evenodd"/><path d="m132.00264 497h4v4h-4z" fill="url(#F)" fill-rule="evenodd"/><path d="m132.00264 489h4v8h-4z" fill="url(#E)" fill-rule="evenodd"/><path d="m120.00265 489h4v8h-4z" fill="url(#y)" fill-rule="evenodd"/><path d="m124.00264 485v4h-4v-4z" fill="url(#x)" fill-rule="evenodd"/><path d="m120.00264 497h4v4h-4z" fill="url(#z)" fill-rule="evenodd"/><path d="m149.00264 485h8v4h-8z" fill="url(#J)" fill-rule="evenodd"/><path d="m149.00264 497h8v4h-8z" fill="url(#L)" fill-rule="evenodd"/><path d="m149.00264 489h8v8h-8z" fill="url(#K)" fill-rule="evenodd"/><path d="m157.00264 489h4v8h-4z" fill="url(#N)" fill-rule="evenodd"/><path d="m157.00264 485h4v4h-4z" fill="url(#M)" fill-rule="evenodd"/><path d="m157.00264 497h4v4h-4z" fill="url(#O)" fill-rule="evenodd"/><path d="m145.00264 489h4v8h-4z" fill="url(#H)" fill-rule="evenodd"/><path d="m149.00264 485v4h-4v-4z" fill="url(#G)" fill-rule="evenodd"/><path d="m145.00264 497h4v4h-4z" fill="url(#I)" fill-rule="evenodd"/><path d="m95.002647 485h4v4h-4z" fill="#c50ed2" opacity=".12"/><path d="m99.002647 485h8v4h-8z" fill="#c50ed2" opacity=".12"/><path d="m107.00265 485h4v4h-4z" fill="#c50ed2" opacity=".12"/><path d="m107.00265 489h4v8h-4z" fill="#c50ed2" opacity=".12"/><path d="m107.00265 497h4v4h-4z" fill="#c50ed2" opacity=".12"/><path d="m99.002647 497h8v4h-8z" fill="#c50ed2" opacity=".12"/><path d="m95.002647 497h4v4h-4z" fill="#c50ed2" opacity=".12"/><path d="m95.002647 489h4v8h-4z" fill="#c50ed2" opacity=".12"/><path d="m99.002647 489h8v8h-8z" fill="#c50ed2" opacity=".12"/><g fill-rule="evenodd" transform="translate(.002644 45.000002)"><g fill="#0c0e15"><path d="m5 450v-5h-5v5z"/><path d="m5 450h-5v5h5z"/><path d="m10 450h-5v5h5z"/><path d="m15 450h-5v5h5z"/><path d="m15 450v-5h-5v5z"/><path d="m15 440h-5v5h5z"/><path d="m10 440h-5v5h5z"/><path d="m5 440h-5v5h5z"/></g><path d="m10 450v-5h-5v5z" fill="#161925"/><path d="m25 450v-5h-5v5z" fill="#0c0e15"/><path d="m25 450h-5v5h5z" fill="#0c0e15"/><path d="m30 450h-5v5h5z" fill="#0c0e15"/><path d="m35 450h-5v5h5z" fill="#0c0e15"/><path d="m35 450v-5h-5v5z" fill="#0c0e15"/><path d="m35 440h-5v5h5z" fill="#0c0e15"/><path d="m30 440h-5v5h5z" fill="#0c0e15"/><path d="m25 440h-5v5h5z" fill="#0c0e15"/><path d="m30 450v-5h-5v5z" fill="#252a3f"/><path d="m45 445h-5v5h5z" fill="#0c0e15"/><path d="m45 450h-5v5h5z" fill="#0c0e15"/><path d="m50 450h-5v5h5z" fill="#0c0e15"/><path d="m55 450h-5v5h5z" fill="#0c0e15"/><path d="m55 445h-5v5h5z" fill="#0c0e15"/><path d="m55 440h-5v5h5z" fill="#0c0e15"/><path d="m50 440h-5v5h5z" fill="#0c0e15"/><path d="m45 440h-5v5h5z" fill="#0c0e15"/><path d="m50 445h-5v5h5z" fill="#252a3f"/><path d="m65 450v-5h-5v5z" fill="#0c0e15"/><path d="m65 450h-5v5h5z" fill="#0c0e15"/><path d="m70 450h-5v5h5z" fill="#0c0e15"/><path d="m75 450h-5v5h5z" fill="#0c0e15"/><path d="m75 450v-5h-5v5z" fill="#0c0e15"/><path d="m75 440h-5v5h5z" fill="#0c0e15"/><path d="m70 440h-5v5h5z" fill="#0c0e15"/><path d="m65 440h-5v5h5z" fill="#0c0e15"/><path d="m70 450v-5h-5v5z" fill="#252a3f"/><path d="m85 440h-5v5h5z" fill="#0c0e15"/></g><g transform="matrix(0 -1 .66666667 0 -496.330696 619.000102)"><path d="m174 921.5h-4l.0001-6h3.9999z" fill="none"/><path d="m171 921.5h-1l.0001-6h1z" fill="#fff" opacity=".1"/></g><g transform="matrix(0 -1 .66666667 0 -500.330696 619.000002)"><path d="m174 921.5h-4l.0001-6h3.9999z" fill="none"/><path d="m171 921.5h-1l.0001-6h1z" fill="#fff" opacity=".1"/></g><g transform="matrix(0 -1 .66666667 0 -492.330696 619.000102)"><path d="m174 921.5h-4l.0001-6h3.9999z" fill="none"/><path d="m171 921.5h-1l.0001-6h1z" fill="#fff" opacity=".1"/></g><path d="m80.002647 455h10v10h-10z" fill="#555761" fill-rule="evenodd" opacity=".13"/><path d="m80.002647 445h10v10h-10z" fill="#555761" fill-rule="evenodd" opacity=".13"/><path d="m90.002647 455h10v10h-10z" fill="#555761" fill-rule="evenodd" opacity=".13"/><path d="m90.002647 445h10v10h-10z" fill="#555761" fill-rule="evenodd" opacity=".13"/><path d="m70.002647 455h10v10h-10z" fill="#555761" fill-rule="evenodd" opacity=".13"/><path d="m70.002647 445h10v10h-10z" fill="#555761" fill-rule="evenodd" opacity=".13"/><path d="m80.002647 465h10v10h-10z" fill="url(#P)" fill-rule="evenodd"/><path d="m90.002647 465h10v10h-10z" fill="url(#P)" fill-rule="evenodd"/><path d="m70.002647 465h10v10h-10z" fill="url(#P)" fill-rule="evenodd"/><path d="m45.002644 455h10v10h-10z" fill="#555564" fill-opacity=".908257" fill-rule="evenodd" opacity=".13"/><path d="m45.002644 445h10v10h-10z" fill="#555564" fill-opacity=".908257" fill-rule="evenodd" opacity=".13"/><path d="m55.002644 455h10v10h-10z" fill="#555564" fill-rule="evenodd" opacity=".13"/><path d="m55.002644 445h10v10h-10z" fill="#555564" fill-opacity=".908257" fill-rule="evenodd" opacity=".13"/><path d="m35.002644 455h10v10h-10z" fill="#555564" fill-opacity=".908257" fill-rule="evenodd" opacity=".13"/><path d="m35.002644 445h10v10h-10z" fill="#555564" fill-opacity=".908257" fill-rule="evenodd" opacity=".13"/><path d="m45.002644 465h10v10h-10z" fill="#555564" fill-opacity=".908257" fill-rule="evenodd" opacity=".13"/><path d="m55.002644 465h10v10h-10z" fill="#555564" fill-opacity=".908257" fill-rule="evenodd" opacity=".13"/><path d="m35.002644 465h10v10h-10z" fill="#555564" fill-opacity=".908257" fill-rule="evenodd" opacity=".13"/><path d="m10.002645 454.99976h10v10h-10z" fill="none"/><path d="m10.002644 444.99975v10l-9.99999975-.00025v-9.99975z" fill="none"/><path d="m20.002644 444.99975v10l-10-.00025v-9.99975z" fill="none"/><path d="m30.002644 445v10l-10-.00025v-9.99975z" fill="none"/><path d="m30.002644 454.99975v10l-10-.00025v-9.99975z" fill="none"/><path d="m30.002644 465v10l-10-.00025v-9.99975z" fill="none"/><path d="m20.002644 464.99975v10l-10-.00025v-9.99975z" fill="none"/><path d="m10.002644 464.99975v10l-9.99999975-.00025v-9.99975z" fill="none"/><path d="m10.002644 454.99975v10l-9.99999975-.00025v-9.99975z" fill="none"/><g transform="translate(.002644 45.000002)"><path d="m280 350h15v15h-15z" fill="#6e6e70" fill-rule="evenodd"/><g fill-rule="evenodd" transform="translate(-85 -620)"><path d="m265 970h18v18h-18z" fill="none" stroke-linecap="square" stroke-linejoin="round" stroke-width="1.3"/><path d="m268.7501 972a1.74961 1.74961 0 0 0 -1.21879 3.00483l3.9958 3.9935-3.9958 3.9958a1.74961 1.74961 0 1 0 2.47403 2.47403l3.9958-3.9958 3.9935 3.9958a1.74961 1.74961 0 1 0 2.47403-2.47403l-3.9935-3.9958 3.9935-3.9935a1.74961 1.74961 0 0 0 -1.21879-3.00483 1.74961 1.74961 0 0 0 -1.25524.5308l-3.9935 3.9935-3.9958-3.9935a1.74961 1.74961 0 0 0 -1.25524-.5308z" fill="#aaaaac" fill-opacity=".970588" stroke-linecap="round" stroke-width="3"/></g><g fill-rule="evenodd" transform="translate(-60 -620)"><path d="m265 970h18v18h-18z" fill="none" stroke-linecap="square" stroke-linejoin="round" stroke-width="1.3"/><path d="m268.7501 972a1.74961 1.74961 0 0 0 -1.21879 3.00483l3.9958 3.9935-3.9958 3.9958a1.74961 1.74961 0 1 0 2.47403 2.47403l3.9958-3.9958 3.9935 3.9958a1.74961 1.74961 0 1 0 2.47403-2.47403l-3.9935-3.9958 3.9935-3.9935a1.74961 1.74961 0 0 0 -1.21879-3.00483 1.74961 1.74961 0 0 0 -1.25524.5308l-3.9935 3.9935-3.9958-3.9935a1.74961 1.74961 0 0 0 -1.25524-.5308z" fill="#da4453" stroke-linecap="round" stroke-width="3"/></g><g fill-rule="evenodd" transform="translate(-35 -620)"><path d="m265 970h18v18h-18z" fill="none" stroke-linecap="square" stroke-linejoin="round" stroke-width="1.3"/><path d="m268.7501 972a1.74961 1.74961 0 0 0 -1.21879 3.00483l3.9958 3.9935-3.9958 3.9958a1.74961 1.74961 0 1 0 2.47403 2.47403l3.9958-3.9958 3.9935 3.9958a1.74961 1.74961 0 1 0 2.47403-2.47403l-3.9935-3.9958 3.9935-3.9935a1.74961 1.74961 0 0 0 -1.21879-3.00483 1.74961 1.74961 0 0 0 -1.25524.5308l-3.9935 3.9935-3.9958-3.9935a1.74961 1.74961 0 0 0 -1.25524-.5308z" fill="#da4453" opacity=".8" stroke-linecap="round" stroke-width="3"/></g><g fill-rule="evenodd" transform="translate(-10 -620)"><path d="m265 970h18v18h-18z" fill="none" stroke-linecap="square" stroke-linejoin="round" stroke-width="1.3"/><path d="m268.7501 972a1.74961 1.74961 0 0 0 -1.21879 3.00483l3.9958 3.9935-3.9958 3.9958a1.74961 1.74961 0 1 0 2.47403 2.47403l3.9958-3.9958 3.9935 3.9958a1.74961 1.74961 0 1 0 2.47403-2.47403l-3.9935-3.9958 3.9935-3.9935a1.74961 1.74961 0 0 0 -1.21879-3.00483 1.74961 1.74961 0 0 0 -1.25524.5308l-3.9935 3.9935-3.9958-3.9935a1.74961 1.74961 0 0 0 -1.25524-.5308z" fill="#fff" opacity=".25" stroke-linecap="round" stroke-width="3"/></g><path d="m138.9998 354v32h32v-32z" fill="#161925" fill-rule="evenodd" opacity=".6"/><g transform="matrix(.8 0 0 .98461538 118 305.99842)"><path d="m316 469v32h3v-32z" fill="#161925" fill-opacity=".6" fill-rule="evenodd" stroke-width=".88752" transform="matrix(1.25 0 0 1.015625 -372.5 -427.57652)"/><path d="m21.25 48.7516v32.5h1.2497v-32.5z" fill="#0c0e15"/></g><g id="S" transform="matrix(.8 0 0 .8 117.9998 316.99872)"><path d="m316 466v3h3v-3z" fill="#161925" fill-opacity=".6" fill-rule="evenodd" stroke-width=".8" transform="matrix(1.25 0 0 1.25 -372.49975 -539.9984)"/><path d="m26.25 41.2516h-5v5h1.2503v-3.75h3.7497z" fill="#0c0e15"/></g><g transform="matrix(0 .8 -.98461538 0 219.00138 333)"><path d="m319 466v3h32v-3z" fill="#161925" fill-opacity=".6" fill-rule="evenodd" stroke-width=".88752" transform="matrix(0 -1.015625 1.25 0 -560 405.23578)"/><path d="m21.25 48.7516v32.5h1.25v-32.5z" fill="#0c0e15"/></g><use height="100%" transform="matrix(-1 0 0 1 309.9996 0)" width="100%" xlink:href="#S"/><g transform="matrix(-.8 0 0 .98461538 191.9998 305.99842)"><path d="m351 469v32h3v-32z" fill="#161925" fill-opacity=".6" fill-rule="evenodd" stroke-width=".88752" transform="matrix(-1.25 0 0 1.015625 464.99975 -427.57652)"/><path d="m21.25 48.7516v32.5h1.25v-32.5z" fill="#0c0e15"/></g><g transform="matrix(1 0 0 .66666667 -35.0003 -224.33334)"><path d="m316 501v4h3v-4z" fill="#161925" fill-opacity=".6" fill-rule="evenodd" stroke-width=".816497" transform="matrix(1 0 0 1.5 -144.9997 164.00001)"/><path d="m171 921.5h-1l.0001-6h1z" fill="#0c0e15"/></g><path d="m139 386h31.9998v4h-32z" fill="#161925" fill-opacity=".6" fill-rule="evenodd"/><g transform="matrix(-1 0 0 .66666667 345 -224.33344)"><path d="m351 501v4h3v-4z" fill="#161925" fill-opacity=".6" fill-rule="evenodd" stroke-width=".816497" transform="matrix(-1 0 0 1.5 525 164.00016)"/><path d="m171.0001 921.5h-1.0001l.0001-6h1.0001z" fill="#0c0e15"/></g><g fill="#fff" fill-rule="evenodd"><path d="m110 360h10v10h-10z" opacity=".04"/><path d="m110 350h10v10h-10z" opacity=".04"/><path d="m120 360h10v10h-10z" opacity=".04"/><path d="m120 350h10v10h-10z" opacity=".04"/><path d="m100 360h10v10h-10z" opacity=".04"/><path d="m100 350h10v10h-10z" opacity=".04"/><path d="m110 370h10v10h-10z" opacity=".04"/><path d="m120 370h10v10h-10z" opacity=".04"/><path d="m100 370h10v10h-10z" opacity=".04"/></g><path d="m75 360h10v10h-10z" fill="none"/><path d="m75 350h10v10h-10z" fill="none"/><path d="m85 360h10v10h-10z" fill="none"/><path d="m85 350h10v10h-10z" fill="none"/><path d="m65 360h10v10h-10z" fill="none"/><path d="m65 350h10v10h-10z" fill="none"/><path d="m75 370h10v10h-10z" fill="none"/><path d="m85 370h10v10h-10z" fill="none"/><path d="m65 370h10v10h-10z" fill="none"/></g><g transform="translate(.002644 45.000002)"><path d="m4 354v32h32v-32z" fill="#161925" fill-rule="evenodd" opacity=".6"/><g transform="matrix(.8 0 0 .98461538 -16.9998 305.99842)"><path d="m196 469v32h3v-32z" fill="#161925" fill-opacity=".6" fill-rule="evenodd" stroke-width=".88752" transform="matrix(1.25 0 0 1.015625 -222.5 -427.57652)"/><path d="m21.25 48.7516v32.5h1.2497v-32.5z" fill="#0c0e15"/></g><g id="T" transform="matrix(.8 0 0 .8 -16.9998 316.99872)"><path d="m196 466v3h3v-3z" fill="#161925" fill-opacity=".6" fill-rule="evenodd" stroke-width=".8" transform="matrix(1.25 0 0 1.25 -222.5 -539.9984)"/><path d="m26.25 41.2516h-5v5h1.2497l-.0003-3.75h3.7503z" fill="#0c0e15"/></g><g transform="matrix(0 .8 -.98461538 0 84.00158 333)"><path d="m199 466v3h32v-3z" fill="#161925" fill-opacity=".6" fill-rule="evenodd" stroke-width=".88752" transform="matrix(0 -1.015625 1.25 0 -560 283.36078)"/><path d="m21.25 48.7516v32.5h1.25v-32.5z" fill="#0c0e15"/></g><use fill="#1e1e20" height="100%" transform="matrix(-1 0 0 1 40.0002 0)" width="100%" xlink:href="#T"/><g transform="matrix(-.8 0 0 -.98461538 57 434.00158)"><path d="m231 469v32h3v-32z" fill="#161925" fill-opacity=".6" fill-rule="evenodd" stroke-width=".88752" transform="matrix(-1.25 0 0 -1.015625 314.99975 557.57973)"/><path d="m21.25 48.7516v32.5h1.25v-32.5z" fill="#0c0e15"/></g><g transform="matrix(0 -.8 .98461538 0 -44.00138 406.9999)"><path d="m199 501v3h32v-3z" fill="#161925" fill-opacity=".6" fill-rule="evenodd" stroke-width=".88752" transform="matrix(0 1.015625 -1.25 0 652.49987 -153.35777)"/><path d="m21.25 48.7516v32.5h1.2499v-32.5z" fill="#0c0e15"/></g><use fill="#138d21" height="100%" transform="matrix(1 0 0 -1 0 739.9999)" width="100%" xlink:href="#T"/><use fill="#1e1e20" height="100%" transform="matrix(-1 0 -0 -1 40.0003 739.9999)" width="100%" xlink:href="#T"/><g id="U" fill-rule="evenodd" transform="translate(-220 -515)"><path d="m269 865h-4v4h4z" fill="none"/><path d="m266 865h-1v1h1z" fill="#fff" opacity=".1"/></g><use height="100%" transform="matrix(-1 0 0 1 98 .000004)" width="100%" xlink:href="#U"/><use id="V" height="100%" transform="matrix(-1 0 0 1 94 5.000004)" width="100%" xlink:href="#U"/><use height="100%" transform="matrix(1 0 0 -1 3.999996 714.00008)" width="100%" xlink:href="#V"/><use height="100%" transform="matrix(1 0 0 -1 -.000004 714.00008)" width="100%" xlink:href="#U"/><use height="100%" transform="translate(3.999996 10.000004)" width="100%" xlink:href="#U"/><use height="100%" transform="matrix(1 0 0 -1 -.000004 718.00008)" width="100%" xlink:href="#U"/><use height="100%" transform="matrix(-1 0 -0 -1 98 718)" width="100%" xlink:href="#U"/></g><path d="m360.00264 320a5 5 0 0 1 -10 0 5 5 0 1 1 10 0z" fill="#fff" opacity=".18"/><path d="m320.002644 335.000002h10v10h-10z" fill="#6e6e70"/><path d="m285.002644 335.000002h10v10h-10z" fill="#fff" opacity=".12"/><path d="m320.002644 325.000002h10v10h-10z" fill="#fff" opacity=".08"/><path d="m310.002644 325.000002h10v10h-10z" fill="#fff" opacity=".08"/><path d="m310.002644 335.000002h10v10h-10z" fill="#6e6e70"/><path d="m330.002644 325.000002h10v10h-10z" fill="#fff" opacity=".08"/><path d="m330.002644 335.000002h10v10h-10z" fill="#6e6e70"/><path d="m320.002644 315.000002h10v10h-10z" fill="#fff" opacity=".08"/><path d="m310.002644 315.000002h10v10h-10z" fill="#fff" opacity=".08"/><path d="m330.002644 315.000002h10v10h-10z" fill="#fff" opacity=".08"/><path d="m285.002644 325.000002h10v10h-10z" fill="#fff" opacity=".12"/><path d="m275.002644 325.000002h10v10h-10z" fill="#fff" opacity=".12"/><path d="m275.002644 335.000002h10v10h-10z" fill="#fff" opacity=".12"/><path d="m295.002644 325.000002h10v10h-10z" fill="#fff" opacity=".12"/><path d="m295.002644 335.000002h10v10h-10z" fill="#fff" opacity=".12"/><path d="m285.002644 315.000002h10v10h-10z" fill="#fff" opacity=".12"/><path d="m275.002644 315.000002h10v10h-10z" fill="#fff" opacity=".12"/><path d="m295.002644 315.000002h10v10h-10z" fill="#fff" opacity=".12"/><path d="m250.002644 335.000002h10v10h-10z" fill="#fff" opacity=".12"/><path d="m250.002644 325.000002h10v10h-10z" fill="#fff" opacity=".12"/><path d="m240.002644 325.000002h10v10h-10z" fill="#fff" opacity=".12"/><path d="m240.002644 335.000002h10v10h-10z" fill="#fff" opacity=".12"/><path d="m260.002644 325.000002h10v10h-10z" fill="#fff" opacity=".12"/><path d="m260.002644 335.000002h10v10h-10z" fill="#fff" opacity=".12"/><path d="m250.002644 315.000002h10v10h-10z" fill="#fff" opacity=".12"/><path d="m240.002644 315.000002h10v10h-10z" fill="#fff" opacity=".12"/><path d="m260.002644 315.000002h10v10h-10z" fill="#fff" opacity=".12"/><g transform="translate(.002644 45.000002)"><path d="m205 275h20v20h-20z" fill="#161925"/><g fill="#131621"><path d="m275-205h20v5h-20z" transform="rotate(90)"/><path d="m270-205h5v5h-5z" transform="rotate(90)"/><path d="m205 270h20v5h-20z"/><path d="m275-230h20v5h-20z" transform="rotate(90)"/><path d="m270-230h5v5h-5z" transform="rotate(90)"/><path d="m295-205h5v5h-5z" transform="rotate(90)"/><path d="m205 295h20v5h-20z"/><path d="m295-230h5v5h-5z" transform="rotate(90)"/></g></g><path d="m151.00264 321.0002v31.9998h-6v-32z" fill="#3db8f2" fill-rule="evenodd" opacity=".12"/><path d="m151.00264 359h-6v-6h6z" fill="#3db8f2" fill-rule="evenodd" opacity=".12"/><path d="m145.00264 321v-6h6v6z" fill="#3db8f2" fill-rule="evenodd" opacity=".12"/><path d="m151.00284 353h31.9998v6h-32z" fill="#3db8f2" fill-rule="evenodd" opacity=".12"/><path d="m183.00244 321h-31.9998v-6h32z" fill="#3db8f2" fill-rule="evenodd" opacity=".12"/><path d="m151.00264 353v-32h32v32z" fill="#3db8f2" fill-rule="evenodd" opacity=".12"/><path d="m183.00264 321v31.9998h6v-32z" fill="#3db8f2" fill-rule="evenodd" opacity=".12"/><path d="m183.0028 358.99992 6 .00008-.00016-6h-5.99984z" fill="#3db8f2" fill-rule="evenodd" opacity=".12"/><path d="m189.00248 321.00008.00016-5.99992-6-.00008v5.99992z" fill="#3db8f2" fill-rule="evenodd" opacity=".12"/><g fill-rule="evenodd" transform="translate(-75.497356 -321.5)"><path d="m686.5-229.5h7v9h-7z" opacity="0" transform="rotate(90)"/><path d="m227.2385 689h-2.2462v2h2.2462zm-4.4924 0h-2.2461v2h2.2461z" fill="#fff" opacity=".18"/></g><g fill-rule="evenodd" transform="translate(-60.497356 -321.5)"><path d="m686.5-229.5h7v9h-7z" opacity="0" transform="rotate(90)"/><path d="m227.2385 689h-2.2462v2h2.2462zm-4.4924 0h-2.2461v2h2.2461z" fill="#fff" opacity=".12"/></g><path d="m.00264425 320h5.00000005v48h-5.00000005z" fill="#10121c" fill-opacity=".941176" fill-rule="evenodd" opacity=".8"/><path d="m5.0026443 315h-4.99890005l-.001 5h4.99999995z" fill="#10121c" fill-rule="evenodd" opacity=".8"/><path d="m53.002944 315v5h-47.9999997v-5z" fill="#10121c" fill-rule="evenodd" opacity=".8"/><path d="m58.002644 320-.0003-4.9989-5-.001v5z" fill="#10121c" fill-rule="evenodd" opacity=".8"/><path d="m58.002444 320h-5v48h5z" fill="#10121c" fill-rule="evenodd" opacity=".8"/><path d="m53.002444 373h4.9989l.001-5h-5z" fill="#10121c" fill-rule="evenodd" opacity=".8"/><path d="m5.0033943 373 .0003-5h47.9999997l-.0003 5z" fill="#10121c" fill-rule="evenodd" opacity=".8"/><path d="m.00304425 368 .0003 4.9989 5.00000005.001v-5z" fill="#10121c" fill-rule="evenodd" opacity=".8"/><path d="m5.003244 320h48v48h-48z" fill="#10121c" fill-rule="evenodd" filter="url(#w)" opacity=".8"/><path d="m65.002694 320.0001v60h5v-60z" fill="url(#l)" fill-rule="evenodd" opacity=".25"/><path d="m128.00249 320.0001v60h5v-60z" fill="url(#k)" fill-rule="evenodd" opacity=".28"/><path d="m70.002694 380.0001v5h57.999996v-5z" fill="url(#j)" fill-rule="evenodd" opacity=".29"/><path d="m65.002544 315.0001.0001 5 5-.0001v-5z" fill="url(#h)" fill-rule="evenodd" opacity=".25"/><path d="m128.00269 315.0001v5h5v-5z" fill="url(#g)" fill-rule="evenodd" opacity=".28"/><path d="m65.002644 380.0001v5h5l-.0005-5z" fill="url(#f)" fill-rule="evenodd" opacity=".25"/><path d="m128.00264 380.0001.0003 5h5v-5z" fill="url(#d)" fill-rule="evenodd" opacity=".28"/><path id="W" d="m99.252197 380.00009h2.5v5h-2.5z" fill="#0b74c2" fill-opacity=".541177"/><path id="X" d="m-349.00009 128.0022h2.5v5h-2.5z" fill="#0c7ed3" fill-opacity=".498039" transform="rotate(-90)"/><path id="Y" d="m-349.00009 65.002205h2.5v5h-2.5z" fill="#0b74c2" fill-opacity=".541177" transform="rotate(-90)"/><path d="m17.5005 791v2.5h58v-2.5z" fill="url(#b)" fill-rule="evenodd" opacity=".3" transform="translate(52.502194 -475.9999)"/><path id="Z" d="m97.99221 315.00009h2.5v2.5h-2.5z" fill="#0d88e3" fill-opacity=".462745"/><rect fill="#3c4366" fill-rule="evenodd" height="45" opacity=".1" rx="22.5" width="45" x=".002644" y="260.000002"/><g fill="#fff" fill-opacity=".392" fill-rule="evenodd"><path d="m65.002644 260.000002h45v45h-45z" opacity="0"/><g fill-opacity="1" transform="translate(-137.497356 -407.499998)"><path d="m214.625 670-1.75 1 2.25 3.9063 1.75-1zm20.75 0-2.25 3.9063 1.75 1 2.25-3.9063zm-32.875 19v2h4.5v-2zm40.5 0v2h4.5v-2zm-27.875 16.0938-2.25 3.9062 1.75 1 2.25-3.9062zm19.75 0-1.75 1 2.25 3.9062 1.75-1z" fill="#8c8c8e"/><path d="m222.9062 667.5938-.5.0625.3125 2.9688.5-.0312-.3125-3zm4.1875 0-.3125 3 .5.0312.3125-2.9688-.5-.0625zm-8.8125.9375-.4688.1562.9375 2.8438.4688-.1562zm13.4375 0-.9375 2.8438.4688.1562.9375-2.8438zm-21.5938 4.5938-.375.3125 2.0312 2.25.3438-.3438-2-2.2188zm29.75 0-2 2.2188.3438.3438 2.0312-2.25-.375-.3125zm-32.9375 3.4375-.2812.4062 2.4062 1.7812.3125-.4062zm36.125 0-2.4375 1.7812.3125.4062 2.4062-1.7812zm-38.5 4.0625-.2188.4375 2.75 1.25.1875-.4688-2.7188-1.2188zm40.875 0-2.7188 1.2188.1875.4688 2.75-1.25-.2188-.4375zm-42.4062 4.4375-.0937.5 2.9375.625.0937-.5zm43.9375 0-2.9375.625.0937.5 2.9375-.625zm-41.0938 8.75-2.9375.625.0937.5 2.9375-.625zm38.25 0-.0937.5 2.9375.625.0937-.5zm-37.0312 3.875-2.75 1.25.2188.4375 2.7188-1.2188-.1875-.4688zm35.8125 0-.1875.4688 2.7188 1.2188.2188-.4375-2.75-1.25zm-33.8438 3.5625-2.4062 1.7812.2812.4062 2.4375-1.7812zm31.875 0-.3125.4062 2.4375 1.7812.2812-.4062zm-29.1562 3.0625-2.0312 2.25.375.3125 2-2.2188-.3438-.3438zm26.4375 0-.3438.3438 2 2.2188.375-.3125-2.0312-2.25z" fill="#555761"/></g></g><circle cx="55.002644" cy="265.000002" fill="#555761" fill-rule="evenodd" r="5"/><path d="m115.002644 260.000002h5v1h-5z" fill="#555761" fill-rule="evenodd"/><path d="m235.00264 215h-5v5h5z" fill="url(#Q)" fill-rule="evenodd"/><path d="m235.00264 220h-5v5h5z" fill="url(#Q)" fill-rule="evenodd"/><path d="m240.00264 220h-5v5h5z" fill="url(#Q)" fill-rule="evenodd"/><path d="m245.00264 220h-5v5h5z" fill="url(#Q)" fill-rule="evenodd"/><path d="m245.00264 215h-5v5h5z" fill="url(#Q)" fill-rule="evenodd"/><path d="m245.00264 210h-5v5h5z" fill="url(#Q)" fill-rule="evenodd"/><path d="m240.00264 210h-5v5h5z" fill="url(#Q)" fill-rule="evenodd"/><path d="m235.00264 210h-5v5h5z" fill="url(#Q)" fill-rule="evenodd"/><path d="m240.00264 215h-5v5h5z" fill="url(#Q)" fill-rule="evenodd"/><path d="m255.00264 215h-5v5h5z" fill="#c3c7d1" fill-rule="evenodd" opacity=".2"/><path d="m255.00264 220h-5v5h5z" fill="#c3c7d1" fill-rule="evenodd" opacity=".2"/><path d="m260.00264 220h-5v5h5z" fill="#c3c7d1" fill-rule="evenodd" opacity=".2"/><path d="m265.00264 220h-5v5h5z" fill="#c3c7d1" fill-rule="evenodd" opacity=".2"/><path d="m265.00264 215h-5v5h5z" fill="#c3c7d1" fill-rule="evenodd" opacity=".2"/><path d="m265.00264 210h-5v5h5z" fill="#c3c7d1" fill-rule="evenodd" opacity=".2"/><path d="m260.00264 210h-5v5h5z" fill="#c3c7d1" fill-rule="evenodd" opacity=".2"/><path d="m255.00264 210h-5v5h5z" fill="#c3c7d1" fill-rule="evenodd" opacity=".2"/><path d="m260.00264 215h-5v5h5z" fill="#c3c7d1" fill-rule="evenodd" opacity=".2"/><path d="m275.00264 215h-5v5h5z" fill="#4b4b4d" fill-rule="evenodd"/><path d="m275.00264 220h-5v5h5z" fill="#4b4b4d" fill-rule="evenodd"/><path d="m280.00264 220h-5v5h5z" fill="#4b4b4d" fill-rule="evenodd"/><path d="m285.00264 220h-5v5h5z" fill="#4b4b4d" fill-rule="evenodd"/><path d="m285.00264 215h-5v5h5z" fill="#4b4b4d" fill-rule="evenodd"/><path d="m285.00264 210h-5v5h5z" fill="#4b4b4d" fill-rule="evenodd"/><path d="m280.00264 210h-5v5h5z" fill="#4b4b4d" fill-rule="evenodd"/><path d="m275.00264 210h-5v5h5z" fill="#4b4b4d" fill-rule="evenodd"/><path d="m280.00264 215h-5v5h5z" fill="#4b4b4d" fill-rule="evenodd"/><path d="m290.00264 210v10h10v-10z" fill-rule="evenodd"/><path d="m300.00264 210v10h10v-10z" fill-rule="evenodd"/><path d="m165.00264 210h8v12h-8z" fill="#2d334c"/><path d="m180.00264 210h8v12h-8z" fill="#424b71"/><path d="m195.00264 210h8v12h-8z" fill="#0d88e3" fill-opacity=".462745"/><path d="m210.00264 210h8v12h-8z" fill="#414143"/><circle cx="69.002644" cy="219.000002" fill="#0c0e15" r="9"/><circle cx="69.002644" cy="219.000002" fill="#1e2233" r="8"/><circle cx="94.002643" cy="219.000002" fill="#0c0e15" r="9"/><circle cx="94.002643" cy="219.000002" fill="#252a3f" r="8"/><circle cx="119.002643" cy="219.000002" fill="#252a3f" r="9"/><circle cx="144.002643" cy="219.000002" fill="#0c0e15" r="9"/><circle cx="144.002643" cy="219.000002" fill="#0c0e15" r="8"/><path id="aa" d="m42.002644 210c-6.648 0-12 5.352-12 12h12z" fill="#fc01cb" fill-rule="evenodd" opacity="0"/><path d="m30.002644 222v16.5003h12v-16.5h-12z" fill="url(#u)" fill-rule="evenodd"/><path id="ab" d="m42.002644 210c6.648 0 12 5.352 12 12h-12z" fill="#fc0181" fill-rule="evenodd" opacity="0"/><path d="m42.002644 222v16.5003h12v-16.5h-12z" fill="url(#v)" fill-rule="evenodd"/><use height="1230" transform="matrix(1 0 0 -1 0 460.5002)" width="450" xlink:href="#aa"/><use fill="#13d931" height="1230" transform="matrix(1 0 0 -1 0 460.5002)" width="450" xlink:href="#ab"/><g id="ac" fill-rule="evenodd" transform="translate(-79.997356 -507.5)"><path d="m92 717.5h-12v12h12z" fill="none"/><path d="m92 719.5c-4.5 0-8 4-8 9v1h8z" fill="#c3c7d1" opacity=".2"/></g><g fill-rule="evenodd" transform="translate(-79.997356 -507.5)"><path d="m80 729.5002v16.5004h12v-16.5h-12z" fill="none"/><path d="m84 729.5006v16.4998l8 .0002v-16.4994l-8-.0002z" fill="#c3c7d1" opacity=".2"/></g><g id="ad" fill-rule="evenodd" transform="matrix(-1 0 0 1 104.00264 -507.5)"><path d="m92 717.5h-12v12h12z" fill="none"/><path d="m92 719.5c-4.5 0-8 4-8 9v1h8z" fill="#c3c7d1" opacity=".2"/></g><g fill-rule="evenodd" transform="matrix(-1 0 0 1 104.00264 -507.5)"><path d="m80 729.5002v16.5004h12v-16.5h-12z" fill="none"/><path d="m84 729.5006v16.4998l8 .0002v-16.4994l-8-.0002z" fill="#c3c7d1" opacity=".2"/></g><use fill="#131621" height="100%" transform="matrix(1 0 0 -1 0 460.5)" width="100%" xlink:href="#ac"/><use fill="#131621" height="100%" transform="matrix(1 0 0 -1 0 460.5006)" width="100%" xlink:href="#ad"/><g transform="translate(205.00264 -177)"><path d="m15 317h8v8h-8z" opacity=".001"/><path d="m18 317v3h-3v2h3v3h2v-3h3v-2h-3v-3z" fill="#aaaaac"/></g><g transform="translate(195.00264 -166)"><path d="m25 317h8v8h-8z" opacity=".001"/><path d="m320-33h2v8h-2z" fill="#aaaaac" transform="rotate(90)"/></g><g transform="translate(215.00264 -177)"><path d="m15 317h8v8h-8z" opacity=".001"/><path d="m18 317v3h-3v2h3v3h2v-3h3v-2h-3v-3z" fill="#c8c8ca"/></g><g transform="translate(205.00264 -166)"><path d="m25 317h8v8h-8z" opacity=".001"/><path d="m320-33h2v8h-2z" fill="#c8c8ca" transform="rotate(90)"/></g><g transform="translate(225.00264 -177)"><path d="m15 317h8v8h-8z" opacity=".001"/><path d="m18 317v3h-3v2h3v3h2v-3h3v-2h-3v-3z" fill="#c8c8ca"/></g><g transform="translate(215.00264 -166)"><path d="m25 317h8v8h-8z" opacity=".001"/><path d="m320-33h2v8h-2z" fill="#c8c8ca" transform="rotate(90)"/></g><g transform="translate(235.00264 -177)"><path d="m15 317h8v8h-8z" opacity=".001"/><path d="m18 317v3h-3v2h3v3h2v-3h3v-2h-3v-3z" fill="#fff" opacity=".25"/></g><g transform="translate(225.00264 -166)"><path d="m25 317h8v8h-8z" opacity=".001"/><path d="m320-33h2v8h-2z" fill="#fff" opacity=".25" transform="rotate(90)"/></g><g transform="translate(205.00264 -155.99994)"><path d="m15 317h8v8h-8z" opacity=".001"/><path d="m18 317v3h-3v2h3v3h2v-3h3v-2h-3v-3z" fill="#aaaaac"/></g><g transform="translate(195.00264 -144.99994)"><path d="m25 317h8v8h-8z" opacity=".001"/><path d="m320-33h2v8h-2z" fill="#aaaaac" transform="rotate(90)"/></g><g transform="translate(215.00264 -155.99994)"><path d="m15 317h8v8h-8z" opacity=".001"/><path d="m18 317v3h-3v2h3v3h2v-3h3v-2h-3v-3z" fill="#c8c8ca"/></g><g transform="translate(205.00264 -144.99994)"><path d="m25 317h8v8h-8z" opacity=".001"/><path d="m320-33h2v8h-2z" fill="#c8c8ca" transform="rotate(90)"/></g><g transform="translate(225.00264 -155.99994)"><path d="m15 317h8v8h-8z" opacity=".001"/><path d="m18 317v3h-3v2h3v3h2v-3h3v-2h-3v-3z" fill="#c8c8ca"/></g><g transform="translate(215.00264 -144.99994)"><path d="m25 317h8v8h-8z" opacity=".001"/><path d="m320-33h2v8h-2z" fill="#c8c8ca" transform="rotate(90)"/></g><g transform="translate(235.00264 -155.99994)"><path d="m15 317h8v8h-8z" opacity=".001"/><path d="m18 317v3h-3v2h3v3h2v-3h3v-2h-3v-3z" fill="#fff" opacity=".25"/></g><g transform="translate(225.00264 -144.99994)"><path d="m25 317h8v8h-8z" opacity=".001"/><path d="m320-33h2v8h-2z" fill="#fff" opacity=".25" transform="rotate(90)"/></g><g fill-rule="evenodd"><path d="m275.00266 146h2v6h-2z" fill="#0e88e3" fill-opacity=".921569" opacity=".5"/><path d="m275.00266 140h2v6h-2z" fill="#0e88e3" fill-opacity=".921569" opacity=".5"/><path d="m275.00266 152h2v6h-2z" fill="#0e88e3" fill-opacity=".921569" opacity=".5"/><path d="m265.00266 146h2v6h-2z" fill="#0c0e15"/><g fill="#22252e" stroke-linecap="round" stroke-linejoin="round" stroke-width="3" transform="translate(.002644 -333)"><path d="m265 475h2v4h-2z" fill="#0c0e15"/><path d="m267 473v2h-2v-2z" fill="none"/></g><g fill="#22252e" stroke-linecap="round" stroke-linejoin="round" stroke-width="3" transform="matrix(1 0 0 -1 .002644 631)"><path d="m265 475h2v4h-2z" fill="#0c0e15"/><path d="m267 473v2h-2v-2z" fill="none"/></g></g><g transform="matrix(0 1 -1 0 717.002644 -45.999998)"><path d="m186 529h8v8h-8z" opacity=".001"/><path d="m194.45572 532.57465-3.46411 2-3.4641 2v-8l3.4641 2z" fill="#aaaaac" transform="matrix(.72168782 0 0 1 52.663678 .425354)"/></g><g transform="matrix(0 1 -1 0 727.002644 -45.999998)"><path d="m186 529h8v8h-8z" opacity=".001"/><path d="m194.45572 532.57465-3.46411 2-3.4641 2v-8l3.4641 2z" fill="#c8c8ca" transform="matrix(.72168782 0 0 1 52.663678 .425354)"/></g><g transform="matrix(0 1 -1 0 737.002644 -45.999998)"><path d="m186 529h8v8h-8z" opacity=".001"/><path d="m194.45572 532.57465-3.46411 2-3.4641 2v-8l3.4641 2z" fill="#fff" opacity=".25" transform="matrix(.72168782 0 0 1 52.663678 .425354)"/></g><g transform="matrix(0 -1 -1 0 717.002644 345.000062)"><path d="m186 529h8v8h-8z" opacity=".001"/><path d="m194.45572 532.57465-3.46411 2-3.4641 2v-8l3.4641 2z" fill="#aaaaac" transform="matrix(.72168782 0 0 1 52.663678 .425354)"/></g><g transform="matrix(0 -1 -1 0 727.002644 345.000062)"><path d="m186 529h8v8h-8z" opacity=".001"/><path d="m194.45572 532.57465-3.46411 2-3.4641 2v-8l3.4641 2z" fill="#c8c8ca" transform="matrix(.72168782 0 0 1 52.663678 .425354)"/></g><g transform="matrix(0 -1 -1 0 737.002644 345.000062)"><path d="m186 529h8v8h-8z" opacity=".001"/><path d="m194.45572 532.57465-3.46411 2-3.4641 2v-8l3.4641 2z" fill="#fff" opacity=".25" transform="matrix(.72168782 0 0 1 52.663678 .425354)"/></g><g transform="matrix(-1 0 0 -1 374.002644 699.000042)"><path d="m186 529h8v8h-8z" opacity=".001"/><path d="m194.45572 532.57465-3.46411 2-3.4641 2v-8l3.4641 2z" fill="#aaaaac" transform="matrix(.72168782 0 0 1 52.663678 .425354)"/></g><g transform="matrix(-1 0 0 -1 384.002644 699.000042)"><path d="m186 529h8v8h-8z" opacity=".001"/><path d="m194.45572 532.57465-3.46411 2-3.4641 2v-8l3.4641 2z" fill="#c8c8ca" transform="matrix(.72168782 0 0 1 52.663678 .425354)"/></g><g transform="matrix(-1 0 0 -1 394.002644 699.000042)"><path d="m186 529h8v8h-8z" opacity=".001"/><path d="m194.45572 532.57465-3.46411 2-3.4641 2v-8l3.4641 2z" fill="#fff" opacity=".25" transform="matrix(.72168782 0 0 1 52.663678 .425354)"/></g><g transform="matrix(1 0 0 -1 -5.997338 710.000042)"><path d="m186 529h8v8h-8z" opacity=".001"/><path d="m194.45572 532.57465-3.46411 2-3.4641 2v-8l3.4641 2z" fill="#aaaaac" transform="matrix(.72168782 0 0 1 52.663678 .425354)"/></g><g transform="matrix(1 0 0 -1 4.002662 710.000042)"><path d="m186 529h8v8h-8z" opacity=".001"/><path d="m194.45572 532.57465-3.46411 2-3.4641 2v-8l3.4641 2z" fill="#c8c8ca" transform="matrix(.72168782 0 0 1 52.663678 .425354)"/></g><g transform="matrix(1 0 0 -1 14.002662 710.000042)"><path d="m186 529h8v8h-8z" opacity=".001"/><path d="m194.45572 532.57465-3.46411 2-3.4641 2v-8l3.4641 2z" fill="#fff" opacity=".25" transform="matrix(.72168782 0 0 1 52.663678 .425354)"/></g><g transform="matrix(0 1 -1 0 657.002644 -20.999998)"><path d="m186 529h8v8h-8z" opacity=".001"/><path d="m194.45572 532.57465-3.46411 2-3.4641 2v-8l3.4641 2z" fill="#aaaaac" transform="matrix(.72168782 0 0 1 52.663678 .425354)"/></g><g transform="matrix(0 1 -1 0 667.002644 -20.999998)"><path d="m186 529h8v8h-8z" opacity=".001"/><path d="m194.45572 532.57465-3.46411 2-3.4641 2v-8l3.4641 2z" fill="#c8c8ca" transform="matrix(.72168782 0 0 1 52.663678 .425354)"/></g><g transform="matrix(0 1 -1 0 677.002644 -20.999998)"><path d="m186 529h8v8h-8z" opacity=".001"/><path d="m194.45572 532.57465-3.46411 2-3.4641 2v-8l3.4641 2z" fill="#d2d2d4" transform="matrix(.72168782 0 0 1 52.663678 .425354)"/></g><g transform="matrix(0 1 -1 0 687.002644 -20.999998)"><path d="m186 529h8v8h-8z" opacity=".001"/><path d="m194.45572 532.57465-3.46411 2-3.4641 2v-8l3.4641 2z" fill="#aaaaac" transform="matrix(.72168782 0 0 1 52.663678 .425354)"/></g><g transform="matrix(0 1 -1 0 697.002644 -20.999998)"><path d="m186 529h8v8h-8z" opacity=".001"/><path d="m194.45572 532.57465-3.46411 2-3.4641 2v-8l3.4641 2z" fill="#fff" opacity=".25" transform="matrix(.72168782 0 0 1 52.663678 .425354)"/></g><g transform="translate(-65.997359 -388.999998)"><path d="m186 529h8v8h-8z" opacity=".001"/><path d="m194.45572 532.57465-3.46411 2-3.4641 2v-8l3.4641 2z" fill="#aaaaac" transform="matrix(.72168782 0 0 1 52.663678 .425354)"/></g><g transform="translate(-55.997359 -388.999998)"><path d="m186 529h8v8h-8z" opacity=".001"/><path d="m194.45572 532.57465-3.46411 2-3.4641 2v-8l3.4641 2z" fill="#c8c8ca" transform="matrix(.72168782 0 0 1 52.663678 .425354)"/></g><g transform="translate(-45.997359 -388.999998)"><path d="m186 529h8v8h-8z" opacity=".001"/><path d="m194.45572 532.57465-3.46411 2-3.4641 2v-8l3.4641 2z" fill="#d2d2d4" transform="matrix(.72168782 0 0 1 52.663678 .425354)"/></g><g transform="translate(-35.997349 -388.999998)"><path d="m186 529h8v8h-8z" opacity=".001"/><path d="m194.45572 532.57465-3.46411 2-3.4641 2v-8l3.4641 2z" fill="#aaaaac" transform="matrix(.72168782 0 0 1 52.663678 .425354)"/></g><g transform="translate(-25.997349 -388.999998)"><path d="m186 529h8v8h-8z" opacity=".001"/><path d="m194.45572 532.57465-3.46411 2-3.4641 2v-8l3.4641 2z" fill="#fff" opacity=".25" transform="matrix(.72168782 0 0 1 52.663678 .425354)"/></g><g transform="matrix(0 1 -1 0 657.002634 -36.000008)"><path d="m186 529h8v8h-8z" opacity=".001"/><path d="m194.45572 532.57465-3.46411 2-3.4641 2v-8l3.4641 2z" fill="#aaaaac" transform="matrix(.72168782 0 0 1 52.663678 .425354)"/></g><g transform="matrix(0 1 -1 0 667.002634 -36.000008)"><path d="m186 529h8v8h-8z" opacity=".001"/><path d="m194.45572 532.57465-3.46411 2-3.4641 2v-8l3.4641 2z" fill="#c8c8ca" transform="matrix(.72168782 0 0 1 52.663678 .425354)"/></g><g transform="matrix(0 1 -1 0 677.002634 -36.000008)"><path d="m186 529h8v8h-8z" opacity=".001"/><path d="m194.45572 532.57465-3.46411 2-3.4641 2v-8l3.4641 2z" fill="#d2d2d4" transform="matrix(.72168782 0 0 1 52.663678 .425354)"/></g><g transform="matrix(0 1 -1 0 687.002634 -36.000008)"><path d="m186 529h8v8h-8z" opacity=".001"/><path d="m194.45572 532.57465-3.46411 2-3.4641 2v-8l3.4641 2z" fill="#aaaaac" transform="matrix(.72168782 0 0 1 52.663678 .425354)"/></g><g transform="matrix(0 1 -1 0 697.002634 -36.000008)"><path d="m186 529h8v8h-8z" opacity=".001"/><path d="m194.45572 532.57465-3.46411 2-3.4641 2v-8l3.4641 2z" fill="#fff" opacity=".25" transform="matrix(.72168782 0 0 1 52.663678 .425354)"/></g><g transform="translate(-125.997356 -388.999998)"><path d="m186 529h8v8h-8z" opacity=".001"/><path d="m194.45572 532.57465-3.46411 2-3.4641 2v-8l3.4641 2z" fill="#aaaaac" transform="matrix(.72168782 0 0 1 52.663678 .425354)"/></g><g transform="translate(-115.997346 -388.999998)"><path d="m186 529h8v8h-8z" opacity=".001"/><path d="m194.45572 532.57465-3.46411 2-3.4641 2v-8l3.4641 2z" fill="#c8c8ca" transform="matrix(.72168782 0 0 1 52.663678 .425354)"/></g><g transform="translate(-105.997346 -388.999998)"><path d="m186 529h8v8h-8z" opacity=".001"/><path d="m194.45572 532.57465-3.46411 2-3.4641 2v-8l3.4641 2z" fill="#d2d2d4" transform="matrix(.72168782 0 0 1 52.663678 .425354)"/></g><g transform="translate(-95.997336 -388.999998)"><path d="m186 529h8v8h-8z" opacity=".001"/><path d="m194.45572 532.57465-3.46411 2-3.4641 2v-8l3.4641 2z" fill="#aaaaac" transform="matrix(.72168782 0 0 1 52.663678 .425354)"/></g><g transform="translate(-85.997339 -388.999998)"><path d="m186 529h8v8h-8z" opacity=".001"/><path d="m194.45572 532.57465-3.46411 2-3.4641 2v-8l3.4641 2z" fill="#fff" opacity=".25" transform="matrix(.72168782 0 0 1 52.663678 .425354)"/></g><g transform="matrix(-1 0 0 -1 254.002644 687.999942)"><path d="m186 529h8v8h-8z" opacity=".001"/><path d="m194.45572 532.57465-3.46411 2-3.4641 2v-8l3.4641 2z" fill="#aaaaac" transform="matrix(.72168782 0 0 1 52.663678 .425354)"/></g><g transform="matrix(-1 0 0 -1 264.002644 687.999942)"><path d="m186 529h8v8h-8z" opacity=".001"/><path d="m194.45572 532.57465-3.46411 2-3.4641 2v-8l3.4641 2z" fill="#c8c8ca" transform="matrix(.72168782 0 0 1 52.663678 .425354)"/></g><g transform="matrix(-1 0 0 -1 274.002644 687.999942)"><path d="m186 529h8v8h-8z" opacity=".001"/><path d="m194.45572 532.57465-3.46411 2-3.4641 2v-8l3.4641 2z" fill="#d2d2d4" transform="matrix(.72168782 0 0 1 52.663678 .425354)"/></g><g transform="matrix(-1 0 0 -1 284.002644 687.999942)"><path d="m186 529h8v8h-8z" opacity=".001"/><path d="m194.45572 532.57465-3.46411 2-3.4641 2v-8l3.4641 2z" fill="#aaaaac" transform="matrix(.72168782 0 0 1 52.663678 .425354)"/></g><g transform="matrix(-1 0 0 -1 294.002644 687.999942)"><path d="m186 529h8v8h-8z" opacity=".001"/><path d="m194.45572 532.57465-3.46411 2-3.4641 2v-8l3.4641 2z" fill="#fff" opacity=".25" transform="matrix(.72168782 0 0 1 52.663678 .425354)"/></g><g transform="matrix(0 -1 1 0 -468.997359 355.999999)"><path d="m186 529h8v8h-8z" opacity=".001"/><path d="m194.45572 532.57465-3.46411 2-3.4641 2v-8l3.4641 2z" fill="#aaaaac" transform="matrix(.72168782 0 0 1 52.663678 .425354)"/></g><g transform="matrix(0 -1 1 0 -458.997359 355.999999)"><path d="m186 529h8v8h-8z" opacity=".001"/><path d="m194.45572 532.57465-3.46411 2-3.4641 2v-8l3.4641 2z" fill="#c8c8ca" transform="matrix(.72168782 0 0 1 52.663678 .425354)"/></g><g transform="matrix(0 -1 1 0 -448.997359 355.999999)"><path d="m186 529h8v8h-8z" opacity=".001"/><path d="m194.45572 532.57465-3.46411 2-3.4641 2v-8l3.4641 2z" fill="#d2d2d4" transform="matrix(.72168782 0 0 1 52.663678 .425354)"/></g><g transform="matrix(0 -1 1 0 -438.997359 355.999999)"><path d="m186 529h8v8h-8z" opacity=".001"/><path d="m194.45572 532.57465-3.46411 2-3.4641 2v-8l3.4641 2z" fill="#aaaaac" transform="matrix(.72168782 0 0 1 52.663678 .425354)"/></g><g transform="matrix(0 -1 1 0 -428.997359 355.999999)"><path d="m186 529h8v8h-8z" opacity=".001"/><path d="m194.45572 532.57465-3.46411 2-3.4641 2v-8l3.4641 2z" fill="#fff" opacity=".25" transform="matrix(.72168782 0 0 1 52.663678 .425354)"/></g><g transform="matrix(0 1 -1 0 597.002644 -13.999998)"><path d="m186 529h8v8h-8z" opacity=".001"/><path d="m194.45572 532.57465-3.46411 2-3.4641 2v-8l3.4641 2z" fill="#aaaaac" transform="matrix(.72168782 0 0 1 52.663678 .425354)"/></g><g transform="matrix(0 1 -1 0 607.002644 -13.999998)"><path d="m186 529h8v8h-8z" opacity=".001"/><path d="m194.45572 532.57465-3.46411 2-3.4641 2v-8l3.4641 2z" fill="#c8c8ca" transform="matrix(.72168782 0 0 1 52.663678 .425354)"/></g><g transform="matrix(0 1 -1 0 617.002644 -13.999998)"><path d="m186 529h8v8h-8z" opacity=".001"/><path d="m194.45572 532.57465-3.46411 2-3.4641 2v-8l3.4641 2z" fill="#d2d2d4" transform="matrix(.72168782 0 0 1 52.663678 .425354)"/></g><g transform="matrix(0 1 -1 0 627.002644 -13.999998)"><path d="m186 529h8v8h-8z" opacity=".001"/><path d="m194.45572 532.57465-3.46411 2-3.4641 2v-8l3.4641 2z" fill="#aaaaac" transform="matrix(.72168782 0 0 1 52.663678 .425354)"/></g><g transform="matrix(0 1 -1 0 637.002644 -13.999998)"><path d="m186 529h8v8h-8z" opacity=".001"/><path d="m194.45572 532.57465-3.46411 2-3.4641 2v-8l3.4641 2z" fill="#fff" opacity=".25" transform="matrix(.72168782 0 0 1 52.663678 .425354)"/></g><g transform="translate(45.002644 -134.999998)"><path d="m15 317h8v8h-8z" opacity=".001"/><path d="m18 317v3h-3v2h3v3h2v-3h3v-2h-3v-3z" fill="#aaaaac"/></g><g transform="translate(35.002644 -123.999998)"><path d="m25 317h8v8h-8z" opacity=".001"/><path d="m320-33h2v8h-2z" fill="#aaaaac" transform="rotate(90)"/></g><g transform="translate(55.002644 -134.999998)"><path d="m15 317h8v8h-8z" opacity=".001"/><path d="m18 317v3h-3v2h3v3h2v-3h3v-2h-3v-3z" fill="#c8c8ca"/></g><g transform="translate(45.002654 -123.999998)"><path d="m25 317h8v8h-8z" opacity=".001"/><path d="m320-33h2v8h-2z" fill="#c8c8ca" transform="rotate(90)"/></g><g transform="translate(65.002644 -134.999998)"><path d="m15 317h8v8h-8z" opacity=".001"/><path d="m18 317v3h-3v2h3v3h2v-3h3v-2h-3v-3z" fill="#d2d2d4"/></g><g transform="translate(55.002644 -123.999998)"><path d="m25 317h8v8h-8z" opacity=".001"/><path d="m320-33h2v8h-2z" fill="#d2d2d4" transform="rotate(90)"/></g><g transform="translate(75.002644 -134.999998)"><path d="m15 317h8v8h-8z" opacity=".001"/><path d="m18 317v3h-3v2h3v3h2v-3h3v-2h-3v-3z" fill="#aaaaac"/></g><g transform="translate(65.002644 -123.999998)"><path d="m25 317h8v8h-8z" opacity=".001"/><path d="m320-33h2v8h-2z" fill="#aaaaac" transform="rotate(90)"/></g><g transform="translate(85.002644 -134.999998)"><path d="m15 317h8v8h-8z" opacity=".001"/><path d="m18 317v3h-3v2h3v3h2v-3h3v-2h-3v-3z" fill="#fff" opacity=".25"/></g><g transform="translate(75.002644 -123.999998)"><path d="m25 317h8v8h-8z" opacity=".001"/><path d="m320-33h2v8h-2z" fill="#fff" opacity=".25" transform="rotate(90)"/></g><g transform="translate(-185.997346 -388.999998)"><path d="m186 529h8v8h-8z" opacity=".001"/><path d="m194.45572 532.57465-3.46411 2-3.4641 2v-8l3.4641 2z" fill="#aaaaac" transform="matrix(.72168782 0 0 1 52.663678 .425354)"/></g><g transform="translate(-175.997346 -388.999998)"><path d="m186 529h8v8h-8z" opacity=".001"/><path d="m194.45572 532.57465-3.46411 2-3.4641 2v-8l3.4641 2z" fill="#c8c8ca" transform="matrix(.72168782 0 0 1 52.663678 .425354)"/></g><g transform="translate(-163.997346 -388.999998)"><path d="m186 529h8v8h-8z" opacity=".001"/><path d="m194.45572 532.57465-3.46411 2-3.4641 2v-8l3.4641 2z" fill="#d2d2d4" transform="matrix(.72168782 0 0 1 52.663678 .425354)"/></g><g transform="translate(-155.997346 -388.999998)"><path d="m186 529h8v8h-8z" opacity=".001"/><path d="m194.45572 532.57465-3.46411 2-3.4641 2v-8l3.4641 2z" fill="#aaaaac" transform="matrix(.72168782 0 0 1 52.663678 .425354)"/></g><g transform="translate(-145.997346 -388.999998)"><path d="m186 529h8v8h-8z" opacity=".001"/><path d="m194.45572 532.57465-3.46411 2-3.4641 2v-8l3.4641 2z" fill="#fff" opacity=".25" transform="matrix(.72168782 0 0 1 52.663678 .425354)"/></g><g transform="matrix(-1 0 0 -1 194.002658 687.999942)"><path d="m186 529h8v8h-8z" opacity=".001"/><path d="m194.45572 532.57465-3.46411 2-3.4641 2v-8l3.4641 2z" fill="#aaaaac" transform="matrix(.72168782 0 0 1 52.663678 .425354)"/></g><g transform="matrix(-1 0 0 -1 204.002644 687.999942)"><path d="m186 529h8v8h-8z" opacity=".001"/><path d="m194.45572 532.57465-3.46411 2-3.4641 2v-8l3.4641 2z" fill="#c8c8ca" transform="matrix(.72168782 0 0 1 52.663678 .425354)"/></g><g transform="matrix(-1 0 0 -1 214.002644 687.999942)"><path d="m186 529h8v8h-8z" opacity=".001"/><path d="m194.45572 532.57465-3.46411 2-3.4641 2v-8l3.4641 2z" fill="#d2d2d4" transform="matrix(.72168782 0 0 1 52.663678 .425354)"/></g><g transform="matrix(-1 0 0 -1 224.002644 687.999942)"><path d="m186 529h8v8h-8z" opacity=".001"/><path d="m194.45572 532.57465-3.46411 2-3.4641 2v-8l3.4641 2z" fill="#aaaaac" transform="matrix(.72168782 0 0 1 52.663678 .425354)"/></g><g transform="matrix(-1 0 0 -1 234.002644 687.999942)"><path d="m186 529h8v8h-8z" opacity=".001"/><path d="m194.45572 532.57465-3.46411 2-3.4641 2v-8l3.4641 2z" fill="#fff" opacity=".25" transform="matrix(.72168782 0 0 1 52.663678 .425354)"/></g><g transform="matrix(0 -1 1 0 -528.997366 355.999992)"><path d="m186 529h8v8h-8z" opacity=".001"/><path d="m194.45572 532.57465-3.46411 2-3.4641 2v-8l3.4641 2z" fill="#aaaaac" transform="matrix(.72168782 0 0 1 52.663678 .425354)"/></g><g transform="matrix(0 -1 1 0 -518.997366 355.999992)"><path d="m186 529h8v8h-8z" opacity=".001"/><path d="m194.45572 532.57465-3.46411 2-3.4641 2v-8l3.4641 2z" fill="#c8c8ca" transform="matrix(.72168782 0 0 1 52.663678 .425354)"/></g><g transform="matrix(0 -1 1 0 -508.997359 355.999999)"><path d="m186 529h8v8h-8z" opacity=".001"/><path d="m194.45572 532.57465-3.46411 2-3.4641 2v-8l3.4641 2z" fill="#d2d2d4" transform="matrix(.72168782 0 0 1 52.663678 .425354)"/></g><g transform="matrix(0 -1 1 0 -498.997359 355.999999)"><path d="m186 529h8v8h-8z" opacity=".001"/><path d="m194.45572 532.57465-3.46411 2-3.4641 2v-8l3.4641 2z" fill="#aaaaac" transform="matrix(.72168782 0 0 1 52.663678 .425354)"/></g><g transform="matrix(0 -1 1 0 -488.997359 355.999999)"><path d="m186 529h8v8h-8z" opacity=".001"/><path d="m194.45572 532.57465-3.46411 2-3.4641 2v-8l3.4641 2z" fill="#fff" opacity=".25" transform="matrix(.72168782 0 0 1 52.663678 .425354)"/></g><g transform="matrix(0 1 -1 0 537.002664 -13.999998)"><path d="m186 529h8v8h-8z" opacity=".001"/><path d="m194.45572 532.57465-3.46411 2-3.4641 2v-8l3.4641 2z" fill="#aaaaac" transform="matrix(.72168782 0 0 1 52.663678 .425354)"/></g><g transform="matrix(0 1 -1 0 547.002664 -13.999998)"><path d="m186 529h8v8h-8z" opacity=".001"/><path d="m194.45572 532.57465-3.46411 2-3.4641 2v-8l3.4641 2z" fill="#c8c8ca" transform="matrix(.72168782 0 0 1 52.663678 .425354)"/></g><g transform="matrix(0 1 -1 0 557.002664 -13.999998)"><path d="m186 529h8v8h-8z" opacity=".001"/><path d="m194.45572 532.57465-3.46411 2-3.4641 2v-8l3.4641 2z" fill="#d2d2d4" transform="matrix(.72168782 0 0 1 52.663678 .425354)"/></g><g transform="matrix(0 1 -1 0 567.002664 -13.999998)"><path d="m186 529h8v8h-8z" opacity=".001"/><path d="m194.45572 532.57465-3.46411 2-3.4641 2v-8l3.4641 2z" fill="#aaaaac" transform="matrix(.72168782 0 0 1 52.663678 .425354)"/></g><g transform="matrix(0 1 -1 0 577.002664 -13.999998)"><path d="m186 529h8v8h-8z" opacity=".001"/><path d="m194.45572 532.57465-3.46411 2-3.4641 2v-8l3.4641 2z" fill="#fff" opacity=".25" transform="matrix(.72168782 0 0 1 52.663678 .425354)"/></g><rect fill="#303651" height="16" ry="2" width="16" x="90.002644" y="110.000002"/><rect fill="#303651" fill-opacity=".188235" height="14" ry="1" width="14" x="91.002644" y="111.000002"/><rect fill="#00e8c6" height="16" ry="2" width="16" x="110.002644" y="110.000002"/><rect fill="#303651" height="14" ry="1" width="14" x="111.002644" y="111.000002"/><g transform="translate(45.002644 -14.999998)"><path d="m127 125c-1.108 0-2 .892-2 2v12c0 1.108.892 2 2 2h12c1.108 0 2-.892 2-2v-12c0-1.108-.892-2-2-2z" fill="#00e8c6" transform="translate(-40)"/><path d="m97.783637 128.28067c-.337258.011-.691713.1536-.956726.4185l-5.740355 5.7404-1.913451-1.9134c-.530026-.5301-1.349982-.5635-1.853655-.06l-.119591.1196c-.503673.5036-.470231 1.3235.05979 1.8536l2.660893 2.631c.04659.072.08653.1165.149489.1794l.11958.12c.04791.044.09781.085.149489.1195.01272.011.01692.022.0299.03.06416.042.141106.06.209285.089.05967.024.116906.045.179385.059.02157.012.03807.025.05979.03.165282.031.340191.033.508261 0 .03161-.011.05857-.022.0897-.03.22706-.061.446334-.1773.627851-.3587l.05979-.06c.06296-.063.102901-.1075.149488-.1794l6.487797-6.4579c.530026-.5299.563468-1.3499.05979-1.8537l-.11959-.1195c-.251838-.2518-.559672-.3674-.89693-.3589z" fill="#1e1e20"/></g><g transform="translate(65.002644 -14.999998)"><path d="m147 125c-1.108 0-2 .892-2 2v12c0 1.108.892 2 2 2h12c1.108 0 2-.892 2-2v-12c0-1.108-.892-2-2-2z" fill="#6e6e70" transform="translate(-60)"/><path d="m147 125c-1.108 0-2 .892-2 2v12c0 1.108.892 2 2 2h12c1.108 0 2-.892 2-2v-12c0-1.108-.892-2-2-2z" fill="#00e8c6" opacity=".5" transform="translate(-60)"/><path d="m97.783637 128.28067c-.337258.011-.691713.1536-.956726.4185l-5.740355 5.7404-1.913451-1.9134c-.530026-.5301-1.349982-.5635-1.853655-.06l-.119591.1196c-.503673.5036-.470231 1.3235.05979 1.8536l2.660893 2.631c.04659.072.08653.1165.149489.1794l.11958.12c.04791.044.09781.085.149489.1195.01272.011.01692.022.0299.03.06416.042.141106.06.209285.089.05967.024.116906.045.179385.059.02157.012.03807.025.05979.03.165282.031.340191.033.508261 0 .03161-.011.05857-.022.0897-.03.22706-.061.446334-.1773.627851-.3587l.05979-.06c.06296-.063.102901-.1075.149488-.1794l6.487797-6.4579c.530026-.5299.563468-1.3499.05979-1.8537l-.11959-.1195c-.251838-.2518-.559672-.3674-.89693-.3589z" fill="#1e1e20"/></g><g transform="translate(84.750094 -14.999998)"><path d="m87.25255 125c-1.108 0-2 .892-2 2v12c0 1.108.892 2 2 2h12c1.108 0 2-.892 2-2v-12c0-1.108-.892-2-2-2z" fill="#6e6e70"/><path d="m172 128v4h-4v2h4v4h2v-4h4v-2h-4v-4z" fill="#1e1e20" transform="translate(-79.74745)"/></g><g transform="translate(105.002644 -14.999998)"><path d="m147 125c-1.108 0-2 .892-2 2v12c0 1.108.892 2 2 2h12c1.108 0 2-.892 2-2v-12c0-1.108-.892-2-2-2z" fill="#6e6e70" transform="translate(-60)"/><path d="m147 125c-1.108 0-2 .892-2 2v12c0 1.108.892 2 2 2h12c1.108 0 2-.892 2-2v-12c0-1.108-.892-2-2-2z" fill="#fff" opacity=".18" transform="translate(-60)"/><path d="m92 128v4h-4v2h4v4h2v-4h4v-2h-4v-4z" fill="#1e1e20"/></g><g fill="#303651" transform="translate(.002644 -43.999998)"><path d="m8 154a8 8 0 0 0 -8 8 8 8 0 0 0 8 8 8 8 0 0 0 8-8 8 8 0 0 0 -8-8zm0 2a6 6 0 0 1 6 6 6 6 0 0 1 -6 6 6 6 0 0 1 -6-6 6 6 0 0 1 6-6z"/><circle cx="8" cy="162" r="6"/></g><g transform="translate(20.002644 -43.999998)"><path d="m8 154a8 8 0 0 0 -8 8 8 8 0 0 0 8 8 8 8 0 0 0 8-8 8 8 0 0 0 -8-8zm0 2a6 6 0 0 1 6 6 6 6 0 0 1 -6 6 6 6 0 0 1 -6-6 6 6 0 0 1 6-6z" fill="#00e8c6"/><circle cx="8" cy="162" fill="#303651" r="6"/></g><g transform="translate(40.002644 -43.999998)"><path d="m8 154a8 8 0 0 0 -8 8 8 8 0 0 0 8 8 8 8 0 0 0 8-8 8 8 0 0 0 -8-8zm0 2a6 6 0 0 1 6 6 6 6 0 0 1 -6 6 6 6 0 0 1 -6-6 6 6 0 0 1 6-6z" fill="#00e8c6"/><circle cx="8" cy="162" fill="#303651" r="6"/><circle cx="8" cy="162" fill="#00e8c6" r="4"/></g><g transform="translate(60.002644 -43.999998)"><path d="m8 154a8 8 0 0 0 -8 8 8 8 0 0 0 8 8 8 8 0 0 0 8-8 8 8 0 0 0 -8-8zm0 2a6 6 0 0 1 6 6 6 6 0 0 1 -6 6 6 6 0 0 1 -6-6 6 6 0 0 1 6-6z" fill="#6e6e70"/><path d="m8 154a8 8 0 0 0 -8 8 8 8 0 0 0 8 8 8 8 0 0 0 8-8 8 8 0 0 0 -8-8zm0 2a6 6 0 0 1 6 6 6 6 0 0 1 -6 6 6 6 0 0 1 -6-6 6 6 0 0 1 6-6z" fill="#00e8c6" opacity=".5"/><circle cx="8" cy="162" fill="#303651" r="6"/><circle cx="8" cy="162" fill="#6e6e70" r="4"/><circle cx="8" cy="162" fill="#00e8c6" opacity=".5" r="4"/></g><g transform="translate(.002644 45.000002)"><path d="m220 10h10v10h-10z" fill-rule="evenodd"/><g transform="matrix(.8 0 0 .98461538 218 -32.001575)"><path d="m2 21v32h4v-32z" fill="#1e2233" fill-rule="evenodd" opacity=".6" stroke-width=".88752" transform="matrix(1.25 0 0 1.015625 21.249876 27.423476)"/><path d="m21.25 48.7516v32.5h2.5v-32.5z" fill="#0c0e15"/></g><g transform="matrix(0 -.8 .8 0 201.99862 70.9999)"><path d="m6 17c-2.5 0-4 1.5-4 4h4z" fill="#1e2233" fill-rule="evenodd" opacity=".6" stroke-width=".8" transform="matrix(1.25 0 0 1.25 21.249876 22.501601)"/><path d="m28.75 41.2516c-4.125-.000051-7.50003 3.37497-7.5 7.5h2.5c0-3.125 1.875-5 5-5z" fill="#0c0e15"/></g><g transform="matrix(0 -.8 .98461538 0 192.99832 71)"><path d="m2 21v32h4v-32z" fill="#1e2233" fill-rule="evenodd" opacity=".6" stroke-width=".88752" transform="matrix(1.25 0 0 1.015625 21.249876 27.423476)"/><path d="m21.25 48.7516v32.5h2.5v-32.5z" fill="#0c0e15"/></g><g transform="matrix(-.8 0 0 -.8 295.9998 87.00128)"><path d="m6 17c-2.5 0-4 1.5-4 4h4z" fill="#1e2233" fill-rule="evenodd" opacity=".6" stroke-width=".8" transform="matrix(1.25 0 0 1.25 21.249876 22.501601)"/><path d="m28.75 41.2516c-4.125-.000051-7.50003 3.37497-7.5 7.5h2.5c0-3.125 1.875-5 5-5z" fill="#0c0e15"/></g><g transform="matrix(-.8 0 0 .98461538 295.9998 -32.001575)"><path d="m2 21v32h4v-32z" fill="#1e2233" fill-rule="evenodd" opacity=".6" stroke-width=".88752" transform="matrix(1.25 0 0 1.015625 21.249876 27.423476)"/><path d="m21.25 48.7516v32.5h2.5v-32.5z" fill="#0c0e15"/></g><g transform="matrix(0 .8 -.8 0 312.00118 -6.9999)"><path d="m6 17c-2.5 0-4 1.5-4 4h4z" fill="#1e2233" fill-rule="evenodd" opacity=".6" stroke-width=".8" transform="matrix(1.25 0 0 1.25 21.249876 22.501601)"/><path d="m28.75 41.2516c-4.125-.000051-7.50003 3.37497-7.5 7.5h2.5c0-3.125 1.875-5 5-5z" fill="#0c0e15"/></g><g transform="matrix(0 .8 -.98461538 0 321.00148 -6.9999)"><path d="m2 21v32h4v-32z" fill="#1e2233" fill-rule="evenodd" opacity=".6" stroke-width=".88752" transform="matrix(1.25 0 0 1.015625 21.249876 27.423476)"/><path d="m21.25 48.7516v32.5h2.5v-32.5z" fill="#0c0e15"/></g><g transform="matrix(.8 0 0 .8 218 -23.00128)"><path d="m6 17c-2.5 0-4 1.5-4 4h4z" fill="#1e2233" fill-rule="evenodd" opacity=".6" stroke-width=".8" transform="matrix(1.25 0 0 1.25 21.249876 22.501601)"/><path d="m28.75 41.2516c-4.125-.000051-7.50003 3.37497-7.5 7.5h2.5c0-3.125 1.875-5 5-5z" fill="#0c0e15"/></g><path d="m241 16v32h32v-32z" fill="#1e2233" fill-rule="evenodd" opacity=".6"/><g transform="matrix(.8 0 0 .98461538 268 -32.001575)"><path d="m2 21v32h4v-32z" fill="#252a3f" fill-rule="evenodd" stroke-width=".88752" transform="matrix(1.25 0 0 1.015625 21.249876 27.423476)"/><path d="m21.25 48.7516v32.5h2.5v-32.5z" fill="#0c0e15"/></g><g transform="matrix(0 -.8 .8 0 251.99862 70.9999)"><path d="m6 17c-2.5 0-4 1.5-4 4h4z" fill="#252a3f" fill-rule="evenodd" stroke-width=".8" transform="matrix(1.25 0 0 1.25 21.249876 22.501601)"/><path d="m28.75 41.2516c-4.125-.000051-7.50003 3.37497-7.5 7.5h2.5c0-3.125 1.875-5 5-5z" fill="#0c0e15"/></g><g transform="matrix(0 -.8 .98461538 0 242.99832 71)"><path d="m2 21v32h4v-32z" fill="#252a3f" fill-rule="evenodd" stroke-width=".88752" transform="matrix(1.25 0 0 1.015625 21.249876 27.423476)"/><path d="m21.25 48.7516v32.5h2.5v-32.5z" fill="#0c0e15"/></g><g transform="matrix(-.8 0 0 -.8 345.9998 87.00128)"><path d="m6 17c-2.5 0-4 1.5-4 4h4z" fill="#252a3f" fill-rule="evenodd" stroke-width=".8" transform="matrix(1.25 0 0 1.25 21.249876 22.501601)"/><path d="m28.75 41.2516c-4.125-.000051-7.50003 3.37497-7.5 7.5h2.5c0-3.125 1.875-5 5-5z" fill="#0c0e15"/></g><g transform="matrix(-.8 0 0 .98461538 345.9998 -32.001575)"><path d="m2 21v32h4v-32z" fill="#252a3f" fill-rule="evenodd" stroke-width=".88752" transform="matrix(1.25 0 0 1.015625 21.249876 27.423476)"/><path d="m21.25 48.7516v32.5h2.5v-32.5z" fill="#0c0e15"/></g><g transform="matrix(0 .8 -.8 0 362.00118 -6.9999)"><path d="m6 17c-2.5 0-4 1.5-4 4h4z" fill="#252a3f" fill-rule="evenodd" stroke-width=".8" transform="matrix(1.25 0 0 1.25 21.249876 22.501601)"/><path d="m28.75 41.2516c-4.125-.000051-7.50003 3.37497-7.5 7.5h2.5c0-3.125 1.875-5 5-5z" fill="#0c0e15"/></g><g transform="matrix(0 .8 -.98461538 0 371.00148 -6.9999)"><path d="m2 21v32h4v-32z" fill="#252a3f" fill-rule="evenodd" stroke-width=".88752" transform="matrix(1.25 0 0 1.015625 21.249876 27.423476)"/><path d="m21.25 48.7516v32.5h2.5v-32.5z" fill="#0c0e15"/></g><g transform="matrix(.8 0 0 .8 268 -23.00128)"><path d="m6 17c-2.5 0-4 1.5-4 4h4z" fill="#252a3f" fill-rule="evenodd" stroke-width=".8" transform="matrix(1.25 0 0 1.25 21.249876 22.501601)"/><path d="m28.75 41.2516c-4.125-.000051-7.50003 3.37497-7.5 7.5h2.5c0-3.125 1.875-5 5-5z" fill="#0c0e15"/></g><path d="m291 16v32h32v-32z" fill="#252a3f" fill-rule="evenodd"/></g><g transform="translate(.002644 45.000002)"><g transform="matrix(.8 0 0 .98461538 -1.9999 -32.001576)"><path d="m2 21v32h4v-32z" fill="#1e2233" fill-rule="evenodd" opacity=".6" stroke-width=".88752" transform="matrix(1.25 0 0 1.015625 21.249876 27.423476)"/><path d="m21.25 48.7516v32.5h2.5v-32.5z" fill="#0c0e15"/></g><g transform="matrix(0 -.8 .8 0 -18.00128 70.999901)"><path d="m6 17c-2.5 0-4 1.5-4 4h4z" fill="#1e2233" fill-rule="evenodd" opacity=".6" stroke-width=".8" transform="matrix(1.25 0 0 1.25 21.249876 22.501601)"/><path d="m28.75 41.2516c-4.125-.000051-7.50003 3.37497-7.5 7.5h2.5c0-3.125 1.875-5 5-5z" fill="#0c0e15"/></g><g transform="matrix(0 -.8 .98461538 0 -27.00158 71)"><path d="m2 21v32h4v-32z" fill="#1e2233" fill-rule="evenodd" opacity=".6" stroke-width=".88752" transform="matrix(1.25 0 0 1.015625 21.249876 27.423476)"/><path d="m21.25 48.7516v32.5h2.5v-32.5z" fill="#0c0e15"/></g><g transform="matrix(-.8 0 0 -.8 75.9999 87.001281)"><path d="m6 17c-2.5 0-4 1.5-4 4h4z" fill="#1e2233" fill-rule="evenodd" opacity=".6" stroke-width=".8" transform="matrix(1.25 0 0 1.25 21.249876 22.501601)"/><path d="m28.75 41.2516c-4.125-.000051-7.50003 3.37497-7.5 7.5h2.5c0-3.125 1.875-5 5-5z" fill="#0c0e15"/></g><g transform="matrix(-.8 0 0 .98461538 75.9999 -32.001576)"><path d="m2 21v32h4v-32z" fill="#1e2233" fill-rule="evenodd" opacity=".6" stroke-width=".88752" transform="matrix(1.25 0 0 1.015625 21.249876 27.423476)"/><path d="m21.25 48.7516v32.5h2.5v-32.5z" fill="#0c0e15"/></g><g transform="matrix(0 .8 -.8 0 92.00128 -6.999901)"><path d="m6 17c-2.5 0-4 1.5-4 4h4z" fill="#1e2233" fill-rule="evenodd" opacity=".6" stroke-width=".8" transform="matrix(1.25 0 0 1.25 21.249876 22.501601)"/><path d="m28.75 41.2516c-4.125-.000051-7.50003 3.37497-7.5 7.5h2.5c0-3.125 1.875-5 5-5z" fill="#0c0e15"/></g><g transform="matrix(0 .8 -.98461538 0 101.00158 -6.999901)"><path d="m2 21v32h4v-32z" fill="#1e2233" fill-rule="evenodd" opacity=".6" stroke-width=".88752" transform="matrix(1.25 0 0 1.015625 21.249876 27.423476)"/><path d="m21.25 48.7516v32.5h2.5v-32.5z" fill="#0c0e15"/></g><g transform="matrix(.8 0 0 .8 -1.9999 -23.001281)"><path d="m6 17c-2.5 0-4 1.5-4 4h4z" fill="#1e2233" fill-rule="evenodd" opacity=".6" stroke-width=".8" transform="matrix(1.25 0 0 1.25 21.249876 22.501601)"/><path d="m28.75 41.2516c-4.125-.000051-7.50003 3.37497-7.5 7.5h2.5c0-3.125 1.875-5 5-5z" fill="#0c0e15"/></g><path d="m21.0001 15.999999v32h32v-32z" fill="#1e2233" fill-rule="evenodd" opacity=".6"/><g fill="#252a3f"><g transform="matrix(.8 0 0 .98461538 48 -32.001575)"><path d="m2 21v32h4v-32z" fill-rule="evenodd" stroke-width=".88752" transform="matrix(1.25 0 0 1.015625 21.249876 27.423476)"/><path d="m21.25 48.7516v32.5h2.5v-32.5z"/></g><g transform="matrix(0 -.8 .8 0 31.99872 70.999901)"><path d="m6 17c-2.5 0-4 1.5-4 4h4z" fill-rule="evenodd" stroke-width=".8" transform="matrix(1.25 0 0 1.25 21.249876 22.501601)"/><path d="m28.75 41.2516c-4.125-.000051-7.50003 3.37497-7.5 7.5h2.5c0-3.125 1.875-5 5-5z"/></g><g transform="matrix(0 -.8 .98461538 0 22.99842 70.999901)"><path d="m2 21v32h4v-32z" fill-rule="evenodd" stroke-width=".88752" transform="matrix(1.25 0 0 1.015625 21.249876 27.423476)"/><path d="m21.25 48.7516v32.5h2.5v-32.5z"/></g><g transform="matrix(-.8 0 0 -.8 125.9999 87.001281)"><path d="m6 17c-2.5 0-4 1.5-4 4h4z" fill-rule="evenodd" stroke-width=".8" transform="matrix(1.25 0 0 1.25 21.249876 22.501601)"/><path d="m28.75 41.2516c-4.125-.000051-7.50003 3.37497-7.5 7.5h2.5c0-3.125 1.875-5 5-5z"/></g><g transform="matrix(-.8 0 0 .98461538 126 -32.001575)"><path d="m2 21v32h4v-32z" fill-rule="evenodd" stroke-width=".88752" transform="matrix(1.25 0 0 1.015625 21.249876 27.423476)"/><path d="m21.25 48.7516v32.5h2.5v-32.5z"/></g><g transform="matrix(0 .8 -.8 0 142.00128 -6.999901)"><path d="m6 17c-2.5 0-4 1.5-4 4h4z" fill-rule="evenodd" stroke-width=".8" transform="matrix(1.25 0 0 1.25 21.249876 22.501601)"/><path d="m28.75 41.2516c-4.125-.000051-7.50003 3.37497-7.5 7.5h2.5c0-3.125 1.875-5 5-5z"/></g><g transform="matrix(0 .8 -.98461538 0 151.00158 -7)"><path d="m2 21v32h4v-32z" fill-rule="evenodd" stroke-width=".88752" transform="matrix(1.25 0 0 1.015625 21.249876 27.423476)"/><path d="m21.25 48.7516v32.5h2.5v-32.5z"/></g><g transform="matrix(.8 0 0 .8 48 -23.00128)"><path d="m6 17c-2.5 0-4 1.5-4 4h4z" fill-rule="evenodd" stroke-width=".8" transform="matrix(1.25 0 0 1.25 21.249876 22.501601)"/><path d="m28.75 41.2516c-4.125-.000051-7.50003 3.37497-7.5 7.5h2.5c0-3.125 1.875-5 5-5z"/></g><path d="m71 16v32h32v-32z" fill-rule="evenodd"/><g transform="matrix(.8 0 0 .98461538 98 -32.001575)"><path d="m2 21v32h4v-32z" fill-rule="evenodd" stroke-width=".88752" transform="matrix(1.25 0 0 1.015625 21.249876 27.423476)"/><path d="m21.25 48.7516v32.5h2.5v-32.5z"/></g><g transform="matrix(0 -.8 .8 0 81.99872 71)"><path d="m6 17c-2.5 0-4 1.5-4 4h4z" fill-rule="evenodd" stroke-width=".8" transform="matrix(1.25 0 0 1.25 21.249876 22.501601)"/><path d="m28.75 41.2516c-4.125-.000051-7.50003 3.37497-7.5 7.5h2.5c0-3.125 1.875-5 5-5z"/></g><g transform="matrix(0 -.8 .98461538 0 72.99842 71)"><path d="m2 21v32h4v-32z" fill-rule="evenodd" stroke-width=".88752" transform="matrix(1.25 0 0 1.015625 21.249876 27.423476)"/><path d="m21.25 48.7516v32.5h2.5v-32.5z"/></g><g transform="matrix(-.8 0 0 -.8 175.9999 87.001281)"><path d="m6 17c-2.5 0-4 1.5-4 4h4z" fill-rule="evenodd" stroke-width=".8" transform="matrix(1.25 0 0 1.25 21.249876 22.501601)"/><path d="m28.75 41.2516c-4.125-.000051-7.50003 3.37497-7.5 7.5h2.5c0-3.125 1.875-5 5-5z"/></g><g transform="matrix(-.8 0 0 .98461538 176 -32.001575)"><path d="m2 21v32h4v-32z" fill-rule="evenodd" stroke-width=".88752" transform="matrix(1.25 0 0 1.015625 21.249876 27.423476)"/><path d="m21.25 48.7516v32.5h2.5v-32.5z"/></g><g transform="matrix(0 .8 -.8 0 192.00128 -6.999901)"><path d="m6 17c-2.5 0-4 1.5-4 4h4z" fill-rule="evenodd" stroke-width=".8" transform="matrix(1.25 0 0 1.25 21.249876 22.501601)"/><path d="m28.75 41.2516c-4.125-.000051-7.50003 3.37497-7.5 7.5h2.5c0-3.125 1.875-5 5-5z"/></g><g transform="matrix(0 .8 -.98461538 0 201.00158 -7)"><path d="m2 21v32h4v-32z" fill-rule="evenodd" stroke-width=".88752" transform="matrix(1.25 0 0 1.015625 21.249876 27.423476)"/><path d="m21.25 48.7516v32.5h2.5v-32.5z"/></g><g transform="matrix(.8 0 0 .8 98 -23.00128)"><path d="m6 17c-2.5 0-4 1.5-4 4h4z" fill-rule="evenodd" stroke-width=".8" transform="matrix(1.25 0 0 1.25 21.249876 22.501601)"/><path d="m28.75 41.2516c-4.125-.000051-7.50003 3.37497-7.5 7.5h2.5c0-3.125 1.875-5 5-5z"/></g><path d="m121 16v32h32v-32z" fill-rule="evenodd"/><g transform="matrix(.8 0 0 .98461538 148 -32.001575)"><path d="m2 21v32h4v-32z" fill-rule="evenodd" stroke-width=".88752" transform="matrix(1.25 0 0 1.015625 21.249876 27.423476)"/><path d="m21.25 48.7516v32.5h2.5v-32.5z"/></g><g transform="matrix(0 -.8 .8 0 131.99872 70.999901)"><path d="m6 17c-2.5 0-4 1.5-4 4h4z" fill-rule="evenodd" stroke-width=".8" transform="matrix(1.25 0 0 1.25 21.249876 22.501601)"/><path d="m28.75 41.2516c-4.125-.000051-7.50003 3.37497-7.5 7.5h2.5c0-3.125 1.875-5 5-5z"/></g><g transform="matrix(0 -.8 .98461538 0 122.99842 70.999901)"><path d="m2 21v32h4v-32z" fill-rule="evenodd" stroke-width=".88752" transform="matrix(1.25 0 0 1.015625 21.249876 27.423476)"/><path d="m21.25 48.7516v32.5h2.5v-32.5z"/></g><g transform="matrix(-.8 0 0 -.8 225.9999 87.001281)"><path d="m6 17c-2.5 0-4 1.5-4 4h4z" fill-rule="evenodd" stroke-width=".8" transform="matrix(1.25 0 0 1.25 21.249876 22.501601)"/><path d="m28.75 41.2516c-4.125-.000051-7.50003 3.37497-7.5 7.5h2.5c0-3.125 1.875-5 5-5z"/></g><g transform="matrix(-.8 0 0 .98461538 226 -32.001575)"><path d="m2 21v32h4v-32z" fill-rule="evenodd" stroke-width=".88752" transform="matrix(1.25 0 0 1.015625 21.249876 27.423476)"/><path d="m21.25 48.7516v32.5h2.5v-32.5z"/></g><g transform="matrix(0 .8 -.8 0 242.00128 -6.999901)"><path d="m6 17c-2.5 0-4 1.5-4 4h4z" fill-rule="evenodd" stroke-width=".8" transform="matrix(1.25 0 0 1.25 21.249876 22.501601)"/><path d="m28.75 41.2516c-4.125-.000051-7.50003 3.37497-7.5 7.5h2.5c0-3.125 1.875-5 5-5z"/></g><g transform="matrix(0 .8 -.98461538 0 251.00158 -7)"><path d="m2 21v32h4v-32z" fill-rule="evenodd" stroke-width=".88752" transform="matrix(1.25 0 0 1.015625 21.249876 27.423476)"/><path d="m21.25 48.7516v32.5h2.5v-32.5z"/></g><g transform="matrix(.8 0 0 .8 148 -23.00128)"><path d="m6 17c-2.5 0-4 1.5-4 4h4z" fill-rule="evenodd" stroke-width=".8" transform="matrix(1.25 0 0 1.25 21.249876 22.501601)"/><path d="m28.75 41.2516c-4.125-.000051-7.50003 3.37497-7.5 7.5h2.5c0-3.125 1.875-5 5-5z"/></g><path d="m171 16v32h32v-32z" fill-rule="evenodd"/></g><path d="m0 10h10v10h-10z" fill-rule="evenodd"/></g><g transform="translate(.002644 45.000002)"><use height="100%" transform="matrix(0 -1 1 0 295 239)" width="100%" xlink:href="#ae"/><path d="m255-16h2v-2h-2z" fill="#fff" opacity=".18"/><use height="100%" transform="matrix(-1 0 -0 -1 534 -56)" width="100%" xlink:href="#ae"/><path d="m277-16h2v-2h-2z" fill="#fff" opacity=".18"/><use height="100%" transform="matrix(0 1 -1 0 239 -295)" width="100%" xlink:href="#ae"/><path d="m277-38h2v-2h-2z" fill="#fff" opacity=".18"/><g id="ae" transform="translate(167 -147.5)"><path d="m90 109.5h20v-2h-20z" fill="none"/><g fill="#fff" opacity=".18"><path d="m90 109.5h2.5v-2h-2.5z" fill="#fff"/><path d="m95 109.5h2.5v-2h-2.5z" fill="#fff"/><path d="m99.75 109.5h2.5v-2h-2.5z" fill="#fff"/><path d="m105 109.5h2.5v-2h-2.5z" fill="#fff"/></g></g><path d="m255-38h2v-2h-2z" fill="#fff" opacity=".18"/></g><g transform="translate(-154.99736 -87.499998)"><path d="m375 87.5h25v25h-25z" opacity="0"/><path d="m400 92.5-20 20h20z" fill="#fff" opacity=".18"/></g><g transform="translate(.002644 45.000002)"><g transform="matrix(.8 0 0 .98461538 -2 -87.001577)"><path d="m2 21v32h4v-32z" fill="#1e2134" fill-opacity=".6" fill-rule="evenodd" stroke-width=".88752" transform="matrix(1.25 0 0 1.015625 21.249876 27.423476)"/><path d="m21.25 48.7516v32.5h2.5v-32.5z" fill="#0c0e15"/></g><g transform="matrix(0 -.8 .8 0 -18.00138 15.9999)"><path d="m6 17c-2.5 0-4 1.5-4 4h4z" fill="#1e2134" fill-opacity=".6" fill-rule="evenodd" stroke-width=".8" transform="matrix(1.25 0 0 1.25 21.249876 22.501601)"/><path d="m28.75 41.2516c-4.125-.000051-7.50003 3.37497-7.5 7.5h2.5c0-3.125 1.875-5 5-5z" fill="#0c0e15"/></g><g transform="matrix(0 -.8 .98461538 0 -27.001674 15.999999)"><path d="m2 21v32h4v-32z" fill="#1e2134" fill-opacity=".6" fill-rule="evenodd" stroke-width=".88752" transform="matrix(1.25 0 0 1.015625 21.249876 27.423476)"/><path d="m21.25 48.7516v32.5h2.5v-32.5z" fill="#0c0e15"/></g><g transform="matrix(-.8 0 0 -.8 75.999802 32.00128)"><path d="m6 17c-2.5 0-4 1.5-4 4h4z" fill="#1e2134" fill-opacity=".6" fill-rule="evenodd" stroke-width=".8" transform="matrix(1.25 0 0 1.25 21.249876 22.501601)"/><path d="m28.75 41.2516c-4.125-.000051-7.50003 3.37497-7.5 7.5h2.5c0-3.125 1.875-5 5-5z" fill="#0c0e15"/></g><g transform="matrix(-.8 0 0 .98461538 75.999802 -87.001577)"><path d="m2 21v32h4v-32z" fill="#1e2134" fill-opacity=".6" fill-rule="evenodd" stroke-width=".88752" transform="matrix(1.25 0 0 1.015625 21.249876 27.423476)"/><path d="m21.25 48.7516v32.5h2.5v-32.5z" fill="#0c0e15"/></g><g transform="matrix(0 .8 -.8 0 92.001182 -61.999902)"><path d="m6 17c-2.5 0-4 1.5-4 4h4z" fill="#1e2134" fill-opacity=".6" fill-rule="evenodd" stroke-width=".8" transform="matrix(1.25 0 0 1.25 21.249876 22.501601)"/><path d="m28.75 41.2516c-4.125-.000051-7.50003 3.37497-7.5 7.5h2.5c0-3.125 1.875-5 5-5z" fill="#0c0e15"/></g><g transform="matrix(0 .8 -.98461538 0 101.00148 -61.999902)"><path d="m2 21v32h4v-32z" fill="#1e2134" fill-opacity=".6" fill-rule="evenodd" stroke-width=".88752" transform="matrix(1.25 0 0 1.015625 21.249876 27.423476)"/><path d="m21.25 48.7516v32.5h2.5v-32.5z" fill="#0c0e15"/></g><g transform="matrix(.8 0 0 .8 -2 -78.001282)"><path d="m6 17c-2.5 0-4 1.5-4 4h4z" fill="#1e2134" fill-opacity=".6" fill-rule="evenodd" stroke-width=".8" transform="matrix(1.25 0 0 1.25 21.249876 22.501601)"/><path d="m28.75 41.2516c-4.125-.000051-7.50003 3.37497-7.5 7.5h2.5c0-3.125 1.875-5 5-5z" fill="#0c0e15"/></g><path d="m21-39.000002v32h32v-32z" fill="#1e2233" fill-rule="evenodd" opacity=".6"/><g fill="#252a3f"><g transform="matrix(.8 0 0 .98461538 47.999901 -87.001576)"><path d="m2 21v32h4v-32z" fill-rule="evenodd" stroke-width=".88752" transform="matrix(1.25 0 0 1.015625 21.249876 27.423476)"/><path d="m21.25 48.7516v32.5h2.5v-32.5z"/></g><g transform="matrix(0 -.8 .8 0 31.99862 15.9999)"><path d="m6 17c-2.5 0-4 1.5-4 4h4z" fill-rule="evenodd" stroke-width=".8" transform="matrix(1.25 0 0 1.25 21.249876 22.501601)"/><path d="m28.75 41.2516c-4.125-.000051-7.50003 3.37497-7.5 7.5h2.5c0-3.125 1.875-5 5-5z"/></g><g transform="matrix(0 -.8 .98461538 0 22.998325 15.9999)"><path d="m2 21v32h4v-32z" fill-rule="evenodd" stroke-width=".88752" transform="matrix(1.25 0 0 1.015625 21.249876 27.423476)"/><path d="m21.25 48.7516v32.5h2.5v-32.5z"/></g><path d="m6 17c-2.5 0-4 1.5-4 4h4z" fill-rule="evenodd" stroke-width=".8" transform="matrix(-1 0 0 -1 108.9998992 13.9999992)"/><path d="m107.00195 38c0 2.5-1.5 4-4 4v2c3.3.000041 6.00003-2.699976 6-6z" stroke-width=".8" transform="translate(-.002648 -45.0000024)"/><g transform="matrix(-.8 0 0 .98461538 125.9999 -87.001576)"><path d="m2 21v32h4v-32z" fill-rule="evenodd" stroke-width=".88752" transform="matrix(1.25 0 0 1.015625 21.249876 27.423476)"/><path d="m21.25 48.7516v32.5h2.5v-32.5z"/></g><g transform="matrix(0 .8 -.8 0 142.00118 -61.999902)"><path d="m6 17c-2.5 0-4 1.5-4 4h4z" fill-rule="evenodd" stroke-width=".8" transform="matrix(1.25 0 0 1.25 21.249876 22.501601)"/><path d="m28.75 41.2516c-4.125-.000051-7.50003 3.37497-7.5 7.5h2.5c0-3.125 1.875-5 5-5z"/></g><g transform="matrix(0 .8 -.98461538 0 151.00148 -62.000001)"><path d="m2 21v32h4v-32z" fill-rule="evenodd" stroke-width=".88752" transform="matrix(1.25 0 0 1.015625 21.249876 27.423476)"/><path d="m21.25 48.7516v32.5h2.5v-32.5z"/></g><g transform="matrix(.8 0 0 .8 47.999901 -78.001281)"><path d="m6 17c-2.5 0-4 1.5-4 4h4z" fill-rule="evenodd" stroke-width=".8" transform="matrix(1.25 0 0 1.25 21.249876 22.501601)"/><path d="m28.75 41.2516c-4.125-.000051-7.50003 3.37497-7.5 7.5h2.5c0-3.125 1.875-5 5-5z"/></g><path d="m70.999901-39.000001v32h31.999999v-32z" fill-rule="evenodd"/><g transform="matrix(.8 0 0 .98461538 97.999901 -87.001576)"><path d="m2 21v32h4v-32z" fill-rule="evenodd" stroke-width=".88752" transform="matrix(1.25 0 0 1.015625 21.249876 27.423476)"/><path d="m21.25 48.7516v32.5h2.5v-32.5z"/></g><g transform="matrix(0 -.8 .8 0 81.998621 15.999999)"><path d="m6 17c-2.5 0-4 1.5-4 4h4z" fill-rule="evenodd" stroke-width=".8" transform="matrix(1.25 0 0 1.25 21.249876 22.501601)"/><path d="m28.75 41.2516c-4.125-.000051-7.50003 3.37497-7.5 7.5h2.5c0-3.125 1.875-5 5-5z"/></g><g transform="matrix(0 -.8 .98461538 0 72.998326 15.999999)"><path d="m2 21v32h4v-32z" fill-rule="evenodd" stroke-width=".88752" transform="matrix(1.25 0 0 1.015625 21.249876 27.423476)"/><path d="m21.25 48.7516v32.5h2.5v-32.5z"/></g><g transform="matrix(-.8 0 0 -.8 175.9998 32.00128)"><path d="m6 17c-2.5 0-4 1.5-4 4h4z" fill-rule="evenodd" stroke-width=".8" transform="matrix(1.25 0 0 1.25 21.249876 22.501601)"/><path d="m28.75 41.2516c-4.125-.000051-7.50003 3.37497-7.5 7.5h2.5c0-3.125 1.875-5 5-5z"/></g><g transform="matrix(-.8 0 0 .98461538 175.9999 -87.001576)"><path d="m2 21v32h4v-32z" fill-rule="evenodd" stroke-width=".88752" transform="matrix(1.25 0 0 1.015625 21.249876 27.423476)"/><path d="m21.25 48.7516v32.5h2.5v-32.5z"/></g><g transform="matrix(0 .8 -.8 0 192.00118 -61.999902)"><path d="m6 17c-2.5 0-4 1.5-4 4h4z" fill-rule="evenodd" stroke-width=".8" transform="matrix(1.25 0 0 1.25 21.249876 22.501601)"/><path d="m28.75 41.2516c-4.125-.000051-7.50003 3.37497-7.5 7.5h2.5c0-3.125 1.875-5 5-5z"/></g><g transform="matrix(0 .8 -.98461538 0 201.00148 -62.000001)"><path d="m2 21v32h4v-32z" fill-rule="evenodd" stroke-width=".88752" transform="matrix(1.25 0 0 1.015625 21.249876 27.423476)"/><path d="m21.25 48.7516v32.5h2.5v-32.5z"/></g><g transform="matrix(.8 0 0 .8 97.999901 -78.001281)"><path d="m6 17c-2.5 0-4 1.5-4 4h4z" fill-rule="evenodd" stroke-width=".8" transform="matrix(1.25 0 0 1.25 21.249876 22.501601)"/><path d="m28.75 41.2516c-4.125-.000051-7.50003 3.37497-7.5 7.5h2.5c0-3.125 1.875-5 5-5z"/></g><path d="m120.9999-39.000001v32h32v-32z" fill-rule="evenodd"/><g transform="matrix(.8 0 0 .98461538 147.9999 -87.001576)"><path d="m2 21v32h4v-32z" fill-rule="evenodd" stroke-width=".88752" transform="matrix(1.25 0 0 1.015625 21.249876 27.423476)"/><path d="m21.25 48.7516v32.5h2.5v-32.5z"/></g><g transform="matrix(0 -.8 .8 0 131.99862 15.9999)"><path d="m6 17c-2.5 0-4 1.5-4 4h4z" fill-rule="evenodd" stroke-width=".8" transform="matrix(1.25 0 0 1.25 21.249876 22.501601)"/><path d="m28.75 41.2516c-4.125-.000051-7.50003 3.37497-7.5 7.5h2.5c0-3.125 1.875-5 5-5z"/></g><g transform="matrix(0 -.8 .98461538 0 122.99832 15.9999)"><path d="m2 21v32h4v-32z" fill-rule="evenodd" stroke-width=".88752" transform="matrix(1.25 0 0 1.015625 21.249876 27.423476)"/><path d="m21.25 48.7516v32.5h2.5v-32.5z"/></g><g transform="matrix(-.8 0 0 -.8 225.9998 32.00128)"><path d="m6 17c-2.5 0-4 1.5-4 4h4z" fill-rule="evenodd" stroke-width=".8" transform="matrix(1.25 0 0 1.25 21.249876 22.501601)"/><path d="m28.75 41.2516c-4.125-.000051-7.50003 3.37497-7.5 7.5h2.5c0-3.125 1.875-5 5-5z"/></g><g transform="matrix(-.8 0 0 .98461538 225.9999 -87.001576)"><path d="m2 21v32h4v-32z" fill-rule="evenodd" stroke-width=".88752" transform="matrix(1.25 0 0 1.015625 21.249876 27.423476)"/><path d="m21.25 48.7516v32.5h2.5v-32.5z"/></g><g transform="matrix(0 .8 -.8 0 242.00118 -61.999902)"><path d="m6 17c-2.5 0-4 1.5-4 4h4z" fill-rule="evenodd" stroke-width=".8" transform="matrix(1.25 0 0 1.25 21.249876 22.501601)"/><path d="m28.75 41.2516c-4.125-.000051-7.50003 3.37497-7.5 7.5h2.5c0-3.125 1.875-5 5-5z"/></g><g transform="matrix(0 .8 -.98461538 0 251.00148 -62.000001)"><path d="m2 21v32h4v-32z" fill-rule="evenodd" stroke-width=".88752" transform="matrix(1.25 0 0 1.015625 21.249876 27.423476)"/><path d="m21.25 48.7516v32.5h2.5v-32.5z"/></g><g transform="matrix(.8 0 0 .8 147.9999 -78.001281)"><path d="m6 17c-2.5 0-4 1.5-4 4h4z" fill-rule="evenodd" stroke-width=".8" transform="matrix(1.25 0 0 1.25 21.249876 22.501601)"/><path d="m28.75 41.2516c-4.125-.000051-7.50003 3.37497-7.5 7.5h2.5c0-3.125 1.875-5 5-5z"/></g><path d="m170.9999-39.000001v32h32v-32z" fill-rule="evenodd"/></g><path d="m-0-45h10v10h-10z" fill-rule="evenodd"/></g></svg>