<?xml version="1.0" encoding="UTF-8" standalone="no"?>
<!-- Created with Inkscape (http://www.inkscape.org/) -->

<svg
   width="64"
   version="1.1"
   height="64"
   id="svg1"
   sodipodi:docname="start-here-kde.svg"
   inkscape:version="1.3.2 (091e20ef0f, 2023-11-25)"
   xmlns:inkscape="http://www.inkscape.org/namespaces/inkscape"
   xmlns:sodipodi="http://sodipodi.sourceforge.net/DTD/sodipodi-0.dtd"
   xmlns="http://www.w3.org/2000/svg"
   xmlns:svg="http://www.w3.org/2000/svg">
  <sodipodi:namedview
     id="namedview1"
     pagecolor="#ffffff"
     bordercolor="#999999"
     borderopacity="1"
     inkscape:showpageshadow="2"
     inkscape:pageopacity="0"
     inkscape:pagecheckerboard="0"
     inkscape:deskcolor="#d1d1d1"
     showgrid="true"
     inkscape:zoom="2.9765625"
     inkscape:cx="26.87664"
     inkscape:cy="15.790026"
     inkscape:window-width="1920"
     inkscape:window-height="994"
     inkscape:window-x="0"
     inkscape:window-y="0"
     inkscape:window-maximized="1"
     inkscape:current-layer="layer1">
    <inkscape:grid
       id="grid1"
       units="px"
       originx="0"
       originy="0"
       spacingx="1"
       spacingy="1"
       empcolor="#0099e5"
       empopacity="0.30196078"
       color="#0099e5"
       opacity="0.14901961"
       empspacing="5"
       dotted="false"
       gridanglex="30"
       gridanglez="30"
       visible="true" />
  </sodipodi:namedview>
  <defs
     id="defs5455" />
  <metadata
     id="metadata5458" />
  <g
     inkscape:label="Capa 1"
     inkscape:groupmode="layer"
     id="layer1"
     transform="translate(-400.57143,-559.798)">
    <flowRoot
       line-height="125%"
       style="font-size:32.5px;font-family:sans-serif"
       id="flowRoot4170"><flowRegion
         id="flowRegion4172"><rect
           width="87.75001"
           x="452.32144"
           y="489.79807"
           height="48.750004"
           id="rect4174" /></flowRegion><flowPara
         id="flowPara4176">Plasm</flowPara></flowRoot>
    <g
       id="g1">
      <rect
         style="fill:none;fill-rule:evenodd;stroke:none;stroke-width:1px;stroke-linecap:butt;stroke-linejoin:miter;stroke-opacity:1"
         id="rect3343"
         width="64"
         height="64"
         x="400.57144"
         y="559.79797" />
      <path
         d="m 420.22783,565.79862 c -2.74994,3.60055 -4.55555,7.57546 -5.65926,11.83558 -0.33817,1.30715 -0.49766,2.62025 -0.33817,3.97491 0.15954,1.36061 0.84855,2.45384 1.76733,3.46984 1.52485,1.68744 3.27941,3.17282 4.94462,4.72353 4.28758,4.00467 8.44749,8.11623 12.58823,12.25154 2.24588,2.23401 4.65122,4.33139 7.01191,6.47034 0.37009,0.33272 0.33818,0.48126 0,0.814 -2.81364,2.72719 -5.61459,5.47811 -8.40278,8.23503 -0.2935,0.28515 -0.45296,0.30301 -0.75285,0.0294 -2.80734,-2.543 -5.62101,-5.07407 -8.44746,-7.59328 -0.22966,-0.20202 -0.2106,-0.30301 0,-0.48123 1.65247,-1.42604 3.29854,-2.85195 4.93829,-4.28987 0.21064,-0.19009 0.35733,-0.18412 0.56151,0 0.73375,0.63581 1.4674,1.27154 2.22666,1.88354 0.2616,0.20796 0.20411,0.32677 0,0.52876 l -1.60141,1.64579 c -0.21675,0.21392 -0.22966,0.3387 0.0258,0.5407 0.75927,0.61199 1.49941,1.24179 2.22674,1.87756 0.21682,0.19011 0.35729,0.23171 0.587,-0.0123 0.88685,-0.93874 1.78645,-1.85968 2.70523,-2.76878 0.24878,-0.24359 0.20409,-0.37431 -0.0176,-0.60599 -1.23777,-1.26559 -2.5074,-2.49544 -3.78985,-3.71348 -2.53295,-2.39444 -5.05955,-4.80671 -7.73922,-7.05857 -2.86468,-2.41231 -5.8507,-4.68196 -8.83026,-6.96354 -1.32073,-1.0041 -2.61594,-2.02012 -3.83456,-3.13714 -0.47213,-0.43373 -0.89316,-0.90904 -1.26957,-1.42003 -0.47216,-0.63573 -0.66362,-1.31302 -0.49765,-2.09739 1.32697,-6.10193 4.49162,-11.3008 9.00245,-15.82833 0.43389,-0.43964 0.89324,-0.86149 1.35896,-1.2774 0.4211,-0.3624 0.82945,-0.69513 1.23781,-1.03381 z m 24.74895,0.13074 c 0.56149,0.29115 0.8741,0.64162 1.22503,0.95656 4.24922,3.85607 7.44572,8.34195 9.32786,13.60615 0.4275,1.18239 0.75289,2.38853 1.00169,3.61841 0.10229,0.51694 0.006,0.97442 -0.24244,1.42598 -0.72097,1.31901 -1.88213,2.29345 -3.06252,3.22626 -2.90937,2.31126 -5.87617,4.55123 -8.76643,6.86848 -2.37983,1.90722 -4.66395,3.91547 -6.86514,6.00096 -0.0957,0.0888 -0.20431,0.16636 -0.28075,0.26736 -0.33816,0.42779 -0.59976,0.39214 -0.96342,-0.0294 -0.5997,-0.68328 -1.26961,-1.30715 -1.92683,-1.93697 -0.21679,-0.20794 -0.22339,-0.33272 -0.006,-0.55848 3.49001,-3.49361 6.96086,-7.00511 10.63586,-10.33831 1.44832,-1.31311 2.86473,-2.65587 4.2046,-4.06995 1.60148,-1.68743 1.99062,-3.67194 1.61421,-5.77522 -0.82943,-4.73545 -2.76907,-9.07279 -5.74224,-13.00014 -0.0318,-0.0353 -0.0511,-0.0831 -0.15312,-0.2614 z m -5.56997,25.19218 c -0.0261,-1.81218 -0.1977,-3.49958 -2.00339,-4.5631 5.44872,-2.47767 8.14754,-6.89224 9.95317,-12.06738 1.2952,3.67787 1.63973,7.11805 -1.28244,10.23736 -2.05442,2.18649 -4.27473,4.22444 -6.45681,6.29805 -0.0378,0.0293 -0.096,0.0353 -0.21058,0.0952 z m -11.65033,-4.56906 c -1.81203,1.09918 -1.97786,2.79251 -2.04169,4.64035 -0.32539,-0.31489 -0.56148,-0.55255 -0.81027,-0.77835 -1.78651,-1.69335 -3.56653,-3.39854 -5.32113,-5.13353 -2.6988,-2.65586 -3.29858,-5.70385 -2.30322,-9.13216 0.14689,-0.48721 0.29349,-0.98036 0.44659,-1.4675 0.006,-0.024 0.057,-0.0415 0.115,-0.0889 1.78639,5.05029 4.44059,9.47674 9.91483,11.96032 z m 11.28672,-3.18469 c 0.42742,-1.26553 0.19764,-2.40038 -0.61252,-3.46392 -0.166,-0.22578 -0.58699,-0.39807 -0.48495,-0.64761 0.0829,-0.20206 0.49123,-0.28524 0.75284,-0.4278 3.28585,-1.77056 5.55081,-4.2839 6.55893,-7.72403 0.0891,-0.30303 0.13408,-0.60603 0.20403,-0.95066 0.34455,0.60009 0.46579,1.90726 0.32545,2.82227 -0.37007,2.436 -1.56317,4.52151 -3.0625,6.49408 -1.05915,1.4141 -2.27142,2.71529 -3.68139,3.89767 z m -12.869,0.024 c -0.94427,-0.70706 -1.72268,-1.53297 -2.48192,-2.38856 -1.54399,-1.72896 -2.85837,-3.58867 -3.70692,-5.70383 -0.61253,-1.5508 -0.8103,-3.14314 -0.49131,-4.7711 0.0176,-0.0887 0.0383,-0.17233 0.0705,-0.25551 0.0176,-0.0479 0.0449,-0.095 0.10214,-0.20796 0.17219,0.73678 0.319,1.42599 0.58056,2.07959 1.22503,3.08958 3.5028,5.29986 6.54613,6.87436 0.37645,0.19013 0.50405,0.32085 0.15958,0.65949 -1.0081,1.02195 -1.225,2.22215 -0.84857,3.52929 z"
         id="path2986"
         style="fill:#e5e9ef;fill-opacity:1;stroke-width:0.0283183" />
    </g>
  </g>
</svg>
