<?xml version="1.0" encoding="UTF-8" standalone="no"?>
<svg
   sodipodi:docname="cantata-symbolic.svg"
   inkscape:version="1.3.2 (091e20ef0f, 2023-11-25)"
   viewBox="0 0 22 22"
   id="svg2"
   version="1.1"
   width="22"
   height="22"
   xmlns:inkscape="http://www.inkscape.org/namespaces/inkscape"
   xmlns:sodipodi="http://sodipodi.sourceforge.net/DTD/sodipodi-0.dtd"
   xmlns="http://www.w3.org/2000/svg"
   xmlns:svg="http://www.w3.org/2000/svg"
   xmlns:rdf="http://www.w3.org/1999/02/22-rdf-syntax-ns#"
   xmlns:cc="http://creativecommons.org/ns#"
   xmlns:dc="http://purl.org/dc/elements/1.1/">
  <sodipodi:namedview
     inkscape:document-rotation="0"
     inkscape:lockguides="true"
     inkscape:current-layer="svg2"
     inkscape:window-maximized="1"
     inkscape:window-y="0"
     inkscape:window-x="0"
     inkscape:cy="10.875"
     inkscape:cx="10.75"
     inkscape:zoom="8"
     showgrid="true"
     id="namedview14"
     inkscape:window-height="994"
     inkscape:window-width="1920"
     inkscape:pageshadow="2"
     inkscape:pageopacity="0"
     guidetolerance="10"
     gridtolerance="10"
     objecttolerance="10"
     borderopacity="1"
     bordercolor="#000000"
     pagecolor="#201933"
     inkscape:pagecheckerboard="true"
     inkscape:showpageshadow="true"
     inkscape:deskcolor="#201933">
    <inkscape:grid
       type="xygrid"
       id="grid1388"
       originx="2"
       originy="-20"
       spacingy="1"
       spacingx="1"
       units="px"
       visible="true" />
  </sodipodi:namedview>
  <metadata
     id="metadata20">
    <rdf:RDF>
      <cc:Work
         rdf:about="">
        <dc:format>image/svg+xml</dc:format>
        <dc:type
           rdf:resource="http://purl.org/dc/dcmitype/StillImage" />
      </cc:Work>
    </rdf:RDF>
  </metadata>
  <defs
     id="defs3051">
    <style
       type="text/css"
       id="current-color-scheme">.ColorScheme-Text { color:#d1d5e9; }
</style>
    <linearGradient
       id="oomox"
       x1="0"
       x2="0"
       y1="0"
       y2="16"
       gradientUnits="userSpaceOnUse"
       gradientTransform="matrix(1.5000001,0,0,1.5000001,25.843999,4.0940002)">
      <stop
         offset="0%"
         style="stop-color:#303b3d; stop-opacity:1"
         id="stop18" />
      <stop
         offset="100%"
         style="stop-color:#bc985d; stop-opacity:1"
         id="stop20" />
    </linearGradient>
  </defs>
  <g
     id="22-22-cantata-3"
     transform="translate(22,-10)">
    <path
       sodipodi:nodetypes="cscscsssss"
       inkscape:connector-curvature="0"
       style="color:#d1d5e9;fill:#e5e9ef;fill-opacity:1;stroke:none"
       d="m -12,12.999863 c -4.418246,-1.1e-4 -8,3.581644 -8,8 0,4.418357 3.581754,8.000111 8,8.000001 4.418246,1.1e-4 8,-3.581644 8,-8.000001 0,-4.418356 -3.581754,-8.00011 -8,-8 z m 0,1.40678 c 3.865993,0 6.59322,2.86282 6.59322,6.728814 0,3.865993 -2.727227,6.457627 -6.59322,6.457627 -3.865993,0 -6.457627,-2.727227 -6.457627,-6.593221 0,-3.865993 2.591634,-6.59322 6.457627,-6.59322 z"
       class="ColorScheme-Text"
       id="path7" />
    <path
       style="color:#d1d5e9;fill:#e5e9ef;fill-opacity:1;stroke:none"
       d="m -12,12.999863 v 11.044922 c -0.83718,-0.3612 -1.809323,-0.263585 -2.845703,0.166016 -1.73476,0.7184 -2.729446,2.293178 -2.222656,3.517578 0.50678,1.2248 2.325386,1.636768 4.060546,0.917968 1.368761,-0.5684 2.207032,-2.045546 2.207032,-2.935546 v -8.710938 c 0,0 3.201172,0.39961 3.201172,3.599609 0,2.4 -0.800832,3.201172 -2.800782,5.201172 1.99995,-1.2 3.59961,-2.801172 3.59961,-5.201172 0,-3.199999 -2.469183,-4.639084 -3.101563,-5.271484 -0.39999,-0.4 -0.898437,-1.927734 -0.898437,-1.927734 z"
       class="ColorScheme-Text"
       id="path9" />
    <path
       style="fill:none"
       d="M -22,10 V 32 H 0 V 10 Z"
       id="path11-6" />
  </g>
</svg>
