<?xml version='1.0' encoding='utf-8'?>
<mlt LC_NUMERIC="C" producer="main_bin" root="/home/vir0id/Загрузки/GimpArtCraftFromLatvia/Blender/Projects/Turel/Render/eevee/video/Kdenlive" version="7.24.0">
 <profile colorspace="709" description="HD 1080p 25 fps" display_aspect_den="9" display_aspect_num="16" frame_rate_den="1" frame_rate_num="25" height="1080" progressive="1" sample_aspect_den="1" sample_aspect_num="1" width="1920"/>
 <chain id="chain9" out="00:00:10.000">
  <property name="length">251</property>
  <property name="eof">pause</property>
  <property name="resource">/home/vir0id/Загрузки/GimpArtCraftFromLatvia/Blender/Projects/Turel/Render/eevee/video/0000-0250.mp4</property>
  <property name="mlt_service">avformat-novalidate</property>
  <property name="meta.media.nb_streams">1</property>
  <property name="meta.media.0.stream.type">video</property>
  <property name="meta.media.0.stream.frame_rate">25</property>
  <property name="meta.media.0.stream.sample_aspect_ratio">1</property>
  <property name="meta.media.0.codec.width">1920</property>
  <property name="meta.media.0.codec.height">1080</property>
  <property name="meta.media.0.codec.rotate">0</property>
  <property name="meta.media.0.codec.pix_fmt">yuv420p</property>
  <property name="meta.media.0.codec.sample_aspect_ratio">1</property>
  <property name="meta.media.0.codec.colorspace">709</property>
  <property name="meta.media.0.codec.name">h264</property>
  <property name="meta.media.0.codec.long_name">H.264 / AVC / MPEG-4 AVC / MPEG-4 part 10</property>
  <property name="meta.media.0.codec.bit_rate">13233637</property>
  <property name="meta.attr.0.stream.handler_name.markup">VideoHandler</property>
  <property name="meta.attr.0.stream.vendor_id.markup">[0][0][0][0]</property>
  <property name="meta.attr.major_brand.markup">isom</property>
  <property name="meta.attr.minor_version.markup">512</property>
  <property name="meta.attr.compatible_brands.markup">isomiso2avc1mp41</property>
  <property name="meta.attr.date.markup">2024/07/17 15:50:22</property>
  <property name="meta.attr.encoder.markup">Lavf61.1.100</property>
  <property name="seekable">1</property>
  <property name="meta.media.sample_aspect_num">1</property>
  <property name="meta.media.sample_aspect_den">1</property>
  <property name="format">3</property>
  <property name="audio_index">-1</property>
  <property name="video_index">0</property>
  <property name="vstream">0</property>
  <property name="meta.media.frame_rate_num">25</property>
  <property name="meta.media.frame_rate_den">1</property>
  <property name="meta.media.colorspace">709</property>
  <property name="meta.media.color_trc">2</property>
  <property name="meta.media.has_b_frames">0</property>
  <property name="meta.media.width">1920</property>
  <property name="meta.media.height">1080</property>
  <property name="meta.media.aspect_ratio">1</property>
  <property name="meta.media.color_range">mpeg</property>
  <property name="meta.media.top_field_first">0</property>
  <property name="meta.media.progressive">1</property>
  <property name="kdenlive:folderid">2</property>
  <property name="kdenlive:id">4</property>
  <property name="mute_on_pause">0</property>
  <property name="kdenlive:clip_type">2</property>
  <property name="kdenlive:file_size">16610430</property>
  <property name="kdenlive:file_hash">55ce957fd1f9249be02361fb19583a4b</property>
  <property name="kdenlive:monitorPosition">0</property>
 </chain>
 <chain id="chain10" out="00:00:11.600">
  <property name="length">291</property>
  <property name="eof">pause</property>
  <property name="resource">/home/vir0id/Загрузки/GimpArtCraftFromLatvia/Blender/Projects/Turel/Render/eevee/video/sound/weapons_artillery_light_close_01.mp3</property>
  <property name="mlt_service">avformat-novalidate</property>
  <property name="meta.media.nb_streams">2</property>
  <property name="meta.media.0.stream.type">audio</property>
  <property name="meta.media.0.codec.sample_fmt">fltp</property>
  <property name="meta.media.0.codec.sample_rate">48000</property>
  <property name="meta.media.0.codec.channels">2</property>
  <property name="meta.media.0.codec.layout">stereo</property>
  <property name="meta.media.0.codec.name">mp3float</property>
  <property name="meta.media.0.codec.long_name">MP3 (MPEG audio layer 3)</property>
  <property name="meta.media.0.codec.bit_rate">56049</property>
  <property name="meta.attr.0.stream.encoder.markup">LAME3.98r</property>
  <property name="meta.media.1.stream.type">video</property>
  <property name="meta.media.1.stream.frame_rate">90000</property>
  <property name="meta.media.1.stream.sample_aspect_ratio">0</property>
  <property name="meta.media.1.codec.width">512</property>
  <property name="meta.media.1.codec.height">512</property>
  <property name="meta.media.1.codec.rotate">0</property>
  <property name="meta.media.1.codec.pix_fmt">yuvj420p</property>
  <property name="meta.media.1.codec.sample_aspect_ratio">1</property>
  <property name="meta.media.1.codec.colorspace">601</property>
  <property name="meta.media.1.codec.name">mjpeg</property>
  <property name="meta.media.1.codec.long_name">MJPEG (Motion JPEG)</property>
  <property name="meta.media.1.codec.bit_rate">0</property>
  <property name="meta.attr.1.stream.comment.markup">Cover (front)</property>
  <property name="meta.attr.comment.markup">Light impact of a artillery firing, close. Weapon, War, Fight, Shoot, Fire, Artillery, Light, Close.</property>
  <property name="meta.attr.genre.markup">Weapons</property>
  <property name="meta.attr.copyright.markup">2019 SmartSound FX www.smartsoundeffects.com</property>
  <property name="meta.attr.encoded_by.markup">Sound Grinder 3.5.7</property>
  <property name="meta.attr.artist.markup">SmartSound FX</property>
  <property name="meta.attr.TOAL.markup">www.smartsoundeffects.com</property>
  <property name="meta.attr.TORY.markup">2019</property>
  <property name="meta.attr.encoder.markup">Soundminer</property>
  <property name="meta.attr.title.markup">WEAPONS ARTILLERY Light Close 01.wav</property>
  <property name="meta.attr.track.markup">0</property>
  <property name="meta.attr.date.markup">2019</property>
  <property name="seekable">1</property>
  <property name="meta.media.sample_aspect_num">72</property>
  <property name="meta.media.sample_aspect_den">72</property>
  <property name="format">3</property>
  <property name="audio_index">0</property>
  <property name="video_index">1</property>
  <property name="vstream">0</property>
  <property name="meta.media.frame_rate_num">90000</property>
  <property name="meta.media.frame_rate_den">1</property>
  <property name="meta.media.colorspace">601</property>
  <property name="meta.media.color_trc">2</property>
  <property name="meta.media.has_b_frames">0</property>
  <property name="meta.media.width">512</property>
  <property name="meta.media.height">512</property>
  <property name="meta.media.aspect_ratio">1</property>
  <property name="meta.media.color_range">full</property>
  <property name="astream">0</property>
  <property name="meta.media.top_field_first">0</property>
  <property name="meta.media.progressive">1</property>
  <property name="kdenlive:folderid">2</property>
  <property name="kdenlive:id">5</property>
  <property name="mute_on_pause">0</property>
  <property name="kdenlive:clip_type">0</property>
  <property name="kdenlive:file_size">94583</property>
  <property name="kdenlive:file_hash">c18bcf0f3cf8c16dad9476110b354193</property>
  <property name="kdenlive:audio_max0">216</property>
  <property name="kdenlive:monitorPosition">79</property>
 </chain>
 <chain id="chain11" out="00:00:18.840">
  <property name="length">472</property>
  <property name="eof">pause</property>
  <property name="resource">/home/vir0id/Загрузки/GimpArtCraftFromLatvia/Blender/Projects/Turel/Render/eevee/video/sound/1592805149_weapons_artillery_heavy_distant_01.mp3</property>
  <property name="mlt_service">avformat-novalidate</property>
  <property name="meta.media.nb_streams">2</property>
  <property name="meta.media.0.stream.type">audio</property>
  <property name="meta.media.0.codec.sample_fmt">fltp</property>
  <property name="meta.media.0.codec.sample_rate">48000</property>
  <property name="meta.media.0.codec.channels">2</property>
  <property name="meta.media.0.codec.layout">stereo</property>
  <property name="meta.media.0.codec.name">mp3float</property>
  <property name="meta.media.0.codec.long_name">MP3 (MPEG audio layer 3)</property>
  <property name="meta.media.0.codec.bit_rate">56224</property>
  <property name="meta.attr.0.stream.encoder.markup">LAME3.98r</property>
  <property name="meta.media.1.stream.type">video</property>
  <property name="meta.media.1.stream.frame_rate">90000</property>
  <property name="meta.media.1.stream.sample_aspect_ratio">0</property>
  <property name="meta.media.1.codec.width">512</property>
  <property name="meta.media.1.codec.height">512</property>
  <property name="meta.media.1.codec.rotate">0</property>
  <property name="meta.media.1.codec.pix_fmt">yuvj420p</property>
  <property name="meta.media.1.codec.sample_aspect_ratio">1</property>
  <property name="meta.media.1.codec.colorspace">601</property>
  <property name="meta.media.1.codec.name">mjpeg</property>
  <property name="meta.media.1.codec.long_name">MJPEG (Motion JPEG)</property>
  <property name="meta.media.1.codec.bit_rate">0</property>
  <property name="meta.attr.1.stream.comment.markup">Cover (front)</property>
  <property name="meta.attr.comment.markup">Heavy impact of a artillery firing in the distance. Weapon, War, Fight, Shoot, Fire, Artillery, Hard, Distant.</property>
  <property name="meta.attr.genre.markup">Weapons</property>
  <property name="meta.attr.copyright.markup">2019 SmartSound FX www.smartsoundeffects.com</property>
  <property name="meta.attr.encoded_by.markup">Sound Grinder 3.5.7</property>
  <property name="meta.attr.artist.markup">SmartSound FX</property>
  <property name="meta.attr.TOAL.markup">www.smartsoundeffects.com</property>
  <property name="meta.attr.TORY.markup">2019</property>
  <property name="meta.attr.encoder.markup">Soundminer</property>
  <property name="meta.attr.title.markup">WEAPONS ARTILLERY Heavy Distant 01.wav</property>
  <property name="meta.attr.track.markup">0</property>
  <property name="meta.attr.date.markup">2019</property>
  <property name="seekable">1</property>
  <property name="meta.media.sample_aspect_num">72</property>
  <property name="meta.media.sample_aspect_den">72</property>
  <property name="format">3</property>
  <property name="audio_index">0</property>
  <property name="video_index">1</property>
  <property name="vstream">0</property>
  <property name="meta.media.frame_rate_num">90000</property>
  <property name="meta.media.frame_rate_den">1</property>
  <property name="meta.media.colorspace">601</property>
  <property name="meta.media.color_trc">2</property>
  <property name="meta.media.has_b_frames">0</property>
  <property name="meta.media.width">512</property>
  <property name="meta.media.height">512</property>
  <property name="meta.media.aspect_ratio">1</property>
  <property name="meta.media.color_range">full</property>
  <property name="astream">0</property>
  <property name="meta.media.top_field_first">0</property>
  <property name="meta.media.progressive">1</property>
  <property name="kdenlive:folderid">2</property>
  <property name="kdenlive:id">6</property>
  <property name="mute_on_pause">0</property>
  <property name="kdenlive:clip_type">0</property>
  <property name="kdenlive:file_size">145787</property>
  <property name="kdenlive:file_hash">870e18bbd548754d52b6149acb60b225</property>
  <property name="kdenlive:audio_max0">220</property>
  <property name="kdenlive:monitorPosition">0</property>
 </chain>
 <chain id="chain12" out="00:04:13.000">
  <property name="length">6326</property>
  <property name="eof">pause</property>
  <property name="resource">/home/vir0id/Загрузки/GimpArtCraftFromLatvia/Blender/Projects/Turel/Render/eevee/video/sound/3D Stas - Deep Scars (feat. The Qemists).mp3</property>
  <property name="mlt_service">avformat</property>
  <property name="meta.media.nb_streams">1</property>
  <property name="meta.media.0.stream.type">audio</property>
  <property name="meta.media.0.codec.sample_fmt">fltp</property>
  <property name="meta.media.0.codec.sample_rate">48000</property>
  <property name="meta.media.0.codec.channels">2</property>
  <property name="meta.media.0.codec.layout">stereo</property>
  <property name="meta.media.0.codec.name">mp3float</property>
  <property name="meta.media.0.codec.long_name">MP3 (MPEG audio layer 3)</property>
  <property name="meta.media.0.codec.bit_rate">277571</property>
  <property name="meta.attr.0.stream.encoder.markup">Lavc61.3.</property>
  <property name="meta.attr.encoder.markup">Lavf61.1.100</property>
  <property name="seekable">1</property>
  <property name="audio_index">0</property>
  <property name="video_index">-1</property>
  <property name="astream">0</property>
  <property name="kdenlive:folderid">2</property>
  <property name="kdenlive:id">7</property>
  <property name="kdenlive:clip_type">1</property>
  <property name="kdenlive:file_size">8779340</property>
  <property name="kdenlive:file_hash">ac4db71de43354198d07053694da91b1</property>
  <property name="kdenlive:audio_max0">254</property>
  <property name="kdenlive:monitorPosition">0</property>
 </chain>
 <chain id="chain13" out="00:00:19.240">
  <property name="length">482</property>
  <property name="eof">pause</property>
  <property name="resource">/home/vir0id/Загрузки/GimpArtCraftFromLatvia/Blender/Projects/Turel/Render/eevee/video/sound/small_turret_rotate_01.mp3</property>
  <property name="mlt_service">avformat-novalidate</property>
  <property name="meta.media.nb_streams">2</property>
  <property name="meta.media.0.stream.type">audio</property>
  <property name="meta.media.0.codec.sample_fmt">fltp</property>
  <property name="meta.media.0.codec.sample_rate">48000</property>
  <property name="meta.media.0.codec.channels">2</property>
  <property name="meta.media.0.codec.layout">stereo</property>
  <property name="meta.media.0.codec.name">mp3float</property>
  <property name="meta.media.0.codec.long_name">MP3 (MPEG audio layer 3)</property>
  <property name="meta.media.0.codec.bit_rate">96607</property>
  <property name="meta.attr.0.stream.encoder.markup">LAME3.98r</property>
  <property name="meta.media.1.stream.type">video</property>
  <property name="meta.media.1.stream.frame_rate">90000</property>
  <property name="meta.media.1.stream.sample_aspect_ratio">0</property>
  <property name="meta.media.1.codec.width">512</property>
  <property name="meta.media.1.codec.height">512</property>
  <property name="meta.media.1.codec.rotate">0</property>
  <property name="meta.media.1.codec.pix_fmt">yuvj420p</property>
  <property name="meta.media.1.codec.sample_aspect_ratio">1</property>
  <property name="meta.media.1.codec.colorspace">601</property>
  <property name="meta.media.1.codec.name">mjpeg</property>
  <property name="meta.media.1.codec.long_name">MJPEG (Motion JPEG)</property>
  <property name="meta.media.1.codec.bit_rate">0</property>
  <property name="meta.attr.1.stream.comment.markup">Cover (front)</property>
  <property name="meta.attr.comment.markup">Sound of a small tank turning around its turret, different lengths within variations. Tank, Machine, Mechanics, Turret, Gun, Electronic, Turn, Spin, Move, Align.</property>
  <property name="meta.attr.genre.markup">Transportation</property>
  <property name="meta.attr.copyright.markup">2019 SmartSound FX www.smartsoundeffects.com</property>
  <property name="meta.attr.encoded_by.markup">Sound Grinder 3.5.7</property>
  <property name="meta.attr.artist.markup">SmartSound FX</property>
  <property name="meta.attr.TOAL.markup">www.smartsoundeffects.com</property>
  <property name="meta.attr.TORY.markup">2019</property>
  <property name="meta.attr.encoder.markup">Soundminer</property>
  <property name="meta.attr.title.markup">TRANSPORTATION TANK Small Turret Rotate 01.wav</property>
  <property name="meta.attr.track.markup">0</property>
  <property name="meta.attr.date.markup">2019</property>
  <property name="seekable">1</property>
  <property name="meta.media.sample_aspect_num">72</property>
  <property name="meta.media.sample_aspect_den">72</property>
  <property name="format">3</property>
  <property name="audio_index">0</property>
  <property name="video_index">1</property>
  <property name="vstream">0</property>
  <property name="meta.media.frame_rate_num">90000</property>
  <property name="meta.media.frame_rate_den">1</property>
  <property name="meta.media.colorspace">601</property>
  <property name="meta.media.color_trc">2</property>
  <property name="meta.media.has_b_frames">0</property>
  <property name="meta.media.width">512</property>
  <property name="meta.media.height">512</property>
  <property name="meta.media.aspect_ratio">1</property>
  <property name="meta.media.color_range">full</property>
  <property name="astream">0</property>
  <property name="meta.media.top_field_first">0</property>
  <property name="meta.media.progressive">1</property>
  <property name="kdenlive:folderid">2</property>
  <property name="kdenlive:id">8</property>
  <property name="mute_on_pause">0</property>
  <property name="kdenlive:clip_type">0</property>
  <property name="kdenlive:file_size">246125</property>
  <property name="kdenlive:file_hash">abb97501a21394f9df89fdc33394d07d</property>
  <property name="kdenlive:audio_max0">198</property>
  <property name="kdenlive:monitorPosition">0</property>
 </chain>
 <chain id="chain14" out="00:00:05.000">
  <property name="length">126</property>
  <property name="eof">pause</property>
  <property name="resource">/home/vir0id/Загрузки/GimpArtCraftFromLatvia/Blender/Projects/Turel/Render/eevee/video/logo/No_background/0000-0125.mp4</property>
  <property name="mlt_service">avformat-novalidate</property>
  <property name="meta.media.nb_streams">1</property>
  <property name="meta.media.0.stream.type">video</property>
  <property name="meta.media.0.stream.frame_rate">25</property>
  <property name="meta.media.0.stream.sample_aspect_ratio">1</property>
  <property name="meta.media.0.codec.width">1920</property>
  <property name="meta.media.0.codec.height">1080</property>
  <property name="meta.media.0.codec.rotate">0</property>
  <property name="meta.media.0.codec.pix_fmt">yuv420p</property>
  <property name="meta.media.0.codec.sample_aspect_ratio">1</property>
  <property name="meta.media.0.codec.colorspace">709</property>
  <property name="meta.media.0.codec.name">h264</property>
  <property name="meta.media.0.codec.long_name">H.264 / AVC / MPEG-4 AVC / MPEG-4 part 10</property>
  <property name="meta.media.0.codec.bit_rate">3492730</property>
  <property name="meta.attr.0.stream.handler_name.markup">VideoHandler</property>
  <property name="meta.attr.0.stream.vendor_id.markup">[0][0][0][0]</property>
  <property name="meta.attr.major_brand.markup">isom</property>
  <property name="meta.attr.minor_version.markup">512</property>
  <property name="meta.attr.compatible_brands.markup">isomiso2avc1mp41</property>
  <property name="meta.attr.date.markup">2024/07/17 19:22:31</property>
  <property name="meta.attr.encoder.markup">Lavf61.1.100</property>
  <property name="seekable">1</property>
  <property name="meta.media.sample_aspect_num">1</property>
  <property name="meta.media.sample_aspect_den">1</property>
  <property name="format">3</property>
  <property name="audio_index">-1</property>
  <property name="video_index">0</property>
  <property name="vstream">0</property>
  <property name="meta.media.frame_rate_num">25</property>
  <property name="meta.media.frame_rate_den">1</property>
  <property name="meta.media.colorspace">709</property>
  <property name="meta.media.color_trc">2</property>
  <property name="meta.media.has_b_frames">0</property>
  <property name="meta.media.width">1920</property>
  <property name="meta.media.height">1080</property>
  <property name="meta.media.aspect_ratio">1</property>
  <property name="meta.media.color_range">mpeg</property>
  <property name="meta.media.top_field_first">0</property>
  <property name="meta.media.progressive">1</property>
  <property name="kdenlive:folderid">2</property>
  <property name="kdenlive:id">9</property>
  <property name="mute_on_pause">0</property>
  <property name="kdenlive:clip_type">2</property>
  <property name="kdenlive:file_size">2201891</property>
  <property name="kdenlive:file_hash">c4aa97e9d4b3937f36db2fc32e039cc6</property>
  <property name="kdenlive:monitorPosition">0</property>
 </chain>
 <chain id="chain15" out="00:00:00.240">
  <property name="length">7</property>
  <property name="eof">pause</property>
  <property name="resource">/home/vir0id/Загрузки/GimpArtCraftFromLatvia/Blender/Projects/Turel/Render/eevee/video/sound/ping.mp3</property>
  <property name="mlt_service">avformat</property>
  <property name="meta.media.nb_streams">1</property>
  <property name="meta.media.0.stream.type">audio</property>
  <property name="meta.media.0.codec.sample_fmt">fltp</property>
  <property name="meta.media.0.codec.sample_rate">44100</property>
  <property name="meta.media.0.codec.channels">2</property>
  <property name="meta.media.0.codec.layout">stereo</property>
  <property name="meta.media.0.codec.name">mp3float</property>
  <property name="meta.media.0.codec.long_name">MP3 (MPEG audio layer 3)</property>
  <property name="meta.media.0.codec.bit_rate">128000</property>
  <property name="meta.attr.0.stream.encoder.markup">Lavc58.91</property>
  <property name="meta.attr.date.markup">2001-08-30</property>
  <property name="meta.attr.IENG.markup">Chia Chin Lee</property>
  <property name="meta.attr.album.markup">Sound Forge 4.0</property>
  <property name="meta.attr.encoder.markup">Lavf58.45.100</property>
  <property name="seekable">1</property>
  <property name="audio_index">0</property>
  <property name="video_index">-1</property>
  <property name="astream">0</property>
  <property name="kdenlive:folderid">2</property>
  <property name="kdenlive:id">10</property>
  <property name="kdenlive:clip_type">1</property>
  <property name="kdenlive:file_size">4720</property>
  <property name="kdenlive:file_hash">c54ecc96b35c748ae65c948ba75a0e47</property>
  <property name="kdenlive:audio_max0">115</property>
  <property name="kdenlive:monitorPosition">0</property>
 </chain>
 <producer id="producer0" in="00:00:00.000" out="00:05:28.880">
  <property name="length">2147483647</property>
  <property name="eof">continue</property>
  <property name="resource">black</property>
  <property name="aspect_ratio">1</property>
  <property name="mlt_service">color</property>
  <property name="kdenlive:playlistid">black_track</property>
  <property name="mlt_image_format">rgba</property>
  <property name="set.test_audio">0</property>
 </producer>
 <chain id="chain0" out="00:00:00.240">
  <property name="length">7</property>
  <property name="eof">pause</property>
  <property name="resource">/home/vir0id/Загрузки/GimpArtCraftFromLatvia/Blender/Projects/Turel/Render/eevee/video/sound/ping.mp3</property>
  <property name="mlt_service">avformat-novalidate</property>
  <property name="seekable">1</property>
  <property name="audio_index">0</property>
  <property name="video_index">-1</property>
  <property name="astream">0</property>
  <property name="kdenlive:folderid">2</property>
  <property name="kdenlive:id">10</property>
  <property name="kdenlive:clip_type">1</property>
  <property name="kdenlive:file_size">4720</property>
  <property name="kdenlive:file_hash">c54ecc96b35c748ae65c948ba75a0e47</property>
  <property name="kdenlive:audio_max0">115</property>
  <property name="meta.media.nb_streams">1</property>
  <property name="meta.media.0.stream.type">audio</property>
  <property name="meta.media.0.codec.sample_fmt">fltp</property>
  <property name="meta.media.0.codec.sample_rate">44100</property>
  <property name="meta.media.0.codec.channels">2</property>
  <property name="meta.media.0.codec.layout">stereo</property>
  <property name="meta.media.0.codec.name">mp3float</property>
  <property name="meta.media.0.codec.long_name">MP3 (MPEG audio layer 3)</property>
  <property name="meta.media.0.codec.bit_rate">128000</property>
  <property name="meta.attr.0.stream.encoder.markup">Lavc58.91</property>
  <property name="meta.attr.date.markup">2001-08-30</property>
  <property name="meta.attr.IENG.markup">Chia Chin Lee</property>
  <property name="meta.attr.album.markup">Sound Forge 4.0</property>
  <property name="meta.attr.encoder.markup">Lavf58.45.100</property>
  <property name="xml">was here</property>
  <property name="mute_on_pause">0</property>
  <property name="set.test_audio">0</property>
  <property name="set.test_image">1</property>
 </chain>
 <playlist id="playlist0">
  <property name="kdenlive:audio_track">1</property>
  <blank length="00:00:08.200"/>
  <entry in="00:00:00.000" out="00:00:00.240" producer="chain0">
   <property name="kdenlive:id">10</property>
  </entry>
 </playlist>
 <playlist id="playlist1">
  <property name="kdenlive:audio_track">1</property>
 </playlist>
 <tractor id="tractor0" in="00:00:00.000" out="00:00:08.440">
  <property name="kdenlive:audio_track">1</property>
  <property name="kdenlive:trackheight">69</property>
  <property name="kdenlive:timeline_active">1</property>
  <property name="kdenlive:collapsed">0</property>
  <property name="kdenlive:thumbs_format"/>
  <property name="kdenlive:audio_rec"/>
  <track hide="video" producer="playlist0"/>
  <track hide="video" producer="playlist1"/>
  <filter id="filter0">
   <property name="window">75</property>
   <property name="max_gain">20dB</property>
   <property name="mlt_service">volume</property>
   <property name="internal_added">237</property>
   <property name="disable">1</property>
  </filter>
  <filter id="filter1">
   <property name="channel">-1</property>
   <property name="mlt_service">panner</property>
   <property name="internal_added">237</property>
   <property name="start">0.5</property>
   <property name="disable">1</property>
  </filter>
  <filter id="filter2">
   <property name="iec_scale">0</property>
   <property name="mlt_service">audiolevel</property>
   <property name="dbpeak">1</property>
   <property name="disable">1</property>
  </filter>
 </tractor>
 <chain id="chain1" out="00:00:19.240">
  <property name="length">482</property>
  <property name="eof">pause</property>
  <property name="resource">/home/vir0id/Загрузки/GimpArtCraftFromLatvia/Blender/Projects/Turel/Render/eevee/video/sound/small_turret_rotate_01.mp3</property>
  <property name="mlt_service">avformat-novalidate</property>
  <property name="seekable">1</property>
  <property name="format">3</property>
  <property name="audio_index">0</property>
  <property name="video_index">1</property>
  <property name="vstream">0</property>
  <property name="astream">0</property>
  <property name="kdenlive:folderid">2</property>
  <property name="kdenlive:id">8</property>
  <property name="mute_on_pause">0</property>
  <property name="kdenlive:clip_type">0</property>
  <property name="kdenlive:file_size">246125</property>
  <property name="kdenlive:file_hash">abb97501a21394f9df89fdc33394d07d</property>
  <property name="kdenlive:audio_max0">198</property>
  <property name="meta.media.nb_streams">2</property>
  <property name="meta.media.0.stream.type">audio</property>
  <property name="meta.media.0.codec.sample_fmt">fltp</property>
  <property name="meta.media.0.codec.sample_rate">48000</property>
  <property name="meta.media.0.codec.channels">2</property>
  <property name="meta.media.0.codec.layout">stereo</property>
  <property name="meta.media.0.codec.name">mp3float</property>
  <property name="meta.media.0.codec.long_name">MP3 (MPEG audio layer 3)</property>
  <property name="meta.media.0.codec.bit_rate">96607</property>
  <property name="meta.attr.0.stream.encoder.markup">LAME3.98r</property>
  <property name="meta.media.1.stream.type">video</property>
  <property name="meta.media.1.stream.frame_rate">90000</property>
  <property name="meta.media.1.stream.sample_aspect_ratio">0</property>
  <property name="meta.media.1.codec.width">512</property>
  <property name="meta.media.1.codec.height">512</property>
  <property name="meta.media.1.codec.rotate">0</property>
  <property name="meta.media.1.codec.pix_fmt">yuvj420p</property>
  <property name="meta.media.1.codec.sample_aspect_ratio">1</property>
  <property name="meta.media.1.codec.colorspace">601</property>
  <property name="meta.media.1.codec.name">mjpeg</property>
  <property name="meta.media.1.codec.long_name">MJPEG (Motion JPEG)</property>
  <property name="meta.media.1.codec.bit_rate">0</property>
  <property name="meta.attr.1.stream.comment.markup">Cover (front)</property>
  <property name="meta.attr.comment.markup">Sound of a small tank turning around its turret, different lengths within variations. Tank, Machine, Mechanics, Turret, Gun, Electronic, Turn, Spin, Move, Align.</property>
  <property name="meta.attr.genre.markup">Transportation</property>
  <property name="meta.attr.copyright.markup">2019 SmartSound FX www.smartsoundeffects.com</property>
  <property name="meta.attr.encoded_by.markup">Sound Grinder 3.5.7</property>
  <property name="meta.attr.artist.markup">SmartSound FX</property>
  <property name="meta.attr.TOAL.markup">www.smartsoundeffects.com</property>
  <property name="meta.attr.TORY.markup">2019</property>
  <property name="meta.attr.encoder.markup">Soundminer</property>
  <property name="meta.attr.title.markup">TRANSPORTATION TANK Small Turret Rotate 01.wav</property>
  <property name="meta.attr.track.markup">0</property>
  <property name="meta.attr.date.markup">2019</property>
  <property name="meta.media.sample_aspect_num">72</property>
  <property name="meta.media.sample_aspect_den">72</property>
  <property name="meta.media.frame_rate_num">90000</property>
  <property name="meta.media.frame_rate_den">1</property>
  <property name="meta.media.colorspace">601</property>
  <property name="meta.media.color_trc">2</property>
  <property name="meta.media.has_b_frames">0</property>
  <property name="meta.media.width">512</property>
  <property name="meta.media.height">512</property>
  <property name="meta.media.aspect_ratio">1</property>
  <property name="meta.media.color_range">full</property>
  <property name="xml">was here</property>
  <property name="meta.media.top_field_first">0</property>
  <property name="meta.media.progressive">1</property>
  <property name="set.test_audio">0</property>
  <property name="set.test_image">1</property>
 </chain>
 <playlist id="playlist2">
  <property name="kdenlive:audio_track">1</property>
  <blank length="00:00:04.880"/>
  <entry in="00:00:00.000" out="00:00:04.600" producer="chain1">
   <property name="kdenlive:id">8</property>
  </entry>
  <blank length="00:00:00.240"/>
  <entry in="00:00:00.000" out="00:00:03.560" producer="chain1">
   <property name="kdenlive:id">8</property>
  </entry>
  <blank length="00:00:01.680"/>
  <entry in="00:00:00.000" out="00:00:04.600" producer="chain1">
   <property name="kdenlive:id">8</property>
  </entry>
  <blank length="00:00:00.560"/>
  <entry in="00:00:00.000" out="00:00:03.160" producer="chain1">
   <property name="kdenlive:id">8</property>
  </entry>
  <entry in="00:00:00.160" out="00:00:04.600" producer="chain1">
   <property name="kdenlive:id">8</property>
   <filter id="filter3" in="00:00:00.120" out="00:00:04.600">
    <property name="window">75</property>
    <property name="max_gain">20dB</property>
    <property name="mlt_service">volume</property>
    <property name="kdenlive_id">fadeout</property>
    <property name="gain">1</property>
    <property name="end">0</property>
    <property name="kdenlive:collapsed">0</property>
   </filter>
  </entry>
 </playlist>
 <playlist id="playlist3">
  <property name="kdenlive:audio_track">1</property>
 </playlist>
 <tractor id="tractor1" in="00:00:00.000" out="00:00:27.880">
  <property name="kdenlive:audio_track">1</property>
  <property name="kdenlive:trackheight">69</property>
  <property name="kdenlive:timeline_active">1</property>
  <property name="kdenlive:collapsed">0</property>
  <property name="kdenlive:thumbs_format"/>
  <property name="kdenlive:audio_rec"/>
  <track hide="video" producer="playlist2"/>
  <track hide="video" producer="playlist3"/>
  <filter id="filter4">
   <property name="window">75</property>
   <property name="max_gain">20dB</property>
   <property name="mlt_service">volume</property>
   <property name="internal_added">237</property>
   <property name="disable">1</property>
  </filter>
  <filter id="filter5">
   <property name="channel">-1</property>
   <property name="mlt_service">panner</property>
   <property name="internal_added">237</property>
   <property name="start">0.5</property>
   <property name="disable">1</property>
  </filter>
  <filter id="filter6">
   <property name="iec_scale">0</property>
   <property name="mlt_service">audiolevel</property>
   <property name="dbpeak">1</property>
   <property name="disable">1</property>
  </filter>
 </tractor>
 <chain id="chain2" out="00:04:13.000">
  <property name="length">6326</property>
  <property name="eof">pause</property>
  <property name="resource">/home/vir0id/Загрузки/GimpArtCraftFromLatvia/Blender/Projects/Turel/Render/eevee/video/sound/3D Stas - Deep Scars (feat. The Qemists).mp3</property>
  <property name="mlt_service">avformat-novalidate</property>
  <property name="seekable">1</property>
  <property name="audio_index">0</property>
  <property name="video_index">-1</property>
  <property name="astream">0</property>
  <property name="kdenlive:folderid">2</property>
  <property name="kdenlive:id">7</property>
  <property name="kdenlive:clip_type">1</property>
  <property name="kdenlive:file_size">8779340</property>
  <property name="kdenlive:file_hash">ac4db71de43354198d07053694da91b1</property>
  <property name="kdenlive:audio_max0">254</property>
  <property name="meta.media.nb_streams">1</property>
  <property name="meta.media.0.stream.type">audio</property>
  <property name="meta.media.0.codec.sample_fmt">fltp</property>
  <property name="meta.media.0.codec.sample_rate">48000</property>
  <property name="meta.media.0.codec.channels">2</property>
  <property name="meta.media.0.codec.layout">stereo</property>
  <property name="meta.media.0.codec.name">mp3float</property>
  <property name="meta.media.0.codec.long_name">MP3 (MPEG audio layer 3)</property>
  <property name="meta.media.0.codec.bit_rate">277571</property>
  <property name="meta.attr.0.stream.encoder.markup">Lavc61.3.</property>
  <property name="meta.attr.encoder.markup">Lavf61.1.100</property>
  <property name="xml">was here</property>
  <property name="mute_on_pause">0</property>
  <property name="set.test_audio">0</property>
  <property name="set.test_image">1</property>
 </chain>
 <playlist id="playlist4">
  <property name="kdenlive:audio_track">1</property>
  <blank length="00:00:02.840"/>
  <entry in="00:00:08.960" out="00:00:22.040" producer="chain2">
   <property name="kdenlive:id">7</property>
   <property name="kdenlive:activeeffect">0</property>
   <filter id="filter8">
    <property name="window">75</property>
    <property name="max_gain">20dB</property>
    <property name="level">00:00:08.960=-1;00:00:11.040=-1</property>
    <property name="mlt_service">volume</property>
    <property name="kdenlive_id">volume</property>
    <property name="kdenlive:collapsed">0</property>
    <property name="disable">0</property>
   </filter>
  </entry>
  <entry in="00:00:11.040" out="00:00:20.520" producer="chain2">
   <property name="kdenlive:id">7</property>
   <filter id="filter7" in="00:00:19.880" out="00:00:20.520">
    <property name="window">75</property>
    <property name="max_gain">20dB</property>
    <property name="mlt_service">volume</property>
    <property name="kdenlive_id">fadeout</property>
    <property name="gain">1</property>
    <property name="end">0</property>
    <property name="kdenlive:collapsed">0</property>
   </filter>
   <filter id="filter9">
    <property name="window">75</property>
    <property name="max_gain">20dB</property>
    <property name="level">00:00:11.040=-1</property>
    <property name="mlt_service">volume</property>
    <property name="kdenlive_id">volume</property>
    <property name="kdenlive:collapsed">0</property>
   </filter>
  </entry>
 </playlist>
 <playlist id="playlist5">
  <property name="kdenlive:audio_track">1</property>
 </playlist>
 <tractor id="tractor2" in="00:00:00.000" out="00:00:25.440">
  <property name="kdenlive:audio_track">1</property>
  <property name="kdenlive:trackheight">129</property>
  <property name="kdenlive:timeline_active">0</property>
  <property name="kdenlive:collapsed">0</property>
  <property name="kdenlive:thumbs_format"/>
  <property name="kdenlive:audio_rec"/>
  <track hide="video" producer="playlist4"/>
  <track hide="video" producer="playlist5"/>
  <filter id="filter10">
   <property name="window">75</property>
   <property name="max_gain">20dB</property>
   <property name="mlt_service">volume</property>
   <property name="internal_added">237</property>
   <property name="disable">1</property>
  </filter>
  <filter id="filter11">
   <property name="channel">-1</property>
   <property name="mlt_service">panner</property>
   <property name="internal_added">237</property>
   <property name="start">0.5</property>
   <property name="disable">1</property>
  </filter>
  <filter id="filter12">
   <property name="iec_scale">0</property>
   <property name="mlt_service">audiolevel</property>
   <property name="dbpeak">1</property>
   <property name="disable">1</property>
  </filter>
 </tractor>
 <chain id="chain3" out="00:00:18.840">
  <property name="length">472</property>
  <property name="eof">pause</property>
  <property name="resource">/home/vir0id/Загрузки/GimpArtCraftFromLatvia/Blender/Projects/Turel/Render/eevee/video/sound/1592805149_weapons_artillery_heavy_distant_01.mp3</property>
  <property name="mlt_service">avformat-novalidate</property>
  <property name="seekable">1</property>
  <property name="format">3</property>
  <property name="audio_index">0</property>
  <property name="video_index">1</property>
  <property name="vstream">0</property>
  <property name="astream">0</property>
  <property name="kdenlive:folderid">2</property>
  <property name="kdenlive:id">6</property>
  <property name="mute_on_pause">0</property>
  <property name="kdenlive:clip_type">0</property>
  <property name="kdenlive:file_size">145787</property>
  <property name="kdenlive:file_hash">870e18bbd548754d52b6149acb60b225</property>
  <property name="kdenlive:audio_max0">220</property>
  <property name="meta.media.nb_streams">2</property>
  <property name="meta.media.0.stream.type">audio</property>
  <property name="meta.media.0.codec.sample_fmt">fltp</property>
  <property name="meta.media.0.codec.sample_rate">48000</property>
  <property name="meta.media.0.codec.channels">2</property>
  <property name="meta.media.0.codec.layout">stereo</property>
  <property name="meta.media.0.codec.name">mp3float</property>
  <property name="meta.media.0.codec.long_name">MP3 (MPEG audio layer 3)</property>
  <property name="meta.media.0.codec.bit_rate">56224</property>
  <property name="meta.attr.0.stream.encoder.markup">LAME3.98r</property>
  <property name="meta.media.1.stream.type">video</property>
  <property name="meta.media.1.stream.frame_rate">90000</property>
  <property name="meta.media.1.stream.sample_aspect_ratio">0</property>
  <property name="meta.media.1.codec.width">512</property>
  <property name="meta.media.1.codec.height">512</property>
  <property name="meta.media.1.codec.rotate">0</property>
  <property name="meta.media.1.codec.pix_fmt">yuvj420p</property>
  <property name="meta.media.1.codec.sample_aspect_ratio">1</property>
  <property name="meta.media.1.codec.colorspace">601</property>
  <property name="meta.media.1.codec.name">mjpeg</property>
  <property name="meta.media.1.codec.long_name">MJPEG (Motion JPEG)</property>
  <property name="meta.media.1.codec.bit_rate">0</property>
  <property name="meta.attr.1.stream.comment.markup">Cover (front)</property>
  <property name="meta.attr.comment.markup">Heavy impact of a artillery firing in the distance. Weapon, War, Fight, Shoot, Fire, Artillery, Hard, Distant.</property>
  <property name="meta.attr.genre.markup">Weapons</property>
  <property name="meta.attr.copyright.markup">2019 SmartSound FX www.smartsoundeffects.com</property>
  <property name="meta.attr.encoded_by.markup">Sound Grinder 3.5.7</property>
  <property name="meta.attr.artist.markup">SmartSound FX</property>
  <property name="meta.attr.TOAL.markup">www.smartsoundeffects.com</property>
  <property name="meta.attr.TORY.markup">2019</property>
  <property name="meta.attr.encoder.markup">Soundminer</property>
  <property name="meta.attr.title.markup">WEAPONS ARTILLERY Heavy Distant 01.wav</property>
  <property name="meta.attr.track.markup">0</property>
  <property name="meta.attr.date.markup">2019</property>
  <property name="meta.media.sample_aspect_num">72</property>
  <property name="meta.media.sample_aspect_den">72</property>
  <property name="meta.media.frame_rate_num">90000</property>
  <property name="meta.media.frame_rate_den">1</property>
  <property name="meta.media.colorspace">601</property>
  <property name="meta.media.color_trc">2</property>
  <property name="meta.media.has_b_frames">0</property>
  <property name="meta.media.width">512</property>
  <property name="meta.media.height">512</property>
  <property name="meta.media.aspect_ratio">1</property>
  <property name="meta.media.color_range">full</property>
  <property name="xml">was here</property>
  <property name="meta.media.top_field_first">0</property>
  <property name="meta.media.progressive">1</property>
  <property name="set.test_audio">0</property>
  <property name="set.test_image">1</property>
 </chain>
 <playlist id="playlist6">
  <property name="kdenlive:audio_track">1</property>
  <blank length="00:00:05.040"/>
  <entry in="00:00:00.120" out="00:00:00.400" producer="chain3">
   <property name="kdenlive:id">6</property>
   <filter id="filter13" in="00:00:00.200" out="00:00:00.400">
    <property name="window">75</property>
    <property name="max_gain">20dB</property>
    <property name="mlt_service">volume</property>
    <property name="kdenlive_id">fadeout</property>
    <property name="gain">1</property>
    <property name="end">0</property>
    <property name="kdenlive:collapsed">0</property>
   </filter>
  </entry>
  <blank length="00:00:00.080"/>
  <entry in="00:00:00.120" out="00:00:00.400" producer="chain3">
   <property name="kdenlive:id">6</property>
   <filter id="filter14" in="00:00:00.320" out="00:00:00.400">
    <property name="window">75</property>
    <property name="max_gain">20dB</property>
    <property name="mlt_service">volume</property>
    <property name="kdenlive_id">fadeout</property>
    <property name="gain">1</property>
    <property name="end">0</property>
    <property name="kdenlive:collapsed">0</property>
   </filter>
  </entry>
  <blank length="00:00:00.160"/>
  <entry in="00:00:00.120" out="00:00:00.400" producer="chain3">
   <property name="kdenlive:id">6</property>
   <filter id="filter15" in="00:00:00.320" out="00:00:00.400">
    <property name="window">75</property>
    <property name="max_gain">20dB</property>
    <property name="mlt_service">volume</property>
    <property name="kdenlive_id">fadeout</property>
    <property name="gain">1</property>
    <property name="end">0</property>
    <property name="kdenlive:collapsed">0</property>
   </filter>
  </entry>
  <blank length="00:00:00.160"/>
  <entry in="00:00:00.120" out="00:00:00.400" producer="chain3">
   <property name="kdenlive:id">6</property>
   <filter id="filter16" in="00:00:00.320" out="00:00:00.400">
    <property name="window">75</property>
    <property name="max_gain">20dB</property>
    <property name="mlt_service">volume</property>
    <property name="kdenlive_id">fadeout</property>
    <property name="gain">1</property>
    <property name="end">0</property>
    <property name="kdenlive:collapsed">0</property>
   </filter>
  </entry>
  <blank length="00:00:00.160"/>
  <entry in="00:00:00.120" out="00:00:00.400" producer="chain3">
   <property name="kdenlive:id">6</property>
   <filter id="filter17" in="00:00:00.320" out="00:00:00.400">
    <property name="window">75</property>
    <property name="max_gain">20dB</property>
    <property name="mlt_service">volume</property>
    <property name="kdenlive_id">fadeout</property>
    <property name="gain">1</property>
    <property name="end">0</property>
    <property name="kdenlive:collapsed">0</property>
   </filter>
  </entry>
  <blank length="00:00:00.160"/>
  <entry in="00:00:00.120" out="00:00:00.400" producer="chain3">
   <property name="kdenlive:id">6</property>
   <filter id="filter18" in="00:00:00.320" out="00:00:00.400">
    <property name="window">75</property>
    <property name="max_gain">20dB</property>
    <property name="mlt_service">volume</property>
    <property name="kdenlive_id">fadeout</property>
    <property name="gain">1</property>
    <property name="end">0</property>
    <property name="kdenlive:collapsed">0</property>
   </filter>
  </entry>
  <blank length="00:00:00.160"/>
  <entry in="00:00:00.120" out="00:00:00.400" producer="chain3">
   <property name="kdenlive:id">6</property>
   <filter id="filter19" in="00:00:00.320" out="00:00:00.400">
    <property name="window">75</property>
    <property name="max_gain">20dB</property>
    <property name="mlt_service">volume</property>
    <property name="kdenlive_id">fadeout</property>
    <property name="gain">1</property>
    <property name="end">0</property>
    <property name="kdenlive:collapsed">0</property>
   </filter>
  </entry>
  <blank length="00:00:00.160"/>
  <entry in="00:00:00.120" out="00:00:00.400" producer="chain3">
   <property name="kdenlive:id">6</property>
   <filter id="filter20" in="00:00:00.320" out="00:00:00.400">
    <property name="window">75</property>
    <property name="max_gain">20dB</property>
    <property name="mlt_service">volume</property>
    <property name="kdenlive_id">fadeout</property>
    <property name="gain">1</property>
    <property name="end">0</property>
    <property name="kdenlive:collapsed">0</property>
   </filter>
  </entry>
  <blank length="00:00:00.160"/>
  <entry in="00:00:00.120" out="00:00:00.400" producer="chain3">
   <property name="kdenlive:id">6</property>
   <filter id="filter21" in="00:00:00.320" out="00:00:00.400">
    <property name="window">75</property>
    <property name="max_gain">20dB</property>
    <property name="mlt_service">volume</property>
    <property name="kdenlive_id">fadeout</property>
    <property name="gain">1</property>
    <property name="end">0</property>
    <property name="kdenlive:collapsed">0</property>
   </filter>
  </entry>
  <blank length="00:00:00.160"/>
  <entry in="00:00:00.120" out="00:00:00.400" producer="chain3">
   <property name="kdenlive:id">6</property>
   <filter id="filter22" in="00:00:00.320" out="00:00:00.400">
    <property name="window">75</property>
    <property name="max_gain">20dB</property>
    <property name="mlt_service">volume</property>
    <property name="kdenlive_id">fadeout</property>
    <property name="gain">1</property>
    <property name="end">0</property>
    <property name="kdenlive:collapsed">0</property>
   </filter>
  </entry>
  <blank length="00:00:00.160"/>
  <entry in="00:00:00.120" out="00:00:00.400" producer="chain3">
   <property name="kdenlive:id">6</property>
   <filter id="filter23" in="00:00:00.320" out="00:00:00.400">
    <property name="window">75</property>
    <property name="max_gain">20dB</property>
    <property name="mlt_service">volume</property>
    <property name="kdenlive_id">fadeout</property>
    <property name="gain">1</property>
    <property name="end">0</property>
    <property name="kdenlive:collapsed">0</property>
   </filter>
  </entry>
  <blank length="00:00:00.160"/>
  <entry in="00:00:00.120" out="00:00:00.400" producer="chain3">
   <property name="kdenlive:id">6</property>
   <filter id="filter24" in="00:00:00.320" out="00:00:00.400">
    <property name="window">75</property>
    <property name="max_gain">20dB</property>
    <property name="mlt_service">volume</property>
    <property name="kdenlive_id">fadeout</property>
    <property name="gain">1</property>
    <property name="end">0</property>
    <property name="kdenlive:collapsed">0</property>
   </filter>
  </entry>
  <blank length="00:00:00.160"/>
  <entry in="00:00:00.120" out="00:00:00.400" producer="chain3">
   <property name="kdenlive:id">6</property>
   <filter id="filter25" in="00:00:00.320" out="00:00:00.400">
    <property name="window">75</property>
    <property name="max_gain">20dB</property>
    <property name="mlt_service">volume</property>
    <property name="kdenlive_id">fadeout</property>
    <property name="gain">1</property>
    <property name="end">0</property>
    <property name="kdenlive:collapsed">0</property>
   </filter>
  </entry>
  <blank length="00:00:00.160"/>
  <entry in="00:00:00.120" out="00:00:00.400" producer="chain3">
   <property name="kdenlive:id">6</property>
   <filter id="filter26" in="00:00:00.320" out="00:00:00.400">
    <property name="window">75</property>
    <property name="max_gain">20dB</property>
    <property name="mlt_service">volume</property>
    <property name="kdenlive_id">fadeout</property>
    <property name="gain">1</property>
    <property name="end">0</property>
    <property name="kdenlive:collapsed">0</property>
   </filter>
  </entry>
  <blank length="00:00:00.240"/>
  <entry in="00:00:00.120" out="00:00:00.400" producer="chain3">
   <property name="kdenlive:id">6</property>
   <filter id="filter27" in="00:00:00.320" out="00:00:00.400">
    <property name="window">75</property>
    <property name="max_gain">20dB</property>
    <property name="mlt_service">volume</property>
    <property name="kdenlive_id">fadeout</property>
    <property name="gain">1</property>
    <property name="end">0</property>
   </filter>
  </entry>
  <blank length="00:00:00.160"/>
  <entry in="00:00:00.120" out="00:00:00.400" producer="chain3">
   <property name="kdenlive:id">6</property>
   <filter id="filter28" in="00:00:00.320" out="00:00:00.400">
    <property name="window">75</property>
    <property name="max_gain">20dB</property>
    <property name="mlt_service">volume</property>
    <property name="kdenlive_id">fadeout</property>
    <property name="gain">1</property>
    <property name="end">0</property>
    <property name="kdenlive:collapsed">0</property>
   </filter>
  </entry>
  <blank length="00:00:00.160"/>
  <entry in="00:00:00.120" out="00:00:00.400" producer="chain3">
   <property name="kdenlive:id">6</property>
   <filter id="filter29" in="00:00:00.320" out="00:00:00.400">
    <property name="window">75</property>
    <property name="max_gain">20dB</property>
    <property name="mlt_service">volume</property>
    <property name="kdenlive_id">fadeout</property>
    <property name="gain">1</property>
    <property name="end">0</property>
    <property name="kdenlive:collapsed">0</property>
   </filter>
  </entry>
  <blank length="00:00:00.160"/>
  <entry in="00:00:00.120" out="00:00:00.400" producer="chain3">
   <property name="kdenlive:id">6</property>
   <filter id="filter30" in="00:00:00.320" out="00:00:00.400">
    <property name="window">75</property>
    <property name="max_gain">20dB</property>
    <property name="mlt_service">volume</property>
    <property name="kdenlive_id">fadeout</property>
    <property name="gain">1</property>
    <property name="end">0</property>
    <property name="kdenlive:collapsed">0</property>
   </filter>
  </entry>
  <blank length="00:00:00.160"/>
  <entry in="00:00:00.120" out="00:00:00.400" producer="chain3">
   <property name="kdenlive:id">6</property>
   <filter id="filter31" in="00:00:00.320" out="00:00:00.400">
    <property name="window">75</property>
    <property name="max_gain">20dB</property>
    <property name="mlt_service">volume</property>
    <property name="kdenlive_id">fadeout</property>
    <property name="gain">1</property>
    <property name="end">0</property>
    <property name="kdenlive:collapsed">0</property>
   </filter>
  </entry>
  <blank length="00:00:00.160"/>
  <entry in="00:00:00.120" out="00:00:00.400" producer="chain3">
   <property name="kdenlive:id">6</property>
   <filter id="filter32" in="00:00:00.320" out="00:00:00.400">
    <property name="window">75</property>
    <property name="max_gain">20dB</property>
    <property name="mlt_service">volume</property>
    <property name="kdenlive_id">fadeout</property>
    <property name="gain">1</property>
    <property name="end">0</property>
    <property name="kdenlive:collapsed">0</property>
   </filter>
  </entry>
  <blank length="00:00:00.160"/>
  <entry in="00:00:00.120" out="00:00:00.400" producer="chain3">
   <property name="kdenlive:id">6</property>
   <filter id="filter33" in="00:00:00.320" out="00:00:00.400">
    <property name="window">75</property>
    <property name="max_gain">20dB</property>
    <property name="mlt_service">volume</property>
    <property name="kdenlive_id">fadeout</property>
    <property name="gain">1</property>
    <property name="end">0</property>
    <property name="kdenlive:collapsed">0</property>
   </filter>
  </entry>
  <entry in="00:00:00.120" out="00:00:00.400" producer="chain3">
   <property name="kdenlive:id">6</property>
   <filter id="filter34" in="00:00:00.200" out="00:00:00.400">
    <property name="window">75</property>
    <property name="max_gain">20dB</property>
    <property name="mlt_service">volume</property>
    <property name="kdenlive_id">fadeout</property>
    <property name="gain">1</property>
    <property name="end">0</property>
    <property name="kdenlive:collapsed">0</property>
   </filter>
  </entry>
  <blank length="00:00:00.080"/>
  <entry in="00:00:00.120" out="00:00:00.400" producer="chain3">
   <property name="kdenlive:id">6</property>
   <filter id="filter35" in="00:00:00.320" out="00:00:00.400">
    <property name="window">75</property>
    <property name="max_gain">20dB</property>
    <property name="mlt_service">volume</property>
    <property name="kdenlive_id">fadeout</property>
    <property name="gain">1</property>
    <property name="end">0</property>
   </filter>
  </entry>
  <blank length="00:00:00.160"/>
  <entry in="00:00:00.120" out="00:00:00.400" producer="chain3">
   <property name="kdenlive:id">6</property>
   <filter id="filter36" in="00:00:00.320" out="00:00:00.400">
    <property name="window">75</property>
    <property name="max_gain">20dB</property>
    <property name="mlt_service">volume</property>
    <property name="kdenlive_id">fadeout</property>
    <property name="gain">1</property>
    <property name="end">0</property>
   </filter>
  </entry>
  <blank length="00:00:00.160"/>
  <entry in="00:00:00.120" out="00:00:00.400" producer="chain3">
   <property name="kdenlive:id">6</property>
   <filter id="filter37" in="00:00:00.320" out="00:00:00.400">
    <property name="window">75</property>
    <property name="max_gain">20dB</property>
    <property name="mlt_service">volume</property>
    <property name="kdenlive_id">fadeout</property>
    <property name="gain">1</property>
    <property name="end">0</property>
   </filter>
  </entry>
  <blank length="00:00:00.160"/>
  <entry in="00:00:00.120" out="00:00:00.400" producer="chain3">
   <property name="kdenlive:id">6</property>
   <filter id="filter38" in="00:00:00.320" out="00:00:00.400">
    <property name="window">75</property>
    <property name="max_gain">20dB</property>
    <property name="mlt_service">volume</property>
    <property name="kdenlive_id">fadeout</property>
    <property name="gain">1</property>
    <property name="end">0</property>
   </filter>
  </entry>
  <blank length="00:00:00.160"/>
  <entry in="00:00:00.120" out="00:00:00.400" producer="chain3">
   <property name="kdenlive:id">6</property>
   <filter id="filter39" in="00:00:00.320" out="00:00:00.400">
    <property name="window">75</property>
    <property name="max_gain">20dB</property>
    <property name="mlt_service">volume</property>
    <property name="kdenlive_id">fadeout</property>
    <property name="gain">1</property>
    <property name="end">0</property>
   </filter>
  </entry>
  <blank length="00:00:00.160"/>
  <entry in="00:00:00.120" out="00:00:00.400" producer="chain3">
   <property name="kdenlive:id">6</property>
   <filter id="filter40" in="00:00:00.320" out="00:00:00.400">
    <property name="window">75</property>
    <property name="max_gain">20dB</property>
    <property name="mlt_service">volume</property>
    <property name="kdenlive_id">fadeout</property>
    <property name="gain">1</property>
    <property name="end">0</property>
   </filter>
  </entry>
  <blank length="00:00:00.160"/>
  <entry in="00:00:00.120" out="00:00:00.400" producer="chain3">
   <property name="kdenlive:id">6</property>
   <filter id="filter41" in="00:00:00.320" out="00:00:00.400">
    <property name="window">75</property>
    <property name="max_gain">20dB</property>
    <property name="mlt_service">volume</property>
    <property name="kdenlive_id">fadeout</property>
    <property name="gain">1</property>
    <property name="end">0</property>
   </filter>
  </entry>
  <blank length="00:00:00.160"/>
  <entry in="00:00:00.120" out="00:00:00.400" producer="chain3">
   <property name="kdenlive:id">6</property>
   <filter id="filter42" in="00:00:00.320" out="00:00:00.400">
    <property name="window">75</property>
    <property name="max_gain">20dB</property>
    <property name="mlt_service">volume</property>
    <property name="kdenlive_id">fadeout</property>
    <property name="gain">1</property>
    <property name="end">0</property>
   </filter>
  </entry>
  <blank length="00:00:00.160"/>
  <entry in="00:00:00.120" out="00:00:00.400" producer="chain3">
   <property name="kdenlive:id">6</property>
   <filter id="filter43" in="00:00:00.320" out="00:00:00.400">
    <property name="window">75</property>
    <property name="max_gain">20dB</property>
    <property name="mlt_service">volume</property>
    <property name="kdenlive_id">fadeout</property>
    <property name="gain">1</property>
    <property name="end">0</property>
   </filter>
  </entry>
  <blank length="00:00:00.160"/>
  <entry in="00:00:00.120" out="00:00:00.400" producer="chain3">
   <property name="kdenlive:id">6</property>
   <filter id="filter44" in="00:00:00.320" out="00:00:00.400">
    <property name="window">75</property>
    <property name="max_gain">20dB</property>
    <property name="mlt_service">volume</property>
    <property name="kdenlive_id">fadeout</property>
    <property name="gain">1</property>
    <property name="end">0</property>
   </filter>
  </entry>
  <blank length="00:00:00.160"/>
  <entry in="00:00:00.120" out="00:00:00.400" producer="chain3">
   <property name="kdenlive:id">6</property>
   <filter id="filter45" in="00:00:00.320" out="00:00:00.400">
    <property name="window">75</property>
    <property name="max_gain">20dB</property>
    <property name="mlt_service">volume</property>
    <property name="kdenlive_id">fadeout</property>
    <property name="gain">1</property>
    <property name="end">0</property>
   </filter>
  </entry>
  <blank length="00:00:00.160"/>
  <entry in="00:00:00.120" out="00:00:00.400" producer="chain3">
   <property name="kdenlive:id">6</property>
   <filter id="filter46" in="00:00:00.320" out="00:00:00.400">
    <property name="window">75</property>
    <property name="max_gain">20dB</property>
    <property name="mlt_service">volume</property>
    <property name="kdenlive_id">fadeout</property>
    <property name="gain">1</property>
    <property name="end">0</property>
   </filter>
  </entry>
  <blank length="00:00:00.160"/>
  <entry in="00:00:00.120" out="00:00:00.400" producer="chain3">
   <property name="kdenlive:id">6</property>
   <filter id="filter47" in="00:00:00.320" out="00:00:00.400">
    <property name="window">75</property>
    <property name="max_gain">20dB</property>
    <property name="mlt_service">volume</property>
    <property name="kdenlive_id">fadeout</property>
    <property name="gain">1</property>
    <property name="end">0</property>
   </filter>
  </entry>
  <blank length="00:00:00.240"/>
  <entry in="00:00:00.120" out="00:00:00.400" producer="chain3">
   <property name="kdenlive:id">6</property>
   <filter id="filter48" in="00:00:00.320" out="00:00:00.400">
    <property name="window">75</property>
    <property name="max_gain">20dB</property>
    <property name="mlt_service">volume</property>
    <property name="kdenlive_id">fadeout</property>
    <property name="gain">1</property>
    <property name="end">0</property>
   </filter>
  </entry>
  <blank length="00:00:00.160"/>
  <entry in="00:00:00.120" out="00:00:00.400" producer="chain3">
   <property name="kdenlive:id">6</property>
   <filter id="filter49" in="00:00:00.320" out="00:00:00.400">
    <property name="window">75</property>
    <property name="max_gain">20dB</property>
    <property name="mlt_service">volume</property>
    <property name="kdenlive_id">fadeout</property>
    <property name="gain">1</property>
    <property name="end">0</property>
   </filter>
  </entry>
  <blank length="00:00:00.160"/>
  <entry in="00:00:00.120" out="00:00:00.400" producer="chain3">
   <property name="kdenlive:id">6</property>
   <filter id="filter50" in="00:00:00.320" out="00:00:00.400">
    <property name="window">75</property>
    <property name="max_gain">20dB</property>
    <property name="mlt_service">volume</property>
    <property name="kdenlive_id">fadeout</property>
    <property name="gain">1</property>
    <property name="end">0</property>
   </filter>
  </entry>
  <blank length="00:00:00.160"/>
  <entry in="00:00:00.120" out="00:00:00.400" producer="chain3">
   <property name="kdenlive:id">6</property>
   <filter id="filter51" in="00:00:00.320" out="00:00:00.400">
    <property name="window">75</property>
    <property name="max_gain">20dB</property>
    <property name="mlt_service">volume</property>
    <property name="kdenlive_id">fadeout</property>
    <property name="gain">1</property>
    <property name="end">0</property>
   </filter>
  </entry>
  <blank length="00:00:00.160"/>
  <entry in="00:00:00.120" out="00:00:00.400" producer="chain3">
   <property name="kdenlive:id">6</property>
   <filter id="filter52" in="00:00:00.320" out="00:00:00.400">
    <property name="window">75</property>
    <property name="max_gain">20dB</property>
    <property name="mlt_service">volume</property>
    <property name="kdenlive_id">fadeout</property>
    <property name="gain">1</property>
    <property name="end">0</property>
   </filter>
  </entry>
  <blank length="00:00:00.160"/>
  <entry in="00:00:00.120" out="00:00:00.400" producer="chain3">
   <property name="kdenlive:id">6</property>
   <filter id="filter53" in="00:00:00.320" out="00:00:00.400">
    <property name="window">75</property>
    <property name="max_gain">20dB</property>
    <property name="mlt_service">volume</property>
    <property name="kdenlive_id">fadeout</property>
    <property name="gain">1</property>
    <property name="end">0</property>
   </filter>
  </entry>
  <blank length="00:00:00.160"/>
  <entry in="00:00:00.120" out="00:00:00.400" producer="chain3">
   <property name="kdenlive:id">6</property>
   <filter id="filter54" in="00:00:00.320" out="00:00:00.400">
    <property name="window">75</property>
    <property name="max_gain">20dB</property>
    <property name="mlt_service">volume</property>
    <property name="kdenlive_id">fadeout</property>
    <property name="gain">1</property>
    <property name="end">0</property>
   </filter>
  </entry>
 </playlist>
 <playlist id="playlist7">
  <property name="kdenlive:audio_track">1</property>
 </playlist>
 <tractor id="tractor3" in="00:00:00.000" out="00:00:24.840">
  <property name="kdenlive:audio_track">1</property>
  <property name="kdenlive:trackheight">82</property>
  <property name="kdenlive:timeline_active">1</property>
  <property name="kdenlive:collapsed">0</property>
  <property name="kdenlive:thumbs_format"/>
  <property name="kdenlive:audio_rec"/>
  <track hide="video" producer="playlist6"/>
  <track hide="video" producer="playlist7"/>
  <filter id="filter55">
   <property name="window">75</property>
   <property name="max_gain">20dB</property>
   <property name="mlt_service">volume</property>
   <property name="internal_added">237</property>
   <property name="disable">1</property>
  </filter>
  <filter id="filter56">
   <property name="channel">-1</property>
   <property name="mlt_service">panner</property>
   <property name="internal_added">237</property>
   <property name="start">0.5</property>
   <property name="disable">1</property>
  </filter>
  <filter id="filter57">
   <property name="iec_scale">0</property>
   <property name="mlt_service">audiolevel</property>
   <property name="dbpeak">1</property>
   <property name="disable">1</property>
  </filter>
 </tractor>
 <chain id="chain4" out="00:00:18.840">
  <property name="length">472</property>
  <property name="eof">pause</property>
  <property name="resource">/home/vir0id/Загрузки/GimpArtCraftFromLatvia/Blender/Projects/Turel/Render/eevee/video/sound/1592805149_weapons_artillery_heavy_distant_01.mp3</property>
  <property name="mlt_service">avformat-novalidate</property>
  <property name="seekable">1</property>
  <property name="format">3</property>
  <property name="audio_index">0</property>
  <property name="video_index">1</property>
  <property name="vstream">0</property>
  <property name="astream">0</property>
  <property name="kdenlive:folderid">2</property>
  <property name="kdenlive:id">6</property>
  <property name="mute_on_pause">0</property>
  <property name="kdenlive:clip_type">0</property>
  <property name="kdenlive:file_size">145787</property>
  <property name="kdenlive:file_hash">870e18bbd548754d52b6149acb60b225</property>
  <property name="kdenlive:audio_max0">220</property>
  <property name="meta.media.nb_streams">2</property>
  <property name="meta.media.0.stream.type">audio</property>
  <property name="meta.media.0.codec.sample_fmt">fltp</property>
  <property name="meta.media.0.codec.sample_rate">48000</property>
  <property name="meta.media.0.codec.channels">2</property>
  <property name="meta.media.0.codec.layout">stereo</property>
  <property name="meta.media.0.codec.name">mp3float</property>
  <property name="meta.media.0.codec.long_name">MP3 (MPEG audio layer 3)</property>
  <property name="meta.media.0.codec.bit_rate">56224</property>
  <property name="meta.attr.0.stream.encoder.markup">LAME3.98r</property>
  <property name="meta.media.1.stream.type">video</property>
  <property name="meta.media.1.stream.frame_rate">90000</property>
  <property name="meta.media.1.stream.sample_aspect_ratio">0</property>
  <property name="meta.media.1.codec.width">512</property>
  <property name="meta.media.1.codec.height">512</property>
  <property name="meta.media.1.codec.rotate">0</property>
  <property name="meta.media.1.codec.pix_fmt">yuvj420p</property>
  <property name="meta.media.1.codec.sample_aspect_ratio">1</property>
  <property name="meta.media.1.codec.colorspace">601</property>
  <property name="meta.media.1.codec.name">mjpeg</property>
  <property name="meta.media.1.codec.long_name">MJPEG (Motion JPEG)</property>
  <property name="meta.media.1.codec.bit_rate">0</property>
  <property name="meta.attr.1.stream.comment.markup">Cover (front)</property>
  <property name="meta.attr.comment.markup">Heavy impact of a artillery firing in the distance. Weapon, War, Fight, Shoot, Fire, Artillery, Hard, Distant.</property>
  <property name="meta.attr.genre.markup">Weapons</property>
  <property name="meta.attr.copyright.markup">2019 SmartSound FX www.smartsoundeffects.com</property>
  <property name="meta.attr.encoded_by.markup">Sound Grinder 3.5.7</property>
  <property name="meta.attr.artist.markup">SmartSound FX</property>
  <property name="meta.attr.TOAL.markup">www.smartsoundeffects.com</property>
  <property name="meta.attr.TORY.markup">2019</property>
  <property name="meta.attr.encoder.markup">Soundminer</property>
  <property name="meta.attr.title.markup">WEAPONS ARTILLERY Heavy Distant 01.wav</property>
  <property name="meta.attr.track.markup">0</property>
  <property name="meta.attr.date.markup">2019</property>
  <property name="meta.media.sample_aspect_num">72</property>
  <property name="meta.media.sample_aspect_den">72</property>
  <property name="meta.media.frame_rate_num">90000</property>
  <property name="meta.media.frame_rate_den">1</property>
  <property name="meta.media.colorspace">601</property>
  <property name="meta.media.color_trc">2</property>
  <property name="meta.media.has_b_frames">0</property>
  <property name="meta.media.width">512</property>
  <property name="meta.media.height">512</property>
  <property name="meta.media.aspect_ratio">1</property>
  <property name="meta.media.color_range">full</property>
  <property name="xml">was here</property>
  <property name="meta.media.top_field_first">0</property>
  <property name="meta.media.progressive">1</property>
  <property name="set.test_audio">0</property>
  <property name="set.test_image">1</property>
 </chain>
 <playlist id="playlist8">
  <property name="kdenlive:audio_track">1</property>
  <blank length="00:00:05.200"/>
  <entry in="00:00:00.120" out="00:00:00.400" producer="chain4">
   <property name="kdenlive:id">6</property>
   <filter id="filter58" in="00:00:00.320" out="00:00:00.400">
    <property name="window">75</property>
    <property name="max_gain">20dB</property>
    <property name="mlt_service">volume</property>
    <property name="kdenlive_id">fadeout</property>
    <property name="gain">1</property>
    <property name="end">0</property>
    <property name="kdenlive:collapsed">0</property>
   </filter>
   <filter id="filter59">
    <property name="window">75</property>
    <property name="version">14.4.2</property>
    <property name="mlt_service">sox</property>
    <property name="kdenlive_id">sox_echo</property>
    <property name="gain-in">0.5</property>
    <property name="gain-out">1</property>
    <property name="delay">150</property>
    <property name="decay">0.8</property>
    <property name="effect">echo 0.5 1 150 0.8</property>
    <property name="kdenlive:collapsed">0</property>
   </filter>
  </entry>
  <blank length="00:00:00.160"/>
  <entry in="00:00:00.120" out="00:00:00.400" producer="chain4">
   <property name="kdenlive:id">6</property>
   <filter id="filter60" in="00:00:00.320" out="00:00:00.400">
    <property name="window">75</property>
    <property name="max_gain">20dB</property>
    <property name="mlt_service">volume</property>
    <property name="kdenlive_id">fadeout</property>
    <property name="gain">1</property>
    <property name="end">0</property>
    <property name="kdenlive:collapsed">0</property>
   </filter>
  </entry>
  <blank length="00:00:00.160"/>
  <entry in="00:00:00.120" out="00:00:00.400" producer="chain4">
   <property name="kdenlive:id">6</property>
   <filter id="filter61" in="00:00:00.320" out="00:00:00.400">
    <property name="window">75</property>
    <property name="max_gain">20dB</property>
    <property name="mlt_service">volume</property>
    <property name="kdenlive_id">fadeout</property>
    <property name="gain">1</property>
    <property name="end">0</property>
    <property name="kdenlive:collapsed">0</property>
   </filter>
  </entry>
  <blank length="00:00:00.160"/>
  <entry in="00:00:00.120" out="00:00:00.400" producer="chain4">
   <property name="kdenlive:id">6</property>
   <filter id="filter62" in="00:00:00.320" out="00:00:00.400">
    <property name="window">75</property>
    <property name="max_gain">20dB</property>
    <property name="mlt_service">volume</property>
    <property name="kdenlive_id">fadeout</property>
    <property name="gain">1</property>
    <property name="end">0</property>
    <property name="kdenlive:collapsed">0</property>
   </filter>
  </entry>
  <blank length="00:00:00.160"/>
  <entry in="00:00:00.120" out="00:00:00.400" producer="chain4">
   <property name="kdenlive:id">6</property>
   <filter id="filter63" in="00:00:00.320" out="00:00:00.400">
    <property name="window">75</property>
    <property name="max_gain">20dB</property>
    <property name="mlt_service">volume</property>
    <property name="kdenlive_id">fadeout</property>
    <property name="gain">1</property>
    <property name="end">0</property>
   </filter>
  </entry>
  <blank length="00:00:00.160"/>
  <entry in="00:00:00.120" out="00:00:00.400" producer="chain4">
   <property name="kdenlive:id">6</property>
   <filter id="filter64" in="00:00:00.320" out="00:00:00.400">
    <property name="window">75</property>
    <property name="max_gain">20dB</property>
    <property name="mlt_service">volume</property>
    <property name="kdenlive_id">fadeout</property>
    <property name="gain">1</property>
    <property name="end">0</property>
   </filter>
  </entry>
  <blank length="00:00:00.160"/>
  <entry in="00:00:00.120" out="00:00:00.400" producer="chain4">
   <property name="kdenlive:id">6</property>
   <filter id="filter65" in="00:00:00.320" out="00:00:00.400">
    <property name="window">75</property>
    <property name="max_gain">20dB</property>
    <property name="mlt_service">volume</property>
    <property name="kdenlive_id">fadeout</property>
    <property name="gain">1</property>
    <property name="end">0</property>
   </filter>
  </entry>
  <blank length="00:00:00.160"/>
  <entry in="00:00:00.120" out="00:00:00.400" producer="chain4">
   <property name="kdenlive:id">6</property>
   <filter id="filter66" in="00:00:00.320" out="00:00:00.400">
    <property name="window">75</property>
    <property name="max_gain">20dB</property>
    <property name="mlt_service">volume</property>
    <property name="kdenlive_id">fadeout</property>
    <property name="gain">1</property>
    <property name="end">0</property>
   </filter>
  </entry>
  <blank length="00:00:00.160"/>
  <entry in="00:00:00.120" out="00:00:00.400" producer="chain4">
   <property name="kdenlive:id">6</property>
   <filter id="filter67" in="00:00:00.320" out="00:00:00.400">
    <property name="window">75</property>
    <property name="max_gain">20dB</property>
    <property name="mlt_service">volume</property>
    <property name="kdenlive_id">fadeout</property>
    <property name="gain">1</property>
    <property name="end">0</property>
   </filter>
  </entry>
  <blank length="00:00:00.160"/>
  <entry in="00:00:00.120" out="00:00:00.400" producer="chain4">
   <property name="kdenlive:id">6</property>
   <filter id="filter68" in="00:00:00.320" out="00:00:00.400">
    <property name="window">75</property>
    <property name="max_gain">20dB</property>
    <property name="mlt_service">volume</property>
    <property name="kdenlive_id">fadeout</property>
    <property name="gain">1</property>
    <property name="end">0</property>
   </filter>
  </entry>
  <blank length="00:00:00.160"/>
  <entry in="00:00:00.120" out="00:00:00.400" producer="chain4">
   <property name="kdenlive:id">6</property>
   <filter id="filter69" in="00:00:00.320" out="00:00:00.400">
    <property name="window">75</property>
    <property name="max_gain">20dB</property>
    <property name="mlt_service">volume</property>
    <property name="kdenlive_id">fadeout</property>
    <property name="gain">1</property>
    <property name="end">0</property>
   </filter>
  </entry>
  <blank length="00:00:00.160"/>
  <entry in="00:00:00.120" out="00:00:00.400" producer="chain4">
   <property name="kdenlive:id">6</property>
   <filter id="filter70" in="00:00:00.320" out="00:00:00.400">
    <property name="window">75</property>
    <property name="max_gain">20dB</property>
    <property name="mlt_service">volume</property>
    <property name="kdenlive_id">fadeout</property>
    <property name="gain">1</property>
    <property name="end">0</property>
   </filter>
  </entry>
  <blank length="00:00:00.160"/>
  <entry in="00:00:00.120" out="00:00:00.400" producer="chain4">
   <property name="kdenlive:id">6</property>
   <filter id="filter71" in="00:00:00.320" out="00:00:00.400">
    <property name="window">75</property>
    <property name="max_gain">20dB</property>
    <property name="mlt_service">volume</property>
    <property name="kdenlive_id">fadeout</property>
    <property name="gain">1</property>
    <property name="end">0</property>
   </filter>
  </entry>
  <blank length="00:00:00.160"/>
  <entry in="00:00:00.120" out="00:00:00.400" producer="chain4">
   <property name="kdenlive:id">6</property>
   <filter id="filter72" in="00:00:00.320" out="00:00:00.400">
    <property name="window">75</property>
    <property name="max_gain">20dB</property>
    <property name="mlt_service">volume</property>
    <property name="kdenlive_id">fadeout</property>
    <property name="gain">1</property>
    <property name="end">0</property>
   </filter>
  </entry>
  <blank length="00:00:00.240"/>
  <entry in="00:00:00.120" out="00:00:00.400" producer="chain4">
   <property name="kdenlive:id">6</property>
   <filter id="filter73" in="00:00:00.320" out="00:00:00.400">
    <property name="window">75</property>
    <property name="max_gain">20dB</property>
    <property name="mlt_service">volume</property>
    <property name="kdenlive_id">fadeout</property>
    <property name="gain">1</property>
    <property name="end">0</property>
   </filter>
  </entry>
  <blank length="00:00:00.160"/>
  <entry in="00:00:00.120" out="00:00:00.400" producer="chain4">
   <property name="kdenlive:id">6</property>
   <filter id="filter74" in="00:00:00.320" out="00:00:00.400">
    <property name="window">75</property>
    <property name="max_gain">20dB</property>
    <property name="mlt_service">volume</property>
    <property name="kdenlive_id">fadeout</property>
    <property name="gain">1</property>
    <property name="end">0</property>
   </filter>
  </entry>
  <blank length="00:00:00.160"/>
  <entry in="00:00:00.120" out="00:00:00.400" producer="chain4">
   <property name="kdenlive:id">6</property>
   <filter id="filter75" in="00:00:00.320" out="00:00:00.400">
    <property name="window">75</property>
    <property name="max_gain">20dB</property>
    <property name="mlt_service">volume</property>
    <property name="kdenlive_id">fadeout</property>
    <property name="gain">1</property>
    <property name="end">0</property>
   </filter>
  </entry>
  <blank length="00:00:00.160"/>
  <entry in="00:00:00.120" out="00:00:00.400" producer="chain4">
   <property name="kdenlive:id">6</property>
   <filter id="filter76" in="00:00:00.320" out="00:00:00.400">
    <property name="window">75</property>
    <property name="max_gain">20dB</property>
    <property name="mlt_service">volume</property>
    <property name="kdenlive_id">fadeout</property>
    <property name="gain">1</property>
    <property name="end">0</property>
   </filter>
  </entry>
  <blank length="00:00:00.160"/>
  <entry in="00:00:00.120" out="00:00:00.400" producer="chain4">
   <property name="kdenlive:id">6</property>
   <filter id="filter77" in="00:00:00.320" out="00:00:00.400">
    <property name="window">75</property>
    <property name="max_gain">20dB</property>
    <property name="mlt_service">volume</property>
    <property name="kdenlive_id">fadeout</property>
    <property name="gain">1</property>
    <property name="end">0</property>
   </filter>
  </entry>
  <blank length="00:00:00.160"/>
  <entry in="00:00:00.120" out="00:00:00.400" producer="chain4">
   <property name="kdenlive:id">6</property>
   <filter id="filter78" in="00:00:00.320" out="00:00:00.400">
    <property name="window">75</property>
    <property name="max_gain">20dB</property>
    <property name="mlt_service">volume</property>
    <property name="kdenlive_id">fadeout</property>
    <property name="gain">1</property>
    <property name="end">0</property>
   </filter>
  </entry>
  <blank length="00:00:00.400"/>
  <entry in="00:00:00.120" out="00:00:00.400" producer="chain4">
   <property name="kdenlive:id">6</property>
   <filter id="filter79" in="00:00:00.320" out="00:00:00.400">
    <property name="window">75</property>
    <property name="max_gain">20dB</property>
    <property name="mlt_service">volume</property>
    <property name="kdenlive_id">fadeout</property>
    <property name="gain">1</property>
    <property name="end">0</property>
   </filter>
   <filter id="filter80">
    <property name="window">75</property>
    <property name="version">14.4.2</property>
    <property name="mlt_service">sox</property>
    <property name="kdenlive_id">sox_echo</property>
    <property name="gain-in">0.5</property>
    <property name="gain-out">1</property>
    <property name="delay">150</property>
    <property name="decay">0.8</property>
    <property name="effect">echo 0.5 1 150 0.8</property>
   </filter>
  </entry>
  <blank length="00:00:00.160"/>
  <entry in="00:00:00.120" out="00:00:00.400" producer="chain4">
   <property name="kdenlive:id">6</property>
   <filter id="filter81" in="00:00:00.320" out="00:00:00.400">
    <property name="window">75</property>
    <property name="max_gain">20dB</property>
    <property name="mlt_service">volume</property>
    <property name="kdenlive_id">fadeout</property>
    <property name="gain">1</property>
    <property name="end">0</property>
   </filter>
  </entry>
  <blank length="00:00:00.160"/>
  <entry in="00:00:00.120" out="00:00:00.400" producer="chain4">
   <property name="kdenlive:id">6</property>
   <filter id="filter82" in="00:00:00.320" out="00:00:00.400">
    <property name="window">75</property>
    <property name="max_gain">20dB</property>
    <property name="mlt_service">volume</property>
    <property name="kdenlive_id">fadeout</property>
    <property name="gain">1</property>
    <property name="end">0</property>
   </filter>
  </entry>
  <blank length="00:00:00.160"/>
  <entry in="00:00:00.120" out="00:00:00.400" producer="chain4">
   <property name="kdenlive:id">6</property>
   <filter id="filter83" in="00:00:00.320" out="00:00:00.400">
    <property name="window">75</property>
    <property name="max_gain">20dB</property>
    <property name="mlt_service">volume</property>
    <property name="kdenlive_id">fadeout</property>
    <property name="gain">1</property>
    <property name="end">0</property>
   </filter>
  </entry>
  <blank length="00:00:00.160"/>
  <entry in="00:00:00.120" out="00:00:00.400" producer="chain4">
   <property name="kdenlive:id">6</property>
   <filter id="filter84" in="00:00:00.320" out="00:00:00.400">
    <property name="window">75</property>
    <property name="max_gain">20dB</property>
    <property name="mlt_service">volume</property>
    <property name="kdenlive_id">fadeout</property>
    <property name="gain">1</property>
    <property name="end">0</property>
   </filter>
  </entry>
  <blank length="00:00:00.160"/>
  <entry in="00:00:00.120" out="00:00:00.400" producer="chain4">
   <property name="kdenlive:id">6</property>
   <filter id="filter85" in="00:00:00.320" out="00:00:00.400">
    <property name="window">75</property>
    <property name="max_gain">20dB</property>
    <property name="mlt_service">volume</property>
    <property name="kdenlive_id">fadeout</property>
    <property name="gain">1</property>
    <property name="end">0</property>
   </filter>
  </entry>
  <blank length="00:00:00.160"/>
  <entry in="00:00:00.120" out="00:00:00.400" producer="chain4">
   <property name="kdenlive:id">6</property>
   <filter id="filter86" in="00:00:00.320" out="00:00:00.400">
    <property name="window">75</property>
    <property name="max_gain">20dB</property>
    <property name="mlt_service">volume</property>
    <property name="kdenlive_id">fadeout</property>
    <property name="gain">1</property>
    <property name="end">0</property>
   </filter>
  </entry>
  <blank length="00:00:00.160"/>
  <entry in="00:00:00.120" out="00:00:00.400" producer="chain4">
   <property name="kdenlive:id">6</property>
   <filter id="filter87" in="00:00:00.320" out="00:00:00.400">
    <property name="window">75</property>
    <property name="max_gain">20dB</property>
    <property name="mlt_service">volume</property>
    <property name="kdenlive_id">fadeout</property>
    <property name="gain">1</property>
    <property name="end">0</property>
   </filter>
  </entry>
  <blank length="00:00:00.160"/>
  <entry in="00:00:00.120" out="00:00:00.400" producer="chain4">
   <property name="kdenlive:id">6</property>
   <filter id="filter88" in="00:00:00.320" out="00:00:00.400">
    <property name="window">75</property>
    <property name="max_gain">20dB</property>
    <property name="mlt_service">volume</property>
    <property name="kdenlive_id">fadeout</property>
    <property name="gain">1</property>
    <property name="end">0</property>
   </filter>
  </entry>
  <blank length="00:00:00.160"/>
  <entry in="00:00:00.120" out="00:00:00.400" producer="chain4">
   <property name="kdenlive:id">6</property>
   <filter id="filter89" in="00:00:00.320" out="00:00:00.400">
    <property name="window">75</property>
    <property name="max_gain">20dB</property>
    <property name="mlt_service">volume</property>
    <property name="kdenlive_id">fadeout</property>
    <property name="gain">1</property>
    <property name="end">0</property>
   </filter>
  </entry>
  <blank length="00:00:00.160"/>
  <entry in="00:00:00.120" out="00:00:00.400" producer="chain4">
   <property name="kdenlive:id">6</property>
   <filter id="filter90" in="00:00:00.320" out="00:00:00.400">
    <property name="window">75</property>
    <property name="max_gain">20dB</property>
    <property name="mlt_service">volume</property>
    <property name="kdenlive_id">fadeout</property>
    <property name="gain">1</property>
    <property name="end">0</property>
   </filter>
  </entry>
  <blank length="00:00:00.160"/>
  <entry in="00:00:00.120" out="00:00:00.400" producer="chain4">
   <property name="kdenlive:id">6</property>
   <filter id="filter91" in="00:00:00.320" out="00:00:00.400">
    <property name="window">75</property>
    <property name="max_gain">20dB</property>
    <property name="mlt_service">volume</property>
    <property name="kdenlive_id">fadeout</property>
    <property name="gain">1</property>
    <property name="end">0</property>
   </filter>
  </entry>
  <blank length="00:00:00.160"/>
  <entry in="00:00:00.120" out="00:00:00.400" producer="chain4">
   <property name="kdenlive:id">6</property>
   <filter id="filter92" in="00:00:00.320" out="00:00:00.400">
    <property name="window">75</property>
    <property name="max_gain">20dB</property>
    <property name="mlt_service">volume</property>
    <property name="kdenlive_id">fadeout</property>
    <property name="gain">1</property>
    <property name="end">0</property>
   </filter>
  </entry>
  <blank length="00:00:00.160"/>
  <entry in="00:00:00.120" out="00:00:00.400" producer="chain4">
   <property name="kdenlive:id">6</property>
   <filter id="filter93" in="00:00:00.320" out="00:00:00.400">
    <property name="window">75</property>
    <property name="max_gain">20dB</property>
    <property name="mlt_service">volume</property>
    <property name="kdenlive_id">fadeout</property>
    <property name="gain">1</property>
    <property name="end">0</property>
   </filter>
  </entry>
  <blank length="00:00:00.240"/>
  <entry in="00:00:00.120" out="00:00:00.400" producer="chain4">
   <property name="kdenlive:id">6</property>
   <filter id="filter94" in="00:00:00.320" out="00:00:00.400">
    <property name="window">75</property>
    <property name="max_gain">20dB</property>
    <property name="mlt_service">volume</property>
    <property name="kdenlive_id">fadeout</property>
    <property name="gain">1</property>
    <property name="end">0</property>
   </filter>
  </entry>
  <blank length="00:00:00.160"/>
  <entry in="00:00:00.120" out="00:00:00.400" producer="chain4">
   <property name="kdenlive:id">6</property>
   <filter id="filter95" in="00:00:00.320" out="00:00:00.400">
    <property name="window">75</property>
    <property name="max_gain">20dB</property>
    <property name="mlt_service">volume</property>
    <property name="kdenlive_id">fadeout</property>
    <property name="gain">1</property>
    <property name="end">0</property>
   </filter>
  </entry>
  <blank length="00:00:00.160"/>
  <entry in="00:00:00.120" out="00:00:00.400" producer="chain4">
   <property name="kdenlive:id">6</property>
   <filter id="filter96" in="00:00:00.320" out="00:00:00.400">
    <property name="window">75</property>
    <property name="max_gain">20dB</property>
    <property name="mlt_service">volume</property>
    <property name="kdenlive_id">fadeout</property>
    <property name="gain">1</property>
    <property name="end">0</property>
   </filter>
  </entry>
  <blank length="00:00:00.160"/>
  <entry in="00:00:00.120" out="00:00:00.400" producer="chain4">
   <property name="kdenlive:id">6</property>
   <filter id="filter97" in="00:00:00.320" out="00:00:00.400">
    <property name="window">75</property>
    <property name="max_gain">20dB</property>
    <property name="mlt_service">volume</property>
    <property name="kdenlive_id">fadeout</property>
    <property name="gain">1</property>
    <property name="end">0</property>
   </filter>
  </entry>
  <blank length="00:00:00.160"/>
  <entry in="00:00:00.120" out="00:00:00.400" producer="chain4">
   <property name="kdenlive:id">6</property>
   <filter id="filter98" in="00:00:00.320" out="00:00:00.400">
    <property name="window">75</property>
    <property name="max_gain">20dB</property>
    <property name="mlt_service">volume</property>
    <property name="kdenlive_id">fadeout</property>
    <property name="gain">1</property>
    <property name="end">0</property>
   </filter>
  </entry>
  <blank length="00:00:00.160"/>
  <entry in="00:00:00.120" out="00:00:00.400" producer="chain4">
   <property name="kdenlive:id">6</property>
   <filter id="filter99" in="00:00:00.320" out="00:00:00.400">
    <property name="window">75</property>
    <property name="max_gain">20dB</property>
    <property name="mlt_service">volume</property>
    <property name="kdenlive_id">fadeout</property>
    <property name="gain">1</property>
    <property name="end">0</property>
   </filter>
  </entry>
  <blank length="00:00:00.160"/>
  <entry in="00:00:00.120" out="00:00:04.160" producer="chain4">
   <property name="kdenlive:id">6</property>
   <filter id="filter100" in="00:00:04.080" out="00:00:04.160">
    <property name="window">75</property>
    <property name="max_gain">20dB</property>
    <property name="mlt_service">volume</property>
    <property name="kdenlive_id">fadeout</property>
    <property name="gain">1</property>
    <property name="end">0</property>
   </filter>
  </entry>
 </playlist>
 <playlist id="playlist9">
  <property name="kdenlive:audio_track">1</property>
 </playlist>
 <tractor id="tractor4" in="00:00:00.000" out="00:00:28.840">
  <property name="kdenlive:audio_track">1</property>
  <property name="kdenlive:trackheight">40</property>
  <property name="kdenlive:timeline_active">1</property>
  <property name="kdenlive:collapsed">0</property>
  <property name="kdenlive:thumbs_format"/>
  <property name="kdenlive:audio_rec"/>
  <track hide="video" producer="playlist8"/>
  <track hide="video" producer="playlist9"/>
  <filter id="filter101">
   <property name="window">75</property>
   <property name="max_gain">20dB</property>
   <property name="mlt_service">volume</property>
   <property name="internal_added">237</property>
   <property name="disable">1</property>
  </filter>
  <filter id="filter102">
   <property name="channel">-1</property>
   <property name="mlt_service">panner</property>
   <property name="internal_added">237</property>
   <property name="start">0.5</property>
   <property name="disable">1</property>
  </filter>
  <filter id="filter103">
   <property name="iec_scale">0</property>
   <property name="mlt_service">audiolevel</property>
   <property name="dbpeak">1</property>
   <property name="disable">1</property>
  </filter>
 </tractor>
 <chain id="chain5" out="00:00:18.840">
  <property name="length">472</property>
  <property name="eof">pause</property>
  <property name="resource">/home/vir0id/Загрузки/GimpArtCraftFromLatvia/Blender/Projects/Turel/Render/eevee/video/sound/1592805149_weapons_artillery_heavy_distant_01.mp3</property>
  <property name="mlt_service">avformat-novalidate</property>
  <property name="seekable">1</property>
  <property name="format">3</property>
  <property name="audio_index">0</property>
  <property name="video_index">1</property>
  <property name="vstream">0</property>
  <property name="astream">0</property>
  <property name="kdenlive:folderid">2</property>
  <property name="kdenlive:id">6</property>
  <property name="mute_on_pause">0</property>
  <property name="kdenlive:clip_type">0</property>
  <property name="kdenlive:file_size">145787</property>
  <property name="kdenlive:file_hash">870e18bbd548754d52b6149acb60b225</property>
  <property name="kdenlive:audio_max0">220</property>
  <property name="meta.media.nb_streams">2</property>
  <property name="meta.media.0.stream.type">audio</property>
  <property name="meta.media.0.codec.sample_fmt">fltp</property>
  <property name="meta.media.0.codec.sample_rate">48000</property>
  <property name="meta.media.0.codec.channels">2</property>
  <property name="meta.media.0.codec.layout">stereo</property>
  <property name="meta.media.0.codec.name">mp3float</property>
  <property name="meta.media.0.codec.long_name">MP3 (MPEG audio layer 3)</property>
  <property name="meta.media.0.codec.bit_rate">56224</property>
  <property name="meta.attr.0.stream.encoder.markup">LAME3.98r</property>
  <property name="meta.media.1.stream.type">video</property>
  <property name="meta.media.1.stream.frame_rate">90000</property>
  <property name="meta.media.1.stream.sample_aspect_ratio">0</property>
  <property name="meta.media.1.codec.width">512</property>
  <property name="meta.media.1.codec.height">512</property>
  <property name="meta.media.1.codec.rotate">0</property>
  <property name="meta.media.1.codec.pix_fmt">yuvj420p</property>
  <property name="meta.media.1.codec.sample_aspect_ratio">1</property>
  <property name="meta.media.1.codec.colorspace">601</property>
  <property name="meta.media.1.codec.name">mjpeg</property>
  <property name="meta.media.1.codec.long_name">MJPEG (Motion JPEG)</property>
  <property name="meta.media.1.codec.bit_rate">0</property>
  <property name="meta.attr.1.stream.comment.markup">Cover (front)</property>
  <property name="meta.attr.comment.markup">Heavy impact of a artillery firing in the distance. Weapon, War, Fight, Shoot, Fire, Artillery, Hard, Distant.</property>
  <property name="meta.attr.genre.markup">Weapons</property>
  <property name="meta.attr.copyright.markup">2019 SmartSound FX www.smartsoundeffects.com</property>
  <property name="meta.attr.encoded_by.markup">Sound Grinder 3.5.7</property>
  <property name="meta.attr.artist.markup">SmartSound FX</property>
  <property name="meta.attr.TOAL.markup">www.smartsoundeffects.com</property>
  <property name="meta.attr.TORY.markup">2019</property>
  <property name="meta.attr.encoder.markup">Soundminer</property>
  <property name="meta.attr.title.markup">WEAPONS ARTILLERY Heavy Distant 01.wav</property>
  <property name="meta.attr.track.markup">0</property>
  <property name="meta.attr.date.markup">2019</property>
  <property name="meta.media.sample_aspect_num">72</property>
  <property name="meta.media.sample_aspect_den">72</property>
  <property name="meta.media.frame_rate_num">90000</property>
  <property name="meta.media.frame_rate_den">1</property>
  <property name="meta.media.colorspace">601</property>
  <property name="meta.media.color_trc">2</property>
  <property name="meta.media.has_b_frames">0</property>
  <property name="meta.media.width">512</property>
  <property name="meta.media.height">512</property>
  <property name="meta.media.aspect_ratio">1</property>
  <property name="meta.media.color_range">full</property>
  <property name="xml">was here</property>
  <property name="meta.media.top_field_first">0</property>
  <property name="meta.media.progressive">1</property>
  <property name="set.test_audio">1</property>
  <property name="set.test_image">0</property>
 </chain>
 <playlist id="playlist10">
  <blank length="00:00:05.200"/>
  <entry in="00:00:00.120" out="00:00:00.400" producer="chain5">
   <property name="kdenlive:id">6</property>
  </entry>
  <blank length="00:00:00.160"/>
  <entry in="00:00:00.120" out="00:00:00.400" producer="chain5">
   <property name="kdenlive:id">6</property>
  </entry>
  <blank length="00:00:00.160"/>
  <entry in="00:00:00.120" out="00:00:00.400" producer="chain5">
   <property name="kdenlive:id">6</property>
  </entry>
  <blank length="00:00:00.160"/>
  <entry in="00:00:00.120" out="00:00:00.400" producer="chain5">
   <property name="kdenlive:id">6</property>
  </entry>
  <blank length="00:00:00.160"/>
  <entry in="00:00:00.120" out="00:00:00.400" producer="chain5">
   <property name="kdenlive:id">6</property>
  </entry>
  <blank length="00:00:00.160"/>
  <entry in="00:00:00.120" out="00:00:00.400" producer="chain5">
   <property name="kdenlive:id">6</property>
  </entry>
  <blank length="00:00:00.160"/>
  <entry in="00:00:00.120" out="00:00:00.400" producer="chain5">
   <property name="kdenlive:id">6</property>
  </entry>
  <blank length="00:00:00.160"/>
  <entry in="00:00:00.120" out="00:00:00.400" producer="chain5">
   <property name="kdenlive:id">6</property>
  </entry>
  <blank length="00:00:00.160"/>
  <entry in="00:00:00.120" out="00:00:00.400" producer="chain5">
   <property name="kdenlive:id">6</property>
  </entry>
  <blank length="00:00:00.160"/>
  <entry in="00:00:00.120" out="00:00:00.400" producer="chain5">
   <property name="kdenlive:id">6</property>
  </entry>
  <blank length="00:00:00.160"/>
  <entry in="00:00:00.120" out="00:00:00.400" producer="chain5">
   <property name="kdenlive:id">6</property>
  </entry>
  <blank length="00:00:00.160"/>
  <entry in="00:00:00.120" out="00:00:00.400" producer="chain5">
   <property name="kdenlive:id">6</property>
  </entry>
  <blank length="00:00:00.160"/>
  <entry in="00:00:00.120" out="00:00:00.400" producer="chain5">
   <property name="kdenlive:id">6</property>
  </entry>
  <blank length="00:00:00.160"/>
  <entry in="00:00:00.120" out="00:00:00.400" producer="chain5">
   <property name="kdenlive:id">6</property>
  </entry>
  <blank length="00:00:00.240"/>
  <entry in="00:00:00.120" out="00:00:00.400" producer="chain5">
   <property name="kdenlive:id">6</property>
  </entry>
  <blank length="00:00:00.160"/>
  <entry in="00:00:00.120" out="00:00:00.400" producer="chain5">
   <property name="kdenlive:id">6</property>
  </entry>
  <blank length="00:00:00.160"/>
  <entry in="00:00:00.120" out="00:00:00.400" producer="chain5">
   <property name="kdenlive:id">6</property>
  </entry>
  <blank length="00:00:00.160"/>
  <entry in="00:00:00.120" out="00:00:00.400" producer="chain5">
   <property name="kdenlive:id">6</property>
  </entry>
  <blank length="00:00:00.160"/>
  <entry in="00:00:00.120" out="00:00:00.400" producer="chain5">
   <property name="kdenlive:id">6</property>
  </entry>
  <blank length="00:00:00.160"/>
  <entry in="00:00:00.120" out="00:00:00.400" producer="chain5">
   <property name="kdenlive:id">6</property>
  </entry>
  <blank length="00:00:00.400"/>
  <entry in="00:00:00.120" out="00:00:00.400" producer="chain5">
   <property name="kdenlive:id">6</property>
  </entry>
  <blank length="00:00:00.160"/>
  <entry in="00:00:00.120" out="00:00:00.400" producer="chain5">
   <property name="kdenlive:id">6</property>
  </entry>
  <blank length="00:00:00.160"/>
  <entry in="00:00:00.120" out="00:00:00.400" producer="chain5">
   <property name="kdenlive:id">6</property>
  </entry>
  <blank length="00:00:00.160"/>
  <entry in="00:00:00.120" out="00:00:00.400" producer="chain5">
   <property name="kdenlive:id">6</property>
  </entry>
  <blank length="00:00:00.160"/>
  <entry in="00:00:00.120" out="00:00:00.400" producer="chain5">
   <property name="kdenlive:id">6</property>
  </entry>
  <blank length="00:00:00.160"/>
  <entry in="00:00:00.120" out="00:00:00.400" producer="chain5">
   <property name="kdenlive:id">6</property>
  </entry>
  <blank length="00:00:00.160"/>
  <entry in="00:00:00.120" out="00:00:00.400" producer="chain5">
   <property name="kdenlive:id">6</property>
  </entry>
  <blank length="00:00:00.160"/>
  <entry in="00:00:00.120" out="00:00:00.400" producer="chain5">
   <property name="kdenlive:id">6</property>
  </entry>
  <blank length="00:00:00.160"/>
  <entry in="00:00:00.120" out="00:00:00.400" producer="chain5">
   <property name="kdenlive:id">6</property>
  </entry>
  <blank length="00:00:00.160"/>
  <entry in="00:00:00.120" out="00:00:00.400" producer="chain5">
   <property name="kdenlive:id">6</property>
  </entry>
  <blank length="00:00:00.160"/>
  <entry in="00:00:00.120" out="00:00:00.400" producer="chain5">
   <property name="kdenlive:id">6</property>
  </entry>
  <blank length="00:00:00.160"/>
  <entry in="00:00:00.120" out="00:00:00.400" producer="chain5">
   <property name="kdenlive:id">6</property>
  </entry>
  <blank length="00:00:00.160"/>
  <entry in="00:00:00.120" out="00:00:00.400" producer="chain5">
   <property name="kdenlive:id">6</property>
  </entry>
  <blank length="00:00:00.160"/>
  <entry in="00:00:00.120" out="00:00:00.400" producer="chain5">
   <property name="kdenlive:id">6</property>
  </entry>
  <blank length="00:00:00.240"/>
  <entry in="00:00:00.120" out="00:00:00.400" producer="chain5">
   <property name="kdenlive:id">6</property>
  </entry>
  <blank length="00:00:00.160"/>
  <entry in="00:00:00.120" out="00:00:00.400" producer="chain5">
   <property name="kdenlive:id">6</property>
  </entry>
  <blank length="00:00:00.160"/>
  <entry in="00:00:00.120" out="00:00:00.400" producer="chain5">
   <property name="kdenlive:id">6</property>
  </entry>
  <blank length="00:00:00.160"/>
  <entry in="00:00:00.120" out="00:00:00.400" producer="chain5">
   <property name="kdenlive:id">6</property>
  </entry>
  <blank length="00:00:00.160"/>
  <entry in="00:00:00.120" out="00:00:00.400" producer="chain5">
   <property name="kdenlive:id">6</property>
  </entry>
  <blank length="00:00:00.160"/>
  <entry in="00:00:00.120" out="00:00:00.400" producer="chain5">
   <property name="kdenlive:id">6</property>
  </entry>
  <blank length="00:00:00.160"/>
  <entry in="00:00:00.120" out="00:00:04.160" producer="chain5">
   <property name="kdenlive:id">6</property>
  </entry>
 </playlist>
 <playlist id="playlist11"/>
 <tractor id="tractor5" in="00:00:00.000" out="00:00:28.840">
  <property name="kdenlive:trackheight">40</property>
  <property name="kdenlive:timeline_active">1</property>
  <property name="kdenlive:collapsed">0</property>
  <property name="kdenlive:thumbs_format"/>
  <property name="kdenlive:audio_rec"/>
  <track hide="both" producer="playlist10"/>
  <track hide="both" producer="playlist11"/>
 </tractor>
 <chain id="chain6" out="00:00:18.840">
  <property name="length">472</property>
  <property name="eof">pause</property>
  <property name="resource">/home/vir0id/Загрузки/GimpArtCraftFromLatvia/Blender/Projects/Turel/Render/eevee/video/sound/1592805149_weapons_artillery_heavy_distant_01.mp3</property>
  <property name="mlt_service">avformat-novalidate</property>
  <property name="seekable">1</property>
  <property name="format">3</property>
  <property name="audio_index">0</property>
  <property name="video_index">1</property>
  <property name="vstream">0</property>
  <property name="astream">0</property>
  <property name="kdenlive:folderid">2</property>
  <property name="kdenlive:id">6</property>
  <property name="mute_on_pause">0</property>
  <property name="kdenlive:clip_type">0</property>
  <property name="kdenlive:file_size">145787</property>
  <property name="kdenlive:file_hash">870e18bbd548754d52b6149acb60b225</property>
  <property name="kdenlive:audio_max0">220</property>
  <property name="meta.media.nb_streams">2</property>
  <property name="meta.media.0.stream.type">audio</property>
  <property name="meta.media.0.codec.sample_fmt">fltp</property>
  <property name="meta.media.0.codec.sample_rate">48000</property>
  <property name="meta.media.0.codec.channels">2</property>
  <property name="meta.media.0.codec.layout">stereo</property>
  <property name="meta.media.0.codec.name">mp3float</property>
  <property name="meta.media.0.codec.long_name">MP3 (MPEG audio layer 3)</property>
  <property name="meta.media.0.codec.bit_rate">56224</property>
  <property name="meta.attr.0.stream.encoder.markup">LAME3.98r</property>
  <property name="meta.media.1.stream.type">video</property>
  <property name="meta.media.1.stream.frame_rate">90000</property>
  <property name="meta.media.1.stream.sample_aspect_ratio">0</property>
  <property name="meta.media.1.codec.width">512</property>
  <property name="meta.media.1.codec.height">512</property>
  <property name="meta.media.1.codec.rotate">0</property>
  <property name="meta.media.1.codec.pix_fmt">yuvj420p</property>
  <property name="meta.media.1.codec.sample_aspect_ratio">1</property>
  <property name="meta.media.1.codec.colorspace">601</property>
  <property name="meta.media.1.codec.name">mjpeg</property>
  <property name="meta.media.1.codec.long_name">MJPEG (Motion JPEG)</property>
  <property name="meta.media.1.codec.bit_rate">0</property>
  <property name="meta.attr.1.stream.comment.markup">Cover (front)</property>
  <property name="meta.attr.comment.markup">Heavy impact of a artillery firing in the distance. Weapon, War, Fight, Shoot, Fire, Artillery, Hard, Distant.</property>
  <property name="meta.attr.genre.markup">Weapons</property>
  <property name="meta.attr.copyright.markup">2019 SmartSound FX www.smartsoundeffects.com</property>
  <property name="meta.attr.encoded_by.markup">Sound Grinder 3.5.7</property>
  <property name="meta.attr.artist.markup">SmartSound FX</property>
  <property name="meta.attr.TOAL.markup">www.smartsoundeffects.com</property>
  <property name="meta.attr.TORY.markup">2019</property>
  <property name="meta.attr.encoder.markup">Soundminer</property>
  <property name="meta.attr.title.markup">WEAPONS ARTILLERY Heavy Distant 01.wav</property>
  <property name="meta.attr.track.markup">0</property>
  <property name="meta.attr.date.markup">2019</property>
  <property name="meta.media.sample_aspect_num">72</property>
  <property name="meta.media.sample_aspect_den">72</property>
  <property name="meta.media.frame_rate_num">90000</property>
  <property name="meta.media.frame_rate_den">1</property>
  <property name="meta.media.colorspace">601</property>
  <property name="meta.media.color_trc">2</property>
  <property name="meta.media.has_b_frames">0</property>
  <property name="meta.media.width">512</property>
  <property name="meta.media.height">512</property>
  <property name="meta.media.aspect_ratio">1</property>
  <property name="meta.media.color_range">full</property>
  <property name="xml">was here</property>
  <property name="meta.media.top_field_first">0</property>
  <property name="meta.media.progressive">1</property>
  <property name="set.test_audio">1</property>
  <property name="set.test_image">0</property>
 </chain>
 <playlist id="playlist12">
  <blank length="00:00:05.040"/>
  <entry in="00:00:00.120" out="00:00:00.400" producer="chain6">
   <property name="kdenlive:id">6</property>
  </entry>
  <blank length="00:00:00.080"/>
  <entry in="00:00:00.120" out="00:00:00.400" producer="chain6">
   <property name="kdenlive:id">6</property>
  </entry>
  <blank length="00:00:00.160"/>
  <entry in="00:00:00.120" out="00:00:00.400" producer="chain6">
   <property name="kdenlive:id">6</property>
  </entry>
  <blank length="00:00:00.160"/>
  <entry in="00:00:00.120" out="00:00:00.400" producer="chain6">
   <property name="kdenlive:id">6</property>
  </entry>
  <blank length="00:00:00.160"/>
  <entry in="00:00:00.120" out="00:00:00.400" producer="chain6">
   <property name="kdenlive:id">6</property>
  </entry>
  <blank length="00:00:00.160"/>
  <entry in="00:00:00.120" out="00:00:00.400" producer="chain6">
   <property name="kdenlive:id">6</property>
  </entry>
  <blank length="00:00:00.160"/>
  <entry in="00:00:00.120" out="00:00:00.400" producer="chain6">
   <property name="kdenlive:id">6</property>
  </entry>
  <blank length="00:00:00.160"/>
  <entry in="00:00:00.120" out="00:00:00.400" producer="chain6">
   <property name="kdenlive:id">6</property>
  </entry>
  <blank length="00:00:00.160"/>
  <entry in="00:00:00.120" out="00:00:00.400" producer="chain6">
   <property name="kdenlive:id">6</property>
  </entry>
  <blank length="00:00:00.160"/>
  <entry in="00:00:00.120" out="00:00:00.400" producer="chain6">
   <property name="kdenlive:id">6</property>
  </entry>
  <blank length="00:00:00.160"/>
  <entry in="00:00:00.120" out="00:00:00.400" producer="chain6">
   <property name="kdenlive:id">6</property>
  </entry>
  <blank length="00:00:00.160"/>
  <entry in="00:00:00.120" out="00:00:00.400" producer="chain6">
   <property name="kdenlive:id">6</property>
  </entry>
  <blank length="00:00:00.160"/>
  <entry in="00:00:00.120" out="00:00:00.400" producer="chain6">
   <property name="kdenlive:id">6</property>
  </entry>
  <blank length="00:00:00.160"/>
  <entry in="00:00:00.120" out="00:00:00.400" producer="chain6">
   <property name="kdenlive:id">6</property>
  </entry>
  <blank length="00:00:00.240"/>
  <entry in="00:00:00.120" out="00:00:00.400" producer="chain6">
   <property name="kdenlive:id">6</property>
  </entry>
  <blank length="00:00:00.160"/>
  <entry in="00:00:00.120" out="00:00:00.400" producer="chain6">
   <property name="kdenlive:id">6</property>
  </entry>
  <blank length="00:00:00.160"/>
  <entry in="00:00:00.120" out="00:00:00.400" producer="chain6">
   <property name="kdenlive:id">6</property>
  </entry>
  <blank length="00:00:00.160"/>
  <entry in="00:00:00.120" out="00:00:00.400" producer="chain6">
   <property name="kdenlive:id">6</property>
  </entry>
  <blank length="00:00:00.160"/>
  <entry in="00:00:00.120" out="00:00:00.400" producer="chain6">
   <property name="kdenlive:id">6</property>
  </entry>
  <blank length="00:00:00.160"/>
  <entry in="00:00:00.120" out="00:00:00.400" producer="chain6">
   <property name="kdenlive:id">6</property>
  </entry>
  <blank length="00:00:00.160"/>
  <entry in="00:00:00.120" out="00:00:00.400" producer="chain6">
   <property name="kdenlive:id">6</property>
  </entry>
  <entry in="00:00:00.120" out="00:00:00.400" producer="chain6">
   <property name="kdenlive:id">6</property>
  </entry>
  <blank length="00:00:00.080"/>
  <entry in="00:00:00.120" out="00:00:00.400" producer="chain6">
   <property name="kdenlive:id">6</property>
  </entry>
  <blank length="00:00:00.160"/>
  <entry in="00:00:00.120" out="00:00:00.400" producer="chain6">
   <property name="kdenlive:id">6</property>
  </entry>
  <blank length="00:00:00.160"/>
  <entry in="00:00:00.120" out="00:00:00.400" producer="chain6">
   <property name="kdenlive:id">6</property>
  </entry>
  <blank length="00:00:00.160"/>
  <entry in="00:00:00.120" out="00:00:00.400" producer="chain6">
   <property name="kdenlive:id">6</property>
  </entry>
  <blank length="00:00:00.160"/>
  <entry in="00:00:00.120" out="00:00:00.400" producer="chain6">
   <property name="kdenlive:id">6</property>
  </entry>
  <blank length="00:00:00.160"/>
  <entry in="00:00:00.120" out="00:00:00.400" producer="chain6">
   <property name="kdenlive:id">6</property>
  </entry>
  <blank length="00:00:00.160"/>
  <entry in="00:00:00.120" out="00:00:00.400" producer="chain6">
   <property name="kdenlive:id">6</property>
  </entry>
  <blank length="00:00:00.160"/>
  <entry in="00:00:00.120" out="00:00:00.400" producer="chain6">
   <property name="kdenlive:id">6</property>
  </entry>
  <blank length="00:00:00.160"/>
  <entry in="00:00:00.120" out="00:00:00.400" producer="chain6">
   <property name="kdenlive:id">6</property>
  </entry>
  <blank length="00:00:00.160"/>
  <entry in="00:00:00.120" out="00:00:00.400" producer="chain6">
   <property name="kdenlive:id">6</property>
  </entry>
  <blank length="00:00:00.160"/>
  <entry in="00:00:00.120" out="00:00:00.400" producer="chain6">
   <property name="kdenlive:id">6</property>
  </entry>
  <blank length="00:00:00.160"/>
  <entry in="00:00:00.120" out="00:00:00.400" producer="chain6">
   <property name="kdenlive:id">6</property>
  </entry>
  <blank length="00:00:00.160"/>
  <entry in="00:00:00.120" out="00:00:00.400" producer="chain6">
   <property name="kdenlive:id">6</property>
  </entry>
  <blank length="00:00:00.240"/>
  <entry in="00:00:00.120" out="00:00:00.400" producer="chain6">
   <property name="kdenlive:id">6</property>
  </entry>
  <blank length="00:00:00.160"/>
  <entry in="00:00:00.120" out="00:00:00.400" producer="chain6">
   <property name="kdenlive:id">6</property>
  </entry>
  <blank length="00:00:00.160"/>
  <entry in="00:00:00.120" out="00:00:00.400" producer="chain6">
   <property name="kdenlive:id">6</property>
  </entry>
  <blank length="00:00:00.160"/>
  <entry in="00:00:00.120" out="00:00:00.400" producer="chain6">
   <property name="kdenlive:id">6</property>
  </entry>
  <blank length="00:00:00.160"/>
  <entry in="00:00:00.120" out="00:00:00.400" producer="chain6">
   <property name="kdenlive:id">6</property>
  </entry>
  <blank length="00:00:00.160"/>
  <entry in="00:00:00.120" out="00:00:00.400" producer="chain6">
   <property name="kdenlive:id">6</property>
  </entry>
  <blank length="00:00:00.160"/>
  <entry in="00:00:00.120" out="00:00:00.400" producer="chain6">
   <property name="kdenlive:id">6</property>
  </entry>
 </playlist>
 <playlist id="playlist13"/>
 <tractor id="tractor6" in="00:00:00.000" out="00:00:24.840">
  <property name="kdenlive:trackheight">40</property>
  <property name="kdenlive:timeline_active">1</property>
  <property name="kdenlive:collapsed">0</property>
  <property name="kdenlive:thumbs_format"/>
  <property name="kdenlive:audio_rec"/>
  <track hide="both" producer="playlist12"/>
  <track hide="both" producer="playlist13"/>
 </tractor>
 <chain id="chain7" out="00:00:05.000">
  <property name="length">126</property>
  <property name="eof">pause</property>
  <property name="resource">/home/vir0id/Загрузки/GimpArtCraftFromLatvia/Blender/Projects/Turel/Render/eevee/video/logo/No_background/0000-0125.mp4</property>
  <property name="mlt_service">avformat-novalidate</property>
  <property name="seekable">1</property>
  <property name="format">3</property>
  <property name="audio_index">-1</property>
  <property name="video_index">0</property>
  <property name="vstream">0</property>
  <property name="kdenlive:folderid">2</property>
  <property name="kdenlive:id">9</property>
  <property name="mute_on_pause">0</property>
  <property name="kdenlive:clip_type">2</property>
  <property name="kdenlive:file_size">2201891</property>
  <property name="kdenlive:file_hash">c4aa97e9d4b3937f36db2fc32e039cc6</property>
  <property name="meta.media.nb_streams">1</property>
  <property name="meta.media.0.stream.type">video</property>
  <property name="meta.media.0.stream.frame_rate">25</property>
  <property name="meta.media.0.stream.sample_aspect_ratio">1</property>
  <property name="meta.media.0.codec.width">1920</property>
  <property name="meta.media.0.codec.height">1080</property>
  <property name="meta.media.0.codec.rotate">0</property>
  <property name="meta.media.0.codec.pix_fmt">yuv420p</property>
  <property name="meta.media.0.codec.sample_aspect_ratio">1</property>
  <property name="meta.media.0.codec.colorspace">709</property>
  <property name="meta.media.0.codec.name">h264</property>
  <property name="meta.media.0.codec.long_name">H.264 / AVC / MPEG-4 AVC / MPEG-4 part 10</property>
  <property name="meta.media.0.codec.bit_rate">3492730</property>
  <property name="meta.attr.0.stream.handler_name.markup">VideoHandler</property>
  <property name="meta.attr.0.stream.vendor_id.markup">[0][0][0][0]</property>
  <property name="meta.attr.major_brand.markup">isom</property>
  <property name="meta.attr.minor_version.markup">512</property>
  <property name="meta.attr.compatible_brands.markup">isomiso2avc1mp41</property>
  <property name="meta.attr.date.markup">2024/07/17 19:22:31</property>
  <property name="meta.attr.encoder.markup">Lavf61.1.100</property>
  <property name="meta.media.sample_aspect_num">1</property>
  <property name="meta.media.sample_aspect_den">1</property>
  <property name="meta.media.frame_rate_num">25</property>
  <property name="meta.media.frame_rate_den">1</property>
  <property name="meta.media.colorspace">709</property>
  <property name="meta.media.color_trc">2</property>
  <property name="meta.media.has_b_frames">0</property>
  <property name="meta.media.width">1920</property>
  <property name="meta.media.height">1080</property>
  <property name="meta.media.aspect_ratio">1</property>
  <property name="meta.media.color_range">mpeg</property>
  <property name="xml">was here</property>
  <property name="meta.media.top_field_first">0</property>
  <property name="meta.media.progressive">1</property>
  <property name="set.test_audio">1</property>
  <property name="set.test_image">0</property>
 </chain>
 <playlist id="playlist14">
  <entry in="00:00:00.000" out="00:00:05.000" producer="chain7">
   <property name="kdenlive:id">9</property>
   <filter id="filter104" in="00:00:04.520" out="00:00:05.000">
    <property name="start">1</property>
    <property name="level">1</property>
    <property name="mlt_service">brightness</property>
    <property name="kdenlive_id">fade_to_black</property>
    <property name="alpha">00:00:00.000=1;00:00:00.480=0</property>
    <property name="kdenlive:collapsed">0</property>
   </filter>
  </entry>
 </playlist>
 <playlist id="playlist15"/>
 <tractor id="tractor7" in="00:00:00.000" out="00:00:05.000">
  <property name="kdenlive:trackheight">69</property>
  <property name="kdenlive:timeline_active">1</property>
  <property name="kdenlive:collapsed">0</property>
  <property name="kdenlive:thumbs_format"/>
  <property name="kdenlive:audio_rec"/>
  <track hide="audio" producer="playlist14"/>
  <track hide="audio" producer="playlist15"/>
 </tractor>
 <chain id="chain8" out="00:00:10.400">
  <property name="length">261</property>
  <property name="eof">pause</property>
  <property name="resource">/home/vir0id/Загрузки/GimpArtCraftFromLatvia/Blender/Projects/Turel/Render/eevee/video/viewport/transparent/0000-0250.mp4</property>
  <property name="mlt_service">avformat-novalidate</property>
  <property name="seekable">1</property>
  <property name="format">3</property>
  <property name="audio_index">-1</property>
  <property name="video_index">0</property>
  <property name="vstream">0</property>
  <property name="kdenlive:folderid">2</property>
  <property name="kdenlive:id">11</property>
  <property name="mute_on_pause">0</property>
  <property name="kdenlive:clip_type">2</property>
  <property name="kdenlive:file_size">61968542</property>
  <property name="kdenlive:file_hash">4aab177efd7d9f71c5f91573515002c3</property>
  <property name="kdenlive:monitorPosition">0</property>
  <property name="meta.media.nb_streams">1</property>
  <property name="meta.media.0.stream.type">video</property>
  <property name="meta.media.0.stream.frame_rate">24</property>
  <property name="meta.media.0.stream.sample_aspect_ratio">1</property>
  <property name="meta.media.0.codec.width">1920</property>
  <property name="meta.media.0.codec.height">1080</property>
  <property name="meta.media.0.codec.rotate">0</property>
  <property name="meta.media.0.codec.pix_fmt">yuv420p</property>
  <property name="meta.media.0.codec.sample_aspect_ratio">1</property>
  <property name="meta.media.0.codec.colorspace">709</property>
  <property name="meta.media.0.codec.name">h264</property>
  <property name="meta.media.0.codec.long_name">H.264 / AVC / MPEG-4 AVC / MPEG-4 part 10</property>
  <property name="meta.media.0.codec.bit_rate">47400175</property>
  <property name="meta.attr.0.stream.handler_name.markup">VideoHandler</property>
  <property name="meta.attr.0.stream.vendor_id.markup">[0][0][0][0]</property>
  <property name="meta.attr.major_brand.markup">isom</property>
  <property name="meta.attr.minor_version.markup">512</property>
  <property name="meta.attr.compatible_brands.markup">isomiso2avc1mp41</property>
  <property name="meta.attr.date.markup">2024/07/18 17:08:30</property>
  <property name="meta.attr.encoder.markup">Lavf61.1.100</property>
  <property name="meta.media.sample_aspect_num">1</property>
  <property name="meta.media.sample_aspect_den">1</property>
  <property name="meta.media.frame_rate_num">24</property>
  <property name="meta.media.frame_rate_den">1</property>
  <property name="meta.media.colorspace">709</property>
  <property name="meta.media.color_trc">2</property>
  <property name="meta.media.has_b_frames">0</property>
  <property name="meta.media.width">1920</property>
  <property name="meta.media.height">1080</property>
  <property name="meta.media.aspect_ratio">1</property>
  <property name="meta.media.color_range">mpeg</property>
  <property name="xml">was here</property>
  <property name="meta.media.top_field_first">0</property>
  <property name="meta.media.progressive">1</property>
  <property name="set.test_audio">1</property>
  <property name="set.test_image">0</property>
 </chain>
 <playlist id="playlist16">
  <blank length="00:00:15.040"/>
  <entry in="00:00:00.000" out="00:00:10.400" producer="chain8">
   <property name="kdenlive:id">11</property>
  </entry>
 </playlist>
 <playlist id="playlist17"/>
 <tractor id="tractor8" in="00:00:00.000" out="00:00:25.440">
  <property name="kdenlive:trackheight">69</property>
  <property name="kdenlive:timeline_active">1</property>
  <track hide="audio" producer="playlist16"/>
  <track hide="audio" producer="playlist17"/>
 </tractor>
 <chain id="chain16" out="00:00:10.000">
  <property name="length">251</property>
  <property name="eof">pause</property>
  <property name="resource">/home/vir0id/Загрузки/GimpArtCraftFromLatvia/Blender/Projects/Turel/Render/eevee/video/0000-0250.mp4</property>
  <property name="mlt_service">avformat-novalidate</property>
  <property name="seekable">1</property>
  <property name="format">3</property>
  <property name="audio_index">-1</property>
  <property name="video_index">0</property>
  <property name="vstream">0</property>
  <property name="kdenlive:folderid">2</property>
  <property name="kdenlive:id">4</property>
  <property name="mute_on_pause">0</property>
  <property name="kdenlive:clip_type">2</property>
  <property name="kdenlive:file_size">16610430</property>
  <property name="kdenlive:file_hash">55ce957fd1f9249be02361fb19583a4b</property>
  <property name="meta.media.nb_streams">1</property>
  <property name="meta.media.0.stream.type">video</property>
  <property name="meta.media.0.stream.frame_rate">25</property>
  <property name="meta.media.0.stream.sample_aspect_ratio">1</property>
  <property name="meta.media.0.codec.width">1920</property>
  <property name="meta.media.0.codec.height">1080</property>
  <property name="meta.media.0.codec.rotate">0</property>
  <property name="meta.media.0.codec.pix_fmt">yuv420p</property>
  <property name="meta.media.0.codec.sample_aspect_ratio">1</property>
  <property name="meta.media.0.codec.colorspace">709</property>
  <property name="meta.media.0.codec.name">h264</property>
  <property name="meta.media.0.codec.long_name">H.264 / AVC / MPEG-4 AVC / MPEG-4 part 10</property>
  <property name="meta.media.0.codec.bit_rate">13233637</property>
  <property name="meta.attr.0.stream.handler_name.markup">VideoHandler</property>
  <property name="meta.attr.0.stream.vendor_id.markup">[0][0][0][0]</property>
  <property name="meta.attr.major_brand.markup">isom</property>
  <property name="meta.attr.minor_version.markup">512</property>
  <property name="meta.attr.compatible_brands.markup">isomiso2avc1mp41</property>
  <property name="meta.attr.date.markup">2024/07/17 15:50:22</property>
  <property name="meta.attr.encoder.markup">Lavf61.1.100</property>
  <property name="meta.media.sample_aspect_num">1</property>
  <property name="meta.media.sample_aspect_den">1</property>
  <property name="meta.media.frame_rate_num">25</property>
  <property name="meta.media.frame_rate_den">1</property>
  <property name="meta.media.colorspace">709</property>
  <property name="meta.media.color_trc">2</property>
  <property name="meta.media.has_b_frames">0</property>
  <property name="meta.media.width">1920</property>
  <property name="meta.media.height">1080</property>
  <property name="meta.media.aspect_ratio">1</property>
  <property name="meta.media.color_range">mpeg</property>
  <property name="xml">was here</property>
  <property name="meta.media.top_field_first">0</property>
  <property name="meta.media.progressive">1</property>
  <property name="set.test_audio">1</property>
  <property name="set.test_image">0</property>
 </chain>
 <playlist id="playlist18">
  <blank length="00:00:05.000"/>
  <entry in="00:00:00.000" out="00:00:10.000" producer="chain16">
   <property name="kdenlive:id">4</property>
  </entry>
 </playlist>
 <playlist id="playlist19"/>
 <tractor id="tractor9" in="00:00:00.000" out="00:00:15.000">
  <property name="kdenlive:trackheight">40</property>
  <property name="kdenlive:timeline_active">1</property>
  <property name="kdenlive:collapsed">0</property>
  <property name="kdenlive:thumbs_format"/>
  <property name="kdenlive:audio_rec"/>
  <track hide="audio" producer="playlist18"/>
  <track hide="audio" producer="playlist19"/>
 </tractor>
 <tractor id="tractor10" in="00:00:00.000" out="00:00:28.840">
  <property name="kdenlive:duration">00:00:28.880</property>
  <property name="kdenlive:maxduration">722</property>
  <property name="kdenlive:clipname">Последовательность 1</property>
  <property name="kdenlive:description"/>
  <property name="kdenlive:uuid">{c4496939-dda7-4839-95a6-2851c132dcca}</property>
  <property name="kdenlive:producer_type">17</property>
  <property name="kdenlive:id">3</property>
  <property name="kdenlive:clip_type">0</property>
  <property name="kdenlive:file_hash">dd9285a7cd2772dd7bdd949f4c75a4cc</property>
  <property name="kdenlive:folderid">2</property>
  <property name="kdenlive:sequenceproperties.tracksCount">10</property>
  <property name="kdenlive:sequenceproperties.activeTrack">2</property>
  <property name="kdenlive:sequenceproperties.audioTarget">1</property>
  <property name="kdenlive:sequenceproperties.disablepreview">0</property>
  <property name="kdenlive:sequenceproperties.documentuuid">{c4496939-dda7-4839-95a6-2851c132dcca}</property>
  <property name="kdenlive:sequenceproperties.hasAudio">1</property>
  <property name="kdenlive:sequenceproperties.hasVideo">1</property>
  <property name="kdenlive:sequenceproperties.position">718</property>
  <property name="kdenlive:sequenceproperties.scrollPos">0</property>
  <property name="kdenlive:sequenceproperties.tracks">4</property>
  <property name="kdenlive:sequenceproperties.verticalzoom">1</property>
  <property name="kdenlive:sequenceproperties.videoTarget">2</property>
  <property name="kdenlive:sequenceproperties.zonein">0</property>
  <property name="kdenlive:sequenceproperties.zoneout">899</property>
  <property name="kdenlive:sequenceproperties.zoom">8</property>
  <property name="kdenlive:sequenceproperties.groups">[
    {
        "children": [
            {
                "data": "6:614",
                "leaf": "clip",
                "type": "Leaf"
            },
            {
                "data": "3:614",
                "leaf": "clip",
                "type": "Leaf"
            }
        ],
        "type": "AVSplit"
    },
    {
        "children": [
            {
                "data": "6:456",
                "leaf": "clip",
                "type": "Leaf"
            },
            {
                "data": "3:456",
                "leaf": "clip",
                "type": "Leaf"
            }
        ],
        "type": "AVSplit"
    },
    {
        "children": [
            {
                "data": "6:444",
                "leaf": "clip",
                "type": "Leaf"
            },
            {
                "data": "3:444",
                "leaf": "clip",
                "type": "Leaf"
            }
        ],
        "type": "AVSplit"
    },
    {
        "children": [
            {
                "data": "6:432",
                "leaf": "clip",
                "type": "Leaf"
            },
            {
                "data": "3:432",
                "leaf": "clip",
                "type": "Leaf"
            }
        ],
        "type": "AVSplit"
    },
    {
        "children": [
            {
                "data": "5:378",
                "leaf": "clip",
                "type": "Leaf"
            },
            {
                "data": "4:378",
                "leaf": "clip",
                "type": "Leaf"
            }
        ],
        "type": "AVSplit"
    },
    {
        "children": [
            {
                "data": "6:374",
                "leaf": "clip",
                "type": "Leaf"
            },
            {
                "data": "3:374",
                "leaf": "clip",
                "type": "Leaf"
            }
        ],
        "type": "AVSplit"
    },
    {
        "children": [
            {
                "data": "5:560",
                "leaf": "clip",
                "type": "Leaf"
            },
            {
                "data": "4:560",
                "leaf": "clip",
                "type": "Leaf"
            }
        ],
        "type": "AVSplit"
    },
    {
        "children": [
            {
                "data": "5:462",
                "leaf": "clip",
                "type": "Leaf"
            },
            {
                "data": "4:462",
                "leaf": "clip",
                "type": "Leaf"
            }
        ],
        "type": "AVSplit"
    },
    {
        "children": [
            {
                "data": "6:268",
                "leaf": "clip",
                "type": "Leaf"
            },
            {
                "data": "3:268",
                "leaf": "clip",
                "type": "Leaf"
            }
        ],
        "type": "AVSplit"
    },
    {
        "children": [
            {
                "data": "5:584",
                "leaf": "clip",
                "type": "Leaf"
            },
            {
                "data": "4:584",
                "leaf": "clip",
                "type": "Leaf"
            }
        ],
        "type": "AVSplit"
    },
    {
        "children": [
            {
                "data": "6:172",
                "leaf": "clip",
                "type": "Leaf"
            },
            {
                "data": "3:172",
                "leaf": "clip",
                "type": "Leaf"
            }
        ],
        "type": "AVSplit"
    },
    {
        "children": [
            {
                "data": "5:572",
                "leaf": "clip",
                "type": "Leaf"
            },
            {
                "data": "4:572",
                "leaf": "clip",
                "type": "Leaf"
            }
        ],
        "type": "AVSplit"
    },
    {
        "children": [
            {
                "data": "5:178",
                "leaf": "clip",
                "type": "Leaf"
            },
            {
                "data": "4:178",
                "leaf": "clip",
                "type": "Leaf"
            }
        ],
        "type": "AVSplit"
    },
    {
        "children": [
            {
                "data": "5:548",
                "leaf": "clip",
                "type": "Leaf"
            },
            {
                "data": "4:548",
                "leaf": "clip",
                "type": "Leaf"
            }
        ],
        "type": "AVSplit"
    },
    {
        "children": [
            {
                "data": "5:274",
                "leaf": "clip",
                "type": "Leaf"
            },
            {
                "data": "4:274",
                "leaf": "clip",
                "type": "Leaf"
            }
        ],
        "type": "AVSplit"
    },
    {
        "children": [
            {
                "data": "6:602",
                "leaf": "clip",
                "type": "Leaf"
            },
            {
                "data": "3:602",
                "leaf": "clip",
                "type": "Leaf"
            }
        ],
        "type": "AVSplit"
    },
    {
        "children": [
            {
                "data": "5:202",
                "leaf": "clip",
                "type": "Leaf"
            },
            {
                "data": "4:202",
                "leaf": "clip",
                "type": "Leaf"
            }
        ],
        "type": "AVSplit"
    },
    {
        "children": [
            {
                "data": "5:426",
                "leaf": "clip",
                "type": "Leaf"
            },
            {
                "data": "4:426",
                "leaf": "clip",
                "type": "Leaf"
            }
        ],
        "type": "AVSplit"
    },
    {
        "children": [
            {
                "data": "6:220",
                "leaf": "clip",
                "type": "Leaf"
            },
            {
                "data": "3:220",
                "leaf": "clip",
                "type": "Leaf"
            }
        ],
        "type": "AVSplit"
    },
    {
        "children": [
            {
                "data": "5:534",
                "leaf": "clip",
                "type": "Leaf"
            },
            {
                "data": "4:534",
                "leaf": "clip",
                "type": "Leaf"
            }
        ],
        "type": "AVSplit"
    },
    {
        "children": [
            {
                "data": "5:190",
                "leaf": "clip",
                "type": "Leaf"
            },
            {
                "data": "4:190",
                "leaf": "clip",
                "type": "Leaf"
            }
        ],
        "type": "AVSplit"
    },
    {
        "children": [
            {
                "data": "5:510",
                "leaf": "clip",
                "type": "Leaf"
            },
            {
                "data": "4:510",
                "leaf": "clip",
                "type": "Leaf"
            }
        ],
        "type": "AVSplit"
    },
    {
        "children": [
            {
                "data": "5:238",
                "leaf": "clip",
                "type": "Leaf"
            },
            {
                "data": "4:238",
                "leaf": "clip",
                "type": "Leaf"
            }
        ],
        "type": "AVSplit"
    },
    {
        "children": [
            {
                "data": "5:324",
                "leaf": "clip",
                "type": "Leaf"
            },
            {
                "data": "4:324",
                "leaf": "clip",
                "type": "Leaf"
            }
        ],
        "type": "AVSplit"
    },
    {
        "children": [
            {
                "data": "6:342",
                "leaf": "clip",
                "type": "Leaf"
            },
            {
                "data": "3:342",
                "leaf": "clip",
                "type": "Leaf"
            }
        ],
        "type": "AVSplit"
    },
    {
        "children": [
            {
                "data": "6:468",
                "leaf": "clip",
                "type": "Leaf"
            },
            {
                "data": "3:468",
                "leaf": "clip",
                "type": "Leaf"
            }
        ],
        "type": "AVSplit"
    },
    {
        "children": [
            {
                "data": "6:408",
                "leaf": "clip",
                "type": "Leaf"
            },
            {
                "data": "3:408",
                "leaf": "clip",
                "type": "Leaf"
            }
        ],
        "type": "AVSplit"
    },
    {
        "children": [
            {
                "data": "6:126",
                "leaf": "clip",
                "type": "Leaf"
            },
            {
                "data": "3:126",
                "leaf": "clip",
                "type": "Leaf"
            }
        ],
        "type": "AVSplit"
    },
    {
        "children": [
            {
                "data": "6:384",
                "leaf": "clip",
                "type": "Leaf"
            },
            {
                "data": "3:384",
                "leaf": "clip",
                "type": "Leaf"
            }
        ],
        "type": "AVSplit"
    },
    {
        "children": [
            {
                "data": "6:208",
                "leaf": "clip",
                "type": "Leaf"
            },
            {
                "data": "3:208",
                "leaf": "clip",
                "type": "Leaf"
            }
        ],
        "type": "AVSplit"
    },
    {
        "children": [
            {
                "data": "6:504",
                "leaf": "clip",
                "type": "Leaf"
            },
            {
                "data": "3:504",
                "leaf": "clip",
                "type": "Leaf"
            }
        ],
        "type": "AVSplit"
    },
    {
        "children": [
            {
                "data": "5:130",
                "leaf": "clip",
                "type": "Leaf"
            },
            {
                "data": "4:130",
                "leaf": "clip",
                "type": "Leaf"
            }
        ],
        "type": "AVSplit"
    },
    {
        "children": [
            {
                "data": "6:492",
                "leaf": "clip",
                "type": "Leaf"
            },
            {
                "data": "3:492",
                "leaf": "clip",
                "type": "Leaf"
            }
        ],
        "type": "AVSplit"
    },
    {
        "children": [
            {
                "data": "5:312",
                "leaf": "clip",
                "type": "Leaf"
            },
            {
                "data": "4:312",
                "leaf": "clip",
                "type": "Leaf"
            }
        ],
        "type": "AVSplit"
    },
    {
        "children": [
            {
                "data": "5:522",
                "leaf": "clip",
                "type": "Leaf"
            },
            {
                "data": "4:522",
                "leaf": "clip",
                "type": "Leaf"
            }
        ],
        "type": "AVSplit"
    },
    {
        "children": [
            {
                "data": "6:136",
                "leaf": "clip",
                "type": "Leaf"
            },
            {
                "data": "3:136",
                "leaf": "clip",
                "type": "Leaf"
            }
        ],
        "type": "AVSplit"
    },
    {
        "children": [
            {
                "data": "6:396",
                "leaf": "clip",
                "type": "Leaf"
            },
            {
                "data": "3:396",
                "leaf": "clip",
                "type": "Leaf"
            }
        ],
        "type": "AVSplit"
    },
    {
        "children": [
            {
                "data": "5:142",
                "leaf": "clip",
                "type": "Leaf"
            },
            {
                "data": "4:142",
                "leaf": "clip",
                "type": "Leaf"
            }
        ],
        "type": "AVSplit"
    },
    {
        "children": [
            {
                "data": "6:480",
                "leaf": "clip",
                "type": "Leaf"
            },
            {
                "data": "3:480",
                "leaf": "clip",
                "type": "Leaf"
            }
        ],
        "type": "AVSplit"
    },
    {
        "children": [
            {
                "data": "5:226",
                "leaf": "clip",
                "type": "Leaf"
            },
            {
                "data": "4:226",
                "leaf": "clip",
                "type": "Leaf"
            }
        ],
        "type": "AVSplit"
    },
    {
        "children": [
            {
                "data": "6:590",
                "leaf": "clip",
                "type": "Leaf"
            },
            {
                "data": "3:590",
                "leaf": "clip",
                "type": "Leaf"
            }
        ],
        "type": "AVSplit"
    },
    {
        "children": [
            {
                "data": "6:160",
                "leaf": "clip",
                "type": "Leaf"
            },
            {
                "data": "3:160",
                "leaf": "clip",
                "type": "Leaf"
            }
        ],
        "type": "AVSplit"
    },
    {
        "children": [
            {
                "data": "5:450",
                "leaf": "clip",
                "type": "Leaf"
            },
            {
                "data": "4:450",
                "leaf": "clip",
                "type": "Leaf"
            }
        ],
        "type": "AVSplit"
    },
    {
        "children": [
            {
                "data": "5:250",
                "leaf": "clip",
                "type": "Leaf"
            },
            {
                "data": "4:250",
                "leaf": "clip",
                "type": "Leaf"
            }
        ],
        "type": "AVSplit"
    },
    {
        "children": [
            {
                "data": "5:498",
                "leaf": "clip",
                "type": "Leaf"
            },
            {
                "data": "4:498",
                "leaf": "clip",
                "type": "Leaf"
            }
        ],
        "type": "AVSplit"
    },
    {
        "children": [
            {
                "data": "6:148",
                "leaf": "clip",
                "type": "Leaf"
            },
            {
                "data": "3:148",
                "leaf": "clip",
                "type": "Leaf"
            }
        ],
        "type": "AVSplit"
    },
    {
        "children": [
            {
                "data": "5:620",
                "leaf": "clip",
                "type": "Leaf"
            },
            {
                "data": "4:620",
                "leaf": "clip",
                "type": "Leaf"
            }
        ],
        "type": "AVSplit"
    },
    {
        "children": [
            {
                "data": "5:166",
                "leaf": "clip",
                "type": "Leaf"
            },
            {
                "data": "4:166",
                "leaf": "clip",
                "type": "Leaf"
            }
        ],
        "type": "AVSplit"
    },
    {
        "children": [
            {
                "data": "6:196",
                "leaf": "clip",
                "type": "Leaf"
            },
            {
                "data": "3:196",
                "leaf": "clip",
                "type": "Leaf"
            }
        ],
        "type": "AVSplit"
    },
    {
        "children": [
            {
                "data": "6:566",
                "leaf": "clip",
                "type": "Leaf"
            },
            {
                "data": "3:566",
                "leaf": "clip",
                "type": "Leaf"
            }
        ],
        "type": "AVSplit"
    },
    {
        "children": [
            {
                "data": "5:336",
                "leaf": "clip",
                "type": "Leaf"
            },
            {
                "data": "4:336",
                "leaf": "clip",
                "type": "Leaf"
            }
        ],
        "type": "AVSplit"
    },
    {
        "children": [
            {
                "data": "6:244",
                "leaf": "clip",
                "type": "Leaf"
            },
            {
                "data": "3:244",
                "leaf": "clip",
                "type": "Leaf"
            }
        ],
        "type": "AVSplit"
    },
    {
        "children": [
            {
                "data": "6:554",
                "leaf": "clip",
                "type": "Leaf"
            },
            {
                "data": "3:554",
                "leaf": "clip",
                "type": "Leaf"
            }
        ],
        "type": "AVSplit"
    },
    {
        "children": [
            {
                "data": "6:330",
                "leaf": "clip",
                "type": "Leaf"
            },
            {
                "data": "3:330",
                "leaf": "clip",
                "type": "Leaf"
            }
        ],
        "type": "AVSplit"
    },
    {
        "children": [
            {
                "data": "6:542",
                "leaf": "clip",
                "type": "Leaf"
            },
            {
                "data": "3:542",
                "leaf": "clip",
                "type": "Leaf"
            }
        ],
        "type": "AVSplit"
    },
    {
        "children": [
            {
                "data": "6:184",
                "leaf": "clip",
                "type": "Leaf"
            },
            {
                "data": "3:184",
                "leaf": "clip",
                "type": "Leaf"
            }
        ],
        "type": "AVSplit"
    },
    {
        "children": [
            {
                "data": "5:596",
                "leaf": "clip",
                "type": "Leaf"
            },
            {
                "data": "4:596",
                "leaf": "clip",
                "type": "Leaf"
            }
        ],
        "type": "AVSplit"
    },
    {
        "children": [
            {
                "data": "6:232",
                "leaf": "clip",
                "type": "Leaf"
            },
            {
                "data": "3:232",
                "leaf": "clip",
                "type": "Leaf"
            }
        ],
        "type": "AVSplit"
    },
    {
        "children": [
            {
                "data": "5:474",
                "leaf": "clip",
                "type": "Leaf"
            },
            {
                "data": "4:474",
                "leaf": "clip",
                "type": "Leaf"
            }
        ],
        "type": "AVSplit"
    },
    {
        "children": [
            {
                "data": "5:286",
                "leaf": "clip",
                "type": "Leaf"
            },
            {
                "data": "4:286",
                "leaf": "clip",
                "type": "Leaf"
            }
        ],
        "type": "AVSplit"
    },
    {
        "children": [
            {
                "data": "5:438",
                "leaf": "clip",
                "type": "Leaf"
            },
            {
                "data": "4:438",
                "leaf": "clip",
                "type": "Leaf"
            }
        ],
        "type": "AVSplit"
    },
    {
        "children": [
            {
                "data": "5:390",
                "leaf": "clip",
                "type": "Leaf"
            },
            {
                "data": "4:390",
                "leaf": "clip",
                "type": "Leaf"
            }
        ],
        "type": "AVSplit"
    },
    {
        "children": [
            {
                "data": "6:318",
                "leaf": "clip",
                "type": "Leaf"
            },
            {
                "data": "3:318",
                "leaf": "clip",
                "type": "Leaf"
            }
        ],
        "type": "AVSplit"
    },
    {
        "children": [
            {
                "data": "5:486",
                "leaf": "clip",
                "type": "Leaf"
            },
            {
                "data": "4:486",
                "leaf": "clip",
                "type": "Leaf"
            }
        ],
        "type": "AVSplit"
    },
    {
        "children": [
            {
                "data": "6:294",
                "leaf": "clip",
                "type": "Leaf"
            },
            {
                "data": "3:294",
                "leaf": "clip",
                "type": "Leaf"
            }
        ],
        "type": "AVSplit"
    },
    {
        "children": [
            {
                "data": "6:528",
                "leaf": "clip",
                "type": "Leaf"
            },
            {
                "data": "3:528",
                "leaf": "clip",
                "type": "Leaf"
            }
        ],
        "type": "AVSplit"
    },
    {
        "children": [
            {
                "data": "5:360",
                "leaf": "clip",
                "type": "Leaf"
            },
            {
                "data": "4:360",
                "leaf": "clip",
                "type": "Leaf"
            }
        ],
        "type": "AVSplit"
    },
    {
        "children": [
            {
                "data": "6:516",
                "leaf": "clip",
                "type": "Leaf"
            },
            {
                "data": "3:516",
                "leaf": "clip",
                "type": "Leaf"
            }
        ],
        "type": "AVSplit"
    },
    {
        "children": [
            {
                "data": "5:154",
                "leaf": "clip",
                "type": "Leaf"
            },
            {
                "data": "4:154",
                "leaf": "clip",
                "type": "Leaf"
            }
        ],
        "type": "AVSplit"
    },
    {
        "children": [
            {
                "data": "5:402",
                "leaf": "clip",
                "type": "Leaf"
            },
            {
                "data": "4:402",
                "leaf": "clip",
                "type": "Leaf"
            }
        ],
        "type": "AVSplit"
    },
    {
        "children": [
            {
                "data": "6:306",
                "leaf": "clip",
                "type": "Leaf"
            },
            {
                "data": "3:306",
                "leaf": "clip",
                "type": "Leaf"
            }
        ],
        "type": "AVSplit"
    },
    {
        "children": [
            {
                "data": "6:578",
                "leaf": "clip",
                "type": "Leaf"
            },
            {
                "data": "3:578",
                "leaf": "clip",
                "type": "Leaf"
            }
        ],
        "type": "AVSplit"
    },
    {
        "children": [
            {
                "data": "6:280",
                "leaf": "clip",
                "type": "Leaf"
            },
            {
                "data": "3:280",
                "leaf": "clip",
                "type": "Leaf"
            }
        ],
        "type": "AVSplit"
    },
    {
        "children": [
            {
                "data": "5:414",
                "leaf": "clip",
                "type": "Leaf"
            },
            {
                "data": "4:414",
                "leaf": "clip",
                "type": "Leaf"
            }
        ],
        "type": "AVSplit"
    },
    {
        "children": [
            {
                "data": "6:354",
                "leaf": "clip",
                "type": "Leaf"
            },
            {
                "data": "3:354",
                "leaf": "clip",
                "type": "Leaf"
            }
        ],
        "type": "AVSplit"
    },
    {
        "children": [
            {
                "data": "5:300",
                "leaf": "clip",
                "type": "Leaf"
            },
            {
                "data": "4:300",
                "leaf": "clip",
                "type": "Leaf"
            }
        ],
        "type": "AVSplit"
    },
    {
        "children": [
            {
                "data": "5:348",
                "leaf": "clip",
                "type": "Leaf"
            },
            {
                "data": "4:348",
                "leaf": "clip",
                "type": "Leaf"
            }
        ],
        "type": "AVSplit"
    },
    {
        "children": [
            {
                "data": "6:366",
                "leaf": "clip",
                "type": "Leaf"
            },
            {
                "data": "3:366",
                "leaf": "clip",
                "type": "Leaf"
            }
        ],
        "type": "AVSplit"
    },
    {
        "children": [
            {
                "data": "5:262",
                "leaf": "clip",
                "type": "Leaf"
            },
            {
                "data": "4:262",
                "leaf": "clip",
                "type": "Leaf"
            }
        ],
        "type": "AVSplit"
    },
    {
        "children": [
            {
                "data": "5:214",
                "leaf": "clip",
                "type": "Leaf"
            },
            {
                "data": "4:214",
                "leaf": "clip",
                "type": "Leaf"
            }
        ],
        "type": "AVSplit"
    },
    {
        "children": [
            {
                "data": "5:608",
                "leaf": "clip",
                "type": "Leaf"
            },
            {
                "data": "4:608",
                "leaf": "clip",
                "type": "Leaf"
            }
        ],
        "type": "AVSplit"
    },
    {
        "children": [
            {
                "data": "6:420",
                "leaf": "clip",
                "type": "Leaf"
            },
            {
                "data": "3:420",
                "leaf": "clip",
                "type": "Leaf"
            }
        ],
        "type": "AVSplit"
    },
    {
        "children": [
            {
                "data": "6:256",
                "leaf": "clip",
                "type": "Leaf"
            },
            {
                "data": "3:256",
                "leaf": "clip",
                "type": "Leaf"
            }
        ],
        "type": "AVSplit"
    }
]
</property>
  <property name="kdenlive:sequenceproperties.guides">[
]
</property>
  <track producer="producer0"/>
  <track producer="tractor0"/>
  <track producer="tractor1"/>
  <track producer="tractor2"/>
  <track producer="tractor3"/>
  <track producer="tractor4"/>
  <track producer="tractor5"/>
  <track producer="tractor6"/>
  <track producer="tractor7"/>
  <track producer="tractor8"/>
  <track producer="tractor9"/>
  <transition id="transition0">
   <property name="a_track">0</property>
   <property name="b_track">1</property>
   <property name="mlt_service">mix</property>
   <property name="kdenlive_id">mix</property>
   <property name="internal_added">237</property>
   <property name="always_active">1</property>
   <property name="accepts_blanks">1</property>
   <property name="sum">1</property>
  </transition>
  <transition id="transition1">
   <property name="a_track">0</property>
   <property name="b_track">2</property>
   <property name="mlt_service">mix</property>
   <property name="kdenlive_id">mix</property>
   <property name="internal_added">237</property>
   <property name="always_active">1</property>
   <property name="accepts_blanks">1</property>
   <property name="sum">1</property>
  </transition>
  <transition id="transition2">
   <property name="a_track">0</property>
   <property name="b_track">3</property>
   <property name="mlt_service">mix</property>
   <property name="kdenlive_id">mix</property>
   <property name="internal_added">237</property>
   <property name="always_active">1</property>
   <property name="accepts_blanks">1</property>
   <property name="sum">1</property>
  </transition>
  <transition id="transition3">
   <property name="a_track">0</property>
   <property name="b_track">4</property>
   <property name="mlt_service">mix</property>
   <property name="kdenlive_id">mix</property>
   <property name="internal_added">237</property>
   <property name="always_active">1</property>
   <property name="accepts_blanks">1</property>
   <property name="sum">1</property>
  </transition>
  <transition id="transition4">
   <property name="a_track">0</property>
   <property name="b_track">5</property>
   <property name="mlt_service">mix</property>
   <property name="kdenlive_id">mix</property>
   <property name="internal_added">237</property>
   <property name="always_active">1</property>
   <property name="accepts_blanks">1</property>
   <property name="sum">1</property>
  </transition>
  <transition id="transition5">
   <property name="a_track">0</property>
   <property name="b_track">6</property>
   <property name="version">0.1</property>
   <property name="mlt_service">frei0r.cairoblend</property>
   <property name="kdenlive_id">frei0r.cairoblend</property>
   <property name="internal_added">237</property>
   <property name="always_active">1</property>
  </transition>
  <transition id="transition6">
   <property name="a_track">0</property>
   <property name="b_track">7</property>
   <property name="version">0.1</property>
   <property name="mlt_service">frei0r.cairoblend</property>
   <property name="kdenlive_id">frei0r.cairoblend</property>
   <property name="internal_added">237</property>
   <property name="always_active">1</property>
  </transition>
  <transition id="transition7">
   <property name="a_track">0</property>
   <property name="b_track">8</property>
   <property name="version">0.1</property>
   <property name="mlt_service">frei0r.cairoblend</property>
   <property name="kdenlive_id">frei0r.cairoblend</property>
   <property name="internal_added">237</property>
   <property name="always_active">1</property>
  </transition>
  <transition id="transition8">
   <property name="a_track">0</property>
   <property name="b_track">9</property>
   <property name="version">0.1</property>
   <property name="mlt_service">frei0r.cairoblend</property>
   <property name="kdenlive_id">frei0r.cairoblend</property>
   <property name="internal_added">237</property>
   <property name="always_active">1</property>
  </transition>
  <transition id="transition9">
   <property name="a_track">0</property>
   <property name="b_track">10</property>
   <property name="version">0.1</property>
   <property name="mlt_service">frei0r.cairoblend</property>
   <property name="kdenlive_id">frei0r.cairoblend</property>
   <property name="internal_added">237</property>
   <property name="always_active">1</property>
  </transition>
  <filter id="filter105">
   <property name="window">75</property>
   <property name="max_gain">20dB</property>
   <property name="mlt_service">volume</property>
   <property name="internal_added">237</property>
   <property name="disable">1</property>
  </filter>
  <filter id="filter106">
   <property name="channel">-1</property>
   <property name="mlt_service">panner</property>
   <property name="internal_added">237</property>
   <property name="start">0.5</property>
   <property name="disable">1</property>
  </filter>
 </tractor>
 <chain id="chain17" out="00:00:10.400">
  <property name="length">261</property>
  <property name="eof">pause</property>
  <property name="resource">/home/vir0id/Загрузки/GimpArtCraftFromLatvia/Blender/Projects/Turel/Render/eevee/video/viewport/transparent/0000-0250.mp4</property>
  <property name="mlt_service">avformat-novalidate</property>
  <property name="meta.media.nb_streams">1</property>
  <property name="meta.media.0.stream.type">video</property>
  <property name="meta.media.0.stream.frame_rate">24</property>
  <property name="meta.media.0.stream.sample_aspect_ratio">1</property>
  <property name="meta.media.0.codec.width">1920</property>
  <property name="meta.media.0.codec.height">1080</property>
  <property name="meta.media.0.codec.rotate">0</property>
  <property name="meta.media.0.codec.pix_fmt">yuv420p</property>
  <property name="meta.media.0.codec.sample_aspect_ratio">1</property>
  <property name="meta.media.0.codec.colorspace">709</property>
  <property name="meta.media.0.codec.name">h264</property>
  <property name="meta.media.0.codec.long_name">H.264 / AVC / MPEG-4 AVC / MPEG-4 part 10</property>
  <property name="meta.media.0.codec.bit_rate">47400175</property>
  <property name="meta.attr.0.stream.handler_name.markup">VideoHandler</property>
  <property name="meta.attr.0.stream.vendor_id.markup">[0][0][0][0]</property>
  <property name="meta.attr.major_brand.markup">isom</property>
  <property name="meta.attr.minor_version.markup">512</property>
  <property name="meta.attr.compatible_brands.markup">isomiso2avc1mp41</property>
  <property name="meta.attr.date.markup">2024/07/18 17:08:30</property>
  <property name="meta.attr.encoder.markup">Lavf61.1.100</property>
  <property name="seekable">1</property>
  <property name="meta.media.sample_aspect_num">1</property>
  <property name="meta.media.sample_aspect_den">1</property>
  <property name="format">3</property>
  <property name="audio_index">-1</property>
  <property name="video_index">0</property>
  <property name="vstream">0</property>
  <property name="meta.media.frame_rate_num">24</property>
  <property name="meta.media.frame_rate_den">1</property>
  <property name="meta.media.colorspace">709</property>
  <property name="meta.media.color_trc">2</property>
  <property name="meta.media.has_b_frames">0</property>
  <property name="meta.media.width">1920</property>
  <property name="meta.media.height">1080</property>
  <property name="meta.media.aspect_ratio">1</property>
  <property name="meta.media.color_range">mpeg</property>
  <property name="meta.media.top_field_first">0</property>
  <property name="meta.media.progressive">1</property>
  <property name="kdenlive:folderid">2</property>
  <property name="kdenlive:id">11</property>
  <property name="mute_on_pause">0</property>
  <property name="kdenlive:clip_type">2</property>
  <property name="kdenlive:file_size">61968542</property>
  <property name="kdenlive:file_hash">4aab177efd7d9f71c5f91573515002c3</property>
  <property name="kdenlive:monitorPosition">0</property>
 </chain>
 <playlist id="main_bin">
  <property name="kdenlive:folder.-1.2">Последовательности</property>
  <property name="kdenlive:sequenceFolder">2</property>
  <property name="kdenlive:docproperties.activetimeline">{c4496939-dda7-4839-95a6-2851c132dcca}</property>
  <property name="kdenlive:docproperties.audioChannels">2</property>
  <property name="kdenlive:docproperties.binsort">0</property>
  <property name="kdenlive:docproperties.browserurl">/home/vir0id/Музыка/</property>
  <property name="kdenlive:docproperties.documentid">1721220709967</property>
  <property name="kdenlive:docproperties.enableTimelineZone">1</property>
  <property name="kdenlive:docproperties.enableexternalproxy">0</property>
  <property name="kdenlive:docproperties.enableproxy">0</property>
  <property name="kdenlive:docproperties.externalproxyparams"/>
  <property name="kdenlive:docproperties.generateimageproxy">0</property>
  <property name="kdenlive:docproperties.generateproxy">0</property>
  <property name="kdenlive:docproperties.guidesCategories">[
    {
        "color": "#9b59b6",
        "comment": "Категория 1",
        "index": 0
    },
    {
        "color": "#3daee9",
        "comment": "Категория 2",
        "index": 1
    },
    {
        "color": "#1abc9c",
        "comment": "Категория 3",
        "index": 2
    },
    {
        "color": "#1cdc9a",
        "comment": "Категория 4",
        "index": 3
    },
    {
        "color": "#c9ce3b",
        "comment": "Категория 5",
        "index": 4
    },
    {
        "color": "#fdbc4b",
        "comment": "Категория 6",
        "index": 5
    },
    {
        "color": "#f39c1f",
        "comment": "Категория 7",
        "index": 6
    },
    {
        "color": "#f47750",
        "comment": "Категория 8",
        "index": 7
    },
    {
        "color": "#da4453",
        "comment": "Категория 9",
        "index": 8
    }
]
</property>
  <property name="kdenlive:docproperties.kdenliveversion">24.05.2</property>
  <property name="kdenlive:docproperties.opensequences">{c4496939-dda7-4839-95a6-2851c132dcca}</property>
  <property name="kdenlive:docproperties.previewextension"/>
  <property name="kdenlive:docproperties.previewparameters"/>
  <property name="kdenlive:docproperties.profile">atsc_1080p_25</property>
  <property name="kdenlive:docproperties.proxyextension"/>
  <property name="kdenlive:docproperties.proxyimageminsize">2000</property>
  <property name="kdenlive:docproperties.proxyimagesize">800</property>
  <property name="kdenlive:docproperties.proxyminsize">1000</property>
  <property name="kdenlive:docproperties.proxyparams"/>
  <property name="kdenlive:docproperties.proxyresize">640</property>
  <property name="kdenlive:docproperties.rendercategory">Generic (HD for web, mobile devices...)</property>
  <property name="kdenlive:docproperties.rendercustomquality">-1</property>
  <property name="kdenlive:docproperties.renderendguide">-1</property>
  <property name="kdenlive:docproperties.renderexportaudio">0</property>
  <property name="kdenlive:docproperties.renderfullcolorrange">0</property>
  <property name="kdenlive:docproperties.rendermode">0</property>
  <property name="kdenlive:docproperties.renderplay">0</property>
  <property name="kdenlive:docproperties.renderpreview">0</property>
  <property name="kdenlive:docproperties.renderprofile">MP4-H264/AAC</property>
  <property name="kdenlive:docproperties.renderrescale">0</property>
  <property name="kdenlive:docproperties.renderrescaleheight">540</property>
  <property name="kdenlive:docproperties.renderrescalewidth">960</property>
  <property name="kdenlive:docproperties.renderspeed">6</property>
  <property name="kdenlive:docproperties.renderstartguide">-1</property>
  <property name="kdenlive:docproperties.rendertcoverlay">0</property>
  <property name="kdenlive:docproperties.rendertctype">-1</property>
  <property name="kdenlive:docproperties.rendertwopass">0</property>
  <property name="kdenlive:docproperties.renderurl">/home/vir0id/Загрузки/GimpArtCraftFromLatvia/Blender/Projects/Turel/Render/movie/Turel.mp4</property>
  <property name="kdenlive:docproperties.seekOffset">30000</property>
  <property name="kdenlive:docproperties.uuid">{c4496939-dda7-4839-95a6-2851c132dcca}</property>
  <property name="kdenlive:docproperties.version">1.1</property>
  <property name="kdenlive:expandedFolders">2</property>
  <property name="kdenlive:binZoom">4</property>
  <property name="kdenlive:extraBins">project_bin:-1:0</property>
  <property name="kdenlive:documentnotes"/>
  <property name="xml_retain">1</property>
  <entry in="00:00:00.000" out="00:00:10.000" producer="chain9"/>
  <entry in="00:00:00.000" out="00:00:11.600" producer="chain10"/>
  <entry in="00:00:00.000" out="00:00:18.840" producer="chain11"/>
  <entry in="00:00:00.000" out="00:04:13.000" producer="chain12"/>
  <entry in="00:00:00.000" out="00:00:19.240" producer="chain13"/>
  <entry in="00:00:00.000" out="00:00:05.000" producer="chain14"/>
  <entry in="00:00:00.000" out="00:00:00.240" producer="chain15"/>
  <entry in="00:00:00.000" out="00:00:18.920" producer="tractor10"/>
  <entry in="00:00:00.000" out="00:00:10.400" producer="chain17"/>
 </playlist>
 <tractor id="tractor11" in="00:00:00.000" out="00:00:28.840">
  <property name="kdenlive:projectTractor">1</property>
  <track in="00:00:00.000" out="00:00:28.840" producer="tractor10"/>
 </tractor>
</mlt>
