<?xml version='1.0' encoding='utf-8'?>
<mlt LC_NUMERIC="C" producer="main_bin" root="/home/vir0id/Загрузки/GimpArtCraftFromLatvia/Blender/Projects/Turel/Render/eevee/video/Kdenlive" version="7.24.0">
 <profile colorspace="709" description="HD 1080p 25 fps" display_aspect_den="9" display_aspect_num="16" frame_rate_den="1" frame_rate_num="25" height="1080" progressive="1" sample_aspect_den="1" sample_aspect_num="1" width="1920"/>
 <producer id="producer0" in="00:00:00.000" out="00:05:16.120">
  <property name="length">2147483647</property>
  <property name="eof">continue</property>
  <property name="resource">black</property>
  <property name="aspect_ratio">1</property>
  <property name="mlt_service">color</property>
  <property name="kdenlive:playlistid">black_track</property>
  <property name="mlt_image_format">rgba</property>
  <property name="set.test_audio">0</property>
 </producer>
 <chain id="chain0" out="00:04:13.000">
  <property name="length">6326</property>
  <property name="eof">pause</property>
  <property name="resource">/home/vir0id/Загрузки/GimpArtCraftFromLatvia/Blender/Projects/Turel/Render/eevee/video/sound/3D Stas - Deep Scars (feat. The Qemists).mp3</property>
  <property name="mlt_service">avformat-novalidate</property>
  <property name="seekable">1</property>
  <property name="audio_index">0</property>
  <property name="video_index">-1</property>
  <property name="astream">0</property>
  <property name="kdenlive:folderid">2</property>
  <property name="kdenlive:id">7</property>
  <property name="kdenlive:clip_type">1</property>
  <property name="kdenlive:file_size">8779340</property>
  <property name="kdenlive:file_hash">ac4db71de43354198d07053694da91b1</property>
  <property name="kdenlive:audio_max0">254</property>
  <property name="meta.media.nb_streams">1</property>
  <property name="meta.media.0.stream.type">audio</property>
  <property name="meta.media.0.codec.sample_fmt">fltp</property>
  <property name="meta.media.0.codec.sample_rate">48000</property>
  <property name="meta.media.0.codec.channels">2</property>
  <property name="meta.media.0.codec.layout">stereo</property>
  <property name="meta.media.0.codec.name">mp3float</property>
  <property name="meta.media.0.codec.long_name">MP3 (MPEG audio layer 3)</property>
  <property name="meta.media.0.codec.bit_rate">277571</property>
  <property name="meta.attr.0.stream.encoder.markup">Lavc61.3.</property>
  <property name="meta.attr.encoder.markup">Lavf61.1.100</property>
  <property name="xml">was here</property>
  <property name="mute_on_pause">0</property>
  <property name="set.test_audio">0</property>
  <property name="set.test_image">1</property>
 </chain>
 <playlist id="playlist0">
  <entry in="00:00:08.960" out="00:00:22.120" producer="chain0">
   <property name="kdenlive:id">7</property>
   <filter id="filter0" in="00:00:20.600" out="00:00:22.160">
    <property name="window">75</property>
    <property name="max_gain">20dB</property>
    <property name="mlt_service">volume</property>
    <property name="kdenlive_id">fadeout</property>
    <property name="gain">1</property>
    <property name="end">0</property>
    <property name="kdenlive:collapsed">0</property>
    <property name="disable">0</property>
   </filter>
   <filter id="filter1">
    <property name="window">75</property>
    <property name="max_gain">20dB</property>
    <property name="level">00:00:08.960=-1;00:00:11.040=-1</property>
    <property name="mlt_service">volume</property>
    <property name="kdenlive_id">volume</property>
    <property name="kdenlive:collapsed">0</property>
    <property name="disable">0</property>
   </filter>
  </entry>
 </playlist>
 <playlist id="playlist1"/>
 <tractor id="tractor0" in="00:00:00.000" out="00:00:13.160">
  <property name="kdenlive:audio_track">1</property>
  <property name="kdenlive:trackheight">69</property>
  <property name="kdenlive:timeline_active">1</property>
  <property name="kdenlive:collapsed">0</property>
  <track hide="video" producer="playlist0"/>
  <track hide="video" producer="playlist1"/>
  <filter id="filter2">
   <property name="window">75</property>
   <property name="max_gain">20dB</property>
   <property name="mlt_service">volume</property>
   <property name="internal_added">237</property>
   <property name="disable">1</property>
  </filter>
  <filter id="filter3">
   <property name="channel">-1</property>
   <property name="mlt_service">panner</property>
   <property name="internal_added">237</property>
   <property name="start">0.5</property>
   <property name="disable">1</property>
  </filter>
  <filter id="filter4">
   <property name="iec_scale">0</property>
   <property name="mlt_service">audiolevel</property>
   <property name="dbpeak">1</property>
   <property name="disable">1</property>
  </filter>
 </tractor>
 <chain id="chain1" out="00:00:18.840">
  <property name="length">472</property>
  <property name="eof">pause</property>
  <property name="resource">/home/vir0id/Загрузки/GimpArtCraftFromLatvia/Blender/Projects/Turel/Render/eevee/video/sound/1592805149_weapons_artillery_heavy_distant_01.mp3</property>
  <property name="mlt_service">avformat-novalidate</property>
  <property name="seekable">1</property>
  <property name="format">3</property>
  <property name="audio_index">0</property>
  <property name="video_index">1</property>
  <property name="vstream">0</property>
  <property name="astream">0</property>
  <property name="kdenlive:folderid">2</property>
  <property name="kdenlive:id">6</property>
  <property name="mute_on_pause">0</property>
  <property name="kdenlive:clip_type">0</property>
  <property name="kdenlive:file_size">145787</property>
  <property name="kdenlive:file_hash">870e18bbd548754d52b6149acb60b225</property>
  <property name="kdenlive:audio_max0">220</property>
  <property name="meta.media.nb_streams">2</property>
  <property name="meta.media.0.stream.type">audio</property>
  <property name="meta.media.0.codec.sample_fmt">fltp</property>
  <property name="meta.media.0.codec.sample_rate">48000</property>
  <property name="meta.media.0.codec.channels">2</property>
  <property name="meta.media.0.codec.layout">stereo</property>
  <property name="meta.media.0.codec.name">mp3float</property>
  <property name="meta.media.0.codec.long_name">MP3 (MPEG audio layer 3)</property>
  <property name="meta.media.0.codec.bit_rate">56224</property>
  <property name="meta.attr.0.stream.encoder.markup">LAME3.98r</property>
  <property name="meta.media.1.stream.type">video</property>
  <property name="meta.media.1.stream.frame_rate">90000</property>
  <property name="meta.media.1.stream.sample_aspect_ratio">0</property>
  <property name="meta.media.1.codec.width">512</property>
  <property name="meta.media.1.codec.height">512</property>
  <property name="meta.media.1.codec.rotate">0</property>
  <property name="meta.media.1.codec.pix_fmt">yuvj420p</property>
  <property name="meta.media.1.codec.sample_aspect_ratio">1</property>
  <property name="meta.media.1.codec.colorspace">601</property>
  <property name="meta.media.1.codec.name">mjpeg</property>
  <property name="meta.media.1.codec.long_name">MJPEG (Motion JPEG)</property>
  <property name="meta.media.1.codec.bit_rate">0</property>
  <property name="meta.attr.1.stream.comment.markup">Cover (front)</property>
  <property name="meta.attr.comment.markup">Heavy impact of a artillery firing in the distance. Weapon, War, Fight, Shoot, Fire, Artillery, Hard, Distant.</property>
  <property name="meta.attr.genre.markup">Weapons</property>
  <property name="meta.attr.copyright.markup">2019 SmartSound FX www.smartsoundeffects.com</property>
  <property name="meta.attr.encoded_by.markup">Sound Grinder 3.5.7</property>
  <property name="meta.attr.artist.markup">SmartSound FX</property>
  <property name="meta.attr.TOAL.markup">www.smartsoundeffects.com</property>
  <property name="meta.attr.TORY.markup">2019</property>
  <property name="meta.attr.encoder.markup">Soundminer</property>
  <property name="meta.attr.title.markup">WEAPONS ARTILLERY Heavy Distant 01.wav</property>
  <property name="meta.attr.track.markup">0</property>
  <property name="meta.attr.date.markup">2019</property>
  <property name="meta.media.sample_aspect_num">72</property>
  <property name="meta.media.sample_aspect_den">72</property>
  <property name="meta.media.frame_rate_num">90000</property>
  <property name="meta.media.frame_rate_den">1</property>
  <property name="meta.media.colorspace">601</property>
  <property name="meta.media.color_trc">2</property>
  <property name="meta.media.has_b_frames">0</property>
  <property name="meta.media.width">512</property>
  <property name="meta.media.height">512</property>
  <property name="meta.media.aspect_ratio">1</property>
  <property name="meta.media.color_range">full</property>
  <property name="xml">was here</property>
  <property name="meta.media.top_field_first">0</property>
  <property name="meta.media.progressive">1</property>
  <property name="set.test_audio">0</property>
  <property name="set.test_image">1</property>
 </chain>
 <playlist id="playlist2">
  <blank length="00:00:02.200"/>
  <entry in="00:00:00.120" out="00:00:00.400" producer="chain1">
   <property name="kdenlive:id">6</property>
   <filter id="filter5" in="00:00:00.240" out="00:00:00.440">
    <property name="window">75</property>
    <property name="max_gain">20dB</property>
    <property name="mlt_service">volume</property>
    <property name="kdenlive_id">fadeout</property>
    <property name="gain">1</property>
    <property name="end">0</property>
    <property name="kdenlive:collapsed">0</property>
   </filter>
  </entry>
  <blank length="00:00:00.080"/>
  <entry in="00:00:00.120" out="00:00:00.400" producer="chain1">
   <property name="kdenlive:id">6</property>
   <filter id="filter6" in="00:00:00.320" out="00:00:00.400">
    <property name="window">75</property>
    <property name="max_gain">20dB</property>
    <property name="mlt_service">volume</property>
    <property name="kdenlive_id">fadeout</property>
    <property name="gain">1</property>
    <property name="end">0</property>
    <property name="kdenlive:collapsed">0</property>
   </filter>
  </entry>
  <blank length="00:00:00.160"/>
  <entry in="00:00:00.120" out="00:00:00.400" producer="chain1">
   <property name="kdenlive:id">6</property>
   <filter id="filter7" in="00:00:00.320" out="00:00:00.400">
    <property name="window">75</property>
    <property name="max_gain">20dB</property>
    <property name="mlt_service">volume</property>
    <property name="kdenlive_id">fadeout</property>
    <property name="gain">1</property>
    <property name="end">0</property>
    <property name="kdenlive:collapsed">0</property>
   </filter>
  </entry>
  <blank length="00:00:00.160"/>
  <entry in="00:00:00.120" out="00:00:00.400" producer="chain1">
   <property name="kdenlive:id">6</property>
   <filter id="filter8" in="00:00:00.320" out="00:00:00.400">
    <property name="window">75</property>
    <property name="max_gain">20dB</property>
    <property name="mlt_service">volume</property>
    <property name="kdenlive_id">fadeout</property>
    <property name="gain">1</property>
    <property name="end">0</property>
    <property name="kdenlive:collapsed">0</property>
   </filter>
  </entry>
  <blank length="00:00:00.160"/>
  <entry in="00:00:00.120" out="00:00:00.400" producer="chain1">
   <property name="kdenlive:id">6</property>
   <filter id="filter9" in="00:00:00.320" out="00:00:00.400">
    <property name="window">75</property>
    <property name="max_gain">20dB</property>
    <property name="mlt_service">volume</property>
    <property name="kdenlive_id">fadeout</property>
    <property name="gain">1</property>
    <property name="end">0</property>
    <property name="kdenlive:collapsed">0</property>
   </filter>
  </entry>
  <blank length="00:00:00.160"/>
  <entry in="00:00:00.120" out="00:00:00.400" producer="chain1">
   <property name="kdenlive:id">6</property>
   <filter id="filter10" in="00:00:00.320" out="00:00:00.400">
    <property name="window">75</property>
    <property name="max_gain">20dB</property>
    <property name="mlt_service">volume</property>
    <property name="kdenlive_id">fadeout</property>
    <property name="gain">1</property>
    <property name="end">0</property>
    <property name="kdenlive:collapsed">0</property>
   </filter>
  </entry>
  <blank length="00:00:00.160"/>
  <entry in="00:00:00.120" out="00:00:00.400" producer="chain1">
   <property name="kdenlive:id">6</property>
   <filter id="filter11" in="00:00:00.320" out="00:00:00.400">
    <property name="window">75</property>
    <property name="max_gain">20dB</property>
    <property name="mlt_service">volume</property>
    <property name="kdenlive_id">fadeout</property>
    <property name="gain">1</property>
    <property name="end">0</property>
    <property name="kdenlive:collapsed">0</property>
   </filter>
  </entry>
  <blank length="00:00:00.160"/>
  <entry in="00:00:00.120" out="00:00:00.400" producer="chain1">
   <property name="kdenlive:id">6</property>
   <filter id="filter12" in="00:00:00.320" out="00:00:00.400">
    <property name="window">75</property>
    <property name="max_gain">20dB</property>
    <property name="mlt_service">volume</property>
    <property name="kdenlive_id">fadeout</property>
    <property name="gain">1</property>
    <property name="end">0</property>
    <property name="kdenlive:collapsed">0</property>
   </filter>
  </entry>
  <blank length="00:00:00.160"/>
  <entry in="00:00:00.120" out="00:00:00.400" producer="chain1">
   <property name="kdenlive:id">6</property>
   <filter id="filter13" in="00:00:00.320" out="00:00:00.400">
    <property name="window">75</property>
    <property name="max_gain">20dB</property>
    <property name="mlt_service">volume</property>
    <property name="kdenlive_id">fadeout</property>
    <property name="gain">1</property>
    <property name="end">0</property>
    <property name="kdenlive:collapsed">0</property>
   </filter>
  </entry>
  <blank length="00:00:00.160"/>
  <entry in="00:00:00.120" out="00:00:00.400" producer="chain1">
   <property name="kdenlive:id">6</property>
   <filter id="filter14" in="00:00:00.320" out="00:00:00.400">
    <property name="window">75</property>
    <property name="max_gain">20dB</property>
    <property name="mlt_service">volume</property>
    <property name="kdenlive_id">fadeout</property>
    <property name="gain">1</property>
    <property name="end">0</property>
    <property name="kdenlive:collapsed">0</property>
   </filter>
  </entry>
  <blank length="00:00:00.160"/>
  <entry in="00:00:00.120" out="00:00:00.400" producer="chain1">
   <property name="kdenlive:id">6</property>
   <filter id="filter15" in="00:00:00.320" out="00:00:00.400">
    <property name="window">75</property>
    <property name="max_gain">20dB</property>
    <property name="mlt_service">volume</property>
    <property name="kdenlive_id">fadeout</property>
    <property name="gain">1</property>
    <property name="end">0</property>
    <property name="kdenlive:collapsed">0</property>
   </filter>
  </entry>
  <blank length="00:00:00.160"/>
  <entry in="00:00:00.120" out="00:00:00.400" producer="chain1">
   <property name="kdenlive:id">6</property>
   <filter id="filter16" in="00:00:00.320" out="00:00:00.400">
    <property name="window">75</property>
    <property name="max_gain">20dB</property>
    <property name="mlt_service">volume</property>
    <property name="kdenlive_id">fadeout</property>
    <property name="gain">1</property>
    <property name="end">0</property>
    <property name="kdenlive:collapsed">0</property>
   </filter>
  </entry>
  <blank length="00:00:00.160"/>
  <entry in="00:00:00.120" out="00:00:00.400" producer="chain1">
   <property name="kdenlive:id">6</property>
   <filter id="filter17" in="00:00:00.320" out="00:00:00.400">
    <property name="window">75</property>
    <property name="max_gain">20dB</property>
    <property name="mlt_service">volume</property>
    <property name="kdenlive_id">fadeout</property>
    <property name="gain">1</property>
    <property name="end">0</property>
    <property name="kdenlive:collapsed">0</property>
   </filter>
  </entry>
  <blank length="00:00:00.160"/>
  <entry in="00:00:00.120" out="00:00:00.400" producer="chain1">
   <property name="kdenlive:id">6</property>
   <filter id="filter18" in="00:00:00.320" out="00:00:00.400">
    <property name="window">75</property>
    <property name="max_gain">20dB</property>
    <property name="mlt_service">volume</property>
    <property name="kdenlive_id">fadeout</property>
    <property name="gain">1</property>
    <property name="end">0</property>
    <property name="kdenlive:collapsed">0</property>
   </filter>
  </entry>
  <blank length="00:00:00.240"/>
  <entry in="00:00:00.120" out="00:00:00.400" producer="chain1">
   <property name="kdenlive:id">6</property>
   <filter id="filter19" in="00:00:00.320" out="00:00:00.400">
    <property name="window">75</property>
    <property name="max_gain">20dB</property>
    <property name="mlt_service">volume</property>
    <property name="kdenlive_id">fadeout</property>
    <property name="gain">1</property>
    <property name="end">0</property>
   </filter>
  </entry>
  <blank length="00:00:00.160"/>
  <entry in="00:00:00.120" out="00:00:00.400" producer="chain1">
   <property name="kdenlive:id">6</property>
   <filter id="filter20" in="00:00:00.320" out="00:00:00.400">
    <property name="window">75</property>
    <property name="max_gain">20dB</property>
    <property name="mlt_service">volume</property>
    <property name="kdenlive_id">fadeout</property>
    <property name="gain">1</property>
    <property name="end">0</property>
    <property name="kdenlive:collapsed">0</property>
   </filter>
  </entry>
  <blank length="00:00:00.160"/>
  <entry in="00:00:00.120" out="00:00:00.400" producer="chain1">
   <property name="kdenlive:id">6</property>
   <filter id="filter21" in="00:00:00.320" out="00:00:00.400">
    <property name="window">75</property>
    <property name="max_gain">20dB</property>
    <property name="mlt_service">volume</property>
    <property name="kdenlive_id">fadeout</property>
    <property name="gain">1</property>
    <property name="end">0</property>
    <property name="kdenlive:collapsed">0</property>
   </filter>
  </entry>
  <blank length="00:00:00.160"/>
  <entry in="00:00:00.120" out="00:00:00.400" producer="chain1">
   <property name="kdenlive:id">6</property>
   <filter id="filter22" in="00:00:00.320" out="00:00:00.400">
    <property name="window">75</property>
    <property name="max_gain">20dB</property>
    <property name="mlt_service">volume</property>
    <property name="kdenlive_id">fadeout</property>
    <property name="gain">1</property>
    <property name="end">0</property>
    <property name="kdenlive:collapsed">0</property>
   </filter>
  </entry>
  <blank length="00:00:00.160"/>
  <entry in="00:00:00.120" out="00:00:00.400" producer="chain1">
   <property name="kdenlive:id">6</property>
   <filter id="filter23" in="00:00:00.320" out="00:00:00.400">
    <property name="window">75</property>
    <property name="max_gain">20dB</property>
    <property name="mlt_service">volume</property>
    <property name="kdenlive_id">fadeout</property>
    <property name="gain">1</property>
    <property name="end">0</property>
    <property name="kdenlive:collapsed">0</property>
   </filter>
  </entry>
  <blank length="00:00:00.160"/>
  <entry in="00:00:00.120" out="00:00:00.400" producer="chain1">
   <property name="kdenlive:id">6</property>
   <filter id="filter24" in="00:00:00.320" out="00:00:00.400">
    <property name="window">75</property>
    <property name="max_gain">20dB</property>
    <property name="mlt_service">volume</property>
    <property name="kdenlive_id">fadeout</property>
    <property name="gain">1</property>
    <property name="end">0</property>
    <property name="kdenlive:collapsed">0</property>
   </filter>
  </entry>
  <blank length="00:00:00.160"/>
  <entry in="00:00:00.120" out="00:00:00.400" producer="chain1">
   <property name="kdenlive:id">6</property>
   <filter id="filter25" in="00:00:00.320" out="00:00:00.400">
    <property name="window">75</property>
    <property name="max_gain">20dB</property>
    <property name="mlt_service">volume</property>
    <property name="kdenlive_id">fadeout</property>
    <property name="gain">1</property>
    <property name="end">0</property>
    <property name="kdenlive:collapsed">0</property>
   </filter>
  </entry>
 </playlist>
 <playlist id="playlist3"/>
 <tractor id="tractor1" in="00:00:00.000" out="00:00:12.080">
  <property name="kdenlive:audio_track">1</property>
  <property name="kdenlive:trackheight">69</property>
  <property name="kdenlive:timeline_active">1</property>
  <track hide="video" producer="playlist2"/>
  <track hide="video" producer="playlist3"/>
  <filter id="filter26">
   <property name="window">75</property>
   <property name="max_gain">20dB</property>
   <property name="mlt_service">volume</property>
   <property name="internal_added">237</property>
   <property name="disable">1</property>
  </filter>
  <filter id="filter27">
   <property name="channel">-1</property>
   <property name="mlt_service">panner</property>
   <property name="internal_added">237</property>
   <property name="start">0.5</property>
   <property name="disable">1</property>
  </filter>
  <filter id="filter28">
   <property name="iec_scale">0</property>
   <property name="mlt_service">audiolevel</property>
   <property name="dbpeak">1</property>
   <property name="disable">1</property>
  </filter>
 </tractor>
 <chain id="chain2" out="00:00:18.840">
  <property name="length">472</property>
  <property name="eof">pause</property>
  <property name="resource">/home/vir0id/Загрузки/GimpArtCraftFromLatvia/Blender/Projects/Turel/Render/eevee/video/sound/1592805149_weapons_artillery_heavy_distant_01.mp3</property>
  <property name="mlt_service">avformat-novalidate</property>
  <property name="seekable">1</property>
  <property name="format">3</property>
  <property name="audio_index">0</property>
  <property name="video_index">1</property>
  <property name="vstream">0</property>
  <property name="astream">0</property>
  <property name="kdenlive:folderid">2</property>
  <property name="kdenlive:id">6</property>
  <property name="mute_on_pause">0</property>
  <property name="kdenlive:clip_type">0</property>
  <property name="kdenlive:file_size">145787</property>
  <property name="kdenlive:file_hash">870e18bbd548754d52b6149acb60b225</property>
  <property name="kdenlive:audio_max0">220</property>
  <property name="meta.media.nb_streams">2</property>
  <property name="meta.media.0.stream.type">audio</property>
  <property name="meta.media.0.codec.sample_fmt">fltp</property>
  <property name="meta.media.0.codec.sample_rate">48000</property>
  <property name="meta.media.0.codec.channels">2</property>
  <property name="meta.media.0.codec.layout">stereo</property>
  <property name="meta.media.0.codec.name">mp3float</property>
  <property name="meta.media.0.codec.long_name">MP3 (MPEG audio layer 3)</property>
  <property name="meta.media.0.codec.bit_rate">56224</property>
  <property name="meta.attr.0.stream.encoder.markup">LAME3.98r</property>
  <property name="meta.media.1.stream.type">video</property>
  <property name="meta.media.1.stream.frame_rate">90000</property>
  <property name="meta.media.1.stream.sample_aspect_ratio">0</property>
  <property name="meta.media.1.codec.width">512</property>
  <property name="meta.media.1.codec.height">512</property>
  <property name="meta.media.1.codec.rotate">0</property>
  <property name="meta.media.1.codec.pix_fmt">yuvj420p</property>
  <property name="meta.media.1.codec.sample_aspect_ratio">1</property>
  <property name="meta.media.1.codec.colorspace">601</property>
  <property name="meta.media.1.codec.name">mjpeg</property>
  <property name="meta.media.1.codec.long_name">MJPEG (Motion JPEG)</property>
  <property name="meta.media.1.codec.bit_rate">0</property>
  <property name="meta.attr.1.stream.comment.markup">Cover (front)</property>
  <property name="meta.attr.comment.markup">Heavy impact of a artillery firing in the distance. Weapon, War, Fight, Shoot, Fire, Artillery, Hard, Distant.</property>
  <property name="meta.attr.genre.markup">Weapons</property>
  <property name="meta.attr.copyright.markup">2019 SmartSound FX www.smartsoundeffects.com</property>
  <property name="meta.attr.encoded_by.markup">Sound Grinder 3.5.7</property>
  <property name="meta.attr.artist.markup">SmartSound FX</property>
  <property name="meta.attr.TOAL.markup">www.smartsoundeffects.com</property>
  <property name="meta.attr.TORY.markup">2019</property>
  <property name="meta.attr.encoder.markup">Soundminer</property>
  <property name="meta.attr.title.markup">WEAPONS ARTILLERY Heavy Distant 01.wav</property>
  <property name="meta.attr.track.markup">0</property>
  <property name="meta.attr.date.markup">2019</property>
  <property name="meta.media.sample_aspect_num">72</property>
  <property name="meta.media.sample_aspect_den">72</property>
  <property name="meta.media.frame_rate_num">90000</property>
  <property name="meta.media.frame_rate_den">1</property>
  <property name="meta.media.colorspace">601</property>
  <property name="meta.media.color_trc">2</property>
  <property name="meta.media.has_b_frames">0</property>
  <property name="meta.media.width">512</property>
  <property name="meta.media.height">512</property>
  <property name="meta.media.aspect_ratio">1</property>
  <property name="meta.media.color_range">full</property>
  <property name="xml">was here</property>
  <property name="meta.media.top_field_first">0</property>
  <property name="meta.media.progressive">1</property>
  <property name="set.test_audio">0</property>
  <property name="set.test_image">1</property>
 </chain>
 <playlist id="playlist4">
  <property name="kdenlive:audio_track">1</property>
  <blank length="00:00:02.360"/>
  <entry in="00:00:00.120" out="00:00:00.400" producer="chain2">
   <property name="kdenlive:id">6</property>
   <filter id="filter29" in="00:00:00.320" out="00:00:00.400">
    <property name="window">75</property>
    <property name="max_gain">20dB</property>
    <property name="mlt_service">volume</property>
    <property name="kdenlive_id">fadeout</property>
    <property name="gain">1</property>
    <property name="end">0</property>
    <property name="kdenlive:collapsed">0</property>
   </filter>
   <filter id="filter30">
    <property name="window">75</property>
    <property name="version">14.4.2</property>
    <property name="mlt_service">sox</property>
    <property name="kdenlive_id">sox_echo</property>
    <property name="gain-in">0.5</property>
    <property name="gain-out">1</property>
    <property name="delay">150</property>
    <property name="decay">0.8</property>
    <property name="effect">echo 0.5 1 150 0.8</property>
    <property name="kdenlive:collapsed">0</property>
   </filter>
  </entry>
  <blank length="00:00:00.160"/>
  <entry in="00:00:00.120" out="00:00:00.400" producer="chain2">
   <property name="kdenlive:id">6</property>
   <filter id="filter31" in="00:00:00.320" out="00:00:00.400">
    <property name="window">75</property>
    <property name="max_gain">20dB</property>
    <property name="mlt_service">volume</property>
    <property name="kdenlive_id">fadeout</property>
    <property name="gain">1</property>
    <property name="end">0</property>
    <property name="kdenlive:collapsed">0</property>
   </filter>
  </entry>
  <blank length="00:00:00.160"/>
  <entry in="00:00:00.120" out="00:00:00.400" producer="chain2">
   <property name="kdenlive:id">6</property>
   <filter id="filter32" in="00:00:00.320" out="00:00:00.400">
    <property name="window">75</property>
    <property name="max_gain">20dB</property>
    <property name="mlt_service">volume</property>
    <property name="kdenlive_id">fadeout</property>
    <property name="gain">1</property>
    <property name="end">0</property>
    <property name="kdenlive:collapsed">0</property>
   </filter>
  </entry>
  <blank length="00:00:00.160"/>
  <entry in="00:00:00.120" out="00:00:00.400" producer="chain2">
   <property name="kdenlive:id">6</property>
   <filter id="filter33" in="00:00:00.320" out="00:00:00.400">
    <property name="window">75</property>
    <property name="max_gain">20dB</property>
    <property name="mlt_service">volume</property>
    <property name="kdenlive_id">fadeout</property>
    <property name="gain">1</property>
    <property name="end">0</property>
    <property name="kdenlive:collapsed">0</property>
   </filter>
  </entry>
  <blank length="00:00:00.160"/>
  <entry in="00:00:00.120" out="00:00:00.400" producer="chain2">
   <property name="kdenlive:id">6</property>
   <filter id="filter34" in="00:00:00.320" out="00:00:00.400">
    <property name="window">75</property>
    <property name="max_gain">20dB</property>
    <property name="mlt_service">volume</property>
    <property name="kdenlive_id">fadeout</property>
    <property name="gain">1</property>
    <property name="end">0</property>
   </filter>
  </entry>
  <blank length="00:00:00.160"/>
  <entry in="00:00:00.120" out="00:00:00.400" producer="chain2">
   <property name="kdenlive:id">6</property>
   <filter id="filter35" in="00:00:00.320" out="00:00:00.400">
    <property name="window">75</property>
    <property name="max_gain">20dB</property>
    <property name="mlt_service">volume</property>
    <property name="kdenlive_id">fadeout</property>
    <property name="gain">1</property>
    <property name="end">0</property>
   </filter>
  </entry>
  <blank length="00:00:00.160"/>
  <entry in="00:00:00.120" out="00:00:00.400" producer="chain2">
   <property name="kdenlive:id">6</property>
   <filter id="filter36" in="00:00:00.320" out="00:00:00.400">
    <property name="window">75</property>
    <property name="max_gain">20dB</property>
    <property name="mlt_service">volume</property>
    <property name="kdenlive_id">fadeout</property>
    <property name="gain">1</property>
    <property name="end">0</property>
   </filter>
  </entry>
  <blank length="00:00:00.160"/>
  <entry in="00:00:00.120" out="00:00:00.400" producer="chain2">
   <property name="kdenlive:id">6</property>
   <filter id="filter37" in="00:00:00.320" out="00:00:00.400">
    <property name="window">75</property>
    <property name="max_gain">20dB</property>
    <property name="mlt_service">volume</property>
    <property name="kdenlive_id">fadeout</property>
    <property name="gain">1</property>
    <property name="end">0</property>
   </filter>
  </entry>
  <blank length="00:00:00.160"/>
  <entry in="00:00:00.120" out="00:00:00.400" producer="chain2">
   <property name="kdenlive:id">6</property>
   <filter id="filter38" in="00:00:00.320" out="00:00:00.400">
    <property name="window">75</property>
    <property name="max_gain">20dB</property>
    <property name="mlt_service">volume</property>
    <property name="kdenlive_id">fadeout</property>
    <property name="gain">1</property>
    <property name="end">0</property>
   </filter>
  </entry>
  <blank length="00:00:00.160"/>
  <entry in="00:00:00.120" out="00:00:00.400" producer="chain2">
   <property name="kdenlive:id">6</property>
   <filter id="filter39" in="00:00:00.320" out="00:00:00.400">
    <property name="window">75</property>
    <property name="max_gain">20dB</property>
    <property name="mlt_service">volume</property>
    <property name="kdenlive_id">fadeout</property>
    <property name="gain">1</property>
    <property name="end">0</property>
   </filter>
  </entry>
  <blank length="00:00:00.160"/>
  <entry in="00:00:00.120" out="00:00:00.400" producer="chain2">
   <property name="kdenlive:id">6</property>
   <filter id="filter40" in="00:00:00.320" out="00:00:00.400">
    <property name="window">75</property>
    <property name="max_gain">20dB</property>
    <property name="mlt_service">volume</property>
    <property name="kdenlive_id">fadeout</property>
    <property name="gain">1</property>
    <property name="end">0</property>
   </filter>
  </entry>
  <blank length="00:00:00.160"/>
  <entry in="00:00:00.120" out="00:00:00.400" producer="chain2">
   <property name="kdenlive:id">6</property>
   <filter id="filter41" in="00:00:00.320" out="00:00:00.400">
    <property name="window">75</property>
    <property name="max_gain">20dB</property>
    <property name="mlt_service">volume</property>
    <property name="kdenlive_id">fadeout</property>
    <property name="gain">1</property>
    <property name="end">0</property>
   </filter>
  </entry>
  <blank length="00:00:00.160"/>
  <entry in="00:00:00.120" out="00:00:00.400" producer="chain2">
   <property name="kdenlive:id">6</property>
   <filter id="filter42" in="00:00:00.320" out="00:00:00.400">
    <property name="window">75</property>
    <property name="max_gain">20dB</property>
    <property name="mlt_service">volume</property>
    <property name="kdenlive_id">fadeout</property>
    <property name="gain">1</property>
    <property name="end">0</property>
   </filter>
  </entry>
  <blank length="00:00:00.160"/>
  <entry in="00:00:00.120" out="00:00:00.400" producer="chain2">
   <property name="kdenlive:id">6</property>
   <filter id="filter43" in="00:00:00.320" out="00:00:00.400">
    <property name="window">75</property>
    <property name="max_gain">20dB</property>
    <property name="mlt_service">volume</property>
    <property name="kdenlive_id">fadeout</property>
    <property name="gain">1</property>
    <property name="end">0</property>
   </filter>
  </entry>
  <blank length="00:00:00.240"/>
  <entry in="00:00:00.120" out="00:00:00.400" producer="chain2">
   <property name="kdenlive:id">6</property>
   <filter id="filter44" in="00:00:00.320" out="00:00:00.400">
    <property name="window">75</property>
    <property name="max_gain">20dB</property>
    <property name="mlt_service">volume</property>
    <property name="kdenlive_id">fadeout</property>
    <property name="gain">1</property>
    <property name="end">0</property>
   </filter>
  </entry>
  <blank length="00:00:00.160"/>
  <entry in="00:00:00.120" out="00:00:00.400" producer="chain2">
   <property name="kdenlive:id">6</property>
   <filter id="filter45" in="00:00:00.320" out="00:00:00.400">
    <property name="window">75</property>
    <property name="max_gain">20dB</property>
    <property name="mlt_service">volume</property>
    <property name="kdenlive_id">fadeout</property>
    <property name="gain">1</property>
    <property name="end">0</property>
   </filter>
  </entry>
  <blank length="00:00:00.160"/>
  <entry in="00:00:00.120" out="00:00:00.400" producer="chain2">
   <property name="kdenlive:id">6</property>
   <filter id="filter46" in="00:00:00.320" out="00:00:00.400">
    <property name="window">75</property>
    <property name="max_gain">20dB</property>
    <property name="mlt_service">volume</property>
    <property name="kdenlive_id">fadeout</property>
    <property name="gain">1</property>
    <property name="end">0</property>
   </filter>
  </entry>
  <blank length="00:00:00.160"/>
  <entry in="00:00:00.120" out="00:00:00.400" producer="chain2">
   <property name="kdenlive:id">6</property>
   <filter id="filter47" in="00:00:00.320" out="00:00:00.400">
    <property name="window">75</property>
    <property name="max_gain">20dB</property>
    <property name="mlt_service">volume</property>
    <property name="kdenlive_id">fadeout</property>
    <property name="gain">1</property>
    <property name="end">0</property>
   </filter>
  </entry>
  <blank length="00:00:00.160"/>
  <entry in="00:00:00.120" out="00:00:00.400" producer="chain2">
   <property name="kdenlive:id">6</property>
   <filter id="filter48" in="00:00:00.320" out="00:00:00.400">
    <property name="window">75</property>
    <property name="max_gain">20dB</property>
    <property name="mlt_service">volume</property>
    <property name="kdenlive_id">fadeout</property>
    <property name="gain">1</property>
    <property name="end">0</property>
   </filter>
  </entry>
  <blank length="00:00:00.160"/>
  <entry in="00:00:00.120" out="00:00:00.400" producer="chain2">
   <property name="kdenlive:id">6</property>
   <filter id="filter49" in="00:00:00.320" out="00:00:00.400">
    <property name="window">75</property>
    <property name="max_gain">20dB</property>
    <property name="mlt_service">volume</property>
    <property name="kdenlive_id">fadeout</property>
    <property name="gain">1</property>
    <property name="end">0</property>
   </filter>
  </entry>
  <blank length="00:00:00.160"/>
  <entry in="00:00:00.120" out="00:00:04.160" producer="chain2">
   <property name="kdenlive:id">6</property>
   <filter id="filter50" in="00:00:04.120" out="00:00:04.200">
    <property name="window">75</property>
    <property name="max_gain">20dB</property>
    <property name="mlt_service">volume</property>
    <property name="kdenlive_id">fadeout</property>
    <property name="gain">1</property>
    <property name="end">0</property>
   </filter>
  </entry>
 </playlist>
 <playlist id="playlist5">
  <property name="kdenlive:audio_track">1</property>
 </playlist>
 <tractor id="tractor2" in="00:00:00.000" out="00:00:16.080">
  <property name="kdenlive:audio_track">1</property>
  <property name="kdenlive:trackheight">69</property>
  <property name="kdenlive:timeline_active">1</property>
  <property name="kdenlive:collapsed">0</property>
  <property name="kdenlive:thumbs_format"/>
  <property name="kdenlive:audio_rec"/>
  <track hide="video" producer="playlist4"/>
  <track hide="video" producer="playlist5"/>
  <filter id="filter51">
   <property name="window">75</property>
   <property name="max_gain">20dB</property>
   <property name="mlt_service">volume</property>
   <property name="internal_added">237</property>
   <property name="disable">1</property>
  </filter>
  <filter id="filter52">
   <property name="channel">-1</property>
   <property name="mlt_service">panner</property>
   <property name="internal_added">237</property>
   <property name="start">0.5</property>
   <property name="disable">1</property>
  </filter>
  <filter id="filter53">
   <property name="iec_scale">0</property>
   <property name="mlt_service">audiolevel</property>
   <property name="dbpeak">1</property>
   <property name="disable">1</property>
  </filter>
 </tractor>
 <chain id="chain3" out="00:00:18.840">
  <property name="length">472</property>
  <property name="eof">pause</property>
  <property name="resource">/home/vir0id/Загрузки/GimpArtCraftFromLatvia/Blender/Projects/Turel/Render/eevee/video/sound/1592805149_weapons_artillery_heavy_distant_01.mp3</property>
  <property name="mlt_service">avformat-novalidate</property>
  <property name="seekable">1</property>
  <property name="format">3</property>
  <property name="audio_index">0</property>
  <property name="video_index">1</property>
  <property name="vstream">0</property>
  <property name="astream">0</property>
  <property name="kdenlive:folderid">2</property>
  <property name="kdenlive:id">6</property>
  <property name="mute_on_pause">0</property>
  <property name="kdenlive:clip_type">0</property>
  <property name="kdenlive:file_size">145787</property>
  <property name="kdenlive:file_hash">870e18bbd548754d52b6149acb60b225</property>
  <property name="kdenlive:audio_max0">220</property>
  <property name="meta.media.nb_streams">2</property>
  <property name="meta.media.0.stream.type">audio</property>
  <property name="meta.media.0.codec.sample_fmt">fltp</property>
  <property name="meta.media.0.codec.sample_rate">48000</property>
  <property name="meta.media.0.codec.channels">2</property>
  <property name="meta.media.0.codec.layout">stereo</property>
  <property name="meta.media.0.codec.name">mp3float</property>
  <property name="meta.media.0.codec.long_name">MP3 (MPEG audio layer 3)</property>
  <property name="meta.media.0.codec.bit_rate">56224</property>
  <property name="meta.attr.0.stream.encoder.markup">LAME3.98r</property>
  <property name="meta.media.1.stream.type">video</property>
  <property name="meta.media.1.stream.frame_rate">90000</property>
  <property name="meta.media.1.stream.sample_aspect_ratio">0</property>
  <property name="meta.media.1.codec.width">512</property>
  <property name="meta.media.1.codec.height">512</property>
  <property name="meta.media.1.codec.rotate">0</property>
  <property name="meta.media.1.codec.pix_fmt">yuvj420p</property>
  <property name="meta.media.1.codec.sample_aspect_ratio">1</property>
  <property name="meta.media.1.codec.colorspace">601</property>
  <property name="meta.media.1.codec.name">mjpeg</property>
  <property name="meta.media.1.codec.long_name">MJPEG (Motion JPEG)</property>
  <property name="meta.media.1.codec.bit_rate">0</property>
  <property name="meta.attr.1.stream.comment.markup">Cover (front)</property>
  <property name="meta.attr.comment.markup">Heavy impact of a artillery firing in the distance. Weapon, War, Fight, Shoot, Fire, Artillery, Hard, Distant.</property>
  <property name="meta.attr.genre.markup">Weapons</property>
  <property name="meta.attr.copyright.markup">2019 SmartSound FX www.smartsoundeffects.com</property>
  <property name="meta.attr.encoded_by.markup">Sound Grinder 3.5.7</property>
  <property name="meta.attr.artist.markup">SmartSound FX</property>
  <property name="meta.attr.TOAL.markup">www.smartsoundeffects.com</property>
  <property name="meta.attr.TORY.markup">2019</property>
  <property name="meta.attr.encoder.markup">Soundminer</property>
  <property name="meta.attr.title.markup">WEAPONS ARTILLERY Heavy Distant 01.wav</property>
  <property name="meta.attr.track.markup">0</property>
  <property name="meta.attr.date.markup">2019</property>
  <property name="meta.media.sample_aspect_num">72</property>
  <property name="meta.media.sample_aspect_den">72</property>
  <property name="meta.media.frame_rate_num">90000</property>
  <property name="meta.media.frame_rate_den">1</property>
  <property name="meta.media.colorspace">601</property>
  <property name="meta.media.color_trc">2</property>
  <property name="meta.media.has_b_frames">0</property>
  <property name="meta.media.width">512</property>
  <property name="meta.media.height">512</property>
  <property name="meta.media.aspect_ratio">1</property>
  <property name="meta.media.color_range">full</property>
  <property name="xml">was here</property>
  <property name="meta.media.top_field_first">0</property>
  <property name="meta.media.progressive">1</property>
  <property name="set.test_audio">1</property>
  <property name="set.test_image">0</property>
 </chain>
 <playlist id="playlist6">
  <blank length="00:00:02.360"/>
  <entry in="00:00:00.120" out="00:00:00.400" producer="chain3">
   <property name="kdenlive:id">6</property>
  </entry>
  <blank length="00:00:00.160"/>
  <entry in="00:00:00.120" out="00:00:00.400" producer="chain3">
   <property name="kdenlive:id">6</property>
  </entry>
  <blank length="00:00:00.160"/>
  <entry in="00:00:00.120" out="00:00:00.400" producer="chain3">
   <property name="kdenlive:id">6</property>
  </entry>
  <blank length="00:00:00.160"/>
  <entry in="00:00:00.120" out="00:00:00.400" producer="chain3">
   <property name="kdenlive:id">6</property>
  </entry>
  <blank length="00:00:00.160"/>
  <entry in="00:00:00.120" out="00:00:00.400" producer="chain3">
   <property name="kdenlive:id">6</property>
  </entry>
  <blank length="00:00:00.160"/>
  <entry in="00:00:00.120" out="00:00:00.400" producer="chain3">
   <property name="kdenlive:id">6</property>
  </entry>
  <blank length="00:00:00.160"/>
  <entry in="00:00:00.120" out="00:00:00.400" producer="chain3">
   <property name="kdenlive:id">6</property>
  </entry>
  <blank length="00:00:00.160"/>
  <entry in="00:00:00.120" out="00:00:00.400" producer="chain3">
   <property name="kdenlive:id">6</property>
  </entry>
  <blank length="00:00:00.160"/>
  <entry in="00:00:00.120" out="00:00:00.400" producer="chain3">
   <property name="kdenlive:id">6</property>
  </entry>
  <blank length="00:00:00.160"/>
  <entry in="00:00:00.120" out="00:00:00.400" producer="chain3">
   <property name="kdenlive:id">6</property>
  </entry>
  <blank length="00:00:00.160"/>
  <entry in="00:00:00.120" out="00:00:00.400" producer="chain3">
   <property name="kdenlive:id">6</property>
  </entry>
  <blank length="00:00:00.160"/>
  <entry in="00:00:00.120" out="00:00:00.400" producer="chain3">
   <property name="kdenlive:id">6</property>
  </entry>
  <blank length="00:00:00.160"/>
  <entry in="00:00:00.120" out="00:00:00.400" producer="chain3">
   <property name="kdenlive:id">6</property>
  </entry>
  <blank length="00:00:00.160"/>
  <entry in="00:00:00.120" out="00:00:00.400" producer="chain3">
   <property name="kdenlive:id">6</property>
  </entry>
  <blank length="00:00:00.240"/>
  <entry in="00:00:00.120" out="00:00:00.400" producer="chain3">
   <property name="kdenlive:id">6</property>
  </entry>
  <blank length="00:00:00.160"/>
  <entry in="00:00:00.120" out="00:00:00.400" producer="chain3">
   <property name="kdenlive:id">6</property>
  </entry>
  <blank length="00:00:00.160"/>
  <entry in="00:00:00.120" out="00:00:00.400" producer="chain3">
   <property name="kdenlive:id">6</property>
  </entry>
  <blank length="00:00:00.160"/>
  <entry in="00:00:00.120" out="00:00:00.400" producer="chain3">
   <property name="kdenlive:id">6</property>
  </entry>
  <blank length="00:00:00.160"/>
  <entry in="00:00:00.120" out="00:00:00.400" producer="chain3">
   <property name="kdenlive:id">6</property>
  </entry>
  <blank length="00:00:00.160"/>
  <entry in="00:00:00.120" out="00:00:00.400" producer="chain3">
   <property name="kdenlive:id">6</property>
  </entry>
  <blank length="00:00:00.160"/>
  <entry in="00:00:00.120" out="00:00:04.160" producer="chain3">
   <property name="kdenlive:id">6</property>
  </entry>
 </playlist>
 <playlist id="playlist7"/>
 <tractor id="tractor3" in="00:00:00.000" out="00:00:16.080">
  <property name="kdenlive:trackheight">69</property>
  <property name="kdenlive:timeline_active">1</property>
  <property name="kdenlive:collapsed">0</property>
  <property name="kdenlive:thumbs_format"/>
  <property name="kdenlive:audio_rec"/>
  <property name="kdenlive:locked_track"/>
  <track hide="both" producer="playlist6"/>
  <track hide="both" producer="playlist7"/>
 </tractor>
 <chain id="chain4" out="00:00:18.840">
  <property name="length">472</property>
  <property name="eof">pause</property>
  <property name="resource">/home/vir0id/Загрузки/GimpArtCraftFromLatvia/Blender/Projects/Turel/Render/eevee/video/sound/1592805149_weapons_artillery_heavy_distant_01.mp3</property>
  <property name="mlt_service">avformat-novalidate</property>
  <property name="seekable">1</property>
  <property name="format">3</property>
  <property name="audio_index">0</property>
  <property name="video_index">1</property>
  <property name="vstream">0</property>
  <property name="astream">0</property>
  <property name="kdenlive:folderid">2</property>
  <property name="kdenlive:id">6</property>
  <property name="mute_on_pause">0</property>
  <property name="kdenlive:clip_type">0</property>
  <property name="kdenlive:file_size">145787</property>
  <property name="kdenlive:file_hash">870e18bbd548754d52b6149acb60b225</property>
  <property name="kdenlive:audio_max0">220</property>
  <property name="meta.media.nb_streams">2</property>
  <property name="meta.media.0.stream.type">audio</property>
  <property name="meta.media.0.codec.sample_fmt">fltp</property>
  <property name="meta.media.0.codec.sample_rate">48000</property>
  <property name="meta.media.0.codec.channels">2</property>
  <property name="meta.media.0.codec.layout">stereo</property>
  <property name="meta.media.0.codec.name">mp3float</property>
  <property name="meta.media.0.codec.long_name">MP3 (MPEG audio layer 3)</property>
  <property name="meta.media.0.codec.bit_rate">56224</property>
  <property name="meta.attr.0.stream.encoder.markup">LAME3.98r</property>
  <property name="meta.media.1.stream.type">video</property>
  <property name="meta.media.1.stream.frame_rate">90000</property>
  <property name="meta.media.1.stream.sample_aspect_ratio">0</property>
  <property name="meta.media.1.codec.width">512</property>
  <property name="meta.media.1.codec.height">512</property>
  <property name="meta.media.1.codec.rotate">0</property>
  <property name="meta.media.1.codec.pix_fmt">yuvj420p</property>
  <property name="meta.media.1.codec.sample_aspect_ratio">1</property>
  <property name="meta.media.1.codec.colorspace">601</property>
  <property name="meta.media.1.codec.name">mjpeg</property>
  <property name="meta.media.1.codec.long_name">MJPEG (Motion JPEG)</property>
  <property name="meta.media.1.codec.bit_rate">0</property>
  <property name="meta.attr.1.stream.comment.markup">Cover (front)</property>
  <property name="meta.attr.comment.markup">Heavy impact of a artillery firing in the distance. Weapon, War, Fight, Shoot, Fire, Artillery, Hard, Distant.</property>
  <property name="meta.attr.genre.markup">Weapons</property>
  <property name="meta.attr.copyright.markup">2019 SmartSound FX www.smartsoundeffects.com</property>
  <property name="meta.attr.encoded_by.markup">Sound Grinder 3.5.7</property>
  <property name="meta.attr.artist.markup">SmartSound FX</property>
  <property name="meta.attr.TOAL.markup">www.smartsoundeffects.com</property>
  <property name="meta.attr.TORY.markup">2019</property>
  <property name="meta.attr.encoder.markup">Soundminer</property>
  <property name="meta.attr.title.markup">WEAPONS ARTILLERY Heavy Distant 01.wav</property>
  <property name="meta.attr.track.markup">0</property>
  <property name="meta.attr.date.markup">2019</property>
  <property name="meta.media.sample_aspect_num">72</property>
  <property name="meta.media.sample_aspect_den">72</property>
  <property name="meta.media.frame_rate_num">90000</property>
  <property name="meta.media.frame_rate_den">1</property>
  <property name="meta.media.colorspace">601</property>
  <property name="meta.media.color_trc">2</property>
  <property name="meta.media.has_b_frames">0</property>
  <property name="meta.media.width">512</property>
  <property name="meta.media.height">512</property>
  <property name="meta.media.aspect_ratio">1</property>
  <property name="meta.media.color_range">full</property>
  <property name="xml">was here</property>
  <property name="meta.media.top_field_first">0</property>
  <property name="meta.media.progressive">1</property>
  <property name="set.test_audio">1</property>
  <property name="set.test_image">0</property>
 </chain>
 <playlist id="playlist8">
  <blank length="00:00:02.200"/>
  <entry in="00:00:00.120" out="00:00:00.400" producer="chain4">
   <property name="kdenlive:id">6</property>
  </entry>
  <blank length="00:00:00.080"/>
  <entry in="00:00:00.120" out="00:00:00.400" producer="chain4">
   <property name="kdenlive:id">6</property>
  </entry>
  <blank length="00:00:00.160"/>
  <entry in="00:00:00.120" out="00:00:00.400" producer="chain4">
   <property name="kdenlive:id">6</property>
  </entry>
  <blank length="00:00:00.160"/>
  <entry in="00:00:00.120" out="00:00:00.400" producer="chain4">
   <property name="kdenlive:id">6</property>
  </entry>
  <blank length="00:00:00.160"/>
  <entry in="00:00:00.120" out="00:00:00.400" producer="chain4">
   <property name="kdenlive:id">6</property>
  </entry>
  <blank length="00:00:00.160"/>
  <entry in="00:00:00.120" out="00:00:00.400" producer="chain4">
   <property name="kdenlive:id">6</property>
  </entry>
  <blank length="00:00:00.160"/>
  <entry in="00:00:00.120" out="00:00:00.400" producer="chain4">
   <property name="kdenlive:id">6</property>
  </entry>
  <blank length="00:00:00.160"/>
  <entry in="00:00:00.120" out="00:00:00.400" producer="chain4">
   <property name="kdenlive:id">6</property>
  </entry>
  <blank length="00:00:00.160"/>
  <entry in="00:00:00.120" out="00:00:00.400" producer="chain4">
   <property name="kdenlive:id">6</property>
  </entry>
  <blank length="00:00:00.160"/>
  <entry in="00:00:00.120" out="00:00:00.400" producer="chain4">
   <property name="kdenlive:id">6</property>
  </entry>
  <blank length="00:00:00.160"/>
  <entry in="00:00:00.120" out="00:00:00.400" producer="chain4">
   <property name="kdenlive:id">6</property>
  </entry>
  <blank length="00:00:00.160"/>
  <entry in="00:00:00.120" out="00:00:00.400" producer="chain4">
   <property name="kdenlive:id">6</property>
  </entry>
  <blank length="00:00:00.160"/>
  <entry in="00:00:00.120" out="00:00:00.400" producer="chain4">
   <property name="kdenlive:id">6</property>
  </entry>
  <blank length="00:00:00.160"/>
  <entry in="00:00:00.120" out="00:00:00.400" producer="chain4">
   <property name="kdenlive:id">6</property>
  </entry>
  <blank length="00:00:00.240"/>
  <entry in="00:00:00.120" out="00:00:00.400" producer="chain4">
   <property name="kdenlive:id">6</property>
  </entry>
  <blank length="00:00:00.160"/>
  <entry in="00:00:00.120" out="00:00:00.400" producer="chain4">
   <property name="kdenlive:id">6</property>
  </entry>
  <blank length="00:00:00.160"/>
  <entry in="00:00:00.120" out="00:00:00.400" producer="chain4">
   <property name="kdenlive:id">6</property>
  </entry>
  <blank length="00:00:00.160"/>
  <entry in="00:00:00.120" out="00:00:00.400" producer="chain4">
   <property name="kdenlive:id">6</property>
  </entry>
  <blank length="00:00:00.160"/>
  <entry in="00:00:00.120" out="00:00:00.400" producer="chain4">
   <property name="kdenlive:id">6</property>
  </entry>
  <blank length="00:00:00.160"/>
  <entry in="00:00:00.120" out="00:00:00.400" producer="chain4">
   <property name="kdenlive:id">6</property>
  </entry>
  <blank length="00:00:00.160"/>
  <entry in="00:00:00.120" out="00:00:00.400" producer="chain4">
   <property name="kdenlive:id">6</property>
  </entry>
 </playlist>
 <playlist id="playlist9"/>
 <tractor id="tractor4" in="00:00:00.000" out="00:00:12.080">
  <property name="kdenlive:trackheight">69</property>
  <property name="kdenlive:timeline_active">1</property>
  <track hide="both" producer="playlist8"/>
  <track hide="both" producer="playlist9"/>
 </tractor>
 <chain id="chain5" out="00:00:10.000">
  <property name="length">251</property>
  <property name="eof">pause</property>
  <property name="resource">/home/vir0id/Загрузки/GimpArtCraftFromLatvia/Blender/Projects/Turel/Render/eevee/video/0000-0250.mp4</property>
  <property name="mlt_service">avformat-novalidate</property>
  <property name="seekable">1</property>
  <property name="format">3</property>
  <property name="audio_index">-1</property>
  <property name="video_index">0</property>
  <property name="vstream">0</property>
  <property name="kdenlive:folderid">2</property>
  <property name="kdenlive:id">4</property>
  <property name="mute_on_pause">0</property>
  <property name="kdenlive:clip_type">2</property>
  <property name="kdenlive:file_size">16610430</property>
  <property name="kdenlive:file_hash">55ce957fd1f9249be02361fb19583a4b</property>
  <property name="meta.media.nb_streams">1</property>
  <property name="meta.media.0.stream.type">video</property>
  <property name="meta.media.0.stream.frame_rate">25</property>
  <property name="meta.media.0.stream.sample_aspect_ratio">1</property>
  <property name="meta.media.0.codec.width">1920</property>
  <property name="meta.media.0.codec.height">1080</property>
  <property name="meta.media.0.codec.rotate">0</property>
  <property name="meta.media.0.codec.pix_fmt">yuv420p</property>
  <property name="meta.media.0.codec.sample_aspect_ratio">1</property>
  <property name="meta.media.0.codec.colorspace">709</property>
  <property name="meta.media.0.codec.name">h264</property>
  <property name="meta.media.0.codec.long_name">H.264 / AVC / MPEG-4 AVC / MPEG-4 part 10</property>
  <property name="meta.media.0.codec.bit_rate">13233637</property>
  <property name="meta.attr.0.stream.handler_name.markup">VideoHandler</property>
  <property name="meta.attr.0.stream.vendor_id.markup">[0][0][0][0]</property>
  <property name="meta.attr.major_brand.markup">isom</property>
  <property name="meta.attr.minor_version.markup">512</property>
  <property name="meta.attr.compatible_brands.markup">isomiso2avc1mp41</property>
  <property name="meta.attr.date.markup">2024/07/17 15:50:22</property>
  <property name="meta.attr.encoder.markup">Lavf61.1.100</property>
  <property name="meta.media.sample_aspect_num">1</property>
  <property name="meta.media.sample_aspect_den">1</property>
  <property name="meta.media.frame_rate_num">25</property>
  <property name="meta.media.frame_rate_den">1</property>
  <property name="meta.media.colorspace">709</property>
  <property name="meta.media.color_trc">2</property>
  <property name="meta.media.has_b_frames">0</property>
  <property name="meta.media.width">1920</property>
  <property name="meta.media.height">1080</property>
  <property name="meta.media.aspect_ratio">1</property>
  <property name="meta.media.color_range">mpeg</property>
  <property name="xml">was here</property>
  <property name="meta.media.top_field_first">0</property>
  <property name="meta.media.progressive">1</property>
  <property name="set.test_audio">1</property>
  <property name="set.test_image">0</property>
 </chain>
 <playlist id="playlist10">
  <blank length="00:00:02.160"/>
  <entry in="00:00:00.000" out="00:00:10.000" producer="chain5">
   <property name="kdenlive:id">4</property>
  </entry>
 </playlist>
 <playlist id="playlist11"/>
 <tractor id="tractor5" in="00:00:00.000" out="00:00:12.160">
  <property name="kdenlive:trackheight">69</property>
  <property name="kdenlive:timeline_active">1</property>
  <property name="kdenlive:collapsed">0</property>
  <property name="kdenlive:thumbs_format"/>
  <property name="kdenlive:audio_rec"/>
  <track hide="audio" producer="playlist10"/>
  <track hide="audio" producer="playlist11"/>
 </tractor>
 <tractor id="{c4496939-dda7-4839-95a6-2851c132dcca}" in="00:00:00.000" out="00:00:16.080">
  <property name="kdenlive:uuid">{c4496939-dda7-4839-95a6-2851c132dcca}</property>
  <property name="kdenlive:clipname">Последовательность 1</property>
  <property name="kdenlive:sequenceproperties.hasAudio">1</property>
  <property name="kdenlive:sequenceproperties.hasVideo">1</property>
  <property name="kdenlive:sequenceproperties.activeTrack">0</property>
  <property name="kdenlive:sequenceproperties.tracksCount">6</property>
  <property name="kdenlive:sequenceproperties.documentuuid">{c4496939-dda7-4839-95a6-2851c132dcca}</property>
  <property name="kdenlive:duration">00:00:16.120</property>
  <property name="kdenlive:maxduration">403</property>
  <property name="kdenlive:producer_type">17</property>
  <property name="kdenlive:id">3</property>
  <property name="kdenlive:clip_type">0</property>
  <property name="kdenlive:file_hash">dd9285a7cd2772dd7bdd949f4c75a4cc</property>
  <property name="kdenlive:folderid">2</property>
  <property name="kdenlive:monitorPosition">0</property>
  <property name="kdenlive:sequenceproperties.audioTarget">1</property>
  <property name="kdenlive:sequenceproperties.disablepreview">0</property>
  <property name="kdenlive:sequenceproperties.position">0</property>
  <property name="kdenlive:sequenceproperties.scrollPos">0</property>
  <property name="kdenlive:sequenceproperties.tracks">4</property>
  <property name="kdenlive:sequenceproperties.verticalzoom">1</property>
  <property name="kdenlive:sequenceproperties.videoTarget">2</property>
  <property name="kdenlive:sequenceproperties.zonein">0</property>
  <property name="kdenlive:sequenceproperties.zoneout">403</property>
  <property name="kdenlive:sequenceproperties.zoom">2</property>
  <property name="kdenlive:sequenceproperties.groups">[
    {
        "children": [
            {
                "data": "4:55",
                "leaf": "clip",
                "type": "Leaf"
            },
            {
                "data": "1:55",
                "leaf": "clip",
                "type": "Leaf"
            }
        ],
        "type": "AVSplit"
    },
    {
        "children": [
            {
                "data": "4:137",
                "leaf": "clip",
                "type": "Leaf"
            },
            {
                "data": "1:137",
                "leaf": "clip",
                "type": "Leaf"
            }
        ],
        "type": "AVSplit"
    },
    {
        "children": [
            {
                "data": "3:59",
                "leaf": "clip",
                "type": "Leaf"
            },
            {
                "data": "2:59",
                "leaf": "clip",
                "type": "Leaf"
            }
        ],
        "type": "AVSplit"
    },
    {
        "children": [
            {
                "data": "3:241",
                "leaf": "clip",
                "type": "Leaf"
            },
            {
                "data": "2:241",
                "leaf": "clip",
                "type": "Leaf"
            }
        ],
        "type": "AVSplit"
    },
    {
        "children": [
            {
                "data": "4:65",
                "leaf": "clip",
                "type": "Leaf"
            },
            {
                "data": "1:65",
                "leaf": "clip",
                "type": "Leaf"
            }
        ],
        "type": "AVSplit"
    },
    {
        "children": [
            {
                "data": "3:71",
                "leaf": "clip",
                "type": "Leaf"
            },
            {
                "data": "2:71",
                "leaf": "clip",
                "type": "Leaf"
            }
        ],
        "type": "AVSplit"
    },
    {
        "children": [
            {
                "data": "3:155",
                "leaf": "clip",
                "type": "Leaf"
            },
            {
                "data": "2:155",
                "leaf": "clip",
                "type": "Leaf"
            }
        ],
        "type": "AVSplit"
    },
    {
        "children": [
            {
                "data": "4:89",
                "leaf": "clip",
                "type": "Leaf"
            },
            {
                "data": "1:89",
                "leaf": "clip",
                "type": "Leaf"
            }
        ],
        "type": "AVSplit"
    },
    {
        "children": [
            {
                "data": "3:179",
                "leaf": "clip",
                "type": "Leaf"
            },
            {
                "data": "2:179",
                "leaf": "clip",
                "type": "Leaf"
            }
        ],
        "type": "AVSplit"
    },
    {
        "children": [
            {
                "data": "4:77",
                "leaf": "clip",
                "type": "Leaf"
            },
            {
                "data": "1:77",
                "leaf": "clip",
                "type": "Leaf"
            }
        ],
        "type": "AVSplit"
    },
    {
        "children": [
            {
                "data": "3:95",
                "leaf": "clip",
                "type": "Leaf"
            },
            {
                "data": "2:95",
                "leaf": "clip",
                "type": "Leaf"
            }
        ],
        "type": "AVSplit"
    },
    {
        "children": [
            {
                "data": "4:283",
                "leaf": "clip",
                "type": "Leaf"
            },
            {
                "data": "1:283",
                "leaf": "clip",
                "type": "Leaf"
            }
        ],
        "type": "AVSplit"
    },
    {
        "children": [
            {
                "data": "3:83",
                "leaf": "clip",
                "type": "Leaf"
            },
            {
                "data": "2:83",
                "leaf": "clip",
                "type": "Leaf"
            }
        ],
        "type": "AVSplit"
    },
    {
        "children": [
            {
                "data": "3:289",
                "leaf": "clip",
                "type": "Leaf"
            },
            {
                "data": "2:289",
                "leaf": "clip",
                "type": "Leaf"
            }
        ],
        "type": "AVSplit"
    },
    {
        "children": [
            {
                "data": "4:209",
                "leaf": "clip",
                "type": "Leaf"
            },
            {
                "data": "1:209",
                "leaf": "clip",
                "type": "Leaf"
            }
        ],
        "type": "AVSplit"
    },
    {
        "children": [
            {
                "data": "4:235",
                "leaf": "clip",
                "type": "Leaf"
            },
            {
                "data": "1:235",
                "leaf": "clip",
                "type": "Leaf"
            }
        ],
        "type": "AVSplit"
    },
    {
        "children": [
            {
                "data": "4:223",
                "leaf": "clip",
                "type": "Leaf"
            },
            {
                "data": "1:223",
                "leaf": "clip",
                "type": "Leaf"
            }
        ],
        "type": "AVSplit"
    },
    {
        "children": [
            {
                "data": "4:247",
                "leaf": "clip",
                "type": "Leaf"
            },
            {
                "data": "1:247",
                "leaf": "clip",
                "type": "Leaf"
            }
        ],
        "type": "AVSplit"
    },
    {
        "children": [
            {
                "data": "3:301",
                "leaf": "clip",
                "type": "Leaf"
            },
            {
                "data": "2:301",
                "leaf": "clip",
                "type": "Leaf"
            }
        ],
        "type": "AVSplit"
    },
    {
        "children": [
            {
                "data": "3:215",
                "leaf": "clip",
                "type": "Leaf"
            },
            {
                "data": "2:215",
                "leaf": "clip",
                "type": "Leaf"
            }
        ],
        "type": "AVSplit"
    },
    {
        "children": [
            {
                "data": "4:161",
                "leaf": "clip",
                "type": "Leaf"
            },
            {
                "data": "1:161",
                "leaf": "clip",
                "type": "Leaf"
            }
        ],
        "type": "AVSplit"
    },
    {
        "children": [
            {
                "data": "4:259",
                "leaf": "clip",
                "type": "Leaf"
            },
            {
                "data": "1:259",
                "leaf": "clip",
                "type": "Leaf"
            }
        ],
        "type": "AVSplit"
    },
    {
        "children": [
            {
                "data": "3:265",
                "leaf": "clip",
                "type": "Leaf"
            },
            {
                "data": "2:265",
                "leaf": "clip",
                "type": "Leaf"
            }
        ],
        "type": "AVSplit"
    },
    {
        "children": [
            {
                "data": "3:229",
                "leaf": "clip",
                "type": "Leaf"
            },
            {
                "data": "2:229",
                "leaf": "clip",
                "type": "Leaf"
            }
        ],
        "type": "AVSplit"
    },
    {
        "children": [
            {
                "data": "4:173",
                "leaf": "clip",
                "type": "Leaf"
            },
            {
                "data": "1:173",
                "leaf": "clip",
                "type": "Leaf"
            }
        ],
        "type": "AVSplit"
    },
    {
        "children": [
            {
                "data": "4:125",
                "leaf": "clip",
                "type": "Leaf"
            },
            {
                "data": "1:125",
                "leaf": "clip",
                "type": "Leaf"
            }
        ],
        "type": "AVSplit"
    },
    {
        "children": [
            {
                "data": "3:253",
                "leaf": "clip",
                "type": "Leaf"
            },
            {
                "data": "2:253",
                "leaf": "clip",
                "type": "Leaf"
            }
        ],
        "type": "AVSplit"
    },
    {
        "children": [
            {
                "data": "4:271",
                "leaf": "clip",
                "type": "Leaf"
            },
            {
                "data": "1:271",
                "leaf": "clip",
                "type": "Leaf"
            }
        ],
        "type": "AVSplit"
    },
    {
        "children": [
            {
                "data": "3:277",
                "leaf": "clip",
                "type": "Leaf"
            },
            {
                "data": "2:277",
                "leaf": "clip",
                "type": "Leaf"
            }
        ],
        "type": "AVSplit"
    },
    {
        "children": [
            {
                "data": "4:295",
                "leaf": "clip",
                "type": "Leaf"
            },
            {
                "data": "1:295",
                "leaf": "clip",
                "type": "Leaf"
            }
        ],
        "type": "AVSplit"
    },
    {
        "children": [
            {
                "data": "3:191",
                "leaf": "clip",
                "type": "Leaf"
            },
            {
                "data": "2:191",
                "leaf": "clip",
                "type": "Leaf"
            }
        ],
        "type": "AVSplit"
    },
    {
        "children": [
            {
                "data": "3:143",
                "leaf": "clip",
                "type": "Leaf"
            },
            {
                "data": "2:143",
                "leaf": "clip",
                "type": "Leaf"
            }
        ],
        "type": "AVSplit"
    },
    {
        "children": [
            {
                "data": "4:185",
                "leaf": "clip",
                "type": "Leaf"
            },
            {
                "data": "1:185",
                "leaf": "clip",
                "type": "Leaf"
            }
        ],
        "type": "AVSplit"
    },
    {
        "children": [
            {
                "data": "3:167",
                "leaf": "clip",
                "type": "Leaf"
            },
            {
                "data": "2:167",
                "leaf": "clip",
                "type": "Leaf"
            }
        ],
        "type": "AVSplit"
    },
    {
        "children": [
            {
                "data": "3:119",
                "leaf": "clip",
                "type": "Leaf"
            },
            {
                "data": "2:119",
                "leaf": "clip",
                "type": "Leaf"
            }
        ],
        "type": "AVSplit"
    },
    {
        "children": [
            {
                "data": "4:149",
                "leaf": "clip",
                "type": "Leaf"
            },
            {
                "data": "1:149",
                "leaf": "clip",
                "type": "Leaf"
            }
        ],
        "type": "AVSplit"
    },
    {
        "children": [
            {
                "data": "3:131",
                "leaf": "clip",
                "type": "Leaf"
            },
            {
                "data": "2:131",
                "leaf": "clip",
                "type": "Leaf"
            }
        ],
        "type": "AVSplit"
    },
    {
        "children": [
            {
                "data": "4:113",
                "leaf": "clip",
                "type": "Leaf"
            },
            {
                "data": "1:113",
                "leaf": "clip",
                "type": "Leaf"
            }
        ],
        "type": "AVSplit"
    },
    {
        "children": [
            {
                "data": "0:0",
                "leaf": "clip",
                "type": "Leaf"
            },
            {
                "children": [
                    {
                        "data": "4:77",
                        "leaf": "clip",
                        "type": "Leaf"
                    },
                    {
                        "data": "1:77",
                        "leaf": "clip",
                        "type": "Leaf"
                    }
                ],
                "type": "AVSplit"
            }
        ],
        "type": "Selection"
    },
    {
        "children": [
            {
                "data": "3:203",
                "leaf": "clip",
                "type": "Leaf"
            },
            {
                "data": "2:203",
                "leaf": "clip",
                "type": "Leaf"
            }
        ],
        "type": "AVSplit"
    },
    {
        "children": [
            {
                "data": "3:107",
                "leaf": "clip",
                "type": "Leaf"
            },
            {
                "data": "2:107",
                "leaf": "clip",
                "type": "Leaf"
            }
        ],
        "type": "AVSplit"
    },
    {
        "children": [
            {
                "data": "4:101",
                "leaf": "clip",
                "type": "Leaf"
            },
            {
                "data": "1:101",
                "leaf": "clip",
                "type": "Leaf"
            }
        ],
        "type": "AVSplit"
    },
    {
        "children": [
            {
                "data": "4:197",
                "leaf": "clip",
                "type": "Leaf"
            },
            {
                "data": "1:197",
                "leaf": "clip",
                "type": "Leaf"
            }
        ],
        "type": "AVSplit"
    }
]
</property>
  <property name="kdenlive:sequenceproperties.guides">[
]
</property>
  <track producer="producer0"/>
  <track producer="tractor0"/>
  <track producer="tractor1"/>
  <track producer="tractor2"/>
  <track producer="tractor3"/>
  <track producer="tractor4"/>
  <track producer="tractor5"/>
  <transition id="transition0">
   <property name="a_track">0</property>
   <property name="b_track">1</property>
   <property name="mlt_service">mix</property>
   <property name="kdenlive_id">mix</property>
   <property name="internal_added">237</property>
   <property name="always_active">1</property>
   <property name="accepts_blanks">1</property>
   <property name="sum">1</property>
  </transition>
  <transition id="transition1">
   <property name="a_track">0</property>
   <property name="b_track">2</property>
   <property name="mlt_service">mix</property>
   <property name="kdenlive_id">mix</property>
   <property name="internal_added">237</property>
   <property name="always_active">1</property>
   <property name="accepts_blanks">1</property>
   <property name="sum">1</property>
  </transition>
  <transition id="transition2">
   <property name="a_track">0</property>
   <property name="b_track">3</property>
   <property name="mlt_service">mix</property>
   <property name="kdenlive_id">mix</property>
   <property name="internal_added">237</property>
   <property name="always_active">1</property>
   <property name="accepts_blanks">1</property>
   <property name="sum">1</property>
  </transition>
  <transition id="transition3">
   <property name="a_track">0</property>
   <property name="b_track">4</property>
   <property name="version">0.1</property>
   <property name="mlt_service">frei0r.cairoblend</property>
   <property name="kdenlive_id">frei0r.cairoblend</property>
   <property name="internal_added">237</property>
   <property name="always_active">1</property>
  </transition>
  <transition id="transition4">
   <property name="a_track">0</property>
   <property name="b_track">5</property>
   <property name="version">0.1</property>
   <property name="mlt_service">frei0r.cairoblend</property>
   <property name="kdenlive_id">frei0r.cairoblend</property>
   <property name="internal_added">237</property>
   <property name="always_active">1</property>
  </transition>
  <transition id="transition5">
   <property name="a_track">0</property>
   <property name="b_track">6</property>
   <property name="version">0.1</property>
   <property name="mlt_service">frei0r.cairoblend</property>
   <property name="kdenlive_id">frei0r.cairoblend</property>
   <property name="internal_added">237</property>
   <property name="always_active">1</property>
  </transition>
  <filter id="filter54">
   <property name="window">75</property>
   <property name="max_gain">20dB</property>
   <property name="mlt_service">volume</property>
   <property name="internal_added">237</property>
   <property name="disable">1</property>
  </filter>
  <filter id="filter55">
   <property name="channel">-1</property>
   <property name="mlt_service">panner</property>
   <property name="internal_added">237</property>
   <property name="start">0.5</property>
   <property name="disable">1</property>
  </filter>
 </tractor>
 <chain id="chain6" out="00:00:10.000">
  <property name="length">251</property>
  <property name="eof">pause</property>
  <property name="resource">/home/vir0id/Загрузки/GimpArtCraftFromLatvia/Blender/Projects/Turel/Render/eevee/video/0000-0250.mp4</property>
  <property name="mlt_service">avformat-novalidate</property>
  <property name="meta.media.nb_streams">1</property>
  <property name="meta.media.0.stream.type">video</property>
  <property name="meta.media.0.stream.frame_rate">25</property>
  <property name="meta.media.0.stream.sample_aspect_ratio">1</property>
  <property name="meta.media.0.codec.width">1920</property>
  <property name="meta.media.0.codec.height">1080</property>
  <property name="meta.media.0.codec.rotate">0</property>
  <property name="meta.media.0.codec.pix_fmt">yuv420p</property>
  <property name="meta.media.0.codec.sample_aspect_ratio">1</property>
  <property name="meta.media.0.codec.colorspace">709</property>
  <property name="meta.media.0.codec.name">h264</property>
  <property name="meta.media.0.codec.long_name">H.264 / AVC / MPEG-4 AVC / MPEG-4 part 10</property>
  <property name="meta.media.0.codec.bit_rate">13233637</property>
  <property name="meta.attr.0.stream.handler_name.markup">VideoHandler</property>
  <property name="meta.attr.0.stream.vendor_id.markup">[0][0][0][0]</property>
  <property name="meta.attr.major_brand.markup">isom</property>
  <property name="meta.attr.minor_version.markup">512</property>
  <property name="meta.attr.compatible_brands.markup">isomiso2avc1mp41</property>
  <property name="meta.attr.date.markup">2024/07/17 15:50:22</property>
  <property name="meta.attr.encoder.markup">Lavf61.1.100</property>
  <property name="seekable">1</property>
  <property name="meta.media.sample_aspect_num">1</property>
  <property name="meta.media.sample_aspect_den">1</property>
  <property name="format">3</property>
  <property name="audio_index">-1</property>
  <property name="video_index">0</property>
  <property name="vstream">0</property>
  <property name="meta.media.frame_rate_num">25</property>
  <property name="meta.media.frame_rate_den">1</property>
  <property name="meta.media.colorspace">709</property>
  <property name="meta.media.color_trc">2</property>
  <property name="meta.media.has_b_frames">0</property>
  <property name="meta.media.width">1920</property>
  <property name="meta.media.height">1080</property>
  <property name="meta.media.aspect_ratio">1</property>
  <property name="meta.media.color_range">mpeg</property>
  <property name="meta.media.top_field_first">0</property>
  <property name="meta.media.progressive">1</property>
  <property name="kdenlive:folderid">2</property>
  <property name="kdenlive:id">4</property>
  <property name="mute_on_pause">0</property>
  <property name="kdenlive:clip_type">2</property>
  <property name="kdenlive:file_size">16610430</property>
  <property name="kdenlive:file_hash">55ce957fd1f9249be02361fb19583a4b</property>
  <property name="kdenlive:monitorPosition">0</property>
 </chain>
 <chain id="chain7" out="00:00:11.600">
  <property name="length">291</property>
  <property name="eof">pause</property>
  <property name="resource">/home/vir0id/Загрузки/GimpArtCraftFromLatvia/Blender/Projects/Turel/Render/eevee/video/sound/weapons_artillery_light_close_01.mp3</property>
  <property name="mlt_service">avformat-novalidate</property>
  <property name="meta.media.nb_streams">2</property>
  <property name="meta.media.0.stream.type">audio</property>
  <property name="meta.media.0.codec.sample_fmt">fltp</property>
  <property name="meta.media.0.codec.sample_rate">48000</property>
  <property name="meta.media.0.codec.channels">2</property>
  <property name="meta.media.0.codec.layout">stereo</property>
  <property name="meta.media.0.codec.name">mp3float</property>
  <property name="meta.media.0.codec.long_name">MP3 (MPEG audio layer 3)</property>
  <property name="meta.media.0.codec.bit_rate">56049</property>
  <property name="meta.attr.0.stream.encoder.markup">LAME3.98r</property>
  <property name="meta.media.1.stream.type">video</property>
  <property name="meta.media.1.stream.frame_rate">90000</property>
  <property name="meta.media.1.stream.sample_aspect_ratio">0</property>
  <property name="meta.media.1.codec.width">512</property>
  <property name="meta.media.1.codec.height">512</property>
  <property name="meta.media.1.codec.rotate">0</property>
  <property name="meta.media.1.codec.pix_fmt">yuvj420p</property>
  <property name="meta.media.1.codec.sample_aspect_ratio">1</property>
  <property name="meta.media.1.codec.colorspace">601</property>
  <property name="meta.media.1.codec.name">mjpeg</property>
  <property name="meta.media.1.codec.long_name">MJPEG (Motion JPEG)</property>
  <property name="meta.media.1.codec.bit_rate">0</property>
  <property name="meta.attr.1.stream.comment.markup">Cover (front)</property>
  <property name="meta.attr.comment.markup">Light impact of a artillery firing, close. Weapon, War, Fight, Shoot, Fire, Artillery, Light, Close.</property>
  <property name="meta.attr.genre.markup">Weapons</property>
  <property name="meta.attr.copyright.markup">2019 SmartSound FX www.smartsoundeffects.com</property>
  <property name="meta.attr.encoded_by.markup">Sound Grinder 3.5.7</property>
  <property name="meta.attr.artist.markup">SmartSound FX</property>
  <property name="meta.attr.TOAL.markup">www.smartsoundeffects.com</property>
  <property name="meta.attr.TORY.markup">2019</property>
  <property name="meta.attr.encoder.markup">Soundminer</property>
  <property name="meta.attr.title.markup">WEAPONS ARTILLERY Light Close 01.wav</property>
  <property name="meta.attr.track.markup">0</property>
  <property name="meta.attr.date.markup">2019</property>
  <property name="seekable">1</property>
  <property name="meta.media.sample_aspect_num">72</property>
  <property name="meta.media.sample_aspect_den">72</property>
  <property name="format">3</property>
  <property name="audio_index">0</property>
  <property name="video_index">1</property>
  <property name="vstream">0</property>
  <property name="meta.media.frame_rate_num">90000</property>
  <property name="meta.media.frame_rate_den">1</property>
  <property name="meta.media.colorspace">601</property>
  <property name="meta.media.color_trc">2</property>
  <property name="meta.media.has_b_frames">0</property>
  <property name="meta.media.width">512</property>
  <property name="meta.media.height">512</property>
  <property name="meta.media.aspect_ratio">1</property>
  <property name="meta.media.color_range">full</property>
  <property name="astream">0</property>
  <property name="meta.media.top_field_first">0</property>
  <property name="meta.media.progressive">1</property>
  <property name="kdenlive:folderid">2</property>
  <property name="kdenlive:id">5</property>
  <property name="mute_on_pause">0</property>
  <property name="kdenlive:clip_type">0</property>
  <property name="kdenlive:file_size">94583</property>
  <property name="kdenlive:file_hash">c18bcf0f3cf8c16dad9476110b354193</property>
  <property name="kdenlive:audio_max0">216</property>
  <property name="kdenlive:monitorPosition">79</property>
 </chain>
 <chain id="chain8" out="00:00:18.840">
  <property name="length">472</property>
  <property name="eof">pause</property>
  <property name="resource">/home/vir0id/Загрузки/GimpArtCraftFromLatvia/Blender/Projects/Turel/Render/eevee/video/sound/1592805149_weapons_artillery_heavy_distant_01.mp3</property>
  <property name="mlt_service">avformat-novalidate</property>
  <property name="meta.media.nb_streams">2</property>
  <property name="meta.media.0.stream.type">audio</property>
  <property name="meta.media.0.codec.sample_fmt">fltp</property>
  <property name="meta.media.0.codec.sample_rate">48000</property>
  <property name="meta.media.0.codec.channels">2</property>
  <property name="meta.media.0.codec.layout">stereo</property>
  <property name="meta.media.0.codec.name">mp3float</property>
  <property name="meta.media.0.codec.long_name">MP3 (MPEG audio layer 3)</property>
  <property name="meta.media.0.codec.bit_rate">56224</property>
  <property name="meta.attr.0.stream.encoder.markup">LAME3.98r</property>
  <property name="meta.media.1.stream.type">video</property>
  <property name="meta.media.1.stream.frame_rate">90000</property>
  <property name="meta.media.1.stream.sample_aspect_ratio">0</property>
  <property name="meta.media.1.codec.width">512</property>
  <property name="meta.media.1.codec.height">512</property>
  <property name="meta.media.1.codec.rotate">0</property>
  <property name="meta.media.1.codec.pix_fmt">yuvj420p</property>
  <property name="meta.media.1.codec.sample_aspect_ratio">1</property>
  <property name="meta.media.1.codec.colorspace">601</property>
  <property name="meta.media.1.codec.name">mjpeg</property>
  <property name="meta.media.1.codec.long_name">MJPEG (Motion JPEG)</property>
  <property name="meta.media.1.codec.bit_rate">0</property>
  <property name="meta.attr.1.stream.comment.markup">Cover (front)</property>
  <property name="meta.attr.comment.markup">Heavy impact of a artillery firing in the distance. Weapon, War, Fight, Shoot, Fire, Artillery, Hard, Distant.</property>
  <property name="meta.attr.genre.markup">Weapons</property>
  <property name="meta.attr.copyright.markup">2019 SmartSound FX www.smartsoundeffects.com</property>
  <property name="meta.attr.encoded_by.markup">Sound Grinder 3.5.7</property>
  <property name="meta.attr.artist.markup">SmartSound FX</property>
  <property name="meta.attr.TOAL.markup">www.smartsoundeffects.com</property>
  <property name="meta.attr.TORY.markup">2019</property>
  <property name="meta.attr.encoder.markup">Soundminer</property>
  <property name="meta.attr.title.markup">WEAPONS ARTILLERY Heavy Distant 01.wav</property>
  <property name="meta.attr.track.markup">0</property>
  <property name="meta.attr.date.markup">2019</property>
  <property name="seekable">1</property>
  <property name="meta.media.sample_aspect_num">72</property>
  <property name="meta.media.sample_aspect_den">72</property>
  <property name="format">3</property>
  <property name="audio_index">0</property>
  <property name="video_index">1</property>
  <property name="vstream">0</property>
  <property name="meta.media.frame_rate_num">90000</property>
  <property name="meta.media.frame_rate_den">1</property>
  <property name="meta.media.colorspace">601</property>
  <property name="meta.media.color_trc">2</property>
  <property name="meta.media.has_b_frames">0</property>
  <property name="meta.media.width">512</property>
  <property name="meta.media.height">512</property>
  <property name="meta.media.aspect_ratio">1</property>
  <property name="meta.media.color_range">full</property>
  <property name="astream">0</property>
  <property name="meta.media.top_field_first">0</property>
  <property name="meta.media.progressive">1</property>
  <property name="kdenlive:folderid">2</property>
  <property name="kdenlive:id">6</property>
  <property name="mute_on_pause">0</property>
  <property name="kdenlive:clip_type">0</property>
  <property name="kdenlive:file_size">145787</property>
  <property name="kdenlive:file_hash">870e18bbd548754d52b6149acb60b225</property>
  <property name="kdenlive:audio_max0">220</property>
  <property name="kdenlive:monitorPosition">0</property>
 </chain>
 <chain id="chain9" out="00:04:13.000">
  <property name="length">6326</property>
  <property name="eof">pause</property>
  <property name="resource">/home/vir0id/Загрузки/GimpArtCraftFromLatvia/Blender/Projects/Turel/Render/eevee/video/sound/3D Stas - Deep Scars (feat. The Qemists).mp3</property>
  <property name="mlt_service">avformat</property>
  <property name="meta.media.nb_streams">1</property>
  <property name="meta.media.0.stream.type">audio</property>
  <property name="meta.media.0.codec.sample_fmt">fltp</property>
  <property name="meta.media.0.codec.sample_rate">48000</property>
  <property name="meta.media.0.codec.channels">2</property>
  <property name="meta.media.0.codec.layout">stereo</property>
  <property name="meta.media.0.codec.name">mp3float</property>
  <property name="meta.media.0.codec.long_name">MP3 (MPEG audio layer 3)</property>
  <property name="meta.media.0.codec.bit_rate">277571</property>
  <property name="meta.attr.0.stream.encoder.markup">Lavc61.3.</property>
  <property name="meta.attr.encoder.markup">Lavf61.1.100</property>
  <property name="seekable">1</property>
  <property name="audio_index">0</property>
  <property name="video_index">-1</property>
  <property name="astream">0</property>
  <property name="kdenlive:folderid">2</property>
  <property name="kdenlive:id">7</property>
  <property name="kdenlive:clip_type">1</property>
  <property name="kdenlive:file_size">8779340</property>
  <property name="kdenlive:file_hash">ac4db71de43354198d07053694da91b1</property>
  <property name="kdenlive:audio_max0">254</property>
 </chain>
 <playlist id="main_bin">
  <property name="kdenlive:folder.-1.2">Последовательности</property>
  <property name="kdenlive:sequenceFolder">2</property>
  <property name="kdenlive:docproperties.audioChannels">2</property>
  <property name="kdenlive:docproperties.binsort">0</property>
  <property name="kdenlive:docproperties.browserurl">/home/vir0id/Музыка/</property>
  <property name="kdenlive:docproperties.documentid">1721220709967</property>
  <property name="kdenlive:docproperties.enableTimelineZone">1</property>
  <property name="kdenlive:docproperties.enableexternalproxy">0</property>
  <property name="kdenlive:docproperties.enableproxy">0</property>
  <property name="kdenlive:docproperties.externalproxyparams"/>
  <property name="kdenlive:docproperties.generateimageproxy">0</property>
  <property name="kdenlive:docproperties.generateproxy">0</property>
  <property name="kdenlive:docproperties.guidesCategories">[
    {
        "color": "#9b59b6",
        "comment": "Категория 1",
        "index": 0
    },
    {
        "color": "#3daee9",
        "comment": "Категория 2",
        "index": 1
    },
    {
        "color": "#1abc9c",
        "comment": "Категория 3",
        "index": 2
    },
    {
        "color": "#1cdc9a",
        "comment": "Категория 4",
        "index": 3
    },
    {
        "color": "#c9ce3b",
        "comment": "Категория 5",
        "index": 4
    },
    {
        "color": "#fdbc4b",
        "comment": "Категория 6",
        "index": 5
    },
    {
        "color": "#f39c1f",
        "comment": "Категория 7",
        "index": 6
    },
    {
        "color": "#f47750",
        "comment": "Категория 8",
        "index": 7
    },
    {
        "color": "#da4453",
        "comment": "Категория 9",
        "index": 8
    }
]
</property>
  <property name="kdenlive:docproperties.kdenliveversion">24.05.2</property>
  <property name="kdenlive:docproperties.previewextension"/>
  <property name="kdenlive:docproperties.previewparameters"/>
  <property name="kdenlive:docproperties.profile">atsc_1080p_25</property>
  <property name="kdenlive:docproperties.proxyextension"/>
  <property name="kdenlive:docproperties.proxyimageminsize">2000</property>
  <property name="kdenlive:docproperties.proxyimagesize">800</property>
  <property name="kdenlive:docproperties.proxyminsize">1000</property>
  <property name="kdenlive:docproperties.proxyparams"/>
  <property name="kdenlive:docproperties.proxyresize">640</property>
  <property name="kdenlive:docproperties.seekOffset">30000</property>
  <property name="kdenlive:docproperties.uuid">{c4496939-dda7-4839-95a6-2851c132dcca}</property>
  <property name="kdenlive:docproperties.version">1.1</property>
  <property name="kdenlive:expandedFolders">2</property>
  <property name="kdenlive:binZoom">4</property>
  <property name="kdenlive:extraBins">project_bin:-1:0</property>
  <property name="kdenlive:documentnotes"/>
  <property name="kdenlive:docproperties.opensequences">{c4496939-dda7-4839-95a6-2851c132dcca}</property>
  <property name="kdenlive:docproperties.activetimeline">{c4496939-dda7-4839-95a6-2851c132dcca}</property>
  <property name="xml_retain">1</property>
  <entry in="00:00:00.000" out="00:00:00.000" producer="{c4496939-dda7-4839-95a6-2851c132dcca}"/>
  <entry in="00:00:00.000" out="00:00:10.000" producer="chain6"/>
  <entry in="00:00:00.000" out="00:00:11.600" producer="chain7"/>
  <entry in="00:00:00.000" out="00:00:18.840" producer="chain8"/>
  <entry in="00:00:00.000" out="00:04:13.000" producer="chain9"/>
 </playlist>
 <tractor id="tractor6" in="00:00:00.000" out="00:00:16.080">
  <property name="kdenlive:projectTractor">1</property>
  <track in="00:00:00.000" out="00:00:16.080" producer="{c4496939-dda7-4839-95a6-2851c132dcca}"/>
 </tractor>
</mlt>
