<?xml version="1.0" encoding="UTF-8" standalone="no"?>
<svg
   viewBox="0 0 22 22"
   version="1.1"
   id="svg1"
   sodipodi:docname="compass.svg"
   inkscape:version="1.3.2 (091e20ef0f, 2023-11-25)"
   width="22"
   height="22"
   xmlns:inkscape="http://www.inkscape.org/namespaces/inkscape"
   xmlns:sodipodi="http://sodipodi.sourceforge.net/DTD/sodipodi-0.dtd"
   xmlns="http://www.w3.org/2000/svg"
   xmlns:svg="http://www.w3.org/2000/svg">
  <sodipodi:namedview
     id="namedview1"
     pagecolor="#ffffff"
     bordercolor="#999999"
     borderopacity="1"
     inkscape:showpageshadow="2"
     inkscape:pageopacity="0"
     inkscape:pagecheckerboard="0"
     inkscape:deskcolor="#d1d1d1"
     inkscape:zoom="11.90625"
     inkscape:cx="10.666667"
     inkscape:cy="17.301837"
     inkscape:window-width="1920"
     inkscape:window-height="994"
     inkscape:window-x="0"
     inkscape:window-y="0"
     inkscape:window-maximized="1"
     inkscape:current-layer="svg1" />
  <defs
     id="defs3051">
    <style
       type="text/css"
       id="current-color-scheme">
            .ColorScheme-Text {
                color:#fcfcfc;
            }
        </style>
  </defs>
  <path
     style="clip-rule:evenodd;fill:#ffffc1;fill-opacity:0;fill-rule:evenodd;stroke-width:0.688964;stroke-linejoin:round;stroke-miterlimit:1.41421"
     d="M 0,0 V 22 H 22 V 0 Z"
     id="rect817-5"
     inkscape:connector-curvature="0" />
  <path
     d="m 11.01366,16.848373 a 0.51520953,0.51520951 0 0 0 0.408796,-0.294759 l 2.912343,-5.82464 A 3.8819623,3.8819622 0 0 0 14.03366,6.6954011 3.7998484,3.7998482 0 0 0 7.5766226,10.650113 l 2.9662594,5.932212 a 0.48136885,0.48136884 0 0 0 0.470778,0.266048 z M 8.9075377,8.862296 A 2.0678978,2.0678977 0 1 1 10.975435,10.930197 2.070219,2.0702189 0 0 1 8.9075377,8.862296 Z"
     id="path6-6"
     style="color:#d1d5e9;fill:#e5e9ef;fill-opacity:1;stroke-width:0.199991"
     class="ColorScheme-Text" />
  <path
     style="color:#d1d5e9;fill:#e5e9ef;fill-opacity:1;stroke-width:1.25"
     d="M 11,2 C 6.0230005,2 2,6.0230005 2,10.999999 2,15.977 6.0230005,20 11,20 15.977,20 20,15.977 20,10.999999 20,6.0230005 15.977,2 11,2 Z m 0,1.125 c 4.353741,0 7.875,3.5212525 7.875,7.874999 C 18.875,15.353741 15.353741,18.875 11,18.875 6.6462385,18.875 3.125,15.353741 3.125,10.999999 3.125,6.6462525 6.6462385,3.125 11,3.125 Z m 0.843744,6.4338767 v 0 0 0 0 0 c 0,0 -0.03821,0.0089 0,0 z m -0.878619,5.0624953 z"
     id="path58-3"
     sodipodi:nodetypes="ssssssssssccccccccccccccccc"
     class="ColorScheme-Text" />
</svg>
